<svg xmlns="http://www.w3.org/2000/svg" xmlns:xlink="http://www.w3.org/1999/xlink" width="122" height="66"
     viewBox="0 0 122 66">
    <defs>
        <clipPath id="clip-path">
            <path id="Rectangle_6704" d="M7,0H115a7,7,0,0,1,7,7V66a0,0,0,0,1,0,0H0a0,0,0,0,1,0,0V7A7,7,0,0,1,7,0Z"
                  transform="translate(318 754.845)" fill="#e29e71"/>
        </clipPath>
        <clipPath id="clip-path-2">
            <rect id="Rectangle_6703" width="55.404" height="62.334" fill="none"/>
        </clipPath>
        <clipPath id="clip-path-3">
            <rect id="Rectangle_6703-2" width="35.817" height="37.665" fill="none"/>
        </clipPath>
    </defs>
    <g id="Mask_Group_11" transform="translate(-318 -754.845)" clip-path="url(#clip-path)">
        <g id="Group_13226">
            <g id="Group_13225">
                <g id="Group_13223" transform="matrix(0.891, 0.454, -0.454, 0.891, 360.169, 747.546)" opacity="0.41">
                    <g id="Group_13222" transform="translate(-7.128 3.632)" clip-path="url(#clip-path-2)">
                        <path id="Path_31567"
                              d="M24.282,55.547a3.152,3.152,0,0,1-1.025-.162,3.3,3.3,0,0,1-2.126-2.623,7.383,7.383,0,0,1,.522-3.673A58.769,58.769,0,0,1,.382,43.329a.656.656,0,0,1-.364-.752A2.084,2.084,0,0,1,1.777,41.4a.92.92,0,0,1,.162.012c3.583-.861,5.976-3.947,7.355-6.4,1.815-3.222,2.573-6.74,3.378-11C13.856,17.745,15.2,10.647,20.73,6.2A13,13,0,0,1,28.58,3.22h.158a13.248,13.248,0,0,1,8.076,2.993c4.888,3.788,8.319,10.28,9.413,17.8a32.793,32.793,0,0,1,.323,5.118c-.009.625-.037,1.249-.062,1.874a27.846,27.846,0,0,0,.028,4.229,7.822,7.822,0,0,0,1.756,4.487,4.657,4.657,0,0,0,3.21,1.774,2.406,2.406,0,0,0,.649-.087,1.791,1.791,0,0,1,.475-.068,1.088,1.088,0,0,1,.631.18.76.76,0,0,1,.544.625c.059.426-.239.842-.8,1.116A59.977,59.977,0,0,1,41.858,47.4,60.318,60.318,0,0,1,29.2,49.233a7.538,7.538,0,0,1-.18,2.579,5.146,5.146,0,0,1-4.739,3.735m-.162-6.311a5.417,5.417,0,0,0-.385,2.815c.065.277.333,1.2,1.081,1.429a1.042,1.042,0,0,0,.311.05.57.57,0,0,0,.2-.031h0l.1-.044.081-.05a1.863,1.863,0,0,0,.27-.208c.917-.858.935-2.346.755-3.888-.808-.006-1.607-.037-2.415-.075M4.344,42.412a55.51,55.51,0,0,0,8.608,3.036,57.83,57.83,0,0,0,14.037,1.805,2.081,2.081,0,0,1,.351-.2,2.012,2.012,0,0,1,.774-.18l.059,0a.906.906,0,0,1,.7.314A56.612,56.612,0,0,0,48.962,43.03a7,7,0,0,1-3.1-2.126,2.675,2.675,0,0,1-.5.186,82,82,0,0,1-19.248,2.29A81.569,81.569,0,0,1,6.724,41.048a14.279,14.279,0,0,1-2.38,1.364M8.862,39.2A79.439,79.439,0,0,0,27,41.3a79.187,79.187,0,0,0,17.791-2.023,2.977,2.977,0,0,1-.171-.329c-1.128-2.576-.991-5.469-.861-8.266a32.188,32.188,0,0,0,.016-4.341c-.662-7.452-3.881-14.27-8.608-18.235a11.448,11.448,0,0,0-7.135-2.961,7.784,7.784,0,0,0-1.374.121c-3.443.612-5.889,3.6-7.039,5.323-2.548,3.816-3.4,8.384-4.22,12.8-.056.314-.115.625-.174.938.068-.031.137-.059.205-.087a11.542,11.542,0,0,1,1.342-.516.732.732,0,0,1,.2-.028.6.6,0,0,1,.6.469.7.7,0,0,1-.37.777,12.793,12.793,0,0,1-1.37.556l-.466.168c-.14.053-.28.1-.423.146-.071.357-.146.721-.227,1.085a6.517,6.517,0,0,1,1.619-.6.978.978,0,0,1,.134-.016.543.543,0,0,1,.544.46.68.68,0,0,1-.429.727,12.477,12.477,0,0,0-1.784.712,3.226,3.226,0,0,0-.333.221l-.109.078c-.078.311-.158.618-.239.911.749-.426,1.52-.848,2.312-1.215a.633.633,0,0,1,.277-.065.568.568,0,0,1,.553.429.7.7,0,0,1-.314.771c-1.069.615-2.194,1.144-3.278,1.653l-.009,0c-.012.05-.028.1-.044.146-.14.435-.3.873-.479,1.314.553-.27,1.112-.538,1.678-.783a.633.633,0,0,1,.258-.056.574.574,0,0,1,.559.447.666.666,0,0,1-.348.743c-.864.429-1.759.814-2.626,1.187l-.264.115c-.109.221-.227.438-.351.653,1.053-.494,2.154-.973,3.291-1.392a.72.72,0,0,1,.252-.047.567.567,0,0,1,.566.451.769.769,0,0,1-.413.83,49.762,49.762,0,0,1-4.8,1.964A18.829,18.829,0,0,1,8.862,39.2"
                              transform="translate(0 6.785)" fill="#fff"/>
                        <path id="Path_31568"
                              d="M52.683,41.639a.76.76,0,0,0-.755-.087c-1.65.454-3.31-.649-4.357-1.837a8.363,8.363,0,0,1-1.88-4.758,50.394,50.394,0,0,1,.034-6.165,31.751,31.751,0,0,0-.32-5.037c-.938-6.476-3.94-13.39-9.226-17.486a12.765,12.765,0,0,0-7.924-2.89A12.437,12.437,0,0,0,20.7,6.248c-5.336,4.291-6.681,11.153-7.881,17.514-.724,3.832-1.5,7.722-3.434,11.156-1.7,3.021-4.276,5.867-7.781,6.659-.541-.183-1.827.74-1.342.976A58.741,58.741,0,0,0,22.211,48.33a.763.763,0,0,0-.342.342,7.444,7.444,0,0,0-.587,3.673,2.817,2.817,0,0,0,1.8,2.244,3.9,3.9,0,0,0,3.17-.6,4.485,4.485,0,0,0,1.967-2.641,7.836,7.836,0,0,0,.112-2.924A59.547,59.547,0,0,0,41.4,46.587a59.451,59.451,0,0,0,11.035-4.1c.671-.329.649-.78.249-.851M10.281,35.8a51.749,51.749,0,0,0,4.91-2c.171-.084.239-.426-.022-.329a50.172,50.172,0,0,0-4.755,2.1,21.267,21.267,0,0,0,1.283-2.2c1.016-.441,2.039-.87,3.033-1.361.134-.065.124-.323-.053-.245-.97.42-1.911.9-2.856,1.37a23.434,23.434,0,0,0,.991-2.5c.037-.112.059-.227.1-.339,1.165-.55,2.337-1.091,3.452-1.737.134-.078.134-.354-.059-.264-1.147.538-2.244,1.178-3.341,1.809.227-.743.444-1.489.628-2.247.221-.14.416-.314.646-.435a12.961,12.961,0,0,1,1.849-.74c.1-.034.174-.261.019-.227a7.323,7.323,0,0,0-2.455,1.125c.193-.817.37-1.638.531-2.467.227-.075.454-.143.674-.227a18.94,18.94,0,0,0,1.79-.705c.171-.084.162-.373-.068-.3a17.665,17.665,0,0,0-1.774.7c-.193.078-.379.171-.566.255.994-5.149,1.681-10.407,4.64-14.838,1.712-2.567,4.22-4.972,7.365-5.531,3.26-.581,6.457.886,8.909,2.946,5.326,4.469,8.176,11.777,8.782,18.567.357,4.021-.864,8.639.808,12.455a6.97,6.97,0,0,0,.5.845,79.775,79.775,0,0,1-37.676-.118l-.025,0a17.014,17.014,0,0,0,2.738-3.35m15.5,17.427a2.444,2.444,0,0,1-.351.27l-.112.065c-.127.071.112-.047-.022.009l-.118.053c.087-.037.044-.012-.019.006a1.1,1.1,0,0,1-.3.059,1.449,1.449,0,0,1-.528-.071,2.32,2.32,0,0,1-1.411-1.787,6.334,6.334,0,0,1,.494-3.378c.009-.031-.022-.031-.019-.056,1.078.05,2.157.1,3.235.09.218,1.616.364,3.6-.855,4.739M28.19,47.36l-.022-.158c-.019-.124-.27-.158-.351-.165a1.5,1.5,0,0,0-.615.137,1.893,1.893,0,0,0-.385.236A58.166,58.166,0,0,1,12.5,45.589a56.1,56.1,0,0,1-9.742-3.543,13.279,13.279,0,0,0,3.6-1.917c.034.025.006.071.068.087a81.306,81.306,0,0,0,38.484.062,2.161,2.161,0,0,0,.73-.345,6.324,6.324,0,0,0,4.652,2.589,57.371,57.371,0,0,1-22.1,4.838"
                              transform="translate(0.334 7.12)" fill="#fff"/>
                        <path id="Path_31569"
                              d="M11.71,12.054a.661.661,0,0,1-.479-.193.675.675,0,0,1-.19-.507l.019-1.4q.033-1.99.05-3.984l.022-2.828c.009-.8-.019-1.417-.466-1.625a.451.451,0,0,0-.171-.047c-.068,0-.354.286-.357,1.619L10.131,5.78c-.006,1.591-.04,3.272-.118,5.457a.568.568,0,0,1-.559.541.543.543,0,0,1-.519-.5c-.1-2.06-.174-4.208-.218-6.566,0-.165-.012-.36-.025-.569C8.612,2.725,8.478.354,10.464.022A1.586,1.586,0,0,1,10.734,0,1.942,1.942,0,0,1,12.5,1.426a6.936,6.936,0,0,1,.183,2.393c-.009.242-.019.485-.019.715,0,2.126.016,4.254.031,6.38l0,.2a.881.881,0,0,1-.273.618,1.04,1.04,0,0,1-.715.323"
                              transform="translate(18.24 -0.001)" fill="#fff"/>
                        <path id="Path_31570"
                              d="M11.7,1.243A1.41,1.41,0,0,0,10.21.174c-1.8.3-1.355,2.958-1.333,4.2.037,2.188.106,4.369.218,6.554,0,.062.093.009.1-.037.062-1.812.109-3.617.115-5.429,0-.9,0-1.8.006-2.7,0-.653.062-2.551,1.224-2.014.823.376.758,1.461.752,2.213L11.27,5.646c-.012,1.793-.047,3.589-.071,5.382-.006.42.677.1.674-.245-.016-2.2-.031-4.388-.034-6.585a9.9,9.9,0,0,0-.14-2.955"
                              transform="translate(18.572 0.332)" fill="#fff"/>
                        <path id="Path_31571"
                              d="M4.435,13.288a.672.672,0,0,1-.516-.227.735.735,0,0,1-.158-.615A12.966,12.966,0,0,1,8.015,4.932a13.336,13.336,0,0,1,7.772-3.539l.078,0a.612.612,0,0,1,.628.559.827.827,0,0,1-.662.839A12.942,12.942,0,0,0,9.124,6.122,13.442,13.442,0,0,0,5.4,12.557a1.075,1.075,0,0,1-.97.73"
                              transform="translate(7.905 2.926)" fill="#fff"/>
                        <path id="Path_31572"
                              d="M15.5,1.549A12.888,12.888,0,0,0,8.016,4.958a12.5,12.5,0,0,0-4.1,7.222c-.068.507.594.242.687-.087A14.047,14.047,0,0,1,8.454,5.43a13.474,13.474,0,0,1,6.964-3.462c.218-.034.395-.447.084-.42"
                              transform="translate(8.239 3.261)" fill="#fff"/>
                        <path id="Path_31573"
                              d="M3.093,9.153a.742.742,0,0,1-.643-.339.721.721,0,0,1,0-.718A14.771,14.771,0,0,1,11.3,1.011a.859.859,0,0,1,.23-.034.629.629,0,0,1,.634.538.811.811,0,0,1-.544.873A14.155,14.155,0,0,0,3.848,8.74a.88.88,0,0,1-.755.413"
                              transform="translate(4.965 2.058)" fill="#fff"/>
                        <path id="Path_31574"
                              d="M11.1,1.149a14.259,14.259,0,0,0-8.546,6.84c-.2.382.367.451.541.162a14.645,14.645,0,0,1,8.036-6.563c.261-.084.314-.541-.031-.438"
                              transform="translate(5.297 2.389)" fill="#fff"/>
                        <path id="Path_31575"
                              d="M16.852,21.268a.691.691,0,0,1-.531-.233.741.741,0,0,1-.152-.618c.071-.463.174-.923.27-1.367.121-.55.236-1.072.3-1.607a15.235,15.235,0,0,0,.087-2.9,15.6,15.6,0,0,0-1.479-5.674A.672.672,0,0,1,15.4,8.2a.826.826,0,0,1,.681-.392.641.641,0,0,1,.581.354,16.712,16.712,0,0,1,1.824,6.159,12.7,12.7,0,0,1-.727,6.37,1.048,1.048,0,0,1-.907.572"
                              transform="translate(32.209 16.463)" fill="#fff"/>
                        <path id="Path_31576"
                              d="M17.661,14.039A16.226,16.226,0,0,0,15.89,8.06c-.124-.239-.534.053-.432.27a16.092,16.092,0,0,1,1.526,5.851,15.976,15.976,0,0,1-.09,2.986c-.127,1.013-.416,1.989-.575,2.993-.071.466.531.277.659,0a12.494,12.494,0,0,0,.684-6.122"
                              transform="translate(32.544 16.796)" fill="#fff"/>
                        <path id="Path_31577"
                              d="M17.5,21.025a.759.759,0,0,1-.656-.333.776.776,0,0,1-.022-.764,15.012,15.012,0,0,0,1.569-5.659A13.508,13.508,0,0,0,17.3,8.524a.618.618,0,0,1,.062-.581.678.678,0,0,1,.556-.308.589.589,0,0,1,.507.289A12.279,12.279,0,0,1,18.319,20.6a.99.99,0,0,1-.817.426"
                              transform="translate(35.271 16.09)" fill="#fff"/>
                        <path id="Path_31578"
                              d="M17.672,7.844c-.081-.134-.3.028-.252.155a13.954,13.954,0,0,1,1.131,5.954A15.389,15.389,0,0,1,16.938,19.8c-.218.475.423.516.64.193a11.817,11.817,0,0,0,.093-12.147"
                              transform="translate(35.604 16.425)" fill="#fff"/>
                    </g>
                </g>
                <g id="Group_13224" transform="matrix(0.883, -0.469, 0.469, 0.883, 384.61, 779.671)" opacity="0.41">
                    <g id="Group_13222-2" transform="translate(0 0)" clip-path="url(#clip-path-3)">
                        <path id="Path_31567-2"
                              d="M15.7,34.839a2.168,2.168,0,0,1-.663-.1,2.031,2.031,0,0,1-1.374-1.585A4.2,4.2,0,0,1,14,30.937,40.078,40.078,0,0,1,.247,27.456.389.389,0,0,1,.012,27a1.351,1.351,0,0,1,1.137-.714.635.635,0,0,1,.1.008,7.9,7.9,0,0,0,4.755-3.866A20.111,20.111,0,0,0,8.192,15.78C8.958,12,9.823,7.708,13.4,5.019a8.757,8.757,0,0,1,5.074-1.8h.1A8.934,8.934,0,0,1,23.8,5.028a16.263,16.263,0,0,1,6.085,10.757,18.541,18.541,0,0,1,.209,3.093c-.006.377-.024.755-.04,1.132a15.731,15.731,0,0,0,.018,2.556,4.562,4.562,0,0,0,1.135,2.711,3.076,3.076,0,0,0,2.075,1.072,1.658,1.658,0,0,0,.42-.053,1.234,1.234,0,0,1,.307-.041.739.739,0,0,1,.408.109.47.47,0,0,1,.352.377c.038.257-.155.509-.516.674a40.523,40.523,0,0,1-7.192,2.5,41.539,41.539,0,0,1-8.182,1.11,4.266,4.266,0,0,1-.117,1.559,3.01,3.01,0,0,1-1.406,1.769,3.351,3.351,0,0,1-1.657.488m-.1-3.814a3.079,3.079,0,0,0-.249,1.7,1.18,1.18,0,0,0,.7.864.717.717,0,0,0,.2.03.392.392,0,0,0,.127-.019h0l.066-.026.052-.03a1.2,1.2,0,0,0,.175-.126,2.6,2.6,0,0,0,.488-2.349c-.522,0-1.039-.023-1.561-.045M2.808,26.9a37.586,37.586,0,0,0,5.565,1.835,39.855,39.855,0,0,0,9.074,1.091,1.449,1.449,0,0,1,.727-.227l.038,0a.6.6,0,0,1,.454.19,38.81,38.81,0,0,0,12.986-2.516,4.546,4.546,0,0,1-2-1.284,1.808,1.808,0,0,1-.323.113,56.536,56.536,0,0,1-12.443,1.384,56.238,56.238,0,0,1-12.534-1.41,9.416,9.416,0,0,1-1.539.824m2.921-1.94A54.783,54.783,0,0,0,17.455,26.23a54.614,54.614,0,0,0,11.5-1.222,1.759,1.759,0,0,1-.11-.2,10.379,10.379,0,0,1-.556-4.995,18.182,18.182,0,0,0,.01-2.623A16.006,16.006,0,0,0,22.735,6.172a7.684,7.684,0,0,0-4.612-1.789,5.375,5.375,0,0,0-.888.073,7.547,7.547,0,0,0-4.55,3.217c-1.647,2.306-2.2,5.066-2.728,7.734-.036.19-.074.377-.112.567.044-.019.088-.036.133-.053a7.788,7.788,0,0,1,.868-.312.5.5,0,0,1,.129-.017.384.384,0,0,1,.386.284.415.415,0,0,1-.239.469,8.611,8.611,0,0,1-.886.336l-.3.1c-.09.032-.181.06-.273.088-.046.216-.094.436-.147.655a4.4,4.4,0,0,1,1.047-.362.675.675,0,0,1,.086-.009.345.345,0,0,1,.352.278.408.408,0,0,1-.277.439,8.4,8.4,0,0,0-1.153.43,2.1,2.1,0,0,0-.215.133l-.07.047c-.05.188-.1.374-.155.55.484-.257.982-.513,1.495-.734a.433.433,0,0,1,.179-.039.363.363,0,0,1,.358.259.414.414,0,0,1-.2.466c-.691.372-1.418.691-2.119,1l-.006,0c-.008.03-.018.06-.028.088-.09.263-.195.528-.309.794.358-.163.719-.325,1.085-.473a.433.433,0,0,1,.167-.034.367.367,0,0,1,.362.27.4.4,0,0,1-.225.449c-.558.259-1.137.492-1.7.717l-.171.069c-.07.133-.147.265-.227.394.681-.3,1.392-.588,2.127-.841a.5.5,0,0,1,.163-.028.362.362,0,0,1,.366.272.457.457,0,0,1-.267.5c-1.073.484-2.166.871-3.1,1.187a11.52,11.52,0,0,1-1.34,1.611"
                              transform="translate(0 2.826)" fill="#fff"/>
                        <path id="Path_31568-2"
                              d="M34.114,26.5a.519.519,0,0,0-.488-.053,3.067,3.067,0,0,1-2.816-1.11,4.874,4.874,0,0,1-1.215-2.875,28.466,28.466,0,0,1,.022-3.725,17.952,17.952,0,0,0-.207-3.044C28.8,11.778,26.862,7.6,23.445,5.126a8.608,8.608,0,0,0-5.123-1.746A8.375,8.375,0,0,0,13.44,5.112C9.991,7.706,9.121,11.852,8.346,15.7a20.693,20.693,0,0,1-2.22,6.741A8.1,8.1,0,0,1,1.1,26.46c-.35-.111-1.181.447-.868.59A40.087,40.087,0,0,0,14.415,30.54a.478.478,0,0,0-.221.207,4.236,4.236,0,0,0-.38,2.219,1.731,1.731,0,0,0,1.161,1.356,2.664,2.664,0,0,0,2.049-.361,2.734,2.734,0,0,0,1.272-1.6,4.433,4.433,0,0,0,.072-1.767,41.017,41.017,0,0,0,8.451-1.112,40.168,40.168,0,0,0,7.134-2.475c.434-.2.42-.471.161-.514M6.7,22.968c1.075-.362,2.143-.745,3.174-1.209.11-.051.155-.257-.014-.2-1.053.362-2.067.806-3.074,1.267a12.68,12.68,0,0,0,.83-1.329c.657-.267,1.318-.526,1.961-.822.086-.039.08-.2-.034-.148-.627.253-1.235.545-1.846.828a13.627,13.627,0,0,0,.641-1.513c.024-.068.038-.137.062-.2.753-.332,1.511-.659,2.232-1.05.086-.047.086-.214-.038-.16-.741.325-1.45.712-2.16,1.093.147-.449.287-.9.406-1.358.143-.084.269-.19.418-.263a8.729,8.729,0,0,1,1.2-.447c.064-.021.112-.158.012-.137A4.9,4.9,0,0,0,8.88,18c.125-.494.239-.99.344-1.491.147-.045.293-.086.436-.137.388-.137.787-.253,1.157-.426.11-.051.1-.225-.044-.184a11.907,11.907,0,0,0-1.147.422c-.125.047-.245.1-.366.154.643-3.111,1.087-6.288,3-8.966A7.683,7.683,0,0,1,17.02,4.025a7.529,7.529,0,0,1,5.76,1.78c3.443,2.7,5.285,7.117,5.677,11.219.231,2.43-.558,5.22.522,7.526a4.162,4.162,0,0,0,.325.511A55.076,55.076,0,0,1,4.949,24.99l-.016,0A10.457,10.457,0,0,0,6.7,22.968M16.723,33.5a1.573,1.573,0,0,1-.227.163l-.072.039c-.082.043.072-.028-.014.006l-.076.032c.056-.023.028-.008-.012,0a.753.753,0,0,1-.191.036,1,1,0,0,1-.342-.043,1.424,1.424,0,0,1-.912-1.08,3.6,3.6,0,0,1,.319-2.041c.006-.019-.014-.019-.012-.034.7.03,1.394.058,2.091.054.141.976.235,2.176-.552,2.864m1.557-3.543-.014-.1c-.012-.075-.175-.1-.227-.1a1.03,1.03,0,0,0-.4.083,1.242,1.242,0,0,0-.249.143,40.089,40.089,0,0,1-9.257-1.1,37.938,37.938,0,0,1-6.3-2.141,8.8,8.8,0,0,0,2.33-1.159c.022.015,0,.043.044.053a56.133,56.133,0,0,0,24.878.038,1.443,1.443,0,0,0,.472-.208,4.166,4.166,0,0,0,3.007,1.564A39.291,39.291,0,0,1,18.28,29.955"
                              transform="translate(0.16 2.965)" fill="#fff"/>
                        <path id="Path_31569-2"
                              d="M10.63,7.284a.443.443,0,0,1-.309-.116.394.394,0,0,1-.123-.306l.012-.843q.021-1.2.032-2.407L10.256,1.9c.006-.481-.012-.856-.3-.982a.308.308,0,0,0-.11-.028c-.044,0-.229.173-.231.978l0,1.622c0,.961-.026,1.977-.076,3.3a.357.357,0,0,1-.362.327.341.341,0,0,1-.335-.3C8.77,5.569,8.723,4.272,8.7,2.847c0-.1-.008-.218-.016-.344C8.627,1.647,8.541.214,9.824.013A1.1,1.1,0,0,1,10,0,1.239,1.239,0,0,1,11.14.862a3.927,3.927,0,0,1,.119,1.446c-.006.146-.012.293-.012.432,0,1.284.01,2.571.02,3.855l0,.12a.517.517,0,0,1-.177.374.694.694,0,0,1-.462.2"
                              transform="translate(8.732 -0.001)" fill="#fff"/>
                        <path id="Path_31570-2"
                              d="M10.678.813A.908.908,0,0,0,9.716.168C8.551.35,8.84,1.955,8.854,2.7c.024,1.322.068,2.64.141,3.96,0,.038.06.006.062-.023.04-1.095.07-2.186.074-3.28,0-.545,0-1.087,0-1.63,0-.394.04-1.542.792-1.217.532.227.49.883.486,1.337L10.4,3.474c-.008,1.083-.03,2.169-.046,3.252,0,.253.438.062.436-.148-.01-1.328-.02-2.651-.022-3.979a5.6,5.6,0,0,0-.09-1.786"
                              transform="translate(8.891 0.138)" fill="#fff"/>
                        <path id="Path_31571-2"
                              d="M4.193,8.579a.449.449,0,0,1-.333-.137.425.425,0,0,1-.1-.372,7.719,7.719,0,0,1,2.75-4.54,8.9,8.9,0,0,1,5.024-2.139l.05,0a.387.387,0,0,1,.406.338.508.508,0,0,1-.428.507A8.6,8.6,0,0,0,7.225,4.249a8.023,8.023,0,0,0-2.4,3.889.691.691,0,0,1-.627.441"
                              transform="translate(3.784 1.219)" fill="#fff"/>
                        <path id="Path_31572-2"
                              d="M11.4,1.548a8.605,8.605,0,0,0-4.839,2.06A7.448,7.448,0,0,0,3.913,7.972c-.044.306.384.146.444-.053A8.379,8.379,0,0,1,6.848,3.894,8.956,8.956,0,0,1,11.35,1.8c.141-.021.255-.27.054-.253"
                              transform="translate(3.944 1.358)" fill="#fff"/>
                        <path id="Path_31573-2"
                              d="M2.832,5.917a.489.489,0,0,1-.416-.2.411.411,0,0,1,0-.434A9.451,9.451,0,0,1,8.136,1,.591.591,0,0,1,8.285.977a.4.4,0,0,1,.41.325.489.489,0,0,1-.352.528A9.051,9.051,0,0,0,3.321,5.668a.58.58,0,0,1-.488.25"
                              transform="translate(2.377 0.857)" fill="#fff"/>
                        <path id="Path_31574-2"
                              d="M8.065,1.143A9.128,9.128,0,0,0,2.541,5.276c-.129.231.237.272.35.1a9.36,9.36,0,0,1,5.2-3.966c.169-.051.2-.327-.02-.265"
                              transform="translate(2.536 0.995)" fill="#fff"/>
                        <path id="Path_31575-2"
                              d="M16.3,15.943a.461.461,0,0,1-.344-.141.427.427,0,0,1-.1-.374c.046-.28.112-.558.175-.826a9.729,9.729,0,0,0,.195-.971,8.609,8.609,0,0,0,.056-1.75,8.943,8.943,0,0,0-.956-3.429.384.384,0,0,1,.034-.4.542.542,0,0,1,.44-.237.419.419,0,0,1,.376.214,9.615,9.615,0,0,1,1.179,3.722,7.213,7.213,0,0,1-.47,3.849.683.683,0,0,1-.587.346"
                              transform="translate(15.419 6.856)" fill="#fff"/>
                        <path id="Path_31576-2"
                              d="M16.877,11.637a9.335,9.335,0,0,0-1.145-3.613c-.08-.145-.346.032-.279.163a9.224,9.224,0,0,1,.986,3.536,9.028,9.028,0,0,1-.058,1.8c-.082.612-.269,1.2-.372,1.808-.046.282.344.167.426,0a7.091,7.091,0,0,0,.442-3.7"
                              transform="translate(15.579 6.995)" fill="#fff"/>
                        <path id="Path_31577-2"
                              d="M17.231,15.726a.5.5,0,0,1-.424-.2.443.443,0,0,1-.014-.462,8.623,8.623,0,0,0,1.014-3.419A7.7,7.7,0,0,0,17.1,8.172a.353.353,0,0,1,.04-.351.446.446,0,0,1,.36-.186.387.387,0,0,1,.327.175,7.007,7.007,0,0,1-.068,7.659.654.654,0,0,1-.528.257"
                              transform="translate(16.885 6.701)" fill="#fff"/>
                        <path id="Path_31578-2"
                              d="M17.4,7.824c-.052-.081-.2.017-.163.094a7.953,7.953,0,0,1,.731,3.6,8.836,8.836,0,0,1-1.043,3.532c-.141.287.273.312.414.116a6.743,6.743,0,0,0,.06-7.34"
                              transform="translate(17.044 6.84)" fill="#fff"/>
                    </g>
                </g>
            </g>
        </g>
    </g>
</svg>
