<svg xmlns="http://www.w3.org/2000/svg" xmlns:xlink="http://www.w3.org/1999/xlink" width="136.877" height="66" viewBox="0 0 136.877 66">
  <defs>
    <clipPath id="clip-path">
      <path id="Rectangle_6706"  d="M7,0H129.877a7,7,0,0,1,7,7V66a0,0,0,0,1,0,0H0a0,0,0,0,1,0,0V7A7,7,0,0,1,7,0Z" transform="translate(303.123 422.045)" fill="#e16071"/>
    </clipPath>
    <clipPath id="clip-path-2">
      <rect id="Rectangle_6705"  width="103.768" height="76.766" fill="#fff"/>
    </clipPath>
  </defs>
  <g id="Mask_Group_12"  transform="translate(-303.123 -422.045)" clip-path="url(#clip-path)">
    <g id="Group_13229"  transform="matrix(0.985, -0.174, 0.174, 0.985, 303.123, 426.638)" opacity="0.46">
      <g id="Group_13228"  clip-path="url(#clip-path-2)">
        <path id="Path_31579"  d="M294.523,86.995,294.5,87a65.542,65.542,0,0,0-3.9-11.421q-1.168-2.6-2.565-5.092a5.49,5.49,0,0,0-1.738-2.3,1.191,1.191,0,0,0-1.139-.065.827.827,0,0,0-.515,1.1c.08.148-.113.336-.222.175-.607-.893.461-1.993,1.393-1.919,1.6.128,2.471,2.333,3.129,3.525A63.95,63.95,0,0,1,293.512,81.4q.926,2.735,1.61,5.547a2.8,2.8,0,0,0-.6.046" transform="translate(-220.954 -52.458)" fill="#fff"/>
        <path id="Path_31580"  d="M92.749,124.224c7.178-1.245,11.948-1.1,19.225-.814a104.6,104.6,0,0,1,21.69,3.137,81.3,81.3,0,0,1,11.023,3.494,187.733,187.733,0,0,1-8.308-33.9c-.469-3.295-.947-6.631-1.092-9.958a.393.393,0,1,1,.779-.1c.369,2.916.6,5.848.989,8.764q.589,4.421,1.389,8.812c1.043,5.716,2.358,11.386,3.959,16.972.856,2.988,1.773,5.966,2.807,8.9,1.581-2.931,1.761-6.55,1.928-9.8a64.55,64.55,0,0,0-.277-10.107q-.066-.621-.144-1.241a4.272,4.272,0,0,0,.46-.125c.055,0,.112,0,.169,0a64.98,64.98,0,0,1,.525,9.818,55.506,55.506,0,0,1-.479,6.412,14.8,14.8,0,0,1-2.02,6.056l0,.006c-.031.088-.1.157-.2.126l-.005,0a.325.325,0,0,1-.224-.072c-3.378-1.076-6.721-2.209-10.162-3.08-3.515-.89-7.072-1.62-10.657-2.164a108.141,108.141,0,0,0-21.7-1.092,70.987,70.987,0,0,0-9.626.747c-.471.075-.487-.717-.045-.793" transform="translate(-71.851 -66.634)" fill="#fff"/>
        <path id="Path_31581"  d="M83.574,88.194a94.419,94.419,0,0,0,36.109-14.425c3.032-2.014,5.823-4.312,8.747-6.469.179-.132.293.144.163.272a58.246,58.246,0,0,1-7.814,6.157,91.708,91.708,0,0,1-8.351,5.123A93.743,93.743,0,0,1,94.3,86.368a93.843,93.843,0,0,1-10.684,2.493c-.394.068-.411-.6-.038-.667" transform="translate(-64.758 -52.29)" fill="#fff"/>
        <path id="Path_31582"  d="M3.524,181.182a9.083,9.083,0,0,1-.733-3.548,8.241,8.241,0,0,1,2.534-6.112c.148-.123.241.112.168.225a12.573,12.573,0,0,0-1.508,2.819,8.909,8.909,0,0,0-.476,3.093,8.52,8.52,0,0,0,.746,3.217,15.408,15.408,0,0,0,1.816,2.672.283.283,0,0,1,.031.055c2.5-.009,5.015.177,7.509.293,1.266.059,2.533.112,3.8.177a31.853,31.853,0,0,1,3.236.2c-.134-.319-.261-.64-.387-.947-.352-.859-.671-1.731-.943-2.619a29.024,29.024,0,0,1-1.128-5.646A27.677,27.677,0,0,1,18.2,169.4a11.824,11.824,0,0,1,.392-2.138c-1.829.782-3.751,1.378-5.625,2.04q-1.391.491-2.784.978c-.958.333-3.631,1.634-4.614,1.883-.387.1-.5-.46-.165-.607.929-.408,3.647-1.579,4.607-1.907q1.4-.477,2.794-.942c1.893-.635,3.783-1.355,5.715-1.862a.176.176,0,0,1,.192.055,4.04,4.04,0,0,1,1.551-2.088c.13-.085.246.1.152.2a8.124,8.124,0,0,0-1.672,5.111,29.227,29.227,0,0,0,.139,5.261,28.39,28.39,0,0,0,1.139,5.245,26.3,26.3,0,0,0,.938,2.519c.356.818.825,1.593,1.152,2.42a.352.352,0,0,1-.609.342,7.4,7.4,0,0,1-.667-1.2,27.962,27.962,0,0,1-3.649-.026q-1.9-.048-3.8-.1c-2.474-.07-4.976-.07-7.443-.266a.239.239,0,0,1-.2-.123.263.263,0,0,1-.164-.054,7.106,7.106,0,0,1-2.067-2.957" transform="translate(-2.169 -128.106)" fill="#fff"/>
        <path id="Path_31583"  d="M295.282,162.3l1.007-.24c1.407-.339,2.815-.669,4.224-1a31.88,31.88,0,0,1,4.231-.866.177.177,0,0,1,.058,0q-.422-1.6-.853-3.207a25.215,25.215,0,0,1-.785-3.13.3.3,0,0,1,.078-.254c-2.971.126-5.949.157-8.922.229l-.822.02a.363.363,0,0,0,0-.148l-.111-.46,1.047-.035c2.923-.1,5.849-.238,8.773-.284.315-.005.4.4.233.586a.279.279,0,0,1,.289.193,25.272,25.272,0,0,1,.811,3.185c.134.563.272,1.124.409,1.686a11.348,11.348,0,0,0-1.1-5.085c-.075-.156.14-.359.23-.181a11.723,11.723,0,0,1,1.242,6.928.266.266,0,0,1-.4.2.2.2,0,0,1-.112.144,31.562,31.562,0,0,1-3.973,1.2c-1.4.38-2.809.763-4.216,1.136q-.526.139-1.052.281-.131-.455-.289-.9" transform="translate(-228.067 -118.883)" fill="#fff"/>
        <path id="Path_31584"  d="M285.662,76.127a4.629,4.629,0,0,1-.3-2.192,3.212,3.212,0,0,1,.547-1.834.877.877,0,0,1,1.312-.082A6.3,6.3,0,0,1,288.47,74c.042.1-.073.235-.179.182l-.037-.019a.108.108,0,0,1-.054-.061,7.391,7.391,0,0,1-.765-.929c-.193-.253-.673-1.059-1.132-.636a1.427,1.427,0,0,0-.219.7,8.468,8.468,0,0,0,.14,2.734.292.292,0,0,1-.562.153" transform="translate(-221.813 -55.785)" fill="#fff"/>
        <path id="Path_31585"  d="M326.9,249.664c.743-.441.663-1.207.7-1.967q.055-1.021.118-2.041c.078-1.283.176-2.564.265-3.847a.169.169,0,0,1,.337.01c0,1.835,0,3.669-.029,5.5-.014.973.126,2.943-1.27,3.058-.435.036-.417-.544-.126-.717" transform="translate(-253.959 -187.855)" fill="#fff"/>
        <path id="Path_31586"  d="M285.3,152.984c.115-.1.217.1.114.191s-.217-.1-.114-.191" transform="translate(-221.75 -118.905)" fill="#fff"/>
        <path id="Path_31587"  d="M291.478,187.982c-1.144-4.189-2.074-8.431-3.083-12.652-.032-.133.158-.234.2-.085,1.123,4.18,2.323,8.34,3.313,12.554.067.286-.34.506-.428.183" transform="translate(-224.186 -136.172)" fill="#fff"/>
        <path id="Path_31588"  d="M310.181,251.575a31.392,31.392,0,0,1-4.32-10.363c-.04-.16.182-.282.24-.1a54.146,54.146,0,0,0,4.733,9.951c.245.435-.328.981-.654.515" transform="translate(-237.763 -187.361)" fill="#fff"/>
        <path id="Path_31589"  d="M279.311,82.392a38.453,38.453,0,0,1-.875-8.427c-.051-2.249-.507-5.476,1.773-6.816.475-.279.695.594.255.844-1.278.729-1.377,2.318-1.451,3.625-.066,1.162-.067,2.327-.039,3.49.058,2.426.417,4.8.6,7.211.012.157-.223.25-.268.073" transform="translate(-216.392 -52.158)" fill="#fff"/>
        <path id="Path_31590"  d="M68.75,271.979a36.129,36.129,0,0,0-2.613-9.816,30.03,30.03,0,0,0-2.364-4.259c-.967-1.452-2.112-2.736-3.206-4.088-.119-.147.037-.421.21-.273a24.941,24.941,0,0,1,5.937,8.474,25.938,25.938,0,0,1,2.568,9.9c.01.371-.476.45-.533.065" transform="translate(-47.05 -197.063)" fill="#fff"/>
        <path id="Path_31591"  d="M113.375,284.512c-.215-1-.333-2.018-.6-3.011a18.328,18.328,0,0,0-1.132-3.057c-.195-.407-.405-.8-.629-1.18l.349-.294.028-.026c.247.434.476.873.687,1.31a15.377,15.377,0,0,1,1.746,6.138c0,.251-.379.427-.444.121" transform="translate(-86.296 -215.287)" fill="#fff"/>
        <path id="Path_31592"  d="M97.63,259.319a.351.351,0,0,0-.111.018l-.035-.042c-.108-.129.031-.365.185-.239q.167.138.329.284a.34.34,0,0,0-.367-.02" transform="translate(-75.751 -201.353)" fill="#fff"/>
        <path id="Path_31593"  d="M100.485,324.4a6.22,6.22,0,0,0,2.736-.86,4.452,4.452,0,0,0,1.586-2.593c.038-.154.273-.178.272.008a4.264,4.264,0,0,1-1.329,3.025,3.842,3.842,0,0,1-3.312,1.169.39.39,0,0,1,.047-.749" transform="translate(-77.873 -249.395)" fill="#fff"/>
        <path id="Path_31594"  d="M104.793,263.063c.844-.583,1.709-1.136,2.57-1.695-.8-.966-1.615-1.925-2.332-2.95-.092-.132.087-.352.22-.223.962.942,1.823,1.994,2.71,3.006a.327.327,0,0,1-.033.473c-.931.653-1.853,1.319-2.8,1.946-.366.242-.659-.333-.334-.558" transform="translate(-81.354 -200.682)" fill="#fff"/>
        <path id="Path_31595"  d="M86.895,257.865a16.33,16.33,0,0,1-1.624-2.109c-.139-.25.158-.681.415-.421a15.913,15.913,0,0,1,1.566,2.168l1.646,2.378c.089.128-.1.36-.216.219Z" transform="translate(-66.259 -198.427)" fill="#fff"/>
        <path id="Path_31596"  d="M338.48,64.844a49.733,49.733,0,0,1,5.688-6.859c.983-1.065,1.956-2.14,2.951-3.194a14.306,14.306,0,0,1,3.24-3.074c1.119-.585,2.036,1.012,1.537,1.935a15.1,15.1,0,0,1-3.072,3.294c-1.038.994-2.1,1.966-3.146,2.948A45.781,45.781,0,0,1,339,65.5c-.455.286-.757-.272-.516-.652" transform="translate(-263.057 -40.106)" fill="#fff"/>
        <path id="Path_31597"  d="M318.369,11.92a41.512,41.512,0,0,1,2.537-5.861c.932-1.849,1.723-3.868,2.828-5.614.72-1.139,2.122.144,1.653,1.2-.429.964-1.069,1.843-1.59,2.761s-1.039,1.853-1.566,2.774a39.147,39.147,0,0,1-3.33,5.125c-.285.355-.643-.044-.533-.387" transform="translate(-247.474 0)" fill="#fff"/>
        <path id="Path_31598"  d="M364.793,128.766c1.039-1.377,3.074-1.925,4.613-2.556,1.822-.747,3.667-1.437,5.514-2.118q2.679-.987,5.367-1.947a32.524,32.524,0,0,1,5.568-1.838,1.3,1.3,0,0,1,1.381,1.141,1.642,1.642,0,0,1-.874,1.753A32.968,32.968,0,0,1,381,125.152q-2.7.923-5.408,1.812c-1.8.6-3.613,1.18-5.439,1.709-1.518.44-3.565,1.385-5.128.872a.492.492,0,0,1-.229-.78" transform="translate(-283.493 -93.512)" fill="#fff"/>
        <path id="Path_31599"  d="M364.872,221.712a19.877,19.877,0,0,1,4.686,1.315q2.389.825,4.752,1.709l4.634,1.742a32.608,32.608,0,0,1,4.766,1.914c1.224.7.684,3.2-.873,2.82a33.115,33.115,0,0,1-4.924-1.955l-4.544-1.944q-2.274-.973-4.517-2a21.373,21.373,0,0,1-4.5-2.421c-.5-.4-.049-1.222.519-1.175" transform="translate(-283.07 -172.351)" fill="#fff"/>
        <path id="Path_31600"  d="M357.808,264.137c-.165-.309.1-.815.483-.628,2.6,1.257,4.707,3.626,6.805,5.555,1.118,1.027,2.216,2.073,3.314,3.121s2.274,2.044,3.268,3.182-.3,3.23-1.626,2.109c-1.156-.974-2.178-2.142-3.24-3.217s-2.142-2.172-3.194-3.277c-2.02-2.124-4.417-4.23-5.81-6.845" transform="translate(-278.11 -204.812)" fill="#fff"/>
        <path id="Path_31601"  d="M77.846,87.217a9.991,9.991,0,0,0-1.868-4.265.386.386,0,0,0-.357-.143,1.141,1.141,0,0,0-.873-.112,40.393,40.393,0,0,0-3.492-10.041c-1.472-3.1-3.2-6.738-5.758-9.093a.412.412,0,0,0-.573.012.746.746,0,0,0-.394-.024c-2.084.454-3.723,1.77-5.409,3-1.788,1.3-3.6,2.566-5.459,3.765a105.57,105.57,0,0,1-11.389,6.37,106.487,106.487,0,0,1-12.3,5c-2.1.7-4.208,1.347-6.335,1.947a39.556,39.556,0,0,0-5.3,1.487.461.461,0,0,0-.222.043,3.424,3.424,0,0,0-1.447,1.166,3.933,3.933,0,0,0-.534,1.436.794.794,0,0,0-.434,0c-2.484.692-4.93,1.717-7.343,2.627C7.179,90.83,6,91.267,4.83,91.735A9.823,9.823,0,0,0,2.4,92.83a.618.618,0,0,0-.282.154c-3.367,3.308-2.524,9.877,1.181,12.568-.184.121,0,.38.151.428a13.562,13.562,0,0,0,4.383.158c1.38-.047,3.412-.546,4.5.489a.628.628,0,0,0,.724.147,31.333,31.333,0,0,1,5.94,8.977,27.217,27.217,0,0,1,1.608,5.71c.246,1.459.111,3.435,1.6,4.273,3.069,1.73,5.328-3.28,5.778-5.487a9.475,9.475,0,0,0-2.075-8.219,3.4,3.4,0,0,0,.715-.81,2.831,2.831,0,0,0,.47-1.257.6.6,0,0,0,.031-.58,4.583,4.583,0,0,0-.983-1.069l-.169-.161c7.39-.154,14.769-.569,22.164,0a67.854,67.854,0,0,1,24.808,6.262.813.813,0,0,0,1.175-.978c1.906-2.624,2.075-6.466,2.188-9.552.078-2.145.106-4.292.145-6.438.02-1.1.028-2.207.032-3.31,0-.486.03-.979-.01-1.46l.08-.013a.421.421,0,0,0,.392-.5,1.344,1.344,0,0,0,.16-.038.5.5,0,0,0,.618-.249,8.517,8.517,0,0,0,.128-4.654m-2.612,6.646c-.055.936-.11,1.873-.155,2.809q-.151,3.147-.262,6.3a37.672,37.672,0,0,1-.419,5.076,15.228,15.228,0,0,1-1.576,4.41,69.364,69.364,0,0,0-24.1-5.931,131.955,131.955,0,0,0-26.94.775.683.683,0,0,0-.16-.424,22.9,22.9,0,0,1-3.881-6.237,18.944,18.944,0,0,1-1.188-7.632c.011-.2-.311-.3-.346-.075-.8,5.031.5,10.821,4.131,14.578-.343.151-.168.691.236.693,1.357.009,2.714,0,4.07-.025a8.751,8.751,0,0,0,.593.85,5.213,5.213,0,0,0,.774.977,3.99,3.99,0,0,1-.408.434c-.44.392-1.031.456-1.176,1.09-.072.313.207.579.47.7a11.206,11.206,0,0,1,1.423,7.838,7.727,7.727,0,0,1-1.951,3.921c-.313.3-.926.767-1.422.6-.56-.192-.583-.853-.658-1.317-.13-.8-.206-1.61-.362-2.411-1.1-5.672-4.019-11.762-8.5-15.544a.67.67,0,0,0-.644-.128c-1.01-.792-2.5-.605-3.756-.5-1.1.092-2.194.2-3.287.334-.5.062-1,.1-1.493.208a10.3,10.3,0,0,1-2.671-5.454c-.24-2.309.674-4.062,1.769-5.992a.611.611,0,0,0,.063-.168c.589-.121,1.168-.351,1.741-.53,1.281-.4,2.551-.832,3.823-1.259,2.445-.821,4.99-1.571,7.352-2.607a.7.7,0,0,0,.286-1.1,3.124,3.124,0,0,1,.821-1.154,3.881,3.881,0,0,1,1.122-.779.548.548,0,0,0,.133-.088,25.658,25.658,0,0,0,5.534-1.108c2.144-.543,4.269-1.175,6.366-1.875a109.485,109.485,0,0,0,11.9-4.778,109.325,109.325,0,0,0,11.455-6.258q2.812-1.758,5.513-3.688c1.79-1.283,3.488-2.884,5.673-3.433a.766.766,0,0,0,.166-.062c.681,1.283,1.531,2.482,2.245,3.744.859,1.516,1.663,3.062,2.386,4.648a98.093,98.093,0,0,1,3.5,9.691,28.7,28.7,0,0,0-5.842.807c-.24.051-.064.351.107.364a27.834,27.834,0,0,0,6.475-.022.376.376,0,0,0,.362-.428l.018-.007a.419.419,0,0,0,.073,0,1.36,1.36,0,0,1,.358-.034.948.948,0,0,1,.116.028q-.061-.013.031.024a.789.789,0,0,0,.378.09.524.524,0,0,0,.109-.02,15.856,15.856,0,0,1,1.083,3.689,20.247,20.247,0,0,1-.02,3.537.65.65,0,0,0-.179.065c-.112.06-.22.134-.329.2-.065.039-.128.078-.188.12a.22.22,0,0,0-.287.074c-.009.015-.015.031-.024.046-1.068.2-2.129.439-3.192.667a11.179,11.179,0,0,0-3.046.887c-.154.083-.043.328.1.348A13.354,13.354,0,0,0,73,93.164c.762-.1,1.524-.2,2.284-.309-.028.329-.034.667-.054,1.009" transform="translate(0 -49.326)" fill="#fff"/>
      </g>
    </g>
  </g>
</svg>
