<svg xmlns="http://www.w3.org/2000/svg" xmlns:xlink="http://www.w3.org/1999/xlink" width="155.054" height="66"
     viewBox="0 0 155.054 66">
    <defs>
        <clipPath id="clip-path">
            <path id="Rectangle_6702" d="M7,0H148.054a7,7,0,0,1,7,7V66a0,0,0,0,1,0,0H0a0,0,0,0,1,0,0V7A7,7,0,0,1,7,0Z"
                  transform="translate(284.946 89.245)" fill="#8a88c2"/>
        </clipPath>
        <clipPath id="clip-path-2">
            <rect id="Rectangle_6701" width="153.428" height="56.64" transform="translate(0 0.001)" fill="#fff"/>
        </clipPath>
    </defs>
    <g id="Mask_Group_10" transform="translate(-284.946 -89.245)" clip-path="url(#clip-path)">
        <g id="Group_13220" transform="translate(305.245 71.389) rotate(21)" opacity="0.44">
            <g id="Group_13219" clip-path="url(#clip-path-2)">
                <path id="Path_31566"
                      d="M144.814,3.7a1.135,1.135,0,0,0-.1-.164c.948-.433,1.9-.863,2.837-1.316,1.417-.681.18-2.739-1.225-2.094-21.792,10-44.285,15.384-68.317,15.439-24.56.057-50.715-2.342-73.656-11.5-.7-.28-1.178.879-.512,1.215,1.7.856,3.424,1.634,5.17,2.357a4.8,4.8,0,0,0-.392.8.556.556,0,0,0,.216.673,4.464,4.464,0,0,0-.134.453c-.187.776-.386,1.541-.533,2.327-.575,3.063-1.143,6.062-1.963,9.075C4.323,27.885,1.714,34.567.032,41.545a1.1,1.1,0,0,0,1.6,1.229C12.623,36.52,20.46,25.972,28.05,16.026c.857,11.768,1.894,23.542,5.136,34.936A1.1,1.1,0,0,0,35,51.441c8.028-8,11.775-19.771,15.495-30.425.348.333.707.649,1.062.971.168.4.328.8.485,1.2a.927.927,0,0,0,.08,1.2c.191.187.386.37.578.556,3.65,10.433,4.25,22,11.073,31.151a1.127,1.127,0,0,0,1.741.225C69.956,51.8,71.358,44,72.744,38.094a101.336,101.336,0,0,0,2.809-15c2.57,11.243,7.371,23.052,14.922,31.446a1.1,1.1,0,0,0,1.716-.222c6.572-10.548,7.78-23.2,10.927-35.017,6.156,10.519,8.767,23.536,18.269,31.73a1.155,1.155,0,0,0,1.777-.229,21.374,21.374,0,0,0,1.867-3.212.753.753,0,0,0,.2-.4c4.1-8.993,2.715-20.9,2.22-30.879a118.907,118.907,0,0,0,23.966,27.667,1.178,1.178,0,0,0,1.99-.824A90.183,90.183,0,0,0,144.814,3.7m-119.6,8.935c-1.455.483-1.035.9-2.827-.438-.765-.573-1.791.368-1.549,1.19l0,.012c-.824-.793-1.622-1.611-2.376-2.478,2.228.645,4.481,1.206,6.748,1.714M16.942,10.45a1.017,1.017,0,0,0-.411,1.416c.15.233.309.459.461.69C15.8,11.492,14.631,10.4,13.451,9.307q1.734.607,3.491,1.143M10.7,9.632c.211.261.425.519.64.777a.971.971,0,0,0-.7.214q.049-.518.058-.991M10.478,11.9a1.144,1.144,0,0,0,.076.129q1.016,1.19,2,2.388a18.146,18.146,0,0,0-2.25-1.5c.065-.34.124-.68.177-1.017M9.053,18.08c.117-.49.406-1.516.71-2.748q1.427,1.646,2.857,3.289c-.589-.344-1.185-.679-1.794-1a.919.919,0,0,0-1.109,1.437c1.061,1.06,2.1,2.114,3.035,3.24A19.153,19.153,0,0,0,9.71,20.668c-.9-.376-1.311.864-.842,1.447.244.3.5.6.749.9-.494-.3-.983-.61-1.481-.908a.892.892,0,0,0-.123-.048c.368-1.319.722-2.642,1.04-3.975M7.491,23.9c.814,1.03,1.579,2.051,2.281,3.111-.543-.3-1.092-.59-1.651-.9a.816.816,0,0,0-1.109,1.108,23.291,23.291,0,0,1,1.142,2.72c-.7-.453-1.4-.911-2.058-1.436.476-1.53.945-3.062,1.395-4.6M5.437,30.615c.229.461.469.918.694,1.38l-.247-.1a.725.725,0,0,0-.877.1q.215-.69.43-1.382m-.664,2.143c.25.793.5,1.581.768,2.365-.433-.209-.861-.437-1.289-.665q.258-.852.521-1.7M2.8,39.5c.207-.779.427-1.554.649-2.329l.621.561a.634.634,0,0,0,1.154-.487c-.066-.308-.112-.542-.151-.734.376.184.755.365,1.14.542-1.105.86-2.239,1.681-3.413,2.447m4.643-3.439c-.254-.678-.485-1.362-.7-2.05.19.041.425.089.763.164a.775.775,0,0,0,.866-1.127c-.294-.553-.563-1.115-.834-1.676.621.408,1.238.823,1.823,1.3a.794.794,0,0,0,1.242-.958,26.989,26.989,0,0,1-1.263-3.1A15.076,15.076,0,0,1,11.55,30.04a.827.827,0,0,0,1.293-1A24.119,24.119,0,0,0,11.025,25.9c.822.534,1.641,1.071,2.443,1.642.857.61,1.595-.648,1.037-1.345-.349-.437-.714-.861-1.073-1.291.685.523,1.364,1.064,2.056,1.634a.883.883,0,0,0,1.381-1.065,16.781,16.781,0,0,0-1.776-3.1c.781.541,1.556,1.1,2.319,1.684.88.677,1.754-.707,1.118-1.448q-.309-.361-.619-.721a.946.946,0,0,0,1.235-1.3c.228.241.455.483.685.723a.992.992,0,0,0,1.552-1.2c-.572-.989-1.2-1.931-1.849-2.851.73.548,1.472,1.082,2.247,1.582.937.607,1.7-.452,1.408-1.292a.986.986,0,0,0,.564-1.2c-.107-.366-.2-.734-.285-1.1l.759.189a1.065,1.065,0,0,0,1.191-.485l.7-.4a1.037,1.037,0,0,0,.557-1.606c.288.061.573.132.861.192C21.439,21.079,15.253,29.625,7.446,36.062m42.1-18.825c-3.79,10.5-7.142,22.752-14.772,31.277-2.991-11.4-3.879-23.142-4.716-34.867,3.024.567,6.065,1.045,9.107,1.466q5.7.789,11.48,1.348a1.181,1.181,0,0,0-1.1.776m1.977-.258a.984.984,0,0,0-.676-.5c2.983.292,5.975.527,8.968.732a1.041,1.041,0,0,0,.2,1.048c.809.88,1.646,1.723,2.5,2.539a45.093,45.093,0,0,1-4.15-3.1c-.98-.831-2.4.549-1.425,1.426.322.289.647.575.969.863-.963-.643-1.919-1.3-2.857-1.979-1.028-.748-1.973.943-.987,1.689.94.711,1.854,1.452,2.76,2.2q-1.867-.969-3.779-1.861c-.468-1.035-.965-2.06-1.531-3.057m4.348,10.934q2.721,2.445,5.606,4.679c-.774-.407-1.538-.835-2.29-1.294-.964-.668-1.943-1.322-2.925-1.975q-.19-.707-.391-1.41m1.363,5.16c-.08-.322-.163-.643-.244-.965.426.282.854.56,1.287.825,1.571,1.092,3.1,2.226,4.549,3.46-1.892-1.04-3.736-2.166-5.581-3.316l-.011,0m.971,3.883c-.091-.36-.183-.719-.273-1.079,1.22.886,2.442,1.762,3.63,2.676-1.049-.564-2.113-1.1-3.219-1.569a.786.786,0,0,0-.138-.028m3.027,9.8a65.576,65.576,0,0,1-2.249-6.848c.529.487,1.055.975,1.587,1.457a.958.958,0,0,0-.45,1.543,51.235,51.235,0,0,1,4.829,5.047,30.7,30.7,0,0,1-3.535-1.166.594.594,0,0,0-.182-.033m3.608,6.975c-.521-.774-.994-1.567-1.441-2.37.282.216.567.429.846.648a10.6,10.6,0,0,0,1.228.859c-.2.3-.413.586-.633.863m1.4-2.1c-.617-.708-1.234-1.409-1.868-2.091.769.221,1.545.429,2.34.625a.865.865,0,0,0,.275.022c-.235.495-.482.979-.747,1.444M67.6,48.8a20.228,20.228,0,0,0-1.234-1.829c.04.019.077.042.117.062a.9.9,0,0,0,1.091-1.415c-1.222-1.344-2.533-2.591-3.865-3.818,1.054.6,2.114,1.181,3.213,1.7a.911.911,0,0,0,1.1-1.424,25.423,25.423,0,0,0-1.873-2c.33.145.65.306.985.443.949.389,1.428-.924.9-1.551a31.686,31.686,0,0,0-2.307-2.446c.893.328,1.8.637,2.727.913a.942.942,0,0,0,.723-1.715c-1.564-.989-3.081-2.033-4.564-3.117,1.758,1.047,3.541,2.056,5.367,3a.925.925,0,0,0,1.006-.045c-.8,3.976-1.657,8.972-3.388,13.241m3.662-14.561a1.089,1.089,0,0,0-.3-.316c-4.36-3.159-8.9-6.066-13.176-9.317,3.719,2.017,7.324,4.239,10.864,6.583a.952.952,0,0,0,1.427-.971c.256.184.517.362.772.549a.8.8,0,0,0,1.163-.126c-.25,1.218-.506,2.418-.753,3.6m.974-4.7a1.038,1.038,0,0,0-.373-.5c-.977-.73-1.934-1.483-2.886-2.241q.926.456,1.866.893a1.02,1.02,0,0,0,1.029-1.761c-.161-.123-.317-.249-.478-.372a1.053,1.053,0,0,0,1.314-1.489c-.141-.218-.284-.432-.426-.649.277.186.559.361.834.553-.2,1.86-.517,3.725-.88,5.569m1.068-10.65a.933.933,0,0,0-.9-.175L71.2,18.7a1.124,1.124,0,0,0-1.287.743c-.372-.208-.73-.432-1.11-.632a1.074,1.074,0,0,0-1.3,1.679c.146.166.277.336.417.5-1.88-1.156-3.737-2.346-5.551-3.608q5.516.33,11.023.461a1.078,1.078,0,0,0-.105.562c.011.158,0,.32.013.479M101.7,16.353c-3.524,11.781-4.481,24.7-10.627,35.537-7.677-9.039-12.2-21.4-15.44-32.695-.009-.261,0-.528-.017-.786a1.2,1.2,0,0,0-.158-.528c.851.014,1.7.034,2.554.041a154.9,154.9,0,0,0,23.724-1.646c-.01.028-.027.049-.036.077m12.436-.556c1,.7,2.01,1.4,3.014,2.1-2.182-1.053-4.337-2.171-6.532-3.2,1.169-.24,2.337-.484,3.5-.751a1.16,1.16,0,0,0,.018,1.856m.825-1.956a1.052,1.052,0,0,0-.241-.032q2.851-.667,5.679-1.445a1.212,1.212,0,0,0,.352.365c.241.164.448.348.665.526-.148-.07-.3-.128-.445-.2-1.047-.541-2.306.877-1.318,1.708.457.382.886.783,1.306,1.191-2.008-.654-3.966-1.445-6-2.108m-11.374,2.153c1.309-.208,2.61-.453,3.913-.693a1.129,1.129,0,0,0,.242.318,36.7,36.7,0,0,0,6.048,4.387c-2.221-1.019-4.4-2.152-6.544-3.38a1.041,1.041,0,0,0-1.051,1.8c4.316,2.6,8.88,4.831,13.079,7.611-4.718-1.789-9.065-4.549-13.356-7.195a.973.973,0,0,0-.681-.152c-.5-.88-1.012-1.75-1.561-2.592a1.234,1.234,0,0,0-.089-.1m8.263,12.052c-.955-.361-1.692,1.024-.979,1.682a67.065,67.065,0,0,0,6.954,5.262c-1.247-.561-2.5-1.114-3.77-1.624-.912-.366-1.7,1.036-.962,1.654,2.45,2.04,5.023,3.924,7.278,6.158a38.631,38.631,0,0,1-4.122-1.123.788.788,0,0,0-.668.087c-2.69-4.643-4.731-9.759-6.974-14.714a108.823,108.823,0,0,0,10.834,5.793c.234.168.467.336.7.512-2.8-1.1-5.446-2.612-8.287-3.687m-4.121-4.515c-.221-.469-.441-.939-.67-1.4.511.343,1.026.68,1.541,1.017a1.013,1.013,0,0,0-.871.385m14.248,24.954a31.29,31.29,0,0,1-2.944-3.226,30.529,30.529,0,0,1,3.641,1.92c-.225.44-.441.884-.7,1.306m1.509-3.091c-.991-.761-2-1.5-3.008-2.235.775.171,1.553.335,2.339.492a.975.975,0,0,0,.941-1.617,30.092,30.092,0,0,0-3.88-3.985c1.264.567,2.531,1.127,3.818,1.643.965.386,1.6-.992.96-1.649a39.414,39.414,0,0,0-5.585-4.579,21.1,21.1,0,0,0,4.621,1.381,1.011,1.011,0,0,0,.975-1.676c-.068-.077-.145-.142-.213-.218a1.011,1.011,0,0,0,.023-1.729c-1.072-.808-2.167-1.581-3.27-2.343a29.756,29.756,0,0,0,2.916.7c.933.172,1.876-1,1.014-1.743-1.115-.96-2.284-1.836-3.478-2.673.525.151,1.048.3,1.58.439a1.048,1.048,0,0,0,.8-1.907c-.814-.559-1.65-1.079-2.493-1.586.844.314,1.7.61,2.567.863.974.282,1.885-1.084,1.037-1.782-1.2-.989-2.444-1.922-3.7-2.836a26.278,26.278,0,0,0,2.657.653,1.148,1.148,0,0,0,1.185-.493c.536,8.867,1.378,18.986-1.812,26.879m3.754-34.042a1.261,1.261,0,0,0-.464-.872,160.754,160.754,0,0,0,15.989-6.063,1.19,1.19,0,0,0,.113.415A87.785,87.785,0,0,1,151.1,40.6c-9.3-8.363-17.926-18.271-23.862-29.245"
                      fill="#fff"/>
            </g>
        </g>
    </g>
</svg>
