<?xml version="1.0" encoding="UTF-8" standalone="no"?><!-- Generator: Gravit.io --><svg xmlns="http://www.w3.org/2000/svg" xmlns:xlink="http://www.w3.org/1999/xlink" style="isolation:isolate" viewBox="0 0 150 150" width="150pt" height="150pt"><defs><clipPath id="_clipPath_7REi5PnF3AHpwsF0m1u5w1aiCqbwYDhw"><rect width="150" height="150"/></clipPath></defs><g clip-path="url(#_clipPath_7REi5PnF3AHpwsF0m1u5w1aiCqbwYDhw)"><g><path d=" M 105.951 31.981 C 103.672 29.814 101.093 28.06 98.31 26.786 C 95.287 25.473 92.148 24.51 88.943 23.911 C 85.573 23.334 82.151 23.218 78.755 23.566 C 75.069 23.947 71.447 24.882 67.992 26.345 C 62.055 28.861 56.604 32.588 51.926 37.33 C 49.336 39.961 46.998 42.878 44.949 46.033 C 42.66 49.5 40.718 53.227 39.157 57.152 C 37.495 61.364 36.272 65.769 35.511 70.283 C 34.714 75.016 34.439 79.837 34.691 84.642 C 35.248 94.902 38.256 104.821 43.413 113.397 C 49.895 124.324 59.167 132.906 70.068 138.068 C 79.737 142.648 90.4 144.079 100.787 142.19 C 109.849 140.542 118.362 136.327 125.488 129.96 C 131.868 124.25 137.006 117.045 140.525 108.872 C 140.747 108.339 140.888 107.769 140.944 107.185 C 141.019 106.549 141.019 105.905 140.944 105.268 C 140.862 104.61 140.704 103.966 140.473 103.351 C 140.259 102.779 139.971 102.243 139.618 101.76 C 139.326 101.396 138.978 101.091 138.589 100.859 C 138.244 100.64 137.854 100.521 137.455 100.514 C 137.078 100.515 136.708 100.635 136.391 100.859 C 136.03 101.134 135.736 101.503 135.536 101.933 C 132.285 108.563 127.689 114.283 122.104 118.649 C 115.98 123.415 108.844 126.372 101.381 127.237 C 92.917 128.211 84.37 126.654 76.645 122.732 C 67.983 118.351 60.571 111.458 55.206 102.796 C 47.111 89.872 45.213 73.441 50.112 58.704 C 50.819 56.564 51.664 54.482 52.641 52.474 C 53.561 50.577 54.599 48.752 55.746 47.011 C 56.833 45.387 58.016 43.843 59.288 42.391 C 60.52 40.973 61.837 39.648 63.23 38.423 C 63.945 37.79 64.66 37.196 65.393 36.64 C 66.126 36.084 66.876 35.547 67.626 35.049 C 68.376 34.55 69.144 34.09 69.929 33.63 C 70.714 33.17 71.481 32.787 72.266 32.403 C 73.051 32.02 74.011 31.598 74.935 31.272 C 75.86 30.946 76.68 30.659 77.604 30.429 C 78.529 30.199 79.348 30.007 80.256 29.873 C 81.163 29.739 82 29.623 82.89 29.566 C 82.14 29.854 81.389 30.179 80.657 30.544 C 79.924 30.908 79.191 31.31 78.459 31.751 C 77.728 32.197 77.017 32.684 76.331 33.208 C 75.633 33.745 74.953 34.32 74.307 34.934 C 73.662 35.547 73.435 35.796 72.999 36.256 C 72.563 36.716 72.161 37.215 71.743 37.713 C 71.324 38.212 70.94 38.748 70.557 39.304 C 70.173 39.86 69.807 40.435 69.458 41.03 C 66.607 45.84 64.815 51.314 64.224 57.017 C 63.602 63.288 64.252 69.632 66.126 75.593 C 68.111 82.06 71.389 87.955 75.72 92.846 C 80.119 97.842 85.563 101.58 91.577 103.735 C 94.969 104.945 98.485 105.686 102.043 105.939 C 105.302 106.172 108.573 105.94 111.777 105.249 C 114.745 104.606 117.624 103.542 120.342 102.086 C 122.905 100.705 125.302 98.98 127.477 96.949 C 129.576 94.995 131.451 92.768 133.059 90.316 C 134.554 88.091 135.823 85.693 136.845 83.165 C 137.808 80.696 138.545 78.128 139.043 75.497 C 139.536 72.942 139.822 70.344 139.897 67.734 C 140.074 61.609 139.356 55.492 137.769 49.618 C 136.319 44.28 134.225 39.18 131.542 34.454 C 128.933 29.846 125.816 25.609 122.261 21.84 C 118.551 17.914 114.408 14.513 109.928 11.719 C 109.644 11.54 109.339 11.405 109.021 11.316 C 108.744 11.265 108.461 11.265 108.184 11.316 C 107.944 11.335 107.711 11.413 107.503 11.546 C 107.314 11.678 107.168 11.873 107.085 12.102 C 107.016 12.359 107.016 12.631 107.085 12.888 C 107.129 13.192 107.223 13.485 107.364 13.751 C 107.526 14.054 107.726 14.331 107.957 14.575 C 108.208 14.843 108.49 15.075 108.794 15.265 C 112.84 17.746 116.575 20.794 119.906 24.333 C 123.073 27.724 125.834 31.544 128.123 35.7 C 130.477 39.947 132.279 44.535 133.478 49.33 C 134.775 54.526 135.271 59.923 134.943 65.299 C 134.804 67.48 134.483 69.643 133.984 71.759 C 133.481 73.891 132.78 75.959 131.89 77.932 C 128.921 84.402 123.929 89.479 117.83 92.233 C 115.595 93.26 113.251 93.975 110.853 94.361 C 108.269 94.762 105.65 94.813 103.055 94.514 C 100.241 94.189 97.472 93.5 94.804 92.463 C 93.715 92.04 92.649 91.547 91.612 90.987 C 88.499 89.293 85.654 87.06 83.186 84.373 C 84.867 85.3 86.618 86.063 88.419 86.654 C 90.175 87.22 91.973 87.611 93.792 87.824 C 95.533 87.996 97.285 87.996 99.026 87.824 C 100.74 87.679 102.439 87.365 104.102 86.884 C 106.495 86.196 108.807 85.206 110.992 83.932 C 112.996 82.762 114.869 81.341 116.574 79.696 C 118.175 78.156 119.609 76.419 120.848 74.52 C 122.045 72.691 123.057 70.724 123.866 68.654 C 124.636 66.673 125.22 64.611 125.611 62.5 C 125.985 60.474 126.184 58.414 126.204 56.347 C 126.225 54.318 126.085 52.291 125.785 50.289 C 125.483 48.284 125.034 46.309 124.442 44.384 C 122.993 39.688 120.905 35.261 118.249 31.253 C 115.684 27.387 112.663 23.913 109.265 20.92 C 105.766 17.836 101.92 15.259 97.822 13.252 C 93.339 11.056 88.602 9.546 83.744 8.766 C 77.16 7.713 70.469 7.746 63.893 8.862 C 47.796 11.622 33.103 20.544 22.411 34.052 C 15.44 42.842 10.529 53.372 8.106 64.724 C 7.931 65.473 7.973 66.264 8.228 66.986 C 8.496 67.693 8.944 68.299 9.519 68.73 C 10.186 69.233 10.94 69.579 11.735 69.746 C 12.689 69.95 13.666 69.989 14.63 69.861 C 15.659 69.734 16.668 69.457 17.631 69.037 C 18.531 68.65 19.382 68.134 20.16 67.504 C 20.827 66.966 21.415 66.319 21.905 65.586 C 22.343 64.919 22.641 64.153 22.777 63.344 C 24.181 53.966 27.661 45.112 32.912 37.56 C 37.337 31.185 42.862 25.831 49.17 21.802 C 59.855 15.017 72.27 12.27 84.512 13.981 C 92.645 15.064 100.345 18.608 106.753 24.218 C 109.726 26.823 112.356 29.868 114.568 33.266 C 116.857 36.77 118.624 40.653 119.802 44.768 C 120.259 46.363 120.592 47.999 120.796 49.656 C 120.998 51.295 121.063 52.95 120.988 54.602 C 120.913 56.27 120.691 57.927 120.325 59.548 C 119.941 61.223 119.397 62.848 118.703 64.398 C 117.244 67.671 115.126 70.536 112.51 72.775 C 111.108 73.972 109.587 74.988 107.974 75.804 C 106.225 76.665 104.394 77.308 102.514 77.721 C 100.972 78.083 99.399 78.257 97.822 78.239 C 96.195 78.219 94.575 78.007 92.99 77.606 C 91.343 77.184 89.741 76.574 88.21 75.785 C 86.626 74.968 85.124 73.972 83.727 72.814 C 82.296 71.639 80.97 70.316 79.767 68.865 C 78.586 67.443 77.545 65.888 76.662 64.225 C 75.808 62.621 75.135 60.909 74.656 59.126 C 74.239 57.096 74.075 55.013 74.168 52.934 C 74.27 51.593 74.51 50.268 74.883 48.985 C 75.144 48.199 75.458 47.413 75.79 46.666 C 76.121 45.918 76.47 45.209 76.802 44.557 C 78.208 41.827 80.151 39.475 82.488 37.675 C 84.634 36.036 87.053 34.877 89.606 34.263 C 92.079 33.654 94.632 33.543 97.142 33.937 C 99.436 34.287 101.656 35.078 103.701 36.276 C 104.018 36.472 104.359 36.62 104.712 36.716 C 105.03 36.78 105.355 36.78 105.672 36.716 C 105.963 36.674 106.243 36.563 106.492 36.391 C 106.73 36.222 106.928 35.991 107.067 35.72 C 107.204 35.435 107.282 35.121 107.294 34.799 C 107.305 34.462 107.264 34.125 107.172 33.803 C 107.073 33.454 106.926 33.124 106.736 32.825 C 106.513 32.503 106.249 32.219 105.951 31.981 Z " fill="rgb(5,190,200)"/></g></g></svg>