<svg width="228" height="233" viewBox="0 0 228 233" fill="none" xmlns="http://www.w3.org/2000/svg">
<mask id="mask0_4771_5059" style="mask-type:luminance" maskUnits="userSpaceOnUse" x="0" y="0" width="228" height="230">
<path d="M228 0H0V230H228V0Z" fill="white"/>
</mask>
<g mask="url(#mask0_4771_5059)">
<path opacity="0.11" d="M114 230C176.96 230 227.99 178.51 227.99 115C227.99 51.49 176.96 0 114 0C51.04 0 0 51.49 0 115C0 178.51 51.04 229.99 114 229.99V230Z" fill="#FFB70A"/>
<path opacity="0.25" d="M208.52 115C208.52 147.92 191.98 176.95 166.83 194.08C151.75 204.36 133.57 210.36 114 210.36C77.9605 210.36 46.6305 190.01 30.6905 160.08C23.5305 146.66 19.4805 131.31 19.4805 115.01C19.4805 62.3502 61.8005 19.6602 114 19.6602C166.2 19.6602 208.52 62.3502 208.52 115.01V115Z" fill="#FFB70A"/>
<mask id="mask1_4771_5059" style="mask-type:luminance" maskUnits="userSpaceOnUse" x="19" y="19" width="190" height="192">
<path d="M208.52 115C208.52 147.92 191.98 176.95 166.83 194.08C151.75 204.36 133.57 210.36 114 210.36C77.9605 210.36 46.6305 190.01 30.6905 160.08C23.5305 146.66 19.4805 131.31 19.4805 115.01C19.4805 62.3502 61.8005 19.6602 114 19.6602C166.2 19.6602 208.52 62.3502 208.52 115.01V115Z" fill="white"/>
</mask>
<g mask="url(#mask1_4771_5059)">
<mask id="mask2_4771_5059" style="mask-type:luminance" maskUnits="userSpaceOnUse" x="37" y="57" width="149" height="176">
<path d="M186 57H37V233H186V57Z" fill="white"/>
</mask>
<g mask="url(#mask2_4771_5059)">
<path d="M43.5 128.77C44.66 150.88 45.81 172.98 46.97 195.08L112.02 233C112.08 205 112.15 177 112.21 149.01C89.31 142.26 66.4 135.52 43.5 128.77Z" fill="#72B62F"/>
<path d="M181.98 129.869C158.73 136.249 135.47 142.629 112.21 149.009C112.15 177.009 112.08 205.009 112.02 232.999C134.05 220.339 156.07 207.679 178.1 195.009C179.39 173.299 180.69 151.579 181.97 129.869H181.98Z" fill="#56921A"/>
<path d="M112.12 116.939C112.15 127.629 112.18 138.319 112.22 149.009C136.8 142.249 161.37 135.489 185.96 128.729C185.98 120.619 185.99 112.499 186.01 104.389C161.38 108.569 136.76 112.759 112.13 116.939H112.12Z" fill="#46770C"/>
<path d="M37 104.1C62.04 108.38 87.08 112.66 112.12 116.93C112.15 127.62 112.18 138.31 112.22 149C87.94 141.86 63.65 134.71 39.37 127.57C38.58 119.74 37.79 111.92 37 104.09V104.1Z" fill="#56921A"/>
<path d="M112.13 91.7383L37 104.098C62.04 108.378 87.08 112.658 112.12 116.938C136.74 112.758 161.37 108.568 186 104.388C161.38 100.168 136.76 95.9583 112.13 91.7483V91.7383Z" fill="#6BAA21"/>
<path d="M62.0703 121.329C60.8203 136.739 60.4803 154.569 62.1203 174.249C63.0903 185.829 64.6203 196.589 66.4403 206.429C70.6703 208.899 74.9102 211.359 79.1302 213.829C77.4902 200.659 76.1502 186.669 75.2702 171.939C74.2302 154.599 73.9402 138.199 74.1702 122.859C72.5302 122.159 70.1203 121.369 67.1403 121.139C65.1703 120.989 63.4403 121.119 62.0703 121.329Z" fill="#FFB70A"/>
<path d="M149.73 134.689C149.81 146.619 149.57 159.189 148.89 172.339C148.14 186.939 146.93 200.769 145.42 213.799C149.68 211.329 153.93 208.859 158.19 206.389C159.49 196.399 160.56 185.869 161.31 174.819C162.45 158.069 162.7 142.309 162.36 127.719C160.8 127.749 156.9 128.029 153.29 130.779C151.55 132.099 150.43 133.579 149.73 134.689Z" fill="#AA6E04"/>
<path d="M105.93 101.858C100.3 103.258 96.1295 105.378 93.4895 106.958C88.5995 109.878 83.7395 112.788 81.7895 118.478C80.5395 122.148 80.9895 125.528 81.4295 127.498C79.7695 125.958 75.3095 122.268 68.4695 121.268C59.5495 119.958 52.8895 124.138 51.2695 125.228C51.9095 123.608 52.9095 121.348 54.4295 118.838C61.2295 107.558 71.4795 102.478 75.7695 100.418C86.0995 95.4582 95.6495 94.8882 101.11 94.9982C102.72 97.2882 104.33 99.5682 105.93 101.858Z" fill="#D39307"/>
<path d="M120.42 102.38C124.11 103.29 128.91 105.09 133.37 108.82C147.68 120.81 145.14 141.5 144.86 143.56C147.46 133.89 154.92 127.56 162.37 127.71C167.14 127.81 170.7 130.55 172.32 132C172.03 130.13 171.44 127.3 170.12 124.08C164.33 109.97 150.86 103.83 143.99 100.7C136.83 97.4397 122.63 92.4097 119.78 96.4997C118.71 98.0397 119.52 100.48 120.42 102.36V102.38Z" fill="#D39307"/>
<path d="M105.36 86.2389C103.06 81.0189 100.36 77.3789 98.5204 75.1889C89.0704 63.9389 76.1304 59.8089 68.0504 60.1089C66.0804 60.1789 64.1504 60.5389 62.2904 61.6189C59.4104 63.3189 57.6604 66.2589 56.2904 70.7089C53.0404 81.2689 53.7604 94.2889 54.1304 99.0989C57.8004 96.9889 62.7704 94.7389 68.9204 93.5189C85.6004 90.1889 99.2604 96.7089 104.15 99.3589C103.68 98.6489 103.01 97.4289 102.69 95.7889C102.36 94.1389 102.55 92.8389 102.66 92.1589C103.09 89.3489 104.46 87.3189 105.34 86.2189L105.36 86.2389Z" fill="#FFB70A"/>
<path d="M54.1396 99.1093C54.2296 99.7293 55.7796 99.9393 60.0496 100.389C74.7096 101.919 82.0396 102.679 87.3196 102.219C91.5396 101.859 97.2797 101.039 103.98 99.0593C91.4797 92.5993 81.1597 92.3093 75.8297 92.6193C65.2397 93.2293 53.8897 97.3593 54.1497 99.1093H54.1396Z" fill="#966400"/>
<path d="M169.12 96.6391C162.48 94.9591 152.25 93.2791 140.01 94.8791C133 95.8091 127.07 97.5791 122.45 99.3591C126.8 101.489 140.09 107.269 155.6 103.009C161.37 101.429 165.88 98.8891 169.11 96.6291L169.12 96.6391Z" fill="#966400"/>
<path d="M119.95 85.0291C127.5 73.4791 135.29 66.5491 140.41 62.6591C145.87 58.5091 149.96 56.5491 154.48 57.0791C158.76 57.5791 161.72 60.1091 162.72 60.9891C167.15 64.8791 168.25 69.9791 169.28 75.0991C170.18 79.6091 171.06 87.1591 169.12 96.6291C163.57 95.2191 155.37 93.7991 145.45 94.3991C135.65 94.9891 127.76 97.3291 122.45 99.3591C122.86 98.7291 124.83 95.5691 123.98 91.4091C123.21 87.6191 120.62 85.5291 119.95 85.0291Z" fill="#FFB70A"/>
<path d="M113.56 104.34C119.74 104.34 124.75 99.3395 124.75 93.1795C124.75 87.0195 119.74 82.0195 113.56 82.0195C107.38 82.0195 102.37 87.0195 102.37 93.1795C102.37 99.3395 107.38 104.34 113.56 104.34Z" fill="#E59E00"/>
</g>
</g>
</g>
</svg>
