<svg width="228" height="230" viewBox="0 0 228 230" fill="none" xmlns="http://www.w3.org/2000/svg">
<g clip-path="url(#clip0_4771_4959)">
<mask id="mask0_4771_4959" style="mask-type:luminance" maskUnits="userSpaceOnUse" x="0" y="0" width="228" height="230">
<path d="M228 0H0V230H228V0Z" fill="white"/>
</mask>
<g mask="url(#mask0_4771_4959)">
<path opacity="0.11" d="M114 230C177 230 228 178.5 228 115C228 51.5 177 0 114 0C51 0 0 51.5 0 115C0 178.5 51 230 114 230Z" fill="#FFB70A"/>
<path opacity="0.25" d="M208.5 115C208.5 147.9 192 177 166.8 194.1C151.7 204.4 133.5 210.4 114 210.4C78 210.4 46.6 190.1 30.7 160.1C23.5 146.7 19.5 131.3 19.5 115C19.5 62.2996 61.8 19.5996 114 19.5996C166.2 19.5996 208.5 62.2996 208.5 115Z" fill="#FFB70A"/>
<mask id="mask1_4771_4959" style="mask-type:luminance" maskUnits="userSpaceOnUse" x="19" y="19" width="190" height="192">
<path d="M208.5 115C208.5 147.9 192 177 166.8 194.1C151.7 204.4 133.5 210.4 114 210.4C78 210.4 46.6 190.1 30.7 160.1C23.5 146.7 19.5 131.3 19.5 115C19.5 62.2996 61.8 19.5996 114 19.5996C166.2 19.5996 208.5 62.2996 208.5 115Z" fill="white"/>
</mask>
<g mask="url(#mask1_4771_4959)">
<mask id="mask2_4771_4959" style="mask-type:luminance" maskUnits="userSpaceOnUse" x="30" y="67" width="159" height="163">
<path d="M188.9 67H30.9004V230H188.9V67Z" fill="white"/>
</mask>
<g mask="url(#mask2_4771_4959)">
<path d="M152.4 222.5C151 224.4 148.6 227.1 144.8 228.8C141.2 230.4 137 230.9 119.7 227.4C107.7 225.1 106.5 224.2 102.5 224.9C95.4005 226.3 94.4004 230 89.3004 229.6C83.7005 229.3 79.7004 224.6 74.0004 218.1C67.3004 210.3 68.7004 208.6 63.3004 203.4C57.1004 197.3 54.9004 199.2 47.0004 192.2C42.5004 188.3 37.5004 183.7 36.1004 176.7C35.5004 173.6 36.1004 172.8 36.3004 165.8C36.7004 157.8 36.2004 151.3 35.9004 148.3C34.5004 132.6 29.2004 130.6 31.2004 121.5C32.6004 115.2 36.3004 110.7 37.3004 109.5C42.4004 103.5 45.4004 104.9 49.7004 99.8C55.6004 92.8 52.3004 87 57.8004 80.8C60.0004 78.3 64.0004 75.5 71.6004 74.5" fill="#56921A"/>
<path d="M105.1 72.6996C96.5001 71.1996 94.6001 68.2996 88.7001 67.3996C86.6001 67.0996 80.8001 66.0996 76.1001 69.1996C71.0001 72.4996 71.9001 77.5996 67.3001 84.7996C66.3001 86.3996 62.5001 89.6996 55.1001 96.2996C45.3001 105.1 44.5001 105.5 43.9001 107.5C42.3001 112.6 46.0001 114.8 49.8001 128C51.3001 133.1 52.8001 138.1 53.0001 144.6C53.5001 155.4 50.2001 157.2 51.8001 164.7C53.4001 171.9 57.9001 176.7 60.6001 179.6C68.6001 188.1 72.5001 185.1 79.9001 192.1C89.8001 201.4 86.2001 209.8 96.9001 216.6C99.1001 218 103.6 221 109.5 220.7C114 220.5 115.2 218.5 121.1 217.6C125.9 216.9 129.7 217.6 133.2 218.2C142.6 219.9 143.3 222.6 148.9 222.7C157.4 222.8 163.7 216.5 164.1 216.1C170.3 209.7 166.6 204.6 172.8 196.1C177.8 189.1 181.4 190.7 185.3 183.8C185.9 182.8 190 175.3 188.4 166.4C187.1 159.3 183.6 158.8 181.6 149.9C181 147.4 181.2 146.8 180.7 137.7C180.1 126 179.8 120.1 179.4 119C176 110 168.7 112.6 158.5 100.2C156.6 97.8996 153.7 93.3996 147.9 84.2996C142.3 75.4996 141.4 73.5996 138.2 71.9996C131.5 68.6996 122.3 70.9996 120.6 71.3996C118 71.9996 114.9 73.1996 110.1 73.1996C109.6 73.1996 107.8 73.1996 105.1 72.6996Z" fill="#72B62F"/>
<path d="M104.1 146.4C113.5 144.7 119.4 133.9 117.4 122.3C115.3 110.7 106 102.6 96.6003 104.3C87.2003 106 81.3003 116.8 83.3003 128.4C85.4003 140 94.7003 148.1 104.1 146.4Z" fill="#D39307"/>
<path d="M148.6 184.3C158 182.6 163.9 171.8 161.9 160.2C159.8 148.6 150.5 140.5 141.1 142.2C131.7 143.9 125.8 154.7 127.8 166.3C129.8 177.9 139.1 186 148.6 184.3Z" fill="#D39307"/>
<path d="M152.6 184.3C162 182.6 167.9 171.8 165.9 160.2C163.8 148.6 154.5 140.5 145.1 142.2C135.7 143.9 129.8 154.7 131.8 166.3C133.9 177.9 143.2 186 152.6 184.3Z" fill="#FFB70A"/>
<path d="M151 171.299C153.7 170.799 155.1 166.399 154.2 161.499C153.3 156.599 150.4 152.999 147.8 153.399C145.1 153.899 143.7 158.299 144.6 163.199C145.4 168.199 148.3 171.799 151 171.299Z" fill="#D39307"/>
<path d="M99.3005 177.3C99.4005 176.8 99.6005 176.3 99.9005 175.9C101.101 173.6 102.301 171.2 103.501 168.8C105.901 164.1 108.301 159.4 110.701 154.6C113.101 149.9 115.501 145.2 117.901 140.4C120.301 135.7 122.701 131 125.101 126.2C127.501 121.5 129.901 116.8 132.301 112C133.001 110.7 133.501 109.2 134.301 108C136.601 104.3 140.001 102.3 143.101 102.8C143.401 102.8 146.101 103.4 147.001 105.5C147.801 107.4 146.701 109.5 146.401 110.2C144.201 114.5 131.401 140.6 113.701 176.5C112.901 177.7 110.201 181.7 105.601 182.3C104.101 182.5 102.501 182.6 101.201 181.7C100.301 181.1 99.7005 180.1 99.4005 179.1C99.1005 178.6 99.1005 177.9 99.3005 177.3Z" fill="#D39307"/>
<path d="M107.701 146.4C117.101 144.7 123.001 133.9 121.001 122.3C118.901 110.7 109.601 102.6 100.201 104.3C90.8009 106 84.9009 116.8 86.9009 128.4C89.0009 140 98.3009 148.1 107.701 146.4Z" fill="#FFB70A"/>
<path d="M106.101 133.499C108.801 132.999 110.201 128.599 109.301 123.699C108.401 118.799 105.501 115.199 102.901 115.599C100.201 116.099 98.8009 120.499 99.7009 125.399C100.601 130.299 103.401 133.999 106.101 133.499Z" fill="#D39307"/>
<path d="M102.1 178.3C102.3 177.4 102.8 176.5 103.3 175.6C103.9 174.4 104.5 173.3 105.1 172.1C106.3 169.8 107.5 167.4 108.7 165C111.1 160.3 113.5 155.6 115.9 150.8C118.3 146.1 120.7 141.4 123.1 136.6C125.5 131.9 127.9 127.2 130.3 122.4C132.6 117.9 134.8 113.5 137.1 109C139.4 105.3 142.8 103.3 145.9 103.8C146.2 103.8 148.9 104.4 149.8 106.5C150.6 108.4 149.5 110.5 149.2 111.2C147 115.5 134.2 141.6 116.5 177.5C115.7 178.7 113 182.7 108.4 183.3C107.2 183.5 106 183.6 104.8 183.2C103.8 182.8 103 182 102.5 181.1C101.9 180.2 101.9 179.2 102.1 178.3Z" fill="#FFB70A"/>
</g>
</g>
</g>
</g>
<defs>
<clipPath id="clip0_4771_4959">
<rect width="228" height="230" fill="white"/>
</clipPath>
</defs>
</svg>
