<svg width="233" height="230" viewBox="0 0 233 230" fill="none" xmlns="http://www.w3.org/2000/svg">
<g clip-path="url(#clip0_4771_4987)">
<path opacity="0.11" d="M113.995 230C176.959 230 227.989 178.511 227.989 115.005C227.989 51.4998 176.959 0 113.995 0C51.0305 0 0 51.489 0 114.995C0 178.5 51.0412 229.989 113.995 229.989V230Z" fill="#FFB70A"/>
<path opacity="0.25" d="M208.516 114.995C208.516 147.916 191.972 176.947 166.823 194.07C151.745 204.349 133.564 210.346 113.994 210.346C77.9563 210.346 46.625 189.996 30.6847 160.063C23.5224 146.645 19.4727 131.293 19.4727 114.995C19.4727 62.3329 61.7898 19.6445 113.994 19.6445C166.199 19.6445 208.516 62.3329 208.516 114.995Z" fill="#FFB70A"/>
</g>
<path d="M145.907 145.145C143.645 144.537 142.309 142.212 142.923 139.93L149.482 115.256C154.254 97.3069 143.645 78.7822 125.852 73.9691C108.059 69.1559 89.6955 79.8578 84.9242 97.8067L78.3757 122.47C77.7726 124.752 75.4677 126.099 73.2059 125.48C70.9441 124.871 69.6086 122.546 70.2225 120.265L76.771 95.6012C79.6574 84.7471 86.5829 75.6531 96.2978 70.0033C106.002 64.3536 117.289 62.8325 128.038 65.7443C138.787 68.6452 147.813 75.6422 153.414 85.4424C159.014 95.2317 160.522 106.618 157.636 117.461L151.087 142.125C150.484 144.406 148.158 145.765 145.907 145.156V145.145Z" fill="#D39307"/>
<path d="M60.9499 72.4688L78.495 77.2167L72.6574 99.1965L55.1123 94.4485L60.9499 72.4688ZM165.499 100.728L183.044 105.476L177.206 127.456L159.661 122.708L165.499 100.728Z" fill="#56921A"/>
<path d="M184.034 129.271L166.823 194.07C151.745 204.348 133.564 210.345 113.994 210.345C77.9561 210.345 46.6249 189.995 30.6846 160.062L48.5851 92.6562L55.1228 94.4272L72.6679 99.1643L75.5974 99.9575L76.556 100.218L83.2014 102.011L83.7507 102.163L84.9677 102.489L91.3654 104.217L147.113 119.286L148.309 119.612L153.759 121.09L155.525 121.568L156.473 121.818L159.672 122.687L160.124 122.806L161.912 123.285L177.217 127.424L184.034 129.271Z" fill="#72B62F"/>
<path d="M184.034 129.271C175.913 124.653 170.119 119.188 171.508 113.821C172.381 110.464 176.689 107.324 183.033 105.455L121.48 88.8533L60.9279 72.4473C65.4085 77.217 67.6918 82.1605 66.7871 85.5069C65.3331 90.8416 57.7399 92.6778 48.5742 92.6452L184.024 129.26L184.034 129.271Z" fill="#39680B"/>
<path d="M66.8302 135.942C66.464 137.322 66.367 138.767 66.5501 140.19C66.7332 141.613 67.1964 142.982 67.9072 144.221C68.6181 145.46 69.5659 146.546 70.686 147.415C71.8169 148.284 73.0986 148.926 74.4664 149.295C75.8343 149.664 77.2667 149.762 78.6777 149.577C80.0886 149.393 81.4457 148.926 82.6735 148.208C83.9014 147.491 84.9784 146.535 85.84 145.405C86.7017 144.275 87.3371 142.972 87.7033 141.592C88.0695 140.212 88.1665 138.767 87.9834 137.344C87.8003 135.92 87.3371 134.551 86.6263 133.313C85.9154 132.074 84.9676 130.988 83.8475 130.118C82.7166 129.249 81.4349 128.608 80.0671 128.239C78.6992 127.869 77.2667 127.771 75.8558 127.956C74.4449 128.141 73.0878 128.608 71.86 129.325C70.6321 130.042 69.5551 130.998 68.6935 132.128C67.8318 133.269 67.1964 134.562 66.8302 135.942Z" fill="#56921A"/>
<path d="M138.971 155.457C138.228 158.249 138.616 161.226 140.048 163.725C141.48 166.224 143.839 168.06 146.607 168.799C149.375 169.549 152.326 169.157 154.804 167.712C157.281 166.267 159.101 163.888 159.833 161.096C160.577 158.303 160.189 155.326 158.756 152.827C157.324 150.328 154.965 148.492 152.197 147.753C149.429 147.004 146.478 147.395 144.001 148.84C141.524 150.285 139.703 152.664 138.971 155.457Z" fill="#56921A"/>
<path d="M154.103 157.064L145.939 154.859L152.498 130.185C152.778 129.109 152.875 127.859 152.961 126.523C153.08 124.817 153.166 123.035 153.758 121.091L161.922 123.296C162.138 125.6 161.158 130.532 160.662 132.401L154.103 157.075V157.064ZM81.3916 137.41L73.2275 135.204L79.7868 110.53C80.293 108.618 81.1008 106.901 81.8224 105.38C82.3932 104.174 82.9425 103.011 83.2118 102.012L91.3758 104.217C90.3526 105.891 88.4354 110.986 87.9723 112.735L81.4131 137.41H81.3916Z" fill="#56921A"/>
<path d="M60.2931 134.172C59.9269 135.552 59.8299 136.997 60.013 138.421C60.1961 139.844 60.6592 141.213 61.3701 142.452C62.0809 143.69 63.0288 144.777 64.1489 145.646C65.269 146.515 66.5615 147.156 67.9293 147.525C69.2972 147.895 70.7296 147.993 72.1406 147.808C73.5515 147.623 74.9086 147.156 76.1364 146.439C77.3642 145.722 78.4413 144.766 79.3029 143.636C80.1646 142.495 80.8 141.202 81.1662 139.822C81.9094 137.03 81.5216 134.053 80.0892 131.554C78.6567 129.044 76.298 127.219 73.53 126.48C70.7619 125.73 67.8108 126.122 65.3336 127.567C62.8564 129.012 61.0362 131.391 60.3038 134.183L60.2931 134.172Z" fill="#FFB70A"/>
<path d="M132.455 153.696C132.089 155.076 131.992 156.521 132.175 157.944C132.358 159.367 132.821 160.736 133.532 161.975C134.243 163.214 135.191 164.3 136.311 165.169C137.431 166.038 138.724 166.679 140.091 167.049C141.459 167.418 142.892 167.516 144.303 167.331C145.714 167.147 147.071 166.679 148.299 165.962C149.526 165.245 150.603 164.289 151.465 163.159C152.327 162.029 152.962 160.725 153.328 159.346C153.695 157.966 153.791 156.521 153.608 155.097C153.425 153.674 152.962 152.305 152.251 151.067C151.54 149.828 150.593 148.741 149.472 147.872C148.352 147.003 147.06 146.362 145.692 145.993C144.324 145.623 142.892 145.525 141.481 145.71C140.07 145.895 138.713 146.362 137.485 147.079C136.257 147.796 135.18 148.752 134.318 149.882C133.457 151.012 132.821 152.316 132.455 153.696Z" fill="#FFB70A"/>
<path d="M142.407 158.313C140.145 157.705 138.809 155.38 139.423 153.098L145.982 128.424C150.754 110.475 140.145 91.9502 122.352 87.137C104.559 82.3238 86.1955 93.0258 81.4242 110.975L74.865 135.649C74.2619 137.931 71.957 139.267 69.6952 138.659C67.4334 138.05 66.0978 135.725 66.7118 133.443L73.271 108.769C76.1575 97.915 83.0829 88.8211 92.7978 83.1713C102.502 77.5215 113.789 76.0004 124.538 78.9123C135.287 81.8132 144.313 88.8102 149.914 98.6104C155.514 108.4 157.022 119.786 154.136 130.629L147.576 155.304C146.973 157.564 144.647 158.922 142.407 158.313Z" fill="#FFB70A"/>
<path d="M206.548 46C211.601 46 216.54 47.4984 220.742 50.3056C224.943 53.1128 228.217 57.1029 230.151 61.7711C232.085 66.4394 232.591 71.5762 231.605 76.532C230.619 81.4878 228.186 86.04 224.613 89.6129C221.04 93.1859 216.488 95.6191 211.532 96.6048C206.576 97.5906 201.439 97.0847 196.771 95.151C192.103 93.2173 188.113 89.9428 185.306 85.7415C182.498 81.5402 181 76.6008 181 71.5479C180.996 68.1916 181.653 64.8674 182.936 61.7658C184.218 58.6642 186.1 55.846 188.473 53.4728C190.846 51.0996 193.664 49.2179 196.766 47.9356C199.867 46.6533 203.192 45.9955 206.548 46Z" fill="#F84842"/>
<path d="M202.081 79.5262L202.082 79.5267C203.66 80.4374 205.677 79.897 206.588 78.3194L217.668 59.1281C218.578 57.5506 218.038 55.5334 216.46 54.6227L216.46 54.6222C214.882 53.7115 212.865 54.252 211.954 55.8295L200.874 75.0208C199.963 76.5983 200.504 78.6155 202.081 79.5262Z" fill="white"/>
<path d="M198.942 88.9186C201.127 88.9186 202.899 87.1469 202.899 84.9613C202.899 82.7757 201.127 81.0039 198.942 81.0039C196.756 81.0039 194.984 82.7757 194.984 84.9613C194.984 87.1469 196.756 88.9186 198.942 88.9186Z" fill="white"/>
<defs>
<clipPath id="clip0_4771_4987">
<rect width="228" height="230" fill="white"/>
</clipPath>
</defs>
</svg>
