<svg xmlns="http://www.w3.org/2000/svg" xmlns:xlink="http://www.w3.org/1999/xlink" width="400" height="400" viewBox="0 0 419 424.159">
  <g id="Group_13358" data-name="Group 13358" transform="translate(-55.5 -350.745)">
    <g transform="matrix(1, 0, 0, 1, 55.5, 350.74)" filter="url(#Path_31293)">
      <path id="Path_31293-2" data-name="Path 31293" d="M5,0H357c2.761,0,5,2.679,5,5.985v355.19c0,3.305-2.239,5.985-5,5.985H5c-2.761,0-5-2.679-5-5.985V5.985C0,2.679,2.239,0,5,0Z" transform="translate(23.5 23.5)" fill="#553089"/>
    </g>
    <g id="Mask_Group_6" data-name="Mask Group 6" transform="translate(79 374.245)" clip-path="url(#clip-path)">
      <g id="Group_13009" data-name="Group 13009" transform="translate(0 170.159)">
        <path id="Path_31294" data-name="Path 31294" d="M80.3,90.712l31.415,4.595,28.728-13.519-30.985-1.7Z" transform="translate(52.232 59.826)" fill="#a6cfe1"/>
        <path id="Path_31295" data-name="Path 31295" d="M117.422,89.448l-28.958-4.4L96.824,82l28.9,3.539Z" transform="translate(56.986 60.637)" fill="#e16071"/>
        <path id="Path_31296" data-name="Path 31296" d="M96.581,93.528,87.5,92.2l25.488-11.844L123,80.9Z" transform="translate(56.323 59.86)" fill="#e16071"/>
        <path id="Path_31297" data-name="Path 31297" d="M92.772,153.487l29.31,7.87L111.719,91.528,80.3,86.933Z" transform="translate(51.823 72.36)" fill="#a6cfe1"/>
        <g id="Group_12866" data-name="Group 12866">
          <g id="Group_12865" data-name="Group 12865" clip-path="url(#clip-path-2)">
            <g id="Group_12864" data-name="Group 12864" transform="translate(131.338 150.64)" opacity="0.45" style="mix-blend-mode: multiply;isolation: isolate">
              <g id="Group_12863" data-name="Group 12863">
                <g id="Group_12862" data-name="Group 12862" clip-path="url(#clip-path-3)">
                  <path id="Path_31298" data-name="Path 31298" d="M97.111,124.755c-2.865-12.755-1.668-25.041.743-35.1L80.3,86.933,93.44,161.225l30.88,8.785-1.593-11.378c-10.994-5.051-21.409-15.15-25.617-33.877" transform="translate(-80.304 -86.933)" fill="#8a88c2"/>
                </g>
              </g>
            </g>
          </g>
        </g>
        <path id="Path_31299" data-name="Path 31299" d="M106.732,157.722l-9.255-2.485L87.5,87.985l9.083,1.329Z" transform="translate(55.978 72.941)" fill="#e16071"/>
        <g id="Group_12874" data-name="Group 12874">
          <g id="Group_12873" data-name="Group 12873" clip-path="url(#clip-path-2)">
            <g id="Group_12869" data-name="Group 12869" transform="translate(143.102 152.463)" opacity="0.45" style="mix-blend-mode: multiply;isolation: isolate">
              <g id="Group_12868" data-name="Group 12868">
                <g id="Group_12867" data-name="Group 12867" clip-path="url(#clip-path-5)">
                  <path id="Path_31300" data-name="Path 31300" d="M93.282,88.881l-5.785-.9L91,113.012a82.67,82.67,0,0,1,2.28-24.131" transform="translate(-87.496 -87.985)" fill="#31a3d6"/>
                </g>
              </g>
            </g>
            <g id="Group_12872" data-name="Group 12872" transform="translate(148.144 188.462)" opacity="0.45" style="mix-blend-mode: multiply;isolation: isolate">
              <g id="Group_12871" data-name="Group 12871">
                <g id="Group_12870" data-name="Group 12870" clip-path="url(#clip-path-6)">
                  <path id="Path_31301" data-name="Path 31301" d="M90.58,108.76h0l5.472,39.07L105.8,150.6l-2.365-16.888c-5.685-5.784-10.364-13.854-12.858-24.956" transform="translate(-90.58 -108.76)" fill="#31a3d6"/>
                </g>
              </g>
            </g>
          </g>
        </g>
        <path id="Path_31302" data-name="Path 31302" d="M100.541,94.7,110.9,164.533l25.76-16.042-7.4-67.307Z" transform="translate(64.736 69.184)" fill="#a6cfe1"/>
        <g id="Group_12879" data-name="Group 12879">
          <g id="Group_12878" data-name="Group 12878" clip-path="url(#clip-path-2)">
            <g id="Group_12877" data-name="Group 12877" transform="translate(173.76 222.339)" opacity="0.45" style="mix-blend-mode: multiply;isolation: isolate">
              <g id="Group_12876" data-name="Group 12876">
                <g id="Group_12875" data-name="Group 12875" clip-path="url(#clip-path-8)">
                  <path id="Path_31303" data-name="Path 31303" d="M119.245,132.16a48.657,48.657,0,0,1-13-3.85l1.593,11.378Z" transform="translate(-106.241 -128.31)" fill="#83a4c9"/>
                </g>
              </g>
            </g>
          </g>
        </g>
        <path id="Path_31304" data-name="Path 31304" d="M117.27,156.6l8.134-5.065-9.979-67.253-8.307,3.91Z" transform="translate(68.507 70.894)" fill="#e16071"/>
        <g id="Mask_Group_5" data-name="Mask Group 5" clip-path="url(#clip-path-2)">
          <path id="Path_31305" data-name="Path 31305" d="M101.073,91.226a57.348,57.348,0,0,1-11.745-3.786,23.96,23.96,0,0,1-6.49-4.07c-.965-1.175-2.529-2.3-2.623-5.479a5.741,5.741,0,0,1,1.421-3.733,8.174,8.174,0,0,1,2.2-1.748,18.047,18.047,0,0,1,4.146-1.535,32.923,32.923,0,0,1,3.659-.593,16.163,16.163,0,0,1,7.806,1.074c4.941,1.911,7.937,5.98,9.775,9.3a30.546,30.546,0,0,1,3.107,8.7,23.606,23.606,0,0,1,.463,3.438,63.636,63.636,0,0,1-11.718-1.568m10.119-1.4a45.879,45.879,0,0,0-4.838-6.989,24.811,24.811,0,0,0-3.829-3.627,14.3,14.3,0,0,0-4.777-2.4A12.868,12.868,0,0,0,92.3,76.55a27.415,27.415,0,0,0-3.145.624,13.174,13.174,0,0,0-2.378.979c-.466.17-.42.319-.62.376-.183.073.119-.045.074-.135a.42.42,0,0,1,.049-.329c-.216-.629.1.168.636.7a26.052,26.052,0,0,0,4.82,3.514c3.613,2.1,7.273,3.866,10.421,5.374l7.7,3.653c1.864.95,2.931,1.49,2.931,1.49s-.54-1.126-1.6-2.965" transform="translate(50.969 51.435)" fill="#e16071"/>
          <g id="Group_12882" data-name="Group 12882" transform="translate(131.17 121.623)" opacity="0.45" style="mix-blend-mode: multiply;isolation: isolate">
            <g id="Group_12881" data-name="Group 12881">
              <g id="Group_12880" data-name="Group 12880" clip-path="url(#clip-path-10)">
                <path id="Path_31306" data-name="Path 31306" d="M93.342,83.184c-.535-.3-1.068-.6-1.6-.906a26.187,26.187,0,0,1-4.82-3.514,3.684,3.684,0,0,1-.4-.489,1.5,1.5,0,0,1,.265-.121,13.1,13.1,0,0,1,2.376-.979,27.488,27.488,0,0,1,3.145-.624c.175-.021.35-.038.525-.054a14.205,14.205,0,0,1,4.383-5.855,16.449,16.449,0,0,0-5.572-.362,33.72,33.72,0,0,0-3.657.593,18.138,18.138,0,0,0-4.146,1.537,8.178,8.178,0,0,0-2.2,1.748,5.735,5.735,0,0,0-1.42,3.731c.093,3.18,1.657,4.306,2.623,5.481a23.953,23.953,0,0,0,6.488,4.07,57.379,57.379,0,0,0,11.745,3.786l.018,0c-3.511-2.244-6.359-4.921-7.749-8.046" transform="translate(-80.201 -70.188)" fill="#e16071"/>
              </g>
            </g>
          </g>
          <path id="Path_31307" data-name="Path 31307" d="M102.194,96.7a22.951,22.951,0,0,1-1.356-3.162,30.973,30.973,0,0,1-1.8-9.1c-.137-3.85.322-8.988,3.516-13.416a17.341,17.341,0,0,1,6.035-5.356,33.689,33.689,0,0,1,3.384-1.586,17.978,17.978,0,0,1,4.275-1.069,7.723,7.723,0,0,1,2.741.22,5.275,5.275,0,0,1,3.093,2.336c1.534,2.734.788,4.575.571,6.115a26.322,26.322,0,0,1-3.4,7.131,62.608,62.608,0,0,1-7.978,9.886,68.376,68.376,0,0,1-9.082,8m0,0,1.714-2.927c1.119-1.8,2.718-4.379,4.635-7.468,1.889-3.065,4.077-6.64,6.056-10.471a28.549,28.549,0,0,0,2.28-5.708c.182-.754.043-1.606.18-.951a.391.391,0,0,1,.209.25c.007.1.321.029.131.073-.2.064-.236-.088-.715.036a12.883,12.883,0,0,0-2.5.529,27.668,27.668,0,0,0-2.967,1.268,13.6,13.6,0,0,0-4.457,3.324,15.607,15.607,0,0,0-2.808,4.746,26.905,26.905,0,0,0-1.387,5.24,48.644,48.644,0,0,0-.528,8.649c.039,2.154.157,3.412.157,3.412" transform="translate(62.928 46.135)" fill="#e16071"/>
          <g id="Group_12885" data-name="Group 12885" transform="translate(161.949 112.367)" opacity="0.45" style="mix-blend-mode: multiply;isolation: isolate">
            <g id="Group_12884" data-name="Group 12884">
              <g id="Group_12883" data-name="Group 12883" clip-path="url(#clip-path-11)">
                <path id="Path_31308" data-name="Path 31308" d="M102.566,83.257a26.906,26.906,0,0,1,1.387-5.24,14.758,14.758,0,0,1,1.194-2.5c-.669-3.859.7-7.633,2.473-10.671a17.33,17.33,0,0,0-5.062,4.793C99.363,74.066,98.9,79.2,99.041,83.055a30.973,30.973,0,0,0,1.8,9.1,22.95,22.95,0,0,0,1.356,3.162s-.118-1.258-.157-3.412a48.644,48.644,0,0,1,.528-8.649" transform="translate(-99.021 -64.846)" fill="#31a3d6"/>
              </g>
            </g>
          </g>
          <g id="Group_12888" data-name="Group 12888" transform="translate(165.123 127.383)" opacity="0.45" style="mix-blend-mode: multiply;isolation: isolate">
            <g id="Group_12887" data-name="Group 12887">
              <g id="Group_12886" data-name="Group 12886" clip-path="url(#clip-path-12)">
                <path id="Path_31309" data-name="Path 31309" d="M116.353,73.512c-2.589,1.5-5.1,2.3-7.2,2.041-.633,1.048-1.254,2.06-1.845,3.019-1.917,3.09-3.515,5.665-4.635,7.468l-1.714,2.927a68.251,68.251,0,0,0,9.082-8,64.566,64.566,0,0,0,6.31-7.453" transform="translate(-100.961 -73.511)" fill="#31a3d6"/>
              </g>
            </g>
          </g>
          <path id="Path_31310" data-name="Path 31310" d="M97.229,84.539a5.26,5.26,0,1,0,5.252-5.564,5.414,5.414,0,0,0-5.252,5.564" transform="translate(61.79 57.875)" fill="#e16071"/>
          <g id="Group_12891" data-name="Group 12891" transform="translate(159.019 138.693)" opacity="0.45" style="mix-blend-mode: multiply;isolation: isolate">
            <g id="Group_12890" data-name="Group 12890">
              <g id="Group_12889" data-name="Group 12889" clip-path="url(#clip-path-13)">
                <path id="Path_31311" data-name="Path 31311" d="M103.815,86.022a5.414,5.414,0,0,1-5.252-5.564c0-.142.011-.281.021-.419a5.716,5.716,0,0,0-1.356,3.72,5.246,5.246,0,1,0,10.482.421,5.109,5.109,0,0,1-3.9,1.842" transform="translate(-97.229 -80.038)" fill="#31a3d6"/>
              </g>
            </g>
          </g>
          <path id="Path_31312" data-name="Path 31312" d="M101.819,81.848c.651.691,1.461.953,1.809.584s.1-1.225-.55-1.917-1.461-.953-1.809-.586-.1,1.227.55,1.918" transform="translate(64.258 58.453)" fill="#fff"/>
          <path id="Path_31313" data-name="Path 31313" d="M114.364,86.422l5.607-2.97,4.139,36.635s-4.406-31.26-9.746-33.665" transform="translate(72.68 61.156)" fill="#fff"/>
          <path id="Path_31314" data-name="Path 31314" d="M80.12,83.121,53.064,157s27.246,13.956,48.6,2.008Z" transform="translate(33.723 60.914)" fill="#e16071"/>
          <path id="Path_31315" data-name="Path 31315" d="M60.223,114.117a77.056,77.056,0,0,0,25.468-6.25l-2.8-9.858a70.718,70.718,0,0,1-18.48,4.668Z" transform="translate(38.272 71.824)" fill="#da3d53"/>
          <path id="Path_31316" data-name="Path 31316" d="M65.153,100.486a69.174,69.174,0,0,0,11.776-4.067l-2.8-9.853c-1.42.574-2.914,1.123-4.48,1.636Z" transform="translate(41.406 63.438)" fill="#da3d53"/>
          <path id="Path_31317" data-name="Path 31317" d="M93.945,118.179l-2.651-9.34a69.577,69.577,0,0,1-31.871,7.921l-4.038,11.028c8.987.05,24.727-1.27,38.56-9.609" transform="translate(35.198 79.76)" fill="#da3d53"/>
          <path id="Path_31318" data-name="Path 31318" d="M100.594,128.612,98,119.47c-9.118,5.394-24.086,11.22-44.239,9l-.7,1.9s13.213,6.765,28.448,6.841a62.037,62.037,0,0,0,19.083-8.595" transform="translate(33.722 87.551)" fill="#ef3066"/>
          <g id="Group_12894" data-name="Group 12894" transform="translate(86.786 172.572)" opacity="0.45" style="mix-blend-mode: multiply;isolation: isolate">
            <g id="Group_12893" data-name="Group 12893">
              <g id="Group_12892" data-name="Group 12892" clip-path="url(#clip-path-14)">
                <path id="Path_31319" data-name="Path 31319" d="M77.356,123.962c-3.914-7.344-6.282-15.954-7.687-24.372l-.707,1.929-4.189,11.44L60.9,123.538l-1.828,4.992-5.312,14.506-.7,1.9.033.017.01.005.1.047.018.009.177.087.016.009.236.113.02.009q.292.138.713.331h0c3.7,1.676,14.744,6.153,27.123,6.216h0a40.441,40.441,0,0,0,20.153-4.833l-1.539-5.419-1.94-6.836c-7.142,1.532-15.142-.055-20.828-10.726" transform="translate(-53.063 -99.589)" fill="#da3d53"/>
              </g>
            </g>
          </g>
          <path id="Path_31320" data-name="Path 31320" d="M65.848,83.437l2.174,2.507a.987.987,0,0,1,.214.858l-.716,3.318A.919.919,0,0,0,68.772,91.2l2.923-1.417a.855.855,0,0,1,.837.05l2.757,1.747a.907.907,0,0,0,1.356-.929l-.368-3.381a.991.991,0,0,1,.3-.828L79,84.2a.974.974,0,0,0-.414-1.655l-3.148-.674a.914.914,0,0,1-.651-.561l-1.261-3.13a.881.881,0,0,0-1.614-.1l-1.577,2.967a.905.905,0,0,1-.7.482l-3.2.3a.966.966,0,0,0-.584,1.6" transform="translate(41.695 56.871)" fill="#e29e71"/>
          <g id="Group_12897" data-name="Group 12897" transform="translate(107.304 135.521)" opacity="0.45" style="mix-blend-mode: multiply;isolation: isolate">
            <g id="Group_12896" data-name="Group 12896">
              <g id="Group_12895" data-name="Group 12895" clip-path="url(#clip-path-15)">
                <path id="Path_31321" data-name="Path 31321" d="M72.387,85.314a14.259,14.259,0,0,1-.774-7.106l-1.279,2.405a.9.9,0,0,1-.7.482l-3.2.3a.967.967,0,0,0-.584,1.6L68.02,85.5a.993.993,0,0,1,.216.858l-.716,3.318a.918.918,0,0,0,1.253,1.081l2.921-1.416a.855.855,0,0,1,.837.049l2.757,1.747a.908.908,0,0,0,1.357-.929l-.257-2.36c-1.428.23-2.993-.206-4-2.535" transform="translate(-65.609 -78.208)" fill="#fecd00"/>
              </g>
            </g>
          </g>
          <path id="Path_31322" data-name="Path 31322" d="M70.148,90.472c1.272,3.275,2.342,6.607,3.34,9.96s1.917,6.727,2.766,10.12,1.629,6.807,2.311,10.248,1.315,6.895,1.73,10.409c-1.276-3.275-2.345-6.606-3.343-9.959s-1.917-6.727-2.762-10.121-1.626-6.808-2.308-10.248-1.315-6.895-1.734-10.409" transform="translate(44.58 66.301)" fill="#fff"/>
          <path id="Path_31323" data-name="Path 31323" d="M270.224,114.648a4.2,4.2,0,0,0-3.1-4.946,3.9,3.9,0,0,0-4.3,2.192c-.607.622-3.387,2.982-11.123,3.58-8.271.638-11.548-3.467-13.939-6.465-.27-.34-.523-.657-.762-.943a3.787,3.787,0,0,0-5.561-.362,4.351,4.351,0,0,0-.342,5.892c.2.243.419.513.648.8,2.082,2.61,5.909,7.408,13.264,8.978a25.353,25.353,0,0,0,7.265.425c13-1.005,16.71-6.479,17.32-7.567l0,0a4.3,4.3,0,0,0,.641-1.58" transform="translate(146.233 78.162)" fill="#e16071"/>
          <path id="Path_31324" data-name="Path 31324" d="M255.856,109.672a4.2,4.2,0,0,1,.211,2.769,5.418,5.418,0,0,1-1.375,2.469,7.017,7.017,0,0,1-2.226,1.53c-.412.154-.828.3-1.245.409a11.22,11.22,0,0,1-1.284.178,12.494,12.494,0,0,1,1.093-.695c.358-.227.7-.471,1.053-.678a12.7,12.7,0,0,0,1.858-1.549,6.593,6.593,0,0,0,1.915-4.434" transform="translate(158.838 80.371)" fill="#fff"/>
          <g id="Group_12900" data-name="Group 12900" transform="translate(376.336 184.819)" opacity="0.45" style="mix-blend-mode: multiply;isolation: isolate">
            <g id="Group_12899" data-name="Group 12899">
              <g id="Group_12898" data-name="Group 12898" clip-path="url(#clip-path-16)">
                <path id="Path_31325" data-name="Path 31325" d="M240.78,115.842a4.643,4.643,0,0,1,3.1-1.525,16.551,16.551,0,0,1-6.125-5.308c-.271-.34-.525-.657-.764-.943a3.787,3.787,0,0,0-5.561-.362,4.35,4.35,0,0,0-.34,5.892c.2.243.417.513.648.8,2.08,2.61,5.909,7.408,13.262,8.978a25.3,25.3,0,0,0,7.265.425,42.338,42.338,0,0,0,4.534-.586c-11.72.858-18.293-4.606-16.02-7.371" transform="translate(-230.103 -106.657)" fill="#31a3d6"/>
              </g>
            </g>
          </g>
          <path id="Path_31326" data-name="Path 31326" d="M260.809,106.025a3.834,3.834,0,0,0-5.031,1.74c-.229.248-1.706,1.618-6.375,1.714a12.015,12.015,0,0,1-9.044-3.575,3.89,3.89,0,0,0-7.24,1.4,4.359,4.359,0,0,0,.939,3.632l-.011.01a19.384,19.384,0,0,0,10.811,6.439,20.458,20.458,0,0,0,4.7.438c10.163-.208,12.813-5.271,13.24-6.285a4.274,4.274,0,0,0-1.985-5.514" transform="translate(148.099 76.165)" fill="#a6cfe1"/>
          <g id="Group_12903" data-name="Group 12903" transform="translate(381.137 180.097)" opacity="0.45" style="mix-blend-mode: multiply;isolation: isolate">
            <g id="Group_12902" data-name="Group 12902">
              <g id="Group_12901" data-name="Group 12901" clip-path="url(#clip-path-17)">
                <path id="Path_31327" data-name="Path 31327" d="M241.606,111.073c1.384-1.423,3.978-1.7,5.793-1.705a11.823,11.823,0,0,1-7.043-3.464,3.889,3.889,0,0,0-7.24,1.4,4.367,4.367,0,0,0,.94,3.634l-.011.01a19.387,19.387,0,0,0,10.811,6.439,20.548,20.548,0,0,0,4.7.438,22.538,22.538,0,0,0,6.539-1.009c-8.531,1.383-16.592-3.578-14.487-5.743" transform="translate(-233.038 -103.932)" fill="#a6cfe1"/>
              </g>
            </g>
          </g>
          <path id="Path_31328" data-name="Path 31328" d="M251.729,106.3a3.705,3.705,0,0,1,.466,2.4,4.842,4.842,0,0,1-.945,2.327,5.851,5.851,0,0,1-1.815,1.568,10.251,10.251,0,0,1-1.06.466,8.654,8.654,0,0,1-1.119.243,10.522,10.522,0,0,1,.878-.736c.283-.243.559-.485.839-.709a11.194,11.194,0,0,0,1.441-1.534,6.521,6.521,0,0,0,.972-1.818,6.99,6.99,0,0,0,.343-2.206" transform="translate(157.134 77.898)" fill="#fff"/>
          <g id="Group_12906" data-name="Group 12906" transform="translate(404.011 178.918)" opacity="0.85">
            <g id="Group_12905" data-name="Group 12905">
              <g id="Group_12904" data-name="Group 12904" clip-path="url(#clip-path-18)">
                <path id="Path_31329" data-name="Path 31329" d="M247.961,103.8a.477.477,0,0,1-.515.444.492.492,0,0,1-.419-.548.475.475,0,0,1,.515-.442.489.489,0,0,1,.419.546" transform="translate(-247.024 -103.252)" fill="#fff"/>
              </g>
            </g>
          </g>
          <path id="Path_31330" data-name="Path 31330" d="M249.852,99.524c-.765.218-1.271.792-.262,2.128.795,1.993-2.314,3.521-3,3.831a2.749,2.749,0,0,1-2.563-.36c-.844-.6-1.439-1.573-2.514-1.8a3.952,3.952,0,0,0-4.64,3.266,4.38,4.38,0,0,0,.33,2.667l.007.014c.039.083.082.165.124.244a9.406,9.406,0,0,0,6.217,4.663,10.069,10.069,0,0,0,3.4.12,12.861,12.861,0,0,0,8.748-4.975v0l0,0c.028-.038.052-.075.067-.1.051-.075.095-.152.141-.229a6.182,6.182,0,0,0-1.981-8.307,5.557,5.557,0,0,0-4.068-1.161" transform="translate(150.484 72.884)" fill="#fac9a8"/>
          <g id="Group_12909" data-name="Group 12909" transform="translate(387.276 176.122)" opacity="0.45" style="mix-blend-mode: multiply;isolation: isolate">
            <g id="Group_12908" data-name="Group 12908">
              <g id="Group_12907" data-name="Group 12907" clip-path="url(#clip-path-19)">
                <path id="Path_31331" data-name="Path 31331" d="M242.359,106.883a4.756,4.756,0,0,1,2.013-3.143,3.232,3.232,0,0,1-.35-.217c-.842-.6-1.439-1.573-2.514-1.8a3.95,3.95,0,0,0-4.638,3.266,4.368,4.368,0,0,0,.33,2.667h0l.008.014c.039.083.08.165.124.244a9.4,9.4,0,0,0,6.217,4.663,10.069,10.069,0,0,0,3.4.12,13.109,13.109,0,0,0,6.881-3c-6.146,3.452-12.153,1.036-11.465-2.812" transform="translate(-236.792 -101.639)" fill="#fac9a8"/>
              </g>
            </g>
          </g>
          <path id="Path_31332" data-name="Path 31332" d="M245.5,100.257a5.9,5.9,0,0,1,2.887,1.416,3.985,3.985,0,0,1,1.4,3.244,5.818,5.818,0,0,1-1.12,3.3,4.4,4.4,0,0,1-2.694,1.8,6.529,6.529,0,0,0,2.746-5.127,3.678,3.678,0,0,0-.191-1.367,4.133,4.133,0,0,0-.72-1.223,11.807,11.807,0,0,0-2.3-2.041" transform="translate(156.02 73.471)" fill="#fff"/>
          <path id="Path_31333" data-name="Path 31333" d="M254.3,120.495l-.044.007c-.343.043-.7.085-1.057.123l-.1.012q-.591.06-1.212.109-1.028.078-1.994.087a25.782,25.782,0,0,1-2.766-.123q-.878-.088-1.7-.232c-.275-.049-.543-.1-.808-.156-.46-.1-.9-.21-1.338-.331-6.488-1.832-9.973-6.2-11.925-8.647l-.167-.208c-.08-.1-.152-.187-.229-.282l-.263-.029,4.727,19.595s2.79,3.3,11.5,4.346c8.727.887,11.615-1.788,11.615-1.788l7.81-16.772c-2.216,1.655-5.945,3.492-12.047,4.29" transform="translate(146.613 81.215)" fill="#553089"/>
          <path id="Path_31334" data-name="Path 31334" d="M252.607,115.567q-2.976,7.829-5.953,15.658a7.548,7.548,0,0,0,1.436-.719q3.3-8,6.594-16a20.184,20.184,0,0,1-2.077,1.057" transform="translate(156.752 83.916)" fill="#8a88c2"/>
          <path id="Path_31335" data-name="Path 31335" d="M247.6,116.387l-3.768,14.632q.564-.042,1.07-.1,2.132-7.416,4.262-14.83c-.5.109-1.024.208-1.564.3" transform="translate(154.959 85.071)" fill="#8a88c2"/>
          <path id="Path_31336" data-name="Path 31336" d="M243.349,116.621q-.991,7.018-1.981,14.038c.34.023.664.038.985.05q1.2-7.073,2.4-14.147-.719.047-1.406.059" transform="translate(153.392 85.42)" fill="#8a88c2"/>
          <path id="Path_31337" data-name="Path 31337" d="M240.162,116.459c-.263-.047-.52-.1-.775-.151q-.2,7-.4,14.012c.316.062.636.125.973.18q.393-6.979.787-13.961c-.193-.028-.4-.047-.587-.08" transform="translate(151.881 85.234)" fill="#8a88c2"/>
          <path id="Path_31338" data-name="Path 31338" d="M237.021,130.1q.486.179,1.029.35-.4-7.312-.8-14.625c-.509-.229-1-.47-1.467-.726q.621,7.5,1.243,15" transform="translate(149.84 84.349)" fill="#8a88c2"/>
          <path id="Path_31339" data-name="Path 31339" d="M235.139,130.07a9.2,9.2,0,0,0,1.256.953q-1.43-8.58-2.862-17.162c-.772-.781-1.429-1.54-1.986-2.218l3.592,18.427" transform="translate(147.151 81.815)" fill="#8a88c2"/>
          <path id="Path_31341" data-name="Path 31341" d="M251.529,116.706a24.356,24.356,0,0,1-.783,2.681c-.3.875-.638,1.731-.988,2.584s-.733,1.688-1.148,2.509a23.2,23.2,0,0,1-1.353,2.41,23.982,23.982,0,0,1,.782-2.681c.3-.875.638-1.731.988-2.584s.736-1.686,1.15-2.507a24.018,24.018,0,0,1,1.353-2.412" transform="translate(157.135 85.526)" fill="#fff"/>
          <g id="Group_13013" data-name="Group 13013" transform="translate(-21.838 83.219)">
            <path id="Path_31342" data-name="Path 31342" d="M2.474,81.777,54.44,107.569l56.785-8.788L58.046,81.7Z" transform="translate(2.813 -50.559)" fill="#8a88c2"/>
            <path id="Path_31343" data-name="Path 31343" d="M61.179,104.463,14.011,81.729l15.7-.02,47.626,20.236Z" transform="translate(15.932 -50.547)" fill="#ef3066"/>
            <path id="Path_31344" data-name="Path 31344" d="M26.154,96.6l-14.78-7.354L58.69,83.226l16.742,5.38Z" transform="translate(12.934 -48.629)" fill="#ff4f7c"/>
            <path id="Path_31345" data-name="Path 31345" d="M32.864,97.986,21.45,179.923l52.118-14.874L88.732,89.28Z" transform="translate(24.391 -40.976)" fill="#a6cfe1"/>
            <path id="Path_31346" data-name="Path 31346" d="M28.191,98.031l-2.633,18.9L81.681,106.4l3.293-17.152Z" transform="translate(29.063 -41.021)" fill="#8a88c2"/>
            <path id="Path_31347" data-name="Path 31347" d="M30.916,172.421l16.458-4.7L58.111,90.647,41.956,93.162Z" transform="translate(35.155 -39.247)" fill="#ff4f7c"/>
            <g id="Group_12915" data-name="Group 12915" transform="translate(45.84 124.854)" opacity="0.45" style="mix-blend-mode: multiply;isolation: isolate">
              <g id="Group_12914" data-name="Group 12914">
                <g id="Group_12913" data-name="Group 12913" clip-path="url(#clip-path-20)">
                  <path id="Path_31348" data-name="Path 31348" d="M23.413,123.087,21.449,137.18l14.1-4.024a110.058,110.058,0,0,1-12.135-10.069" transform="translate(-21.45 -123.088)" fill="#31a3d6"/>
                </g>
              </g>
            </g>
            <path id="Path_31349" data-name="Path 31349" d="M57.254,107.326,45.84,189.264,0,159.072l6.14-77.18Z" transform="translate(0.001 -50.316)" fill="#a6cfe1"/>
            <g id="Group_12918" data-name="Group 12918" transform="translate(0 49.17)" opacity="0.45" style="mix-blend-mode: multiply;isolation: isolate">
              <g id="Group_12917" data-name="Group 12917">
                <g id="Group_12916" data-name="Group 12916" clip-path="url(#clip-path-21)">
                  <path id="Path_31350" data-name="Path 31350" d="M19.619,97.639,4.74,89.662,0,149.247l45.839,30.192L47.8,165.346C26.152,144.5,19.653,119.772,19.619,97.639" transform="translate(0 -89.662)" fill="#a6cfe1"/>
                </g>
              </g>
            </g>
            <path id="Path_31351" data-name="Path 31351" d="M55.251,107.526l-2.633,18.9L1.762,99.162,3.285,81.733Z" transform="translate(2.003 -50.516)" fill="#8a88c2"/>
            <g id="Group_12921" data-name="Group 12921" transform="translate(3.764 31.218)" opacity="0.45" style="mix-blend-mode: multiply;isolation: isolate">
              <g id="Group_12920" data-name="Group 12920">
                <g id="Group_12919" data-name="Group 12919" clip-path="url(#clip-path-22)">
                  <path id="Path_31352" data-name="Path 31352" d="M3.285,81.734,1.761,99.162l8.687,4.658,7.168,3.842a124.059,124.059,0,0,1,1.346-18.148L10.072,85.1Z" transform="translate(-1.761 -81.733)" fill="#8a88c2"/>
                </g>
              </g>
            </g>
            <path id="Path_31353" data-name="Path 31353" d="M20.827,172.5,6.35,162.962,17.087,85.884l14.78,7.354Z" transform="translate(7.22 -45.269)" fill="#ef3066"/>
            <g id="Group_12924" data-name="Group 12924" transform="translate(13.571 69.298)" opacity="0.45" style="mix-blend-mode: multiply;isolation: isolate">
              <g id="Group_12923" data-name="Group 12923">
                <g id="Group_12922" data-name="Group 12922" clip-path="url(#clip-path-23)">
                  <path id="Path_31354" data-name="Path 31354" d="M13.093,98.552l-6.743,48.4,14.477,9.533L24.1,132.994A90.681,90.681,0,0,1,13.093,98.552" transform="translate(-6.35 -98.551)" fill="#ef3066"/>
                </g>
              </g>
            </g>
            <path id="Path_31355" data-name="Path 31355" d="M32.384,99.763A79.171,79.171,0,0,1,19.895,89.1a33.348,33.348,0,0,1-5.988-8.292c-.63-1.922-2-4.1-.654-8,.483-1.8,2.267-3.116,3.441-3.786a10.1,10.1,0,0,1,3.473-.983,23.225,23.225,0,0,1,5.732.285A43.608,43.608,0,0,1,30.606,69.5a22.013,22.013,0,0,1,8.965,5.344c5.108,4.873,6.862,11.353,7.559,16.335a40.787,40.787,0,0,1-.241,12.148,30.681,30.681,0,0,1-1.024,4.406,86.522,86.522,0,0,1-13.481-7.966m12.908,3.544a62.84,62.84,0,0,0-2.641-10.973,34.532,34.532,0,0,0-2.971-6.378A19.848,19.848,0,0,0,35,80.573a17.315,17.315,0,0,0-6.48-3.134,35.914,35.914,0,0,0-4.1-.872,16.9,16.9,0,0,0-3.332-.043c-.643-.036-.656.168-.925.136-.254-.007.167.007.152-.127a.523.523,0,0,1,.212-.374c.028-.876.045.254.449,1.175a36.406,36.406,0,0,0,4.221,6.752c3.413,4.415,7.033,8.45,10.156,11.906L43,104.4l2.868,3.324s-.137-1.646-.573-4.422" transform="translate(14.417 -67.946)" fill="#ff4f7c"/>
            <path id="Path_31356" data-name="Path 31356" d="M26.72,86.017c-.511-.634-1.022-1.277-1.526-1.929a36.311,36.311,0,0,1-4.223-6.752,4.86,4.86,0,0,1-.261-.8,1.881,1.881,0,0,1,.374-.011,16.947,16.947,0,0,1,3.336.043,36.171,36.171,0,0,1,4.1.872c.222.068.44.136.66.206a17.431,17.431,0,0,1,8.012-4.827A22.15,22.15,0,0,0,30.6,69.5a43.559,43.559,0,0,0-4.7-1.173,23.271,23.271,0,0,0-5.736-.285,10.078,10.078,0,0,0-3.469.983c-1.175.67-2.958,1.986-3.443,3.786-1.351,3.9.024,6.077.654,8A33.456,33.456,0,0,0,19.895,89.1,79.076,79.076,0,0,0,32.384,99.763l.021.014c-3.225-4.535-5.439-9.252-5.685-13.76" transform="translate(14.417 -67.946)" fill="#ef3066"/>
            <path id="Path_31357" data-name="Path 31357" d="M29.382,104.331A30.774,30.774,0,0,1,29.2,99.8a40.543,40.543,0,0,1,2.017-11.96C32.821,83.1,35.746,77.109,41.66,73.4a21.412,21.412,0,0,1,9.782-3.369,43.066,43.066,0,0,1,4.832-.17,23.269,23.269,0,0,1,5.674.915,10.425,10.425,0,0,1,3.223,1.687c1.026.9,2.53,2.563,2.669,4.431.6,4.107-1.152,5.953-2.124,7.705A32.373,32.373,0,0,1,58.3,91.479a76.871,76.871,0,0,1-14.225,7.853,84.482,84.482,0,0,1-14.7,5m0,0,3.428-2.661,9.059-6.655c3.7-2.738,8-5.937,12.167-9.555a35.293,35.293,0,0,0,5.394-5.74c.566-.82.793-1.925.658-1.06a.542.542,0,0,1,.137.412c-.038.127.376.2.126.154-.269-.025-.246-.226-.883-.326a17.041,17.041,0,0,0-3.276-.652,35.427,35.427,0,0,0-4.18,0,16.937,16.937,0,0,0-6.933,1.723,19.226,19.226,0,0,0-5.593,4.3A33.627,33.627,0,0,0,35.392,89.9a61.624,61.624,0,0,0-4.629,10.21c-.942,2.631-1.381,4.216-1.381,4.216" transform="translate(33.191 -65.531)" fill="#ff4f7c"/>
            <path id="Path_31358" data-name="Path 31358" d="M35.392,89.711a33.536,33.536,0,0,1,4.095-5.634,18.294,18.294,0,0,1,2.6-2.411c.968-5.024,4.373-8.89,7.918-11.654A21.358,21.358,0,0,0,41.66,73.2c-5.913,3.713-8.837,9.7-10.446,14.442A40.521,40.521,0,0,0,29.2,99.6a30.8,30.8,0,0,0,.186,4.535s.438-1.587,1.383-4.218a61.577,61.577,0,0,1,4.627-10.207" transform="translate(33.191 -65.335)" fill="#ef3066"/>
            <path id="Path_31359" data-name="Path 31359" d="M55.057,81.026c-3.828.473-7.241.149-9.664-1.252-1.252.944-2.471,1.85-3.627,2.706l-9.059,6.652-3.428,2.661a84.433,84.433,0,0,0,14.695-5,78.848,78.848,0,0,0,11.083-5.767" transform="translate(33.294 -52.993)" fill="#ef3066"/>
            <path id="Path_31360" data-name="Path 31360" d="M26.175,86a7.421,7.421,0,0,0,3.8,9.46A6.737,6.737,0,0,0,38.9,91.438a7.421,7.421,0,0,0-3.8-9.46A6.737,6.737,0,0,0,26.175,86" transform="translate(29.196 -50.876)" fill="#ff4f7c"/>
            <path id="Path_31361" data-name="Path 31361" d="M33.114,91.737a7.421,7.421,0,0,1-3.8-9.46c.066-.172.141-.335.218-.5a7.079,7.079,0,0,0-3.357,3.809,7.422,7.422,0,0,0,3.8,9.46,6.7,6.7,0,0,0,8.711-3.528,6.484,6.484,0,0,1-5.571.217" transform="translate(29.196 -50.458)" fill="#ef3066"/>
            <path id="Path_31362" data-name="Path 31362" d="M30.526,85.429c.47,1.175,1.331,1.911,1.923,1.644s.688-1.433.218-2.608-1.331-1.909-1.923-1.644-.688,1.433-.218,2.608" transform="translate(34.372 -49.21)" fill="#fff"/>
            <path id="Path_31363" data-name="Path 31363" d="M44.9,100.483l10.117-1.848-7.151,36.781S53.1,101.037,44.9,100.483" transform="translate(51.053 -29.147)" fill="#fff"/>
          </g>
          <g id="Group_13014" data-name="Group 13014" transform="translate(203.906 2.308)">
            <path id="Path_31364" data-name="Path 31364" d="M161.144,21.67s-5.762-1.618-6.637-7.186,3.912-8.17,2.168-12.661c0,0,5.788,4.165,7.7,9.991s-3.232,9.857-3.232,9.857" transform="translate(-106.272 1.304)" fill="#fac9a8"/>
            <path id="Path_31365" data-name="Path 31365" d="M160.011,17.973s-6.646-4.052-2.318-10.982c0,0,5.6,3.522,2.318,10.982" transform="translate(-105.139 5.001)" fill="#e29e71"/>
            <path id="Path_31366" data-name="Path 31366" d="M164.627,42.546a2.4,2.4,0,0,1-2.529-1.8c-1.669-5.944-6.637-23.863-6.11-24.69.505-.8,4.269-2.113,7.635-2.865a2.4,2.4,0,0,1,2.824,1.99c.994,5.283,3.324,17.842,4.132,23.794a2.528,2.528,0,0,1-1.8,2.818,28.026,28.026,0,0,1-4.148.751" transform="translate(-105.313 9.399)" fill="#a6cfe1"/>
            <path id="Path_31367" data-name="Path 31367" d="M156.592,21.364c.4,1.671.889,3.587,1.409,5.573a18.32,18.32,0,0,0,8.644-8.795c-.227-1.223-.431-2.311-.6-3.192a2.547,2.547,0,0,0-.869-1.489,17.991,17.991,0,0,1-8.586,7.9" transform="translate(-104.915 9.63)" fill="#6aaed1"/>
            <path id="Path_31368" data-name="Path 31368" d="M167.608,25.11c-.324-1.868-.665-3.781-1-5.62a17.817,17.817,0,0,1-8.285,8.376c.541,2,1.064,3.894,1.511,5.5a18.486,18.486,0,0,0,7.772-8.258" transform="translate(-103.841 13.943)" fill="#6aaed1"/>
            <g id="Group_12927" data-name="Group 12927" transform="translate(50.635 24.05)" opacity="0.45" style="mix-blend-mode: multiply;isolation: isolate">
              <g id="Group_12926" data-name="Group 12926">
                <g id="Group_12925" data-name="Group 12925" clip-path="url(#clip-path-24)">
                  <path id="Path_31369" data-name="Path 31369" d="M159.8,31.78q.2.726.389,1.427l.034.125c.123.451.244.9.364,1.329l0,.021.355,1.283c.013.051.028.1.042.154.1.377.206.744.3,1.1l.016.063c.306,1.1.576,2.069.792,2.836a2.4,2.4,0,0,0,2.529,1.8,27.868,27.868,0,0,0,4.15-.751,2.528,2.528,0,0,0,1.8-2.818c-.134-.988-.312-2.165-.518-3.455-2.425-.261-5.649-1.619-8.178-6.32-2.429-4.517-3.139-10.165-3.264-14.55a6.68,6.68,0,0,0-2.631,1.4c-.359.564,1.844,9.1,3.81,16.355" transform="translate(-155.947 -14.02)" fill="#31a3d6"/>
                </g>
              </g>
            </g>
            <path id="Path_31370" data-name="Path 31370" d="M174.1,20.37s-5.406-2.662-5.345-8.306,5.2-7.32,4.227-12.064c0,0,5.011,5.175,5.929,11.267s-4.812,9.1-4.812,9.1" transform="translate(-97.386)" fill="#fac9a8"/>
            <path id="Path_31371" data-name="Path 31371" d="M173.108,16.564s-5.874-5.222-.466-11.243c0,0,4.933,4.508.466,11.243" transform="translate(-96.395 3.807)" fill="#e29e71"/>
            <path id="Path_31372" data-name="Path 31372" d="M173.425,41.114a2.468,2.468,0,0,1-2.192-2.24c-.659-6.163-2.587-24.728-1.933-25.443.63-.69,4.554-1.288,7.992-1.4a2.454,2.454,0,0,1,2.451,2.482c.105,5.388.321,18.183.131,24.194a2.467,2.467,0,0,1-2.239,2.441,28.059,28.059,0,0,1-4.21-.031" transform="translate(-97.13 8.604)" fill="#e16071"/>
            <path id="Path_31373" data-name="Path 31373" d="M169.293,18.712c.12,1.719.283,3.7.466,5.748a17.811,17.811,0,0,0,9.965-7.054c-.021-1.245-.042-2.355-.06-3.254a2.614,2.614,0,0,0-.61-1.626,17.487,17.487,0,0,1-9.761,6.186" transform="translate(-97.052 8.961)" fill="#b24352"/>
            <path id="Path_31374" data-name="Path 31374" d="M179.49,24.45c-.011-1.9-.029-3.846-.053-5.717A17.3,17.3,0,0,1,169.9,25.44c.2,2.065.4,4.031.576,5.7a17.946,17.946,0,0,0,9.018-6.687" transform="translate(-96.679 13.402)" fill="#b24352"/>
            <g id="Group_12930" data-name="Group 12930" transform="translate(72.037 21.314)" opacity="0.45" style="mix-blend-mode: multiply;isolation: isolate">
              <g id="Group_12929" data-name="Group 12929">
                <g id="Group_12928" data-name="Group 12928" clip-path="url(#clip-path-25)">
                  <path id="Path_31375" data-name="Path 31375" d="M177.634,40.86a2.468,2.468,0,0,0,2.241-2.439c.052-1.667.073-3.861.074-6.268-7.449-4.484-8.777-13.572-8.73-19.727a4.4,4.4,0,0,0-1.919.72c-.22.24-.147,2.508.07,5.639v0c.254,3.645.7,8.464,1.122,12.644,0,.045.01.089.013.136.045.449.091.894.134,1.326l.008.086c.045.437.087.863.131,1.278l.024.235c.039.386.078.76.115,1.118l0,.041c.118,1.141.225,2.144.311,2.938a2.465,2.465,0,0,0,2.191,2.24,27.834,27.834,0,0,0,4.21.031" transform="translate(-169.167 -12.425)" fill="#ef3066"/>
                </g>
              </g>
            </g>
            <path id="Path_31376" data-name="Path 31376" d="M186.791,20.638s-4.6-4.017-3.2-9.466,6.774-5.7,6.959-10.546c0,0,3.619,6.345,3.06,12.485s-6.82,7.527-6.82,7.527" transform="translate(-88.364 0.448)" fill="#fac9a8"/>
            <path id="Path_31377" data-name="Path 31377" d="M186.021,16.881s-4.443-6.621,2.221-11c0,0,3.7,5.678-2.221,11" transform="translate(-87.594 4.204)" fill="#e29e71"/>
            <path id="Path_31378" data-name="Path 31378" d="M181.525,40.5a2.557,2.557,0,0,1-1.588-2.753c.826-6.139,3.371-24.621,4.174-25.139.774-.5,4.713-.031,8.068.775a2.539,2.539,0,0,1,1.783,3.055c-1.179,5.242-4.01,17.682-5.621,23.45a2.383,2.383,0,0,1-2.749,1.765,28.307,28.307,0,0,1-4.065-1.153" transform="translate(-90.477 8.874)" fill="#9e9cc9"/>
            <path id="Path_31379" data-name="Path 31379" d="M182.071,17.127c-.293,1.695-.606,3.654-.915,5.687a17.228,17.228,0,0,0,11.32-4.167c.275-1.213.518-2.29.716-3.165a2.656,2.656,0,0,0-.206-1.738,16.91,16.91,0,0,1-10.916,3.383" transform="translate(-89.708 9.833)" fill="#646d82"/>
            <path id="Path_31380" data-name="Path 31380" d="M190.49,25.416c.44-1.841.886-3.729,1.308-5.548a16.714,16.714,0,0,1-10.828,3.947c-.295,2.053-.568,4.007-.8,5.666a17.324,17.324,0,0,0,10.317-4.066" transform="translate(-90.316 14.214)" fill="#585163"/>
            <g id="Group_12933" data-name="Group 12933" transform="translate(89.436 21.3)" opacity="0.45" style="mix-blend-mode: multiply;isolation: isolate">
              <g id="Group_12932" data-name="Group 12932">
                <g id="Group_12931" data-name="Group 12931" clip-path="url(#clip-path-26)">
                  <path id="Path_31381" data-name="Path 31381" d="M184.862,12.417a1.762,1.762,0,0,0-.75.184c-.549.353-1.911,9.086-2.982,16.545v.005q-.1.733-.207,1.446c-.008.057-.015.113-.023.17-.134.945-.262,1.854-.38,2.709l-.015.1c-.057.417-.113.823-.167,1.209l0,.024c-.155,1.137-.291,2.136-.4,2.926a2.557,2.557,0,0,0,1.59,2.755,28.277,28.277,0,0,0,4.065,1.151,2.381,2.381,0,0,0,2.748-1.763c.627-2.239,1.436-5.486,2.262-8.925-4.041-4.517-5.4-12.082-5.74-18.538" transform="translate(-179.913 -12.417)" fill="#8a88c2"/>
                </g>
              </g>
            </g>
            <path id="Path_31382" data-name="Path 31382" d="M243.926,62.316q.763-10.933,1.528-21.87a3.244,3.244,0,0,1-1.149.345c-2.578.271-4.495-2.424-6.342-5.031a22.349,22.349,0,0,0-1.629-2.137,17.99,17.99,0,0,0-4.108.8c-4.211,1.108-9.452,2.487-12.577-.969-.886-.981-1.687-1.516-2.126-1.444-.51.087-1.669.916-3.717,5.493-.586,1.305-2.343,5.282-5.422,5.244a4.325,4.325,0,0,1-3.522-2.3,26.092,26.092,0,0,0-2.7,3.762c-1.245,2.005-2.641,3.017-4.265,3.1q-.107.005-.214.005c-2.869,0-5.063-2.9-8.343-7.227-.607-.8-1.253-1.655-1.941-2.539-3.677-4.716-7.274-3.232-13.95,1.877-6.183,4.729-11.457,3.434-19.024-.611-1.821-.974-2.477-.479-4.393,3.3-1.193,2.355-3.194,6.3-6.951,4.618a7.913,7.913,0,0,1-1.888-1.2q2.931,12.67,5.859,25.336a431.877,431.877,0,0,1,96.872-8.558" transform="translate(-114.446 22.897)" fill="#9e9cc9"/>
            <path id="Path_31383" data-name="Path 31383" d="M147.819,52.8c-1.7-1.034-3.264-2.336-5-3.276l3.24,14.011a431.863,431.863,0,0,1,96.872-8.56l.656-9.4a10.905,10.905,0,0,1-6.816,1.055c-2.689-.5-5.108-1.974-7.632-3.074s-5.409-1.823-7.951-.77c-3.05,1.264-4.851,4.764-7.849,6.162-2.906,1.353-6.324.439-9.161-1.076s-5.4-3.609-8.38-4.776-6.667-1.2-8.984,1.1c-2.032,2.017-2.832,5.589-5.5,6.452s-5.128-1.594-7.438-3.247c-3.536-2.535-8.563-3.306-12-.616-2.756,2.158-4.185,6.2-7.444,7.326-2.2.758-4.609-.091-6.614-1.311" transform="translate(-113.444 30.24)" fill="#8a88c2"/>
            <g id="Group_12936" data-name="Group 12936" transform="translate(26.75 61.282)" opacity="0.45" style="mix-blend-mode: multiply;isolation: isolate">
              <g id="Group_12935" data-name="Group 12935">
                <g id="Group_12934" data-name="Group 12934" clip-path="url(#clip-path-27)">
                  <path id="Path_31384" data-name="Path 31384" d="M171.633,42.822a19.643,19.643,0,0,1,2.236-6.373l-.421.319c-6.182,4.729-11.453,3.434-19.021-.611-1.821-.974-2.477-.479-4.393,3.3-1.193,2.355-3.194,6.3-6.951,4.618a7.881,7.881,0,0,1-1.888-1.2q1.309,5.663,2.62,11.325l3.24,14.011a432.351,432.351,0,0,1,44.963-6.707c-13.237-3.8-21.705-10.642-20.386-18.686" transform="translate(-141.196 -35.724)" fill="#8a88c2"/>
                </g>
              </g>
            </g>
            <path id="Path_31385" data-name="Path 31385" d="M248.386,29.073A5.593,5.593,0,0,0,244.423,27a328.676,328.676,0,0,0-101.146,8.937,6.025,6.025,0,0,0-4.417,5.717,2.326,2.326,0,0,0,.028.463c.7,4.319,2.707,7.421,5.642,8.733,3.756,1.683,5.757-2.263,6.951-4.618,1.915-3.781,2.571-4.276,4.393-3.3,7.567,4.045,12.841,5.34,19.024.611,6.675-5.108,10.273-6.592,13.95-1.877.688.883,1.334,1.736,1.941,2.539,3.28,4.331,5.474,7.227,8.343,7.227q.107,0,.214-.005c1.624-.081,3.02-1.094,4.265-3.1a25.926,25.926,0,0,1,2.7-3.762,4.32,4.32,0,0,0,3.52,2.3c3.079.038,4.836-3.939,5.422-5.244,2.048-4.577,3.207-5.405,3.717-5.493.439-.072,1.24.463,2.126,1.444,3.125,3.457,8.366,2.076,12.577.969a17.99,17.99,0,0,1,4.108-.8,22.135,22.135,0,0,1,1.629,2.137c1.847,2.607,3.764,5.3,6.342,5.031.96-.1,2.314-.676,3.3-2.851a2.357,2.357,0,0,0,.2-.8l.539-7.7a6.324,6.324,0,0,0-1.405-4.472" transform="translate(-115.893 18.787)" fill="#fff"/>
            <g id="Group_12939" data-name="Group 12939" transform="translate(22.967 48.886)" opacity="0.08" style="mix-blend-mode: multiply;isolation: isolate">
              <g id="Group_12938" data-name="Group 12938">
                <g id="Group_12937" data-name="Group 12937" clip-path="url(#clip-path-28)">
                  <path id="Path_31386" data-name="Path 31386" d="M246.6,41.315c-2.607.273-4.545-2.453-6.413-5.09a22.36,22.36,0,0,0-1.648-2.16,18.092,18.092,0,0,0-4.153.811c-4.258,1.12-9.559,2.515-12.718-.98-.9-.993-1.708-1.534-2.15-1.462-.516.089-1.689.926-3.759,5.554-.593,1.321-2.369,5.342-5.482,5.3a4.372,4.372,0,0,1-3.562-2.323,26.392,26.392,0,0,0-2.731,3.806c-1.26,2.026-2.67,3.05-4.312,3.132-.073,0-.146.005-.217.005-2.9,0-5.121-2.93-8.437-7.309-.615-.813-1.268-1.674-1.964-2.568-3.356-4.306-6.651-3.5-12.232.5-4.979,3.24-9.792.022-7.577-5.675a11.444,11.444,0,0,1,3.206-4.371q-14.678,2.262-29.179,5.836a6.029,6.029,0,0,0-4.415,5.717l0,.012a2.34,2.34,0,0,0,.028.451c.7,4.319,2.705,7.421,5.642,8.733,3.756,1.683,5.757-2.263,6.951-4.618,1.915-3.781,2.571-4.277,4.391-3.3,7.569,4.045,12.841,5.34,19.022.611.314-.24.618-.47.92-.693l.152-.115c.295-.216.583-.427.865-.628l.113-.081c.6-.424,1.164-.808,1.71-1.153l.053-.034q.415-.26.814-.492l.021-.012a16.6,16.6,0,0,1,1.562-.8l.008,0q.376-.165.738-.293c2.725-.964,4.847-.328,6.994,2.427.69.883,1.334,1.736,1.943,2.539,3.279,4.331,5.472,7.227,8.343,7.227.07,0,.142,0,.214-.005,1.624-.081,3.018-1.093,4.265-3.1a25.9,25.9,0,0,1,2.7-3.764,4.322,4.322,0,0,0,3.521,2.3c3.079.038,4.836-3.939,5.421-5.244,2.05-4.577,3.209-5.405,3.717-5.493.439-.072,1.24.463,2.127,1.446,3.123,3.455,8.366,2.076,12.577.967a17.98,17.98,0,0,1,4.106-.8,22.543,22.543,0,0,1,1.63,2.137c1.847,2.607,3.764,5.3,6.342,5.033.96-.1,2.312-.678,3.3-2.853a2.4,2.4,0,0,0,.2-.8v-.015a3.717,3.717,0,0,1-2.65,1.685" transform="translate(-138.859 -28.498)" fill="#01c3ff"/>
                </g>
              </g>
            </g>
            <path id="Path_31387" data-name="Path 31387" d="M170.66,32.612a3.924,3.924,0,1,0,3.916-4.151,4.038,4.038,0,0,0-3.916,4.151" transform="translate(-96.206 20.361)" fill="#71c193"/>
            <g id="Group_12942" data-name="Group 12942" transform="translate(74.454 49.218)" opacity="0.45" style="mix-blend-mode: multiply;isolation: isolate">
              <g id="Group_12941" data-name="Group 12941">
                <g id="Group_12940" data-name="Group 12940" clip-path="url(#clip-path-29)">
                  <path id="Path_31388" data-name="Path 31388" d="M176.56,34.356a4.039,4.039,0,0,1-3.918-4.15,4.333,4.333,0,0,1,.274-1.515,4.172,4.172,0,0,0-2.255,3.755,4.038,4.038,0,0,0,3.918,4.15,3.929,3.929,0,0,0,3.644-2.637,3.706,3.706,0,0,1-1.663.4" transform="translate(-170.66 -28.692)" fill="#fecd00"/>
                </g>
              </g>
            </g>
            <path id="Path_31389" data-name="Path 31389" d="M174.161,30.687c.275.54.714.854.983.7s.264-.715-.011-1.256-.714-.854-.983-.7-.264.715.011,1.256" transform="translate(-94.168 21.028)" fill="#fff"/>
            <path id="Path_31390" data-name="Path 31390" d="M187.955,28.065a3.924,3.924,0,1,0,3.917-4.15,4.038,4.038,0,0,0-3.917,4.15" transform="translate(-85.499 17.109)" fill="#e16071"/>
            <g id="Group_12945" data-name="Group 12945" transform="translate(102.456 41.487)" opacity="0.45" style="mix-blend-mode: multiply;isolation: isolate">
              <g id="Group_12944" data-name="Group 12944">
                <g id="Group_12943" data-name="Group 12943" clip-path="url(#clip-path-30)">
                  <path id="Path_31391" data-name="Path 31391" d="M193.855,29.782a4.04,4.04,0,0,1-3.918-4.151,4.348,4.348,0,0,1,.251-1.446,4.171,4.171,0,0,0-2.233,3.743,4.038,4.038,0,0,0,3.917,4.15,3.932,3.932,0,0,0,3.669-2.7,3.717,3.717,0,0,1-1.685.408" transform="translate(-187.955 -24.185)" fill="#ef3066"/>
                </g>
              </g>
            </g>
            <path id="Path_31392" data-name="Path 31392" d="M191.584,26.361c.275.54.714.854.983.7s.264-.715-.011-1.256-.714-.854-.983-.7-.264.715.011,1.256" transform="translate(-83.382 17.933)" fill="#fff"/>
            <path id="Path_31393" data-name="Path 31393" d="M147.852,31.2a3.924,3.924,0,1,0,3.917-4.151,4.038,4.038,0,0,0-3.917,4.151" transform="translate(-110.325 19.352)" fill="#fac9a8"/>
            <g id="Group_12948" data-name="Group 12948" transform="translate(37.527 46.87)" opacity="0.45" style="mix-blend-mode: multiply;isolation: isolate">
              <g id="Group_12947" data-name="Group 12947">
                <g id="Group_12946" data-name="Group 12946" clip-path="url(#clip-path-30)">
                  <path id="Path_31394" data-name="Path 31394" d="M153.752,32.916a4.038,4.038,0,0,1-3.917-4.15,4.318,4.318,0,0,1,.248-1.443,4.169,4.169,0,0,0-2.231,3.741,4.038,4.038,0,0,0,3.918,4.15,3.932,3.932,0,0,0,3.669-2.707,3.718,3.718,0,0,1-1.687.408" transform="translate(-147.852 -27.322)" fill="#31a3d6"/>
                </g>
              </g>
            </g>
            <path id="Path_31395" data-name="Path 31395" d="M151.422,29.3c.275.54.714.854.983.7s.264-.715-.011-1.256-.714-.854-.983-.7-.264.715.011,1.256" transform="translate(-108.245 20.035)" fill="#fff"/>
            <path id="Path_31396" data-name="Path 31396" d="M267.206,96.231q1-14.278,1.995-28.555a3.68,3.68,0,0,1-.921.033,7.085,7.085,0,0,1-5.286-2.957c-.2,1.6-.359,3.654-.5,5.458l-.1,1.293c-.333,4.16-2.573,7.035-5.7,7.321-2.829.266-6.753-1.9-8.486-8.857-1.961-7.874-5.54-10.656-13.208-10.274a17.415,17.415,0,0,0-9.867,3.323,16.977,16.977,0,0,1-8.929,3.288c-2.926.185-5.906-1.619-8.792-3.357-1.349-.815-4.509-2.719-5.213-2.366-.006,0-.567.449-.8,2.975-.892,9.7-4.286,15.763-9.08,16.217-3.5.324-6.6-2.583-7.9-7.428a5.425,5.425,0,0,0-.887-1.908c-.277,1-.588,3.374.188,8.38.844,5.445-.139,9.888-2.628,11.886a4.232,4.232,0,0,1-2.66.976,4.025,4.025,0,0,1-1.786-.422c-2.412-1.19-3.873-4.582-4.109-9.548-.536-11.263-6.557-16.519-11.513-18.945-.172-.082-.481-.213-.646-.144-.9.379-1.977,3.259-2.624,4.98a23.279,23.279,0,0,1-1.946,4.325c-1.881,2.9-4.151,2.338-5.04,1.964a13.918,13.918,0,0,1-3.589-2.285c-1.344-1.1-1.752-1.434-4.179-.558-1.381.5-1.807,4.628-2.063,7.1-.348,3.374-.623,6.04-2.727,7.069a3.294,3.294,0,0,1-3.249-.254l5.2,22.5A515.053,515.053,0,0,1,267.206,96.231" transform="translate(-118.307 42.681)" fill="#e16071"/>
            <path id="Path_31397" data-name="Path 31397" d="M142.584,86.828a33.361,33.361,0,0,1-6.454-2.547q1.651,7.148,3.3,14.294A515.156,515.156,0,0,1,266.481,87.351q.367-5.275.737-10.548a7.536,7.536,0,0,1-4.01.463c-4.512-.765-8.074-5.409-12.638-5.186-4.593.225-7.65,5.21-11.966,6.891-4.909,1.913-10.237-.758-14.936-3.194s-10.341-4.693-14.954-2.079c-2.984,1.691-4.852,5.126-7.9,6.68-3.69,1.88-8.092.54-11.829-1.233-1.946-.923-3.9-1.969-5.906-2.745a8.522,8.522,0,0,1-2.71,5.426,4.247,4.247,0,0,1-2.662.976,4.023,4.023,0,0,1-1.784-.422c-1.739-.858-2.979-2.863-3.627-5.772-4.545,2.187-8.473,6.515-13.1,8.9a23.12,23.12,0,0,1-16.61,1.321" transform="translate(-117.582 51.561)" fill="#b84554"/>
            <g id="Group_12951" data-name="Group 12951" transform="translate(16.652 105.285)" opacity="0.45" style="mix-blend-mode: multiply;isolation: isolate">
              <g id="Group_12950" data-name="Group 12950">
                <g id="Group_12949" data-name="Group 12949" clip-path="url(#clip-path-32)">
                  <path id="Path_31398" data-name="Path 31398" d="M182.2,88.28c-.013.019-.026.039-.04.058-.052.07-.1.142-.154.209-.094.118-.193.228-.293.338-.049.051-.094.108-.144.16a5.792,5.792,0,0,1-.476.434,4.247,4.247,0,0,1-2.662.976,3.992,3.992,0,0,1-1.784-.424,4.5,4.5,0,0,1-.562-.335l-.139-.1a4.95,4.95,0,0,1-.466-.386c-.018-.015-.036-.029-.053-.046a6.288,6.288,0,0,1-.491-.537c-.024-.029-.049-.062-.073-.093a6.97,6.97,0,0,1-.416-.588c-.011-.017-.021-.031-.031-.048a9.486,9.486,0,0,1-.8-1.621l-.007-.015a14.178,14.178,0,0,1-.593-2,22.2,22.2,0,0,1-.482-3.777C172,69.22,165.98,63.966,161.024,61.538c-.172-.082-.483-.211-.646-.142-.9.379-1.978,3.258-2.624,4.978a23.174,23.174,0,0,1-1.948,4.325c-1.88,2.9-4.15,2.34-5.04,1.964a13.831,13.831,0,0,1-3.588-2.285c-1.345-1.1-1.752-1.432-4.179-.558-1.381.5-1.809,4.628-2.063,7.1-.35,3.374-.625,6.04-2.727,7.069a3.3,3.3,0,0,1-3.251-.252l5.2,22.494a516.485,516.485,0,0,1,56.049-8.874c-6.355-2.427-10.935-5.53-14.01-9.074" transform="translate(-134.959 -61.376)" fill="#e16071"/>
                </g>
              </g>
            </g>
            <path id="Path_31399" data-name="Path 31399" d="M273.8,53.15a6.957,6.957,0,0,0-4.933-2.585A432.089,432.089,0,0,0,135.9,62.313a7.131,7.131,0,0,0-4.462,3.415,7.958,7.958,0,0,0-.855,5.8l3.7,16.006a2.614,2.614,0,0,0,.193.549,9.714,9.714,0,0,0,2.884,3.791,3.439,3.439,0,0,0,3.693.537c2.1-1.029,2.377-3.693,2.727-7.069.254-2.467.682-6.6,2.063-7.095,2.427-.877,2.833-.546,4.179.558a13.923,13.923,0,0,0,3.588,2.285c.89.374,3.16.935,5.04-1.964a23.223,23.223,0,0,0,1.948-4.325c.646-1.721,1.729-4.6,2.625-4.98.164-.069.474.06.644.144,4.958,2.426,10.977,7.682,11.515,18.945.236,4.966,1.7,8.357,4.109,9.548a4.013,4.013,0,0,0,1.784.422,4.247,4.247,0,0,0,2.662-.976c2.489-2,3.47-6.441,2.626-11.886-.776-5.007-.465-7.378-.188-8.38a5.423,5.423,0,0,1,.889,1.908c1.29,4.844,4.4,7.752,7.9,7.428,4.792-.455,8.186-6.517,9.078-16.217.232-2.527.793-2.971.8-2.975.7-.353,3.865,1.551,5.213,2.364,2.885,1.739,5.866,3.544,8.793,3.359a17,17,0,0,0,8.927-3.288,17.437,17.437,0,0,1,9.868-3.324c7.666-.381,11.248,2.4,13.208,10.275,1.732,6.954,5.657,9.123,8.484,8.857,3.131-.288,5.369-3.161,5.7-7.323l.1-1.293c.141-1.8.3-3.854.5-5.457a7.085,7.085,0,0,0,5.288,2.957,3.947,3.947,0,0,0,2.042-.37,2.513,2.513,0,0,0,1.436-2.131l.957-13.687A7.863,7.863,0,0,0,273.8,53.15" transform="translate(-121.148 35.48)" fill="#fff"/>
            <g id="Group_12954" data-name="Group 12954" transform="translate(9.222 87.419)" opacity="0.08" style="mix-blend-mode: multiply;isolation: isolate">
              <g id="Group_12953" data-name="Group 12953">
                <g id="Group_12952" data-name="Group 12952" clip-path="url(#clip-path-33)">
                  <path id="Path_31400" data-name="Path 31400" d="M271.112,71.491c-1.988-.724-3.719-3.064-5.7-2.318-1.475.556-1.931,2.48-2.234,4.108a11.442,11.442,0,0,1-1.472,4.323,3.9,3.9,0,0,1-3.729,1.918,4.308,4.308,0,0,1-2.846-2.5,25.06,25.06,0,0,1-1.258-3.83c-2.241-7.335-9.24-13.032-16.493-12.423-5.087.429-9.552,3.619-13.658,6.832,0,0-3.975,2.731-10.759-1.7-10.969-7.164-12.224,2.709-12.182,2.784-1.826,7.9-9.949,5.319-10.814-5.817a13.637,13.637,0,0,1,5.115-11.907A433.655,433.655,0,0,0,135.9,61.336a7.138,7.138,0,0,0-4.462,3.417,7.953,7.953,0,0,0-.855,5.8l2.861,12.371,3.939,6.47a7.677,7.677,0,0,1-3.165-3.12l.066.285a2.614,2.614,0,0,0,.193.549,9.7,9.7,0,0,0,2.884,3.791,4.434,4.434,0,0,0,1.718.789l.016,0c.105.021.209.034.309.045l.031,0a3.255,3.255,0,0,0,.594-.005l.041-.005c.083-.01.164-.024.241-.039l.026-.005c.084-.017.165-.039.244-.062l.039-.014c.063-.019.125-.041.183-.063l.055-.022c.068-.027.133-.057.2-.086,2.1-1.029,2.377-3.695,2.727-7.069.254-2.468.682-6.6,2.063-7.1,2.427-.877,2.833-.544,4.179.558a13.9,13.9,0,0,0,3.588,2.285c.89.374,3.16.935,5.04-1.964a23.172,23.172,0,0,0,1.948-4.325c.646-1.721,1.729-4.6,2.625-4.98.164-.069.474.062.646.144,4.956,2.426,10.977,7.682,11.513,18.945.236,4.966,1.7,8.357,4.109,9.548a4.018,4.018,0,0,0,1.784.422,4.237,4.237,0,0,0,2.662-.976c2.489-2,3.47-6.441,2.626-11.886-.774-5.006-.465-7.376-.188-8.38a5.423,5.423,0,0,1,.889,1.908c1.292,4.844,4.4,7.752,7.9,7.428,4.792-.455,8.186-6.517,9.078-16.217.018-.194.039-.374.06-.544l.01-.077c.021-.158.044-.31.066-.449.266-1.583.657-1.9.662-1.9.7-.355,3.865,1.549,5.213,2.364,2.885,1.738,5.867,3.542,8.793,3.357a16.983,16.983,0,0,0,8.929-3.288,17.415,17.415,0,0,1,9.867-3.323c7.666-.383,11.248,2.4,13.208,10.274,1.732,6.954,5.657,9.123,8.484,8.857,3.131-.286,5.369-3.161,5.7-7.321l.1-1.293c.142-1.8.3-3.856.5-5.458a7.089,7.089,0,0,0,5.288,2.957,3.93,3.93,0,0,0,2.042-.371,2.513,2.513,0,0,0,1.436-2.131l.029-.41a4,4,0,0,1-3.517.47" transform="translate(-130.37 -50.961)" fill="#01c3ff"/>
                </g>
              </g>
            </g>
            <path id="Path_31401" data-name="Path 31401" d="M206.229,52.261a3.924,3.924,0,1,0,3.917-4.151,4.038,4.038,0,0,0-3.917,4.151" transform="translate(-74.186 34.418)" fill="#71c193"/>
            <g id="Group_12957" data-name="Group 12957" transform="translate(132.043 82.924)" opacity="0.45" style="mix-blend-mode: multiply;isolation: isolate">
              <g id="Group_12956" data-name="Group 12956">
                <g id="Group_12955" data-name="Group 12955" clip-path="url(#clip-path-29)">
                  <path id="Path_31402" data-name="Path 31402" d="M212.129,54.005a4.038,4.038,0,0,1-3.917-4.15,4.37,4.37,0,0,1,.272-1.515,4.172,4.172,0,0,0-2.255,3.755,4.038,4.038,0,0,0,3.918,4.15,3.929,3.929,0,0,0,3.645-2.637,3.707,3.707,0,0,1-1.663.4" transform="translate(-206.229 -48.341)" fill="#ef3066"/>
                </g>
              </g>
            </g>
            <path id="Path_31403" data-name="Path 31403" d="M209.858,50.358c.275.54.714.854.983.7s.264-.715-.011-1.256-.714-.854-.983-.7-.264.715.011,1.256" transform="translate(-72.069 35.1)" fill="#fff"/>
            <path id="Path_31404" data-name="Path 31404" d="M187.483,57.533a3.924,3.924,0,1,0,3.917-4.151,4.038,4.038,0,0,0-3.917,4.151" transform="translate(-85.791 38.19)" fill="#c793a0"/>
            <g id="Group_12960" data-name="Group 12960" transform="translate(101.692 91.969)" opacity="0.45" style="mix-blend-mode: multiply;isolation: isolate">
              <g id="Group_12959" data-name="Group 12959">
                <g id="Group_12958" data-name="Group 12958" clip-path="url(#clip-path-35)">
                  <path id="Path_31405" data-name="Path 31405" d="M193.383,59.277a4.039,4.039,0,0,1-3.918-4.15,4.37,4.37,0,0,1,.274-1.515,4.172,4.172,0,0,0-2.255,3.755,4.038,4.038,0,0,0,3.918,4.15,3.929,3.929,0,0,0,3.644-2.637,3.706,3.706,0,0,1-1.663.4" transform="translate(-187.483 -53.614)" fill="#fecd00"/>
                </g>
              </g>
            </g>
            <path id="Path_31406" data-name="Path 31406" d="M190.984,55.609c.275.54.714.854.983.7s.264-.715-.011-1.256-.714-.854-.983-.7-.262.715.011,1.256" transform="translate(-83.753 38.857)" fill="#fff"/>
            <path id="Path_31407" data-name="Path 31407" d="M169.443,53a3.924,3.924,0,1,0,3.917-4.15A4.038,4.038,0,0,0,169.443,53" transform="translate(-96.959 34.95)" fill="#a6cfe1"/>
            <g id="Group_12963" data-name="Group 12963" transform="translate(72.484 84.198)" opacity="0.45" style="mix-blend-mode: multiply;isolation: isolate">
              <g id="Group_12962" data-name="Group 12962">
                <g id="Group_12961" data-name="Group 12961" clip-path="url(#clip-path-36)">
                  <path id="Path_31408" data-name="Path 31408" d="M175.343,54.747a4.038,4.038,0,0,1-3.917-4.151,4.33,4.33,0,0,1,.272-1.513,4.171,4.171,0,0,0-2.255,3.753,4.039,4.039,0,0,0,3.917,4.151,3.93,3.93,0,0,0,3.646-2.637,3.706,3.706,0,0,1-1.663.4" transform="translate(-169.443 -49.084)" fill="#31a3d6"/>
                </g>
              </g>
            </g>
            <path id="Path_31409" data-name="Path 31409" d="M172.972,51.068c.275.54.714.854.983.7s.264-.715-.011-1.256-.714-.854-.983-.7-.262.715.011,1.256" transform="translate(-94.904 35.608)" fill="#fff"/>
            <path id="Path_31410" data-name="Path 31410" d="M155.587,58.975a3.924,3.924,0,1,0,3.917-4.15,4.038,4.038,0,0,0-3.917,4.15" transform="translate(-105.537 39.222)" fill="#e16071"/>
            <g id="Group_12966" data-name="Group 12966" transform="translate(50.05 94.509)" opacity="0.45" style="mix-blend-mode: multiply;isolation: isolate">
              <g id="Group_12965" data-name="Group 12965">
                <g id="Group_12964" data-name="Group 12964" clip-path="url(#clip-path-30)">
                  <path id="Path_31411" data-name="Path 31411" d="M161.487,60.691a4.04,4.04,0,0,1-3.918-4.151,4.347,4.347,0,0,1,.251-1.446,4.171,4.171,0,0,0-2.233,3.743,4.038,4.038,0,0,0,3.917,4.15,3.932,3.932,0,0,0,3.669-2.7,3.717,3.717,0,0,1-1.685.408" transform="translate(-155.587 -55.094)" fill="#ef3066"/>
                </g>
              </g>
            </g>
            <path id="Path_31412" data-name="Path 31412" d="M159.216,57.271c.275.54.714.854.983.7s.264-.715-.011-1.256-.714-.854-.983-.7-.262.715.011,1.256" transform="translate(-103.42 40.046)" fill="#fff"/>
            <path id="Path_31413" data-name="Path 31413" d="M135.753,58.245a3.924,3.924,0,1,0,3.918-4.151,4.038,4.038,0,0,0-3.918,4.151" transform="translate(-117.815 38.699)" fill="#8a88c2"/>
            <g id="Group_12969" data-name="Group 12969" transform="translate(17.938 93.261)" opacity="0.45" style="mix-blend-mode: multiply;isolation: isolate">
              <g id="Group_12968" data-name="Group 12968">
                <g id="Group_12967" data-name="Group 12967" clip-path="url(#clip-path-38)">
                  <path id="Path_31414" data-name="Path 31414" d="M141.653,59.96a4.04,4.04,0,0,1-3.918-4.151,4.335,4.335,0,0,1,.249-1.443,4.174,4.174,0,0,0-2.231,3.743,4.038,4.038,0,0,0,3.916,4.15,3.932,3.932,0,0,0,3.67-2.707,3.723,3.723,0,0,1-1.687.408" transform="translate(-135.753 -54.368)" fill="#31a3d6"/>
                </g>
              </g>
            </g>
            <path id="Path_31415" data-name="Path 31415" d="M139.323,56.344c.274.54.714.854.983.7s.264-.715-.011-1.256-.714-.854-.983-.7-.264.715.011,1.256" transform="translate(-115.735 39.383)" fill="#fff"/>
            <path id="Path_31416" data-name="Path 31416" d="M282.7,102.687a10.359,10.359,0,0,1-.586-1.263c-.06-.144-.136-.333-.2-.482a1.263,1.263,0,0,0-.508.566,8.468,8.468,0,0,0-.183,3.067c.024.5.047,1.009.05,1.506.028,4.745-1.99,9.222-5.262,11.684a9.714,9.714,0,0,1-12.621-.54c-2.573-2.553-3.279-6.126-3.9-9.279-.084-.429-.168-.853-.257-1.271-.41-1.954-1.42-5.325-3.568-5.932a7.84,7.84,0,0,0-2.987.082c-.211.031-.419.062-.628.089a31.506,31.506,0,0,1-20.289-4.23c-.711-.425-1.4-.875-2.066-1.311a22.344,22.344,0,0,0-4.554-2.513c-1.677-.592-3.9-.628-5.089.624-1.47,1.549-1.148,4.669-.618,7.014.089.388.181.779.274,1.172.729,3.072,1.554,6.556.382,10.008a9.338,9.338,0,0,1-8.62,6.419h-.045a9.352,9.352,0,0,1-8.6-6.512,17.535,17.535,0,0,1-.683-3.923,14.789,14.789,0,0,0-.384-2.571,2.341,2.341,0,0,0-1.3-1.6h0a1.9,1.9,0,0,0-.533.885c-.869,2.343-.241,5.194.424,8.212.188.847.38,1.726.542,2.6.984,5.352-.186,11.642-5.022,13.632-4.261,1.757-8.869-1.23-10.694-5-1.868-3.86-1.481-8.258-1.026-11.231.087-.57.185-1.141.283-1.712a22.909,22.909,0,0,0,.508-5.812c-.157-1.7-1.015-3.781-2.526-4.331-1.758-.64-3.729.654-6.535,2.7-.782.571-1.592,1.161-2.412,1.685a16.023,16.023,0,0,1-14,1.8,26.359,26.359,0,0,1-2.961-1.367,19.981,19.981,0,0,0-2.683-1.223c-1.114-.376-2.7-.527-3.507.285-1.059,1.065-.687,3.613-.245,5.712l1.457,6.932c1.13,5.378.275,9.037-2.544,10.876A5.628,5.628,0,0,1,144,128.7a8.921,8.921,0,0,1-5.181-5.09,21.706,21.706,0,0,1-1.234-6.182c-.1-1.036-.2-2.019-.374-2.947a13.924,13.924,0,0,0-.387,4.992c.024.7.047,1.424.042,2.151-.027,3.827-1.451,8.363-5.359,9.62-.136.043-.274.077-.413.11q2.89,12.49,5.778,24.981a5.79,5.79,0,0,0,5.46,4.6l0,.053,140.836-12.442-.031-.377a6.023,6.023,0,0,0,3.368-5.05q1.309-18.732,2.616-37.461a6.174,6.174,0,0,1-6.426-2.963" transform="translate(-120.699 66.149)" fill="#9e9cc9"/>
            <path id="Path_31417" data-name="Path 31417" d="M280.039,118.54c-5.591-.823-10.538-4.1-15.728-6.453-7.525-3.412-16.393-4.846-23.8-1.151-5.824,2.906-10.479,8.8-16.876,9.56-6.271.745-11.889-3.7-17.781-6.091a28.433,28.433,0,0,0-5.741-1.647,7.959,7.959,0,0,1-4.263,4.41c-3.636,1.5-7.517-.46-9.714-3.407-5.27,1.712-10.147,4.685-15.219,7.037-5.824,2.7-12.408,4.611-18.5,2.678-5.879-1.868-10.437-7.052-16.331-8.85a7.428,7.428,0,0,1-4.585,4.956c-.136.043-.274.077-.413.11q2.89,12.49,5.777,24.981a5.793,5.793,0,0,0,5.461,4.6l0,.053,140.836-12.443-.031-.376a6.023,6.023,0,0,0,3.368-5.05q.481-6.9.963-13.8a14.522,14.522,0,0,1-7.433.89" transform="translate(-120.699 77.807)" fill="#553089"/>
            <g id="Group_12972" data-name="Group 12972" transform="translate(10.396 166.873)" opacity="0.45" style="mix-blend-mode: multiply;isolation: isolate">
              <g id="Group_12971" data-name="Group 12971">
                <g id="Group_12970" data-name="Group 12970" clip-path="url(#clip-path-39)">
                  <path id="Path_31418" data-name="Path 31418" d="M174.625,111.927a36.371,36.371,0,0,1,5.851-14.648,16.571,16.571,0,0,0-4.611,2.714c-.784.571-1.592,1.161-2.412,1.685a16.029,16.029,0,0,1-14,1.8,26.361,26.361,0,0,1-2.961-1.367,20.22,20.22,0,0,0-2.683-1.225,5.206,5.206,0,0,0-2.341-.259l-1.167.547c-1.056,1.067-.685,3.613-.243,5.711l1.457,6.932c1.13,5.378.275,9.037-2.544,10.874a5.623,5.623,0,0,1-4.967.564,8.921,8.921,0,0,1-5.181-5.09,21.705,21.705,0,0,1-1.234-6.182c-.1-1.036-.2-2.021-.374-2.947a13.924,13.924,0,0,0-.387,4.992c.024.7.047,1.424.042,2.151a14.683,14.683,0,0,1-.774,4.664c-.1.274-.2.544-.319.806l-.016.039a8.7,8.7,0,0,1-1.354,2.17c-.029.033-.06.063-.089.094-.147.165-.3.321-.463.47-.058.053-.12.106-.181.158-.142.122-.29.235-.442.345-.074.053-.147.1-.223.154-.159.1-.325.2-.5.286-.074.039-.146.082-.223.118a6.337,6.337,0,0,1-.779.314c-.136.043-.274.077-.413.11q2.395,10.346,4.786,20.693l2.013,6.534a5.662,5.662,0,0,0,4.439,2.35l0,.053,68.757-6.074c-25.4-7.807-38.777-23.767-36.468-39.533" transform="translate(-131.095 -97.279)" fill="#553089"/>
                </g>
              </g>
            </g>
            <path id="Path_31419" data-name="Path 31419" d="M295.1,84.858a7.858,7.858,0,0,0-5.571-2.92A515.352,515.352,0,0,0,130.917,95.954a8.056,8.056,0,0,0-5.039,3.856,8.992,8.992,0,0,0-.968,6.555l7.283,31.495a2.412,2.412,0,0,0,2.309,1.921,2.3,2.3,0,0,0,.5-.057c.16-.038.321-.077.478-.127,3.908-1.257,5.332-5.793,5.359-9.62,0-.727-.018-1.451-.042-2.151a13.921,13.921,0,0,1,.387-4.992c.176.926.274,1.909.374,2.947a21.707,21.707,0,0,0,1.234,6.182,8.922,8.922,0,0,0,5.181,5.09,5.623,5.623,0,0,0,4.967-.564c2.819-1.837,3.674-5.5,2.544-10.874l-1.457-6.932c-.442-2.1-.814-4.647.245-5.714.806-.81,2.393-.659,3.507-.285a20.215,20.215,0,0,1,2.683,1.225,26.062,26.062,0,0,0,2.961,1.365,16.018,16.018,0,0,0,14-1.8c.821-.521,1.629-1.112,2.412-1.683,2.806-2.046,4.776-3.338,6.535-2.7,1.509.551,2.367,2.631,2.526,4.331a22.9,22.9,0,0,1-.508,5.81c-.1.573-.2,1.142-.283,1.714-.455,2.973-.844,7.371,1.025,11.231,1.826,3.77,6.433,6.757,10.7,5,4.836-1.99,6.007-8.28,5.022-13.632-.162-.875-.355-1.753-.542-2.6-.665-3.016-1.3-5.867-.424-8.21a1.9,1.9,0,0,1,.533-.885h0a2.341,2.341,0,0,1,1.3,1.6,14.647,14.647,0,0,1,.382,2.571,17.6,17.6,0,0,0,.685,3.921,9.35,9.35,0,0,0,8.6,6.513h.045a9.338,9.338,0,0,0,8.62-6.419c1.172-3.451.346-6.935-.382-10.009-.092-.391-.185-.782-.274-1.17-.529-2.345-.852-5.465.618-7.014,1.188-1.252,3.411-1.216,5.089-.624a22.341,22.341,0,0,1,4.554,2.513c.665.434,1.355.885,2.066,1.311a31.506,31.506,0,0,0,20.289,4.23c.209-.029.418-.058.626-.089a7.849,7.849,0,0,1,2.989-.082c2.148.607,3.159,3.976,3.568,5.932.089.419.173.842.257,1.269.622,3.155,1.328,6.728,3.9,9.279a9.714,9.714,0,0,0,12.621.542c3.272-2.462,5.29-6.939,5.262-11.684,0-.5-.027-1-.052-1.506a8.515,8.515,0,0,1,.185-3.069,1.274,1.274,0,0,1,.507-.564c.07.149.146.338.206.48a10.4,10.4,0,0,0,.586,1.264,6.267,6.267,0,0,0,7.132,2.83,2.482,2.482,0,0,0,1.847-2.273l1.428-20.448a8.88,8.88,0,0,0-1.978-6.3" transform="translate(-124.674 57.791)" fill="#fff"/>
            <g id="Group_12975" data-name="Group 12975" transform="translate(0 143.443)" opacity="0.08" style="mix-blend-mode: multiply;isolation: isolate">
              <g id="Group_12974" data-name="Group 12974">
                <g id="Group_12973" data-name="Group 12973" clip-path="url(#clip-path-40)">
                  <path id="Path_31420" data-name="Path 31420" d="M291.391,107.393c-1.8-1.352-3.387-3.427-5.594-3.525-3.371-.151-5.1,4.17-5.753,7.678s-2,7.858-5.359,8.176c-2.652.249-4.758-2.39-5.748-5.007s-1.431-5.568-3.159-7.714c-3.785-4.7-10.833-2.863-16.617-3.686-6.581-.937-12.1-5.735-18.493-7.64-3.277-.976-7.09-1.067-9.779,1.146-4.051,3.331-3.614,9.831-2.827,15.2.313,2.136.414,4.786-1.307,5.946-2.352,1.587-5.183-1.4-5.981-4.234s-1.14-6.285-3.577-7.721c-2.5-1.472-5.812.384-7.117,3.083s-1.164,5.892-.991,8.92q.185,3.185.366,6.373a4.891,4.891,0,0,1-.512,3.112c-1.132,1.607-3.758.875-4.752-.83s-.865-3.858-.761-5.858c.175-3.326.191-6.663.049-9.991-.105-2.46-.389-5.143-2.034-6.884a6.32,6.32,0,0,0-5.955-1.52,11.442,11.442,0,0,0-2.166.638c-2.539.369-6.316-.479-5.607-9.172.384-4.7,3.233-7.985,6.695-10.26a517.675,517.675,0,0,0-53.5,10.3,8.051,8.051,0,0,0-5.037,3.856,8.992,8.992,0,0,0-.968,6.555l7.283,31.495a2.739,2.739,0,0,0,.421.918l0,.007a2.4,2.4,0,0,0,.641.614c.019.014.037.027.058.041.057.034.115.063.173.093s.1.051.157.074.1.039.154.057a1.907,1.907,0,0,0,.215.058c.042.01.083.021.125.027a2.146,2.146,0,0,0,.863-.024c.16-.038.319-.077.476-.129,3.91-1.256,5.332-5.791,5.361-9.618,0-.729-.019-1.451-.042-2.151a13.921,13.921,0,0,1,.387-4.992c.176.926.274,1.909.374,2.947a21.707,21.707,0,0,0,1.234,6.182,8.913,8.913,0,0,0,5.181,5.09,5.629,5.629,0,0,0,4.967-.564c2.819-1.837,3.674-5.5,2.544-10.874l-1.457-6.932c-.442-2.1-.814-4.647.245-5.714.806-.811,2.393-.659,3.507-.285a20.217,20.217,0,0,1,2.683,1.225,26.358,26.358,0,0,0,2.961,1.365,16.018,16.018,0,0,0,14-1.8c.821-.523,1.629-1.112,2.411-1.683.361-.262.708-.513,1.041-.748,2.268-1.6,3.963-2.508,5.5-1.95,1.509.551,2.367,2.631,2.526,4.331a22.831,22.831,0,0,1-.51,5.81c-.1.571-.194,1.142-.282,1.714-.455,2.973-.844,7.371,1.025,11.231,1.826,3.77,6.433,6.755,10.7,5,4.836-1.99,6.007-8.282,5.021-13.632-.16-.877-.355-1.753-.541-2.6-.665-3.017-1.3-5.867-.424-8.21a1.884,1.884,0,0,1,.533-.885h0a2.341,2.341,0,0,1,1.3,1.6,14.647,14.647,0,0,1,.382,2.571,17.507,17.507,0,0,0,.685,3.921,9.348,9.348,0,0,0,8.6,6.513h.044A9.341,9.341,0,0,0,224.059,118c1.172-3.451.346-6.934-.382-10.008-.094-.391-.186-.782-.274-1.17-.529-2.345-.852-5.465.618-7.014,1.188-1.254,3.411-1.216,5.089-.624a22.446,22.446,0,0,1,4.553,2.511c.667.436,1.357.887,2.068,1.312a31.517,31.517,0,0,0,20.289,4.23c.209-.029.418-.058.626-.089a7.818,7.818,0,0,1,2.989-.084c2.148.609,3.157,3.978,3.568,5.932.089.42.172.844.256,1.271.623,3.153,1.329,6.728,3.9,9.279a9.716,9.716,0,0,0,12.622.542c3.272-2.462,5.288-6.939,5.262-11.684,0-.5-.027-1-.052-1.506a8.477,8.477,0,0,1,.185-3.069,1.274,1.274,0,0,1,.507-.564c.07.149.146.338.2.48a10.548,10.548,0,0,0,.588,1.264,6.267,6.267,0,0,0,7.132,2.83,2.482,2.482,0,0,0,1.847-2.273l.1-1.429a4.731,4.731,0,0,1-4.362-.75" transform="translate(-124.674 -83.62)" fill="#01c3ff"/>
                </g>
              </g>
            </g>
            <path id="Path_31421" data-name="Path 31421" d="M220.6,90.572a3.924,3.924,0,1,0,3.918-4.15,4.038,4.038,0,0,0-3.918,4.15" transform="translate(-65.292 61.827)" fill="#e16071"/>
            <g id="Group_12978" data-name="Group 12978" transform="translate(155.304 148.644)" opacity="0.45" style="mix-blend-mode: multiply;isolation: isolate">
              <g id="Group_12977" data-name="Group 12977">
                <g id="Group_12976" data-name="Group 12976" clip-path="url(#clip-path-29)">
                  <path id="Path_31422" data-name="Path 31422" d="M226.5,92.316a4.039,4.039,0,0,1-3.918-4.15,4.371,4.371,0,0,1,.274-1.515,4.172,4.172,0,0,0-2.255,3.755,4.038,4.038,0,0,0,3.918,4.15,3.929,3.929,0,0,0,3.645-2.637,3.706,3.706,0,0,1-1.663.4" transform="translate(-220.596 -86.653)" fill="#ef3066"/>
                </g>
              </g>
            </g>
            <path id="Path_31423" data-name="Path 31423" d="M224.225,88.67c.275.54.714.854.983.7s.264-.715-.011-1.256-.714-.854-.983-.7-.264.715.011,1.256" transform="translate(-63.175 62.509)" fill="#fff"/>
            <path id="Path_31424" data-name="Path 31424" d="M172.136,84.307a3.924,3.924,0,1,0,3.918-4.15,4.04,4.04,0,0,0-3.918,4.15" transform="translate(-95.292 57.345)" fill="#e29e71"/>
            <g id="Group_12981" data-name="Group 12981" transform="translate(76.844 137.898)" opacity="0.45" style="mix-blend-mode: multiply;isolation: isolate">
              <g id="Group_12980" data-name="Group 12980">
                <g id="Group_12979" data-name="Group 12979" clip-path="url(#clip-path-29)">
                  <path id="Path_31425" data-name="Path 31425" d="M178.036,86.052a4.038,4.038,0,0,1-3.917-4.15,4.369,4.369,0,0,1,.272-1.515,4.172,4.172,0,0,0-2.255,3.755,4.038,4.038,0,0,0,3.918,4.15,3.929,3.929,0,0,0,3.645-2.637,3.706,3.706,0,0,1-1.663.4" transform="translate(-172.136 -80.388)" fill="#fecd00"/>
                </g>
              </g>
            </g>
            <path id="Path_31426" data-name="Path 31426" d="M175.637,82.383c.275.54.714.854.983.7s.264-.715-.011-1.256-.714-.854-.983-.7-.264.715.011,1.256" transform="translate(-93.254 58.011)" fill="#fff"/>
            <path id="Path_31427" data-name="Path 31427" d="M207.023,83.328a3.924,3.924,0,1,0,3.918-4.15,4.04,4.04,0,0,0-3.918,4.15" transform="translate(-73.695 56.644)" fill="#a6cfe1"/>
            <g id="Group_12984" data-name="Group 12984" transform="translate(133.329 136.217)" opacity="0.45" style="mix-blend-mode: multiply;isolation: isolate">
              <g id="Group_12983" data-name="Group 12983">
                <g id="Group_12982" data-name="Group 12982" clip-path="url(#clip-path-43)">
                  <path id="Path_31428" data-name="Path 31428" d="M212.923,85.072A4.04,4.04,0,0,1,209,80.921a4.33,4.33,0,0,1,.274-1.513,4.169,4.169,0,0,0-2.255,3.753,4.039,4.039,0,0,0,3.918,4.151,3.929,3.929,0,0,0,3.645-2.637,3.707,3.707,0,0,1-1.663.4" transform="translate(-207.023 -79.409)" fill="#a6cfe1"/>
                </g>
              </g>
            </g>
            <path id="Path_31429" data-name="Path 31429" d="M210.6,81.46c.275.54.714.854.983.7s.264-.715-.011-1.256-.714-.854-.983-.7-.262.715.011,1.256" transform="translate(-71.608 57.351)" fill="#fff"/>
            <path id="Path_31430" data-name="Path 31430" d="M191.617,88.318a3.924,3.924,0,1,0,3.916-4.15,4.038,4.038,0,0,0-3.916,4.15" transform="translate(-83.232 60.214)" fill="#01c3ff"/>
            <g id="Group_12987" data-name="Group 12987" transform="translate(108.385 144.777)" opacity="0.45" style="mix-blend-mode: multiply;isolation: isolate">
              <g id="Group_12986" data-name="Group 12986">
                <g id="Group_12985" data-name="Group 12985" clip-path="url(#clip-path-44)">
                  <path id="Path_31431" data-name="Path 31431" d="M197.517,90.062a4.04,4.04,0,0,1-3.918-4.151,4.33,4.33,0,0,1,.274-1.513,4.172,4.172,0,0,0-2.255,3.755,4.038,4.038,0,0,0,3.918,4.15,3.929,3.929,0,0,0,3.645-2.637,3.707,3.707,0,0,1-1.663.4" transform="translate(-191.617 -84.399)" fill="#31a3d6"/>
                </g>
              </g>
            </g>
            <path id="Path_31432" data-name="Path 31432" d="M195.147,86.383c.275.54.714.854.983.7s.264-.715-.011-1.256-.714-.854-.983-.7-.262.715.011,1.256" transform="translate(-81.176 60.872)" fill="#fff"/>
            <path id="Path_31433" data-name="Path 31433" d="M153,92.2a3.924,3.924,0,1,0,3.918-4.151A4.038,4.038,0,0,0,153,92.2" transform="translate(-107.136 62.993)" fill="#553089"/>
            <g id="Group_12990" data-name="Group 12990" transform="translate(45.868 151.509)" opacity="0.45" style="mix-blend-mode: multiply;isolation: isolate">
              <g id="Group_12989" data-name="Group 12989">
                <g id="Group_12988" data-name="Group 12988" clip-path="url(#clip-path-30)">
                  <path id="Path_31434" data-name="Path 31434" d="M158.9,93.919a4.038,4.038,0,0,1-3.916-4.151,4.346,4.346,0,0,1,.249-1.446A4.17,4.17,0,0,0,153,92.065a4.038,4.038,0,0,0,3.918,4.15,3.932,3.932,0,0,0,3.667-2.7,3.717,3.717,0,0,1-1.685.408" transform="translate(-153.004 -88.323)" fill="#ef3066"/>
                </g>
              </g>
            </g>
            <path id="Path_31435" data-name="Path 31435" d="M156.633,90.5c.275.54.714.854.983.7s.264-.715-.011-1.256-.714-.854-.983-.7-.264.715.011,1.256" transform="translate(-105.019 63.817)" fill="#fff"/>
            <path id="Path_31436" data-name="Path 31436" d="M132.54,89.672a3.923,3.923,0,1,0,3.918-4.151,4.037,4.037,0,0,0-3.918,4.151" transform="translate(-119.804 61.182)" fill="#e16071"/>
            <g id="Group_12993" data-name="Group 12993" transform="translate(12.734 147.172)" opacity="0.45" style="mix-blend-mode: multiply;isolation: isolate">
              <g id="Group_12992" data-name="Group 12992">
                <g id="Group_12991" data-name="Group 12991" clip-path="url(#clip-path-38)">
                  <path id="Path_31437" data-name="Path 31437" d="M138.439,91.387a4.038,4.038,0,0,1-3.916-4.151,4.316,4.316,0,0,1,.248-1.441,4.17,4.17,0,0,0-2.231,3.741,4.038,4.038,0,0,0,3.918,4.15,3.932,3.932,0,0,0,3.669-2.707,3.718,3.718,0,0,1-1.687.408" transform="translate(-132.539 -85.794)" fill="#31a3d6"/>
                </g>
              </g>
            </g>
            <path id="Path_31438" data-name="Path 31438" d="M136.11,87.771c.275.54.714.854.983.7s.264-.715-.011-1.256-.714-.854-.983-.7-.264.715.011,1.256" transform="translate(-117.724 61.866)" fill="#fff"/>
            <path id="Path_31439" data-name="Path 31439" d="M205.953,39.535,204.9,54.1H198.9s5.639-1.122,7.049-14.564" transform="translate(-78.721 28.284)" fill="#fff"/>
            <path id="Path_31440" data-name="Path 31440" d="M217.606,69.9l-1.059,15.684-4.582-.187s4.405-3.175,5.641-15.5" transform="translate(-70.635 50.007)" fill="#fff"/>
            <path id="Path_31441" data-name="Path 31441" d="M229.668,105.165l-1.321,28.565-9.251.841s9.515-2.8,10.573-29.405" transform="translate(-66.221 75.235)" fill="#fff"/>
          </g>
          <g id="Group_13008" data-name="Group 13008" transform="translate(377.313 192.039)" opacity="0.21">
            <g id="Group_12910" data-name="Group 12910" clip-path="url(#clip-path-47)">
              <path id="Path_31340" data-name="Path 31340" d="M245.64,121.769c.4.062.8.125,1.22.166a25.334,25.334,0,0,0,2.766.123q.967-.008,1.994-.087c.414-.033.816-.069,1.212-.109l.1-.012c.36-.038.711-.078,1.057-.123l.044-.007c5.7-.747,9.331-2.4,11.591-3.963l.723-1.554a16.517,16.517,0,0,1-1.526,1.009,19.866,19.866,0,0,1-2.079,1.057,27.351,27.351,0,0,1-5.234,1.67c-.115.026-.236.049-.353.073l-.45.092c-.25.047-.5.094-.762.139-.53.092-1.073.178-1.644.253l-.044.005c-.343.045-.7.087-1.057.123-.034.005-.069.009-.1.012q-.591.062-1.212.109c-.119.01-.234.014-.353.023-.478.031-.947.05-1.4.059-.077,0-.159.005-.236.005a25.793,25.793,0,0,1-2.766-.121l-.036-.005c-.37-.038-.72-.094-1.075-.147-.193-.028-.4-.047-.587-.08q-.395-.07-.775-.151l-.033-.005c-.46-.1-.9-.21-1.338-.331a20.354,20.354,0,0,1-2.813-1.031c-.25-.113-.5-.229-.739-.347a21.54,21.54,0,0,1-5.661-4.152c-.577-.584-1.091-1.156-1.546-1.689l-.029-.035c-.142-.168-.28-.334-.411-.494-.263-.319-.505-.622-.726-.9-.057-.073-.111-.139-.167-.21l-.229-.281-.263-.029.433,1.8,4.293,17.8s2.79,3.3,11.5,4.346c5.719.581,8.932-.367,10.466-1.092-7.834,1.154-16.682-1.752-15.122-7.023a10.128,10.128,0,0,1,3.371-4.881" transform="translate(-230.7 -110.824)" fill="#9e9cc9"/>
            </g>
          </g>
        </g>
        <rect id="Rectangle_6597" data-name="Rectangle 6597" width="416.536" height="233.717" fill="none"/>
      </g>
    </g>
    <g id="Mask_Group_7" data-name="Mask Group 7" transform="translate(79 374.245)" clip-path="url(#clip-path)">
      <g id="Group_13011" data-name="Group 13011" transform="translate(-30 -63.245)">
        <g id="Group_13010" data-name="Group 13010" clip-path="url(#clip-path-49)">
          <path id="Path_31443" data-name="Path 31443" d="M279.945,212.589s.21,6.472-5.319,13.585l3.681,1.66s6.122-7.408,5.373-13.488Z" transform="translate(-1 5)" fill="#ff4f7c"/>
          <path id="Path_31477" data-name="Path 31477" d="M279.945,212.589s.21,6.472-5.319,13.585l3.681,1.66s6.122-7.408,5.373-13.488Z" transform="translate(-191.766 50.641)" fill="#ff4f7c"/>
          <path id="Path_31444" data-name="Path 31444" d="M450.687,17.443s.21,6.472-5.319,13.585l3.681,1.66s6.122-7.408,5.372-13.489Z" transform="translate(0)" fill="#ff4f7c"/>
          <path id="Path_31445" data-name="Path 31445" d="M108.505,279.987s-4.78-1.332-13.6.857l1.018-2.643s9.407-2.512,13.556-.909Z" transform="translate(108.922 6.119)" fill="#ff4f7c"/>
          <path id="Path_31446" data-name="Path 31446" d="M586.889,99.175s-2.934-4-11.218-7.73L578.1,90s8.948,3.839,11.219,7.664Z" transform="translate(0)" fill="#ff4f7c"/>
          <path id="Path_31447" data-name="Path 31447" d="M26.405,134.842s-7.1,4.163-11.167,14.793l-4.174-2.745s4-11.453,11.029-14.784Z" transform="translate(0)" fill="#01c3ff"/>
          <path id="Path_31448" data-name="Path 31448" d="M354.1,181.744s-7.1,4.163-11.167,14.793l-4.174-2.745s4-11.453,11.029-14.784Z" transform="translate(1.268 25)" fill="#01c3ff"/>
          <path id="Path_31476" data-name="Path 31476" d="M15.323,2.723S8.223,6.886,4.156,17.516L-.018,14.771s4-11.453,11.029-14.784Z" transform="translate(335.128 154.147) rotate(-60)" fill="#9e9cc9"/>
          <path id="Path_31449" data-name="Path 31449" d="M276.374,345.362s-7.1,4.163-11.167,14.793l-4.174-2.745s4-11.453,11.029-14.784Z" transform="translate(-99.718 -81.738)" fill="#01c3ff"/>
          <path id="Path_31450" data-name="Path 31450" d="M229.652,315.876s-4.576-1.563-10.868.7l-.379-2.911s6.632-2.613,10.811-.762Z" transform="translate(0)" fill="#ffe900"/>
          <path id="Path_31451" data-name="Path 31451" d="M535.2,36.834s-5.23-.044-13.954,4.511l.533-2.91s9.273-5.035,13.9-4.552Z" transform="translate(0)" fill="#ffe900"/>
          <path id="Path_31453" data-name="Path 31453" d="M604.6,356.4l-1.124-4.021,4.056-1.06,1.123,4.02Z" transform="translate(0)" fill="#01c3ff"/>
          <path id="Path_31454" data-name="Path 31454" d="M1.3,337.77,0,335.148,2.638,333.9l1.3,2.622Z" transform="translate(0)" fill="#01c3ff"/>
          <path id="Path_31456" data-name="Path 31456" d="M605.87,60.932l-1.3-2.622,2.638-1.251,1.3,2.622Z" transform="translate(0)" fill="#01c3ff"/>
          <path id="Path_31458" data-name="Path 31458" d="M312.114,108.944l-1.261-2.64,2.656-1.213,1.261,2.639Z" transform="translate(0)" fill="#01c3ff"/>
          <path id="Path_31459" data-name="Path 31459" d="M121.926,320.458l-1.093,2.1,1.145,2.1-2.375-.4-1.657,1.7-.374-2.351L115.4,322.56l2.143-1.051.316-2.351,1.7,1.7Z" transform="translate(-48 11.808)" fill="#01c3ff"/>
          <path id="Path_31460" data-name="Path 31460" d="M638.719,331.073l-1.585,3.049,1.661,3.05-3.445-.583-2.4,2.467-.543-3.41-3.146-1.525,3.108-1.524.459-3.41,2.464,2.468Z" transform="translate(0)" fill="#ffe900"/>
          <path id="Path_31461" data-name="Path 31461" d="M310.853,153.194l-2.082,1.65.217,2.648-2.257-1.467-2.479.991.688-2.557-1.749-2.035,2.682-.113,1.4-2.249.969,2.486Z" transform="translate(64 -25.386)" fill="#ffe900"/>
          <path id="Path_31462" data-name="Path 31462" d="M331.567,49.053l-2.082,1.65.217,2.647-2.257-1.466-2.479.991.688-2.557L323.9,48.283l2.682-.113,1.4-2.249.969,2.486Z" transform="translate(0)" fill="#ffe900"/>
          <path id="Path_31463" data-name="Path 31463" d="M179.241,18.6a13.929,13.929,0,0,0-8.579.556l-.3-2.3s5.235-2.063,8.534-.6Z" transform="translate(0)" fill="#01c3ff"/>
          <path id="Path_31464" data-name="Path 31464" d="M179.241,288.857a13.933,13.933,0,0,0-8.579.555l-.3-2.3s5.235-2.063,8.534-.6Z" transform="translate(-33 9.249)" fill="#01c3ff"/>
          <path id="Path_31465" data-name="Path 31465" d="M353.9,278.417,352.78,274.4l4.055-1.06,1.124,4.02Z" transform="translate(9.232 -10.71)" fill="#01c3ff"/>
          <path id="Path_31466" data-name="Path 31466" d="M226.295,47.968l-2.266-1.879,1.873-2.216,2.267,1.879Z" transform="translate(0)" fill="#ffe900"/>
          <path id="Path_31467" data-name="Path 31467" d="M24.992,291.366l-1.376.778,2.8.371,1.376-.778Z" transform="translate(51.765 13.851)" fill="#ff4f7c"/>
          <path id="Path_31468" data-name="Path 31468" d="M5.84,265.167l-1.3-2.622,2.638-1.251,1.3,2.622Z" transform="translate(0)" fill="#01c3ff"/>
          <path id="Path_31469" data-name="Path 31469" d="M235.9,265.256l-2.414-1.688,1.678-2.365,2.414,1.688Z" transform="translate(0)" fill="#ff4f7c"/>
          <path id="Path_31470" data-name="Path 31470" d="M612.157,269.952l-1.093,2.1,1.145,2.1-2.375-.4-1.657,1.7-.374-2.351-2.169-1.052L607.777,271l.316-2.351,1.7,1.7Z" transform="translate(0)" fill="#ffe900"/>
          <path id="Path_31471" data-name="Path 31471" d="M299.6,293.137l-1.093,2.1,1.145,2.1-2.375-.4-1.657,1.7-.374-2.351-2.169-1.052,2.143-1.051.316-2.351,1.7,1.7Z" transform="translate(-144 40.723)" fill="#01c3ff"/>
          <path id="Path_31472" data-name="Path 31472" d="M8.492,92.314,7.4,94.417l1.145,2.1-2.375-.4-1.657,1.7-.375-2.351L1.969,94.416l2.142-1.051.317-2.351,1.7,1.7Z" transform="translate(0)" fill="#ff4f7c"/>
          <path id="Path_31473" data-name="Path 31473" d="M346.431,313.829l-2.082,1.65.216,2.648-2.256-1.467-2.479.991.688-2.557-1.749-2.035,2.681-.113,1.4-2.249.97,2.486Z" transform="translate(33 0)" fill="#ff4f7c"/>
          <path id="Path_31474" data-name="Path 31474" d="M505.068,3.132l-2.082,1.65L503.2,7.43l-2.257-1.467-2.479.991.688-2.557-1.749-2.035,2.682-.113L501.485,0l.97,2.486Z" transform="translate(0)" fill="#01c3ff"/>
        </g>
      </g>
    </g>
  </g>
</svg>
