<svg xmlns="http://www.w3.org/2000/svg" xmlns:xlink="http://www.w3.org/1999/xlink" width="364.315" height="257.699" viewBox="0 0 364.315 257.699">
  <defs>
    <clipPath id="clip-path">
      <rect id="Rectangle_6598" data-name="Rectangle 6598" width="364.315" height="257.699" transform="translate(0 -6.1)" fill="none"/>
    </clipPath>
  </defs>
  <g id="Group_13084" data-name="Group 13084" transform="translate(0 6.1)" opacity="0.65">
    <g id="Group_13010" data-name="Group 13010" clip-path="url(#clip-path)">
      <path id="Path_31477" data-name="Path 31477" d="M279.409,212.589a25.726,25.726,0,0,1-4.783,13.907l3.31,1.7s5.5-7.584,4.831-13.808Z" transform="translate(-236.12 -27.989)" fill="#ff4f7c"/>
      <path id="Path_31444" data-name="Path 31444" d="M450.151,17.443a25.726,25.726,0,0,1-4.783,13.907l3.31,1.7s5.5-7.584,4.83-13.809Z" transform="translate(-44.904 0.414)" fill="#ff4f7c" opacity="0.3"/>
      <path id="Path_31445" data-name="Path 31445" d="M113.382,285.5s-6.495-3.606-18.473,2.32l1.383-7.156s12.781-6.8,18.418-2.461Z" transform="translate(240.196 -182.508)" fill="#e29e71"/>
      <path id="Path_31508" data-name="Path 31508" d="M123.7,284.543s-10.121-3.211-28.787,2.066l2.155-6.371s19.918-6.055,28.7-2.191Z" transform="translate(166.865 -57.443)" fill="#e16071"/>
      <path id="Path_31448" data-name="Path 31448" d="M352.554,181.809s-6.384,4.262-10.041,15.144l-3.753-2.81s3.6-11.725,9.917-15.135Z" transform="translate(-296.155 -73.694)" fill="#a6cfe1"/>
      <path id="Path_31509" data-name="Path 31509" d="M362.778,181.843a38.486,38.486,0,0,0-17.483,15.328l-6.535-2.844s6.262-11.867,17.267-15.319Z" transform="translate(-134.639 -185.108)" fill="#a4328a" opacity="0.23"/>
      <path id="Path_31476" data-name="Path 31476" d="M25.727,3.748s-11.783,6.9-19.254,23.276L0,23.25S7.435,5.636,19.031,0Z" transform="translate(298.838 183.444) rotate(-60)" fill="#9e9cc9"/>
      <path id="Path_31510" data-name="Path 31510" d="M25.791,3.843s-11.883,6.365-19,22.085L0,22.066S7.039,5.144,18.773,0Z" transform="translate(-11.101 74.42) rotate(-79)" fill="#e16071"/>
      <path id="Path_31449" data-name="Path 31449" d="M276.051,345.675s-6.951,4.64-10.932,16.488l-4.086-3.06s3.916-12.765,10.8-16.478Z" transform="translate(-206.395 -328.572)" fill="#71c193"/>
      <path id="Path_31507" data-name="Path 31507" d="M274.827,345.427s-6.384,4.262-10.041,15.144l-3.753-2.81s3.6-11.725,9.917-15.135Z" transform="translate(37.805 -314.365)" fill="#553089"/>
      <path id="Path_31450" data-name="Path 31450" d="M239.12,319.86s-8.428-3.278-20.017,1.476l-.7-6.1s12.215-5.479,19.912-1.6Z" transform="translate(570.57 -286.584)" fill="#71c193" opacity="0.3"/>
      <path id="Path_31451" data-name="Path 31451" d="M533.8,36.9s-4.7-.045-12.547,4.618l.479-2.979s8.338-5.155,12.5-4.66Z" transform="translate(-52.555 0.803)" fill="#ffe900"/>
      <path id="Path_31453" data-name="Path 31453" d="M604.486,356.518l-1.011-4.116,3.647-1.085,1.01,4.115Z" transform="translate(-60.845 8.338)" fill="#01c3ff"/>
      <path id="Path_31454" data-name="Path 31454" d="M1.168,337.862,0,335.178,2.372,333.9l1.168,2.684Z" transform="translate(0 7.925)" fill="#01c3ff"/>
      <path id="Path_31459" data-name="Path 31459" d="M121.268,320.489l-.983,2.153,1.03,2.153-2.136-.413-1.49,1.741-.336-2.407-1.95-1.076,1.927-1.076.284-2.407,1.528,1.741Z" transform="translate(-54.796 19.663)" fill="#01c3ff"/>
      <path id="Path_31460" data-name="Path 31460" d="M637.765,331.118l-1.425,3.121,1.494,3.122-3.1-.6-2.161,2.526-.488-3.491-2.829-1.561,2.795-1.56.413-3.491,2.216,2.527Z" transform="translate(-2.934 -162.4)" fill="#ffe900"/>
      <path id="Path_31464" data-name="Path 31464" d="M178.346,288.925a11.09,11.09,0,0,0-7.714.568l-.269-2.352s4.707-2.112,7.674-.615Z" transform="translate(-46.85 16.256)" fill="#01c3ff"/>
      <path id="Path_31465" data-name="Path 31465" d="M353.791,278.538l-1.011-4.116,3.646-1.085,1.011,4.115Z" transform="translate(527.069 -247.676)" fill="#01c3ff"/>
      <path id="Path_31467" data-name="Path 31467" d="M24.853,291.366l-1.238.8,2.513.38,1.238-.8Z" transform="translate(44.165 21.095)" fill="#ff4f7c"/>
      <path id="Path_31468" data-name="Path 31468" d="M5.709,265.259l-1.168-2.684,2.372-1.281,1.168,2.684Z" transform="translate(-0.458 6.202)" fill="#01c3ff"/>
      <path id="Path_31469" data-name="Path 31469" d="M235.655,265.353l-2.171-1.728,1.509-2.421,2.171,1.728Z" transform="translate(-23.541 6.199)" fill="#ff4f7c"/>
      <path id="Path_31470" data-name="Path 31470" d="M611.5,269.982l-.983,2.153,1.029,2.153-2.135-.412-1.49,1.741-.336-2.407-1.95-1.077,1.927-1.076.284-2.407,1.528,1.741Z" transform="translate(-61.063 6.376)" fill="#ffe900"/>
      <path id="Path_31471" data-name="Path 31471" d="M298.946,293.167l-.983,2.153,1.03,2.153-2.136-.411-1.49,1.741-.336-2.407-1.95-1.077,1.927-1.076.284-2.407,1.528,1.741Z" transform="translate(-159.031 48.616)" fill="#01c3ff"/>
      <path id="Path_31473" data-name="Path 31473" d="M349.282,315.589l-2.857,2.577.3,4.137-3.1-2.292-3.4,1.548.944-3.994-2.4-3.179,3.679-.177,1.918-3.513,1.331,3.883Z" transform="translate(493.515 -296.643)" fill="#ff4f7c"/>
    </g>
  </g>
</svg>
