<svg xmlns="http://www.w3.org/2000/svg" xmlns:xlink="http://www.w3.org/1999/xlink" width="152" height="165" viewBox="0 0 152 165">
  <defs>
    <clipPath id="clip-path">
      <path id="Path_31856" data-name="Path 31856" d="M7,0H145a7,7,0,0,1,7,7V158a7,7,0,0,1-7,7H7a7,7,0,0,1-7-7V7A7,7,0,0,1,7,0Z" transform="translate(101 700)" fill="#553089"/>
    </clipPath>
  </defs>
  <g id="Mask_Group_13352" data-name="Mask Group 13352" transform="translate(-101 -700)" clip-path="url(#clip-path)">
    <g id="Group_13365" data-name="Group 13365" transform="translate(-110.469 104.98) rotate(-17)" opacity="0.15">
      <path id="Path_31844" data-name="Path 31844" d="M279.7,17.924c-1.807.036-3.616.152-5.42.255-1.847.106-3.692.237-5.539.318-1.817.079-3.635.08-5.452.137s-3.629.127-5.445.152c-1.781.024-3.561.053-5.341.074-1.826.021-3.651.056-5.476.09-1.843.034-3.686.02-5.529.03s-3.716.052-5.573.1c-.894.023-1.788.066-2.682.1-.86.037-1.72.052-2.58.093-1.838.088-3.674.129-5.514.145-.464,0-.928.006-1.392.013a8.223,8.223,0,0,0-1.072.1,2.213,2.213,0,0,0-1.625,1.208,3.205,3.205,0,0,0-.3.828,6.784,6.784,0,0,0-.1.788c-.015.24-.017.48-.022.72q-.015.635-.016,1.269c0,1.22.031,2.436.087,3.655a1.99,1.99,0,0,0,.454,2.112,1.937,1.937,0,0,0,1.409.583c.357-.023.712-.079,1.068-.112.391-.037.785-.053,1.177-.066.876-.032,1.75-.053,2.627-.066,1.716-.026,3.431.03,5.147.038q2.661.012,5.313.168c.909.054,1.817.1,2.728.1.88,0,1.76,0,2.64.01,3.613.028,7.225.062,10.837.062,3.593,0,7.186.018,10.778-.011,1.795-.014,3.589-.049,5.383-.073,1.815-.025,3.63-.027,5.445-.025.866,0,1.732,0,2.6-.025.433-.011.865-.041,1.3-.082.356-.034.709-.091,1.062-.148a3.143,3.143,0,0,0,.962-.355,2.1,2.1,0,0,0,.543-.441,2.844,2.844,0,0,0,.589-1.036,3.044,3.044,0,0,0,.1-.588c.055-.357.1-.717.141-1.076.049-.415.088-.83.127-1.246q.125-1.324.24-2.651a11.811,11.811,0,0,0,.078-2.569,4.417,4.417,0,0,0-.153-.861,2.2,2.2,0,0,0-.539-.919,3.274,3.274,0,0,0-.469-.376,2.873,2.873,0,0,0-1.446-.439,3.315,3.315,0,0,0-.388-.02c-.255,0-.515.02-.763.025M225.935,23.4c.921-.013,1.842-.022,2.763-.045s1.813-.086,2.719-.12c.883-.034,1.767-.061,2.65-.1,3.658-.156,7.32-.172,10.98-.18,1.834,0,3.667-.062,5.5-.086,1.8-.024,3.592-.063,5.388-.081,1.819-.016,3.636-.037,5.454-.1,1.843-.064,3.686-.1,5.53-.145,3.62-.081,7.231-.393,10.847-.563.566-.025,1.131-.05,1.7-.065l.045,0c-.006.092-.014.184-.023.277-.061.612-.117,1.224-.164,1.838-.043.571-.11,1.139-.164,1.708q-.044.477-.094.951c-.594.041-1.19.049-1.785.056-.879.011-1.757.007-2.636.005q-2.637,0-5.27.038c-1.8.026-3.6.061-5.4.066q-2.793.01-5.588.006-5.364,0-10.728-.027c-1.791-.011-3.582-.032-5.372-.04-.893,0-1.786,0-2.678-.021s-1.791-.1-2.685-.145c-1.756-.1-3.51-.1-5.269-.114-.875-.006-1.752-.031-2.628-.041-.856-.009-1.712.006-2.568.022-.607.01-1.214.03-1.821.056-.017-.485-.028-.971-.027-1.456,0-.5,0-1.006.01-1.509l0-.181h.734c.195,0,.389,0,.583,0" transform="translate(-98 669.401)" fill="#fff"/>
      <path id="Path_31845" data-name="Path 31845" d="M242.522,3.637a8.527,8.527,0,0,0-1.97.638,7.2,7.2,0,0,0-1.9,1.273,9.769,9.769,0,0,0-1.348,1.606,5.559,5.559,0,0,0-.921,2.022,6.132,6.132,0,0,0-.087,2.062c.05.391.085.792.154,1.179.041.23.083.46.124.69a10.061,10.061,0,0,0,.7,2.135,13.459,13.459,0,0,0,.737,1.446,10.333,10.333,0,0,0,1.106,1.524,8.732,8.732,0,0,0,1.111,1.038c.49.4.981.818,1.5,1.177a7.858,7.858,0,0,0,1.652.866c.212.082.424.167.638.244.57.2,1.142.391,1.724.559a1.945,1.945,0,0,0,1.413-.143,1.966,1.966,0,0,0,2.32-.356,4.743,4.743,0,0,0,.487-.634,3.935,3.935,0,0,0,.272-.643c.035-.088.069-.178.1-.267.069-.185.136-.372.2-.558.138-.4.264-.8.381-1.2a22.652,22.652,0,0,0,.565-2.694,19.856,19.856,0,0,0,.245-3.146c0-.46-.049-.919-.089-1.377a11.062,11.062,0,0,0-.43-2.327,7.252,7.252,0,0,0-.886-1.838,7.464,7.464,0,0,0-1.754-1.8,10.055,10.055,0,0,0-1.45-.955,7.5,7.5,0,0,0-1.1-.443,6.441,6.441,0,0,0-1.224-.228,4.763,4.763,0,0,0-.6-.036,9.8,9.8,0,0,0-1.693.188m1.993,3.8a5.176,5.176,0,0,1,.637.176,7.915,7.915,0,0,1,1.121.712,6.3,6.3,0,0,1,.626.607,6.01,6.01,0,0,1,.424.724,8.466,8.466,0,0,1,.349,1.48c.052.63.083,1.254.084,1.887a13.648,13.648,0,0,1-.116,1.589c-.132.8-.289,1.6-.493,2.391-.108.417-.233.829-.371,1.238-.709-.2-1.4-.443-2.092-.7a7.305,7.305,0,0,1-1.135-.708,12.145,12.145,0,0,1-1.718-1.573,10.875,10.875,0,0,1-.976-1.724,11.946,11.946,0,0,1-.545-2.107,7.287,7.287,0,0,1-.063-1.261,3.278,3.278,0,0,1,.091-.326,5.972,5.972,0,0,1,.453-.735,7.459,7.459,0,0,1,.873-.9,5.707,5.707,0,0,1,.675-.386,8.133,8.133,0,0,1,1.449-.372,4.9,4.9,0,0,1,.727-.005" transform="translate(-98 669.401)" fill="#fff"/>
      <path id="Path_31846" data-name="Path 31846" d="M260.708,6.02a9.9,9.9,0,0,0-1.82.251,11.868,11.868,0,0,0-2.146.757,13.044,13.044,0,0,0-3.435,2.315,17.7,17.7,0,0,0-1.973,2.123c-.4.5-.79,1.011-1.164,1.534-.276.388-.524.791-.778,1.194-.1.154-.176.318-.262.477-.105.2-.22.39-.316.591-.205.432-.427.86-.615,1.3-.379.879-.762,1.756-1.118,2.645l-.072.529a1.979,1.979,0,0,0,.272,1,2.009,2.009,0,0,0,.886.8,2.05,2.05,0,0,0,1.667.911c.873.017,1.749.045,2.622.025.85-.018,1.7-.075,2.546-.135a19.285,19.285,0,0,0,3-.329,14.168,14.168,0,0,0,2.779-.961,13.693,13.693,0,0,0,2.32-1.37,16,16,0,0,0,1.609-1.317,6.208,6.208,0,0,0,1.252-1.771c.17-.35.316-.709.467-1.067q.108-.259.2-.525a5.525,5.525,0,0,0,.271-1.318,8.45,8.45,0,0,0-.191-3.055,9,9,0,0,0-.736-1.866,6.724,6.724,0,0,0-.715-1.006,5.4,5.4,0,0,0-.992-.879,4.6,4.6,0,0,0-1.062-.54,4.655,4.655,0,0,0-1.267-.3,4.992,4.992,0,0,0-.645-.037c-.2,0-.389.007-.585.014m.876,3.973c.087.022.173.047.259.075.088.047.173.1.257.15.086.08.167.164.245.251a4.827,4.827,0,0,1,.3.529,7.49,7.49,0,0,1,.317,1.1,8.408,8.408,0,0,1-.015,1.289,6.108,6.108,0,0,1-.322.986,8.652,8.652,0,0,1-.545.985,7.773,7.773,0,0,1-.987.886,13.873,13.873,0,0,1-2.382,1.4,11.247,11.247,0,0,1-2.087.6c-.445.046-.892.072-1.338.1-.609.045-1.219.088-1.83.119-.594.029-1.189.038-1.784.037.078-.173.164-.342.246-.513.116-.246.222-.5.351-.741.264-.491.525-.976.822-1.448.268-.424.554-.832.845-1.24.328-.406.659-.806,1.008-1.2a15.039,15.039,0,0,1,1.693-1.636,11.79,11.79,0,0,1,2.028-1.213,9.175,9.175,0,0,1,1.722-.483,7.611,7.611,0,0,1,1.2-.033" transform="translate(-98 669.401)" fill="#fff"/>
      <path id="Path_31847" data-name="Path 31847" d="M244.212,12.335a1.893,1.893,0,0,0-1.224.994,1.985,1.985,0,0,0-.272,1.006,4.291,4.291,0,0,0,.1.732,5.724,5.724,0,0,0,.416.977,25.154,25.154,0,0,0,2.4,3.745l.311.4a1.993,1.993,0,0,0,3.329-.879,1.918,1.918,0,0,0-.2-1.534l-.293-.4a1.612,1.612,0,0,0-.065-.747,12.88,12.88,0,0,0-1.137-2.378,6.943,6.943,0,0,0-.883-1.126,3.481,3.481,0,0,0-.747-.586,2.158,2.158,0,0,0-1.1-.29,2.6,2.6,0,0,0-.638.082" transform="translate(-98 669.401)" fill="#fff"/>
      <path id="Path_31848" data-name="Path 31848" d="M254.1,13.623a7.052,7.052,0,0,0-1.042.4,18.335,18.335,0,0,0-4.549,3.222,1.948,1.948,0,0,0-.584,1.409,1.994,1.994,0,0,0,1.992,1.992,1.912,1.912,0,0,0,.966-.261,2.008,2.008,0,0,0,1.738-.124c.749-.434,1.494-.872,2.212-1.356a11.225,11.225,0,0,0,1.285-.993,2.9,2.9,0,0,0,1.03-2.769,2.248,2.248,0,0,0-1.559-1.565,2.315,2.315,0,0,0-.614-.079,3.429,3.429,0,0,0-.875.123" transform="translate(-98 669.401)" fill="#fff"/>
      <path id="Path_31849" data-name="Path 31849" d="M225.191,29.085c.082,1.891.179,3.779.2,5.671.021,1.78-.025,3.561,0,5.341s.108,3.574.175,5.36c.067,1.77.073,3.542.087,5.313q.021,2.414.167,4.823a9.551,9.551,0,0,0,.181,1.638,2.906,2.906,0,0,0,.681,1.177,3.659,3.659,0,0,0,.549.438,3.594,3.594,0,0,0,.673.31,5.739,5.739,0,0,0,1.244.225c.825.11,1.661.116,2.488.217.878.115,1.751.209,2.639.239s1.792.048,2.688.067c1.746.035,3.5-.007,5.24.1.927.061,1.853.149,2.78.216.891.063,1.786.081,2.678.128,1.793.093,3.589.125,5.384.144s3.588,0,5.381.029c1.818.031,3.64.066,5.457-.015,1.751-.079,3.5-.076,5.252-.12,1.709-.044,3.418-.088,5.127-.094.426,0,.847-.01,1.27-.052.346-.034.691-.083,1.035-.14a2.434,2.434,0,0,0,1.717-1.2,4.907,4.907,0,0,0,.431-2.192c.021-.434.026-.87.029-1.305.014-1.786-.056-3.57-.131-5.355s-.083-3.595-.085-5.394c0-1.784.089-3.564.116-5.348.023-1.56.017-3.12.056-4.679a42.96,42.96,0,0,1,.19-4.306l-.072-.529a1.992,1.992,0,0,0-3.329-.879l-.311.4a1.974,1.974,0,0,0-.272,1,22.271,22.271,0,0,0-.157,2.516c-.01.872-.032,1.745-.053,2.617-.044,1.781-.014,3.563-.075,5.345-.062,1.829-.08,3.654-.071,5.484.008,1.771.068,3.538.142,5.308q.059,1.452.065,2.9c0,.6.012,1.207-.005,1.81-.5.016-.993.01-1.49.014-.866.007-1.73.028-2.6.05-1.742.045-3.484.05-5.225.1-.862.022-1.724.09-2.586.1-.934.011-1.869.009-2.8,0-1.791-.016-3.581-.037-5.372-.043s-3.56-.024-5.338-.081c-.894-.028-1.785-.084-2.678-.123-.932-.041-1.861-.086-2.79-.166-.881-.075-1.76-.14-2.644-.174-.864-.034-1.728-.034-2.593-.041q-1.391-.01-2.781-.044c-.842-.021-1.692-.017-2.531-.088-.327-.027-.65-.06-.974-.1-.586-.082-1.171-.161-1.761-.2-.269-.017-.537-.034-.805-.055-.026-.46-.04-.923-.061-1.381-.04-.834-.061-1.667-.077-2.5-.032-1.733-.014-3.467-.066-5.2-.055-1.811-.151-3.622-.192-5.434-.041-1.787,0-3.573-.011-5.36-.014-2.167-.114-4.329-.208-6.494a2.048,2.048,0,0,0-.584-1.408,1.991,1.991,0,0,0-3.4,1.408" transform="translate(-98 669.401)" fill="#fff"/>
      <path id="Path_31850" data-name="Path 31850" d="M245.532,20.722q-.06,3.864-.1,7.73a1.992,1.992,0,1,0,3.984,0c.034-2.576.064-5.154.105-7.73a1.992,1.992,0,0,0-3.984,0" transform="translate(-98 669.401)" fill="#fff"/>
      <path id="Path_31851" data-name="Path 31851" d="M254.24,21.144c0,1.164-.017,2.331.04,3.5.055,1.148.118,2.3.161,3.444a2.041,2.041,0,0,0,.583,1.409,1.992,1.992,0,0,0,3.4-1.409c-.041-1.126-.1-2.25-.157-3.375-.058-1.186-.044-2.376-.044-3.564a1.991,1.991,0,1,0-3.983,0" transform="translate(-98 669.401)" fill="#fff"/>
      <path id="Path_31852" data-name="Path 31852" d="M246.975,29.029c-.006,1.106-.009,2.213.036,3.318.037.906.1,1.811.133,2.717.037.936.049,1.872.088,2.808s.106,1.856.158,2.783q.15,2.668.3,5.336c.1,1.847.2,3.7.329,5.541q.186,2.571.371,5.142a2.079,2.079,0,0,0,.583,1.409,1.993,1.993,0,0,0,2.817,0,1.94,1.94,0,0,0,.583-1.409c-.255-3.567-.51-7.132-.7-10.7-.1-1.82-.2-3.64-.307-5.46-.052-.932-.117-1.864-.156-2.8-.038-.914-.049-1.831-.085-2.746s-.1-1.8-.133-2.7c-.044-1.079-.038-2.16-.032-3.239a1.992,1.992,0,1,0-3.984,0" transform="translate(-98 669.401)" fill="#fff"/>
      <path id="Path_31853" data-name="Path 31853" d="M253.66,29.141c0,1.007,0,2.013.009,3.019.012.928.063,1.855.1,2.781.075,1.832.071,3.666.1,5.5.058,3.589.306,7.172.621,10.745.18,2.041.389,4.081.517,6.126a2.075,2.075,0,0,0,.584,1.408,1.992,1.992,0,0,0,2.816,0,1.942,1.942,0,0,0,.584-1.408c-.219-3.5-.656-6.974-.863-10.471-.107-1.805-.206-3.612-.252-5.421-.045-1.843-.042-3.687-.094-5.531-.032-1.122-.09-2.243-.122-3.365s-.018-2.255-.018-3.381a1.992,1.992,0,1,0-3.983,0" transform="translate(-98 669.401)" fill="#fff"/>
    </g>
    <path id="Path_31854" data-name="Path 31854" d="M192.986,7.357a2.083,2.083,0,0,0-.915,1.191c-.664,1.924-1.322,3.852-1.936,5.794a4.942,4.942,0,0,0-.205.811,2.548,2.548,0,0,0,.009,1.184,2.337,2.337,0,0,0,.553.975,2.938,2.938,0,0,0,.64.448,3,3,0,0,0,.824.271c.64.1,1.288.158,1.932.214a13.987,13.987,0,0,0,2.279.01q-.192.608-.392,1.212c-.266.8-.584,1.584-.9,2.369a5.3,5.3,0,0,0-.23.663,2.425,2.425,0,0,0-.009,1.182c.011.037.021.074.033.11a1.976,1.976,0,0,0,.512.879,2.967,2.967,0,0,0,1.325.783,5.246,5.246,0,0,0,.971.216c.377.067.767.111,1.145.151a21.048,21.048,0,0,0,2.691.118c.353-.009.706-.035,1.058-.011a1.941,1.941,0,0,0,1.408-.584,1.989,1.989,0,0,0,0-2.816,2.079,2.079,0,0,0-1.408-.584,11.012,11.012,0,0,0-1.12,0c-.241.009-.483.018-.722.016-.469,0-.935-.034-1.4-.077.1-.248.19-.5.277-.75.314-.9.61-1.8.868-2.715a9.055,9.055,0,0,0,.25-1.09,3.806,3.806,0,0,0-.015-1.642,2.232,2.232,0,0,0-2.125-1.589,7.99,7.99,0,0,0-1.44.1c-.451.051-.9.094-1.352.115-.42.019-.838,0-1.258-.015q.179-.549.361-1.094.6-1.8,1.219-3.6a1.954,1.954,0,0,0-.2-1.535,2,2,0,0,0-2.725-.714" transform="translate(-72.386 729.841)" fill="#fff" opacity="0.15"/>
    <path id="Path_31855" data-name="Path 31855" d="M168.013,27.087a2.107,2.107,0,0,0-.749.78,2.3,2.3,0,0,0-.286,1.091c0,.107.011.211.022.317.021.207.042.414.066.621.064.586.134,1.175.248,1.753.171.874.468,1.725.717,2.579.244.836.458,1.673.656,2.521.212.907.453,1.805.648,2.716.188.878.351,1.764.5,2.648.123.709.263,1.414.4,2.119-.283-.057-.565-.1-.857-.138a4.8,4.8,0,0,0-4.113,1.879,7.617,7.617,0,0,0-.7.979,7.393,7.393,0,0,0-.493,1.129,5.712,5.712,0,0,0-.214.749c-.082.37-.137.745-.182,1.121a4.925,4.925,0,0,0-.032,1.225,6.82,6.82,0,0,0,.214,1.115,8,8,0,0,0,.408,1.009,6.33,6.33,0,0,0,.859,1.266,4.435,4.435,0,0,0,.859.73,3.282,3.282,0,0,0,.444.25,6.219,6.219,0,0,0,1.015.408,5.321,5.321,0,0,0,1.354.22,2.023,2.023,0,0,0,.321-.025c.2-.025.45-.049.663-.095.115-.024.226-.052.339-.084a6.527,6.527,0,0,0,.982-.406c.186-.086.369-.181.546-.284a8.628,8.628,0,0,0,1.384-1.039,5.6,5.6,0,0,0,1.063-1.231,7.084,7.084,0,0,0,1-3.174,7.6,7.6,0,0,0-.178-1.777c-.07-.4-.137-.81-.2-1.217-.119-.819-.242-1.638-.407-2.451-.177-.879-.369-1.756-.53-2.639-.093-.509-.183-1.017-.275-1.526l.04-.009c.166-.041.332-.076.5-.107a5.313,5.313,0,0,1,.714.013,3.953,3.953,0,0,1,.526.128c.178.058.353.124.527.193a8.861,8.861,0,0,1,1.2.641c.062.052.124.1.185.157a3.314,3.314,0,0,0,.745.56,2.222,2.222,0,0,0,1.065.281,2.047,2.047,0,0,0,1.106-.324,2.481,2.481,0,0,0,.765-.768c.038-.05.073-.1.107-.151.045-.068.083-.141.122-.212a9.212,9.212,0,0,0,.46-1.03,8.116,8.116,0,0,0,.592-3.032,10.372,10.372,0,0,0-.2-1.811,6.079,6.079,0,0,0-.535-1.564,2,2,0,0,0-.237-.365c-.166-.216-.312-.411-.494-.606a6.119,6.119,0,0,0-.845-.686,12.465,12.465,0,0,0-1.145-.731c-.379-.221-.764-.44-1.157-.635a20.718,20.718,0,0,0-3.025-1.219c-.413-.128-.836-.227-1.252-.342-.371-.1-.733-.215-1.092-.347a7.6,7.6,0,0,1-.927-.555c-.165-.116-.327-.234-.491-.351a3,3,0,0,0-1.689-.592,1.849,1.849,0,0,0-1.072.325m4.031,6.674c-.141-.5-.287-.991-.434-1.485.082.025.163.049.245.071.546.15,1.1.281,1.64.449.477.148.942.318,1.4.5a17.308,17.308,0,0,1,2.815,1.579c.074.066.145.134.214.206.011.017.021.035.031.053a6.137,6.137,0,0,1,.195.808,4.82,4.82,0,0,1,.035.562c0,.216-.011.428-.029.64-.384-.191-.792-.349-1.187-.509a7.1,7.1,0,0,0-.994-.329,8.65,8.65,0,0,0-1.407-.188,6.521,6.521,0,0,0-1.372.114c-.173.024-.346.059-.518.1-.21-.858-.4-1.721-.639-2.571m7.893,4.589.03.012-.029-.012Zm-10.79,9.709a8.418,8.418,0,0,1,1.108.286,2.315,2.315,0,0,1,.284.183,1.362,1.362,0,0,0,.5.221c.027.168.053.336.079.505a4.047,4.047,0,0,1,.011.516,6.139,6.139,0,0,1-.224.8c-.069.139-.142.275-.224.406a6.281,6.281,0,0,1-.652.622,6.973,6.973,0,0,1-.871.5c-.1.033-.2.063-.3.087h-.071c-.144-.036-.286-.08-.426-.129-.079-.042-.156-.085-.232-.131-.032-.03-.063-.062-.093-.094a5.034,5.034,0,0,1-.28-.482,4.537,4.537,0,0,1-.135-.468,4.712,4.712,0,0,1,.021-.606,7.568,7.568,0,0,1,.293-1.14,4.634,4.634,0,0,1,.3-.513,4.882,4.882,0,0,1,.4-.4c.076-.05.153-.1.232-.141l.1-.026c.062,0,.124,0,.186,0" transform="translate(-31.653 670.415)" fill="#fff" opacity="0.15"/>
    <rect id="Rectangle_6745" data-name="Rectangle 6745" width="283.505" height="60.561" transform="translate(-19 706.646)" fill="none"/>
  </g>
</svg>
