<svg xmlns="http://www.w3.org/2000/svg" xmlns:xlink="http://www.w3.org/1999/xlink" width="216.799" height="193.432" viewBox="0 0 216.799 193.432">
  <defs>
    <clipPath id="clip-path">
      <path id="Path_31683" data-name="Path 31683" d="M258.371,142.586a70.8,70.8,0,0,1-1.306,15.933c19.54,12.313,27.9,28.451,23.551,37.326-3.327,6.791-15.392,11.946-23.632,7-7.394-4.44-10.41-16.231-4.509-26.43-16.38,38.146-52.394,62.941-90.82,62.891-49.707-.056-96.716-41.679-96.716-96.716s43.3-96.716,96.716-96.716C222.824,45.87,257.121,103.929,258.371,142.586Z" transform="translate(-64.94 -45.87)" fill="none"/>
    </clipPath>
    <linearGradient id="linear-gradient" y1="0.5" x2="1" y2="0.5" gradientUnits="objectBoundingBox">
      <stop offset="0" stop-color="#d62f9a"/>
      <stop offset="1" stop-color="#932871"/>
    </linearGradient>
    <linearGradient id="linear-gradient-2" x1="0.5" y1="-0.69" x2="0.5" y2="2.024" xlink:href="#linear-gradient"/>
    <linearGradient id="linear-gradient-3" x1="0.5" y1="0.056" x2="0.5" y2="2.176" xlink:href="#linear-gradient"/>
    <linearGradient id="linear-gradient-4" x1="-0.024" y1="-1.174" x2="0.394" y2="0.266" xlink:href="#linear-gradient"/>
    <linearGradient id="linear-gradient-5" x1="-0.378" y1="-0.896" x2="-0.378" y2="1.047" xlink:href="#linear-gradient"/>
    <linearGradient id="linear-gradient-6" x1="0.5" y1="-0.309" x2="0.5" y2="1.329" xlink:href="#linear-gradient"/>
    <linearGradient id="linear-gradient-7" x1="0.5" y1="0.027" x2="0.5" y2="3.674" xlink:href="#linear-gradient"/>
    <linearGradient id="linear-gradient-8" x1="0.147" y1="0.205" x2="0.82" y2="0.776" gradientUnits="objectBoundingBox">
      <stop offset="0" stop-color="#ad308f" stop-opacity="0"/>
      <stop offset="1" stop-color="#64337a"/>
    </linearGradient>
    <linearGradient id="linear-gradient-9" x1="60.944" y1="0.201" x2="61.724" y2="0.759" xlink:href="#linear-gradient-8"/>
    <linearGradient id="linear-gradient-10" x1="0.5" y1="-4.386" x2="0.5" y2="32.816" xlink:href="#linear-gradient"/>
    <linearGradient id="linear-gradient-11" x1="0.5" y1="-4.386" x2="0.5" y2="32.816" xlink:href="#linear-gradient"/>
    <linearGradient id="linear-gradient-12" x1="0.5" y1="-0.355" x2="0.5" y2="1.208" xlink:href="#linear-gradient"/>
    <linearGradient id="linear-gradient-13" x1="0.5" y1="0.313" x2="0.5" y2="1.2" xlink:href="#linear-gradient-8"/>
    <linearGradient id="linear-gradient-14" x1="0.705" y1="0.201" x2="-0.345" y2="0.942" xlink:href="#linear-gradient-8"/>
    <linearGradient id="linear-gradient-15" x1="0.481" y1="0.863" x2="0.543" y2="-0.133" xlink:href="#linear-gradient-8"/>
  </defs>
  <g id="Mascota-13" transform="translate(-64.94 -45.87)">
    <g id="Group_13275" data-name="Group 13275" transform="translate(64.94 45.87)">
      <circle id="Ellipse_1025" data-name="Ellipse 1025" cx="96.716" cy="96.716" r="96.716" fill="#a6cfe1"/>
      <g id="Group_13274" data-name="Group 13274" transform="translate(0 0)" clip-path="url(#clip-path)">
        <g id="Group_13273" data-name="Group 13273" transform="translate(3.121 5.87)">
          <g id="Group_13261" data-name="Group 13261" transform="translate(15.683 55.361)">
            <path id="Path_31641" data-name="Path 31641" d="M95.871,166.205a18.617,18.617,0,0,1,1.555-11.194c2.593-5.211,8.352-10.031,11.194-8.706,2.705,1.262,1.8,7.637,1.088,17.1a333.582,333.582,0,0,0-.777,34.67" transform="translate(-95.341 -144.994)" fill="url(#linear-gradient)"/>
            <path id="Path_31642" data-name="Path 31642" d="M95.707,165.543s-.075-.3-.187-.871a18.217,18.217,0,0,1-.317-2.512,17.8,17.8,0,0,1,.211-3.961,18.264,18.264,0,0,1,.572-2.4,18.5,18.5,0,0,1,1.051-2.544,21.085,21.085,0,0,1,3.594-5.044,18.439,18.439,0,0,1,2.593-2.264,8.5,8.5,0,0,1,3.526-1.567,4.516,4.516,0,0,1,1.163-.019,3.264,3.264,0,0,1,.622.131l.311.112.075.031.149.087.025.012.093.056.187.112.093.056a.9.9,0,0,1,.118.087,6.357,6.357,0,0,1,.547.535,3.05,3.05,0,0,1,.348.522,2.731,2.731,0,0,1,.267.516,11.13,11.13,0,0,1,.709,3.961c.068,2.544-.137,5.012-.3,7.488-.211,2.469-.429,4.907-.6,7.326s-.367,4.789-.5,7.09-.274,4.527-.4,6.642-.211,4.111-.311,5.958c-.168,3.7-.311,6.779-.41,8.936s-.168,3.4-.168,3.4-.031-.3-.093-.883-.155-1.424-.23-2.5c-.187-2.158-.4-5.242-.522-8.955-.062-1.853-.118-3.868-.118-5.995s-.006-4.372.068-6.691.131-4.72.3-7.158c.149-2.432.336-4.907.522-7.357s.423-4.907.386-7.22a10.407,10.407,0,0,0-.435-3.128.9.9,0,0,0-.131-.28,1.336,1.336,0,0,0-.131-.224.148.148,0,0,1-.056-.106c.006-.012-.012-.031-.05-.05l-.093-.062-.187-.124-.093-.062-.025-.012c.05.025-.143-.081.106.056l-.025-.012a.69.69,0,0,1-.1-.044,1.2,1.2,0,0,0-.236-.056,2.157,2.157,0,0,0-.572-.012,7.153,7.153,0,0,0-2.68,1.1,15.618,15.618,0,0,0-2.425,1.884,22.117,22.117,0,0,0-3.65,4.415,17.57,17.57,0,0,0-1.947,4.465,19.56,19.56,0,0,0-.647,3.762,22.311,22.311,0,0,0-.044,2.494c.025.578.056.883.056.883Z" transform="translate(-95.177 -144.331)" fill="#470649"/>
          </g>
          <g id="Group_13262" data-name="Group 13262" transform="translate(0 73.283)">
            <path id="Path_31643" data-name="Path 31643" d="M133.962,197.493c.92,21.592-4.328,37.655-13.526,40.267a10.259,10.259,0,0,1-5.6,0c-10.3-3.016-14.708-23.37-14.726-37.842-.012-9.987,2.052-13.538-1.076-18.147-3.675-5.41-12.848-9.633-20.236-5.6-5.1,2.786-8.607,9.223-6.953,15.547,1.785,6.828,8.507,9.4,9.167,9.639a75.813,75.813,0,0,0,5.69,35.137c4.254,9.987,12.78,30.342,28.451,31.094,11.449.553,23.19-9.521,29.571-24.142" transform="translate(-70.517 -173.687)" fill="url(#linear-gradient-2)"/>
            <path id="Path_31644" data-name="Path 31644" d="M133.4,196.956c.187,3.47.261,6.953.106,10.429a76.738,76.738,0,0,1-1.126,10.385,45.683,45.683,0,0,1-2.923,10.062,24.956,24.956,0,0,1-2.568,4.627,15.194,15.194,0,0,1-3.781,3.787,10.66,10.66,0,0,1-10.429.97,12.387,12.387,0,0,1-2.351-1.424,16.408,16.408,0,0,1-1.971-1.859,23.9,23.9,0,0,1-3.06-4.384,45.825,45.825,0,0,1-3.843-9.832A75.868,75.868,0,0,1,99.412,209.4a82.2,82.2,0,0,1-.659-10.5c0-1.723.081-3.526.2-5.255.118-1.747.3-3.483.392-5.18a17.329,17.329,0,0,0-.025-2.481,10.714,10.714,0,0,0-.174-1.188,9.206,9.206,0,0,0-.84-2.2c-.2-.336-.423-.715-.628-1-.261-.33-.522-.728-.79-1.007s-.51-.591-.821-.871a17.134,17.134,0,0,0-8.669-4.509,14.237,14.237,0,0,0-4.869-.093,12.246,12.246,0,0,0-4.515,1.729,13.866,13.866,0,0,0-5.7,7.643,12.389,12.389,0,0,0-.429,4.795,11.855,11.855,0,0,0,1.486,4.565,12.971,12.971,0,0,0,3.172,3.675A15.933,15.933,0,0,0,80.761,200h.025a.9.9,0,0,1,.553.889,79.006,79.006,0,0,0,.311,14.9c.3,2.469.721,4.925,1.244,7.357.541,2.432,1.219,4.826,1.984,7.189.808,2.363,1.7,4.658,2.705,6.971.983,2.307,1.971,4.608,3.06,6.853a65.953,65.953,0,0,0,7.73,12.736,33.818,33.818,0,0,0,5.218,5.242A20.907,20.907,0,0,0,110,265.668c.572.218,1.175.336,1.766.5.6.106,1.2.243,1.81.3l.914.087c.249.025.609.006.908.012a13.21,13.21,0,0,0,1.866-.062c.6-.081,1.206-.112,1.81-.23l1.8-.392,1.766-.566c.591-.174,1.144-.466,1.716-.7a29.68,29.68,0,0,0,6.349-3.874c.51-.361.958-.8,1.437-1.2s.951-.808,1.387-1.262l1.331-1.318,1.25-1.4c.429-.46.815-.945,1.2-1.443s.79-.976,1.157-1.48c.709-1.032,1.468-2.034,2.114-3.109a56.648,56.648,0,0,0,3.595-6.617,56.966,56.966,0,0,1-3.4,6.741c-.609,1.107-1.349,2.133-2.04,3.184-.361.516-.752,1.014-1.132,1.517s-.759,1.014-1.175,1.48l-1.231,1.443-1.318,1.368c-.429.466-.9.889-1.374,1.312s-.92.877-1.43,1.25a30.463,30.463,0,0,1-6.405,4.111c-.585.249-1.15.566-1.76.759l-1.816.628-1.872.454c-.628.137-1.287.187-1.928.28a15.182,15.182,0,0,1-1.9.093c-.33,0-.6.025-.976,0l-.964-.081c-.647-.05-1.281-.18-1.915-.286-.628-.162-1.262-.28-1.872-.5a22.144,22.144,0,0,1-6.8-3.613,34.909,34.909,0,0,1-5.485-5.354A66.936,66.936,0,0,1,89.3,244.81c-1.126-2.27-2.177-4.571-3.178-6.884-1.007-2.295-1.953-4.683-2.786-7.083-.8-2.413-1.5-4.863-2.065-7.344s-1-4.988-1.312-7.512a80.938,80.938,0,0,1-.392-15.23l.578.889a16.668,16.668,0,0,1-2.488-1.194A16.871,16.871,0,0,1,75.4,198.9a14.669,14.669,0,0,1-3.613-4.154,13.656,13.656,0,0,1-1.741-5.267,14.344,14.344,0,0,1,.466-5.516,15.7,15.7,0,0,1,2.481-4.925,14.947,14.947,0,0,1,4.061-3.762,14.044,14.044,0,0,1,5.162-1.947,15.992,15.992,0,0,1,5.5.124,18.854,18.854,0,0,1,9.546,5.019c.336.3.641.69.958,1.032s.541.7.815,1.045a13.725,13.725,0,0,1,.759,1.206,9.679,9.679,0,0,1,.585,1.294,10.7,10.7,0,0,1,.41,1.362,13.653,13.653,0,0,1,.2,1.393,18.136,18.136,0,0,1,.019,2.724c-.106,1.772-.292,3.495-.417,5.211-.124,1.735-.218,3.4-.218,5.155a81.469,81.469,0,0,0,.6,10.292,76.524,76.524,0,0,0,1.872,10.137,44.357,44.357,0,0,0,3.588,9.589,22.526,22.526,0,0,0,2.83,4.191,14.794,14.794,0,0,0,1.791,1.741,11.068,11.068,0,0,0,2.071,1.3,9.57,9.57,0,0,0,9.422-.746,14.316,14.316,0,0,0,3.588-3.5,24.209,24.209,0,0,0,2.581-4.409,45.227,45.227,0,0,0,3.109-9.844,76.27,76.27,0,0,0,1.362-10.3c.249-3.458.292-6.934.211-10.41Z" transform="translate(-69.958 -173.149)" fill="#470649"/>
          </g>
          <g id="Group_13272" data-name="Group 13272" transform="translate(1.356)">
            <path id="Path_31645" data-name="Path 31645" d="M265.578,210.62c-4.167,17.077-3.383,30.429,2.655,33.414A7.6,7.6,0,0,0,272,244.7c7.512-.4,9.391-10.255,17.481-17.481.647-.578,11.3-9.82,24.565-7.966a27.632,27.632,0,0,1,21.461,17.04c.777,2.046,3.066,8.327.591,15.162-2.543,7.034-9.061,11.716-10.106,10.958-.609-.442,1-2.512,1.766-6.648.4-2.121,1.132-8.719-1.99-14.16-2.655-4.627-10.174-6.94-15.709-5.311-7.1,2.09-7.612,10.106-14.384,19.03-3.514,4.627-12.264,15.578-24.341,16.816-13.439,1.381-24.073-10.075-26.331-12.612" transform="translate(-137.5 -114.035)" stroke="#470649" stroke-width="2.13" fill="url(#linear-gradient-3)"/>
            <g id="Group_13263" data-name="Group 13263" transform="translate(81.333 183.997)">
              <path id="Path_31646" data-name="Path 31646" d="M203.826,383.668c2.531,6.791,8.551,11.119,14.16,10.771,7.562-.466,14.807-9.446,12.537-20.062-4.185-13.482-11.928-22.463-17.257-21.685-5.746.833-11.418,13.389-9.44,30.982Z" transform="translate(-203.112 -351.733)" fill="url(#linear-gradient-4)"/>
              <path id="Path_31647" data-name="Path 31647" d="M203.723,383.095c.187.429.361.871.553,1.294.218.417.417.846.653,1.256a17.678,17.678,0,0,0,1.623,2.307,11.556,11.556,0,0,0,.958,1.032,12.412,12.412,0,0,0,1.039.939,15.917,15.917,0,0,0,2.282,1.586,13.634,13.634,0,0,0,2.519,1.088,12.164,12.164,0,0,0,2.637.529,8.578,8.578,0,0,0,1.325.019l.33-.012h.093c.05,0-.056.006-.044,0h.025l.044-.012.174-.025.7-.1a6.665,6.665,0,0,0,1.281-.311,9.211,9.211,0,0,0,1.231-.448,7.89,7.89,0,0,0,1.194-.591,9.891,9.891,0,0,0,1.138-.709l.56-.379.516-.435a11.641,11.641,0,0,0,1.007-.908,15.691,15.691,0,0,0,1.785-2.065l.765-1.151.653-1.219a13.487,13.487,0,0,0,.553-1.269c.081-.218.187-.423.255-.647l.2-.665a16.272,16.272,0,0,0,.578-2.73,16.834,16.834,0,0,0,.062-2.8,19,19,0,0,0-.361-2.78v.025c-.392-1.262-.852-2.5-1.343-3.731q-.765-1.828-1.654-3.594a46.821,46.821,0,0,0-4.117-6.7,30.241,30.241,0,0,0-2.5-2.973,18.4,18.4,0,0,0-2.873-2.494,7.786,7.786,0,0,0-3.265-1.374,3.982,3.982,0,0,0-.815-.025,3.381,3.381,0,0,0-.361.044c-.155.037-.348.068-.466.112s-.224.087-.336.124l-.373.18a5.592,5.592,0,0,0-.728.448,10.307,10.307,0,0,0-2.456,2.662,20.566,20.566,0,0,0-1.816,3.34,36.224,36.224,0,0,0-1.331,3.638c-.367,1.244-.715,2.506-.989,3.781-.3,1.275-.522,2.568-.715,3.874s-.3,2.618-.4,3.943-.124,2.649-.081,3.974c.012,1.325.143,2.643.261,3.961Zm-.174.031c-.155-1.318-.274-2.649-.379-3.974s-.168-2.662-.224-4a54.526,54.526,0,0,1,.336-8.047,35.25,35.25,0,0,1,.753-3.992,26.605,26.605,0,0,1,1.275-3.893,21.9,21.9,0,0,1,1.909-3.694,12.142,12.142,0,0,1,2.942-3.147,7.611,7.611,0,0,1,.97-.591l.529-.236.609-.193c.2-.056.336-.068.5-.106a5.062,5.062,0,0,1,.628-.068,5.687,5.687,0,0,1,1.175.062,9.469,9.469,0,0,1,3.98,1.766,23.358,23.358,0,0,1,5.547,6.045,42.756,42.756,0,0,1,3.781,7.127,76.245,76.245,0,0,1,2.711,7.543v.019l.006.006a24.749,24.749,0,0,1,.367,2.867,12.436,12.436,0,0,1,.056,1.443c-.025.479-.037.964-.05,1.449a21.453,21.453,0,0,1-.448,2.867l-.155.715c-.056.236-.143.466-.218.7-.162.46-.274.939-.479,1.381l-.591,1.343-.721,1.281a17.687,17.687,0,0,1-1.766,2.376c-.168.187-.317.386-.5.553l-.553.5-.553.5-.6.448-.6.448c-.205.143-.435.255-.653.379a9.774,9.774,0,0,1-1.349.678,8.44,8.44,0,0,1-1.443.516,8.883,8.883,0,0,1-1.493.311l-.709.081-.174.019h-.044l-.025.006h-.553a11.26,11.26,0,0,1-1.517-.124,5.754,5.754,0,0,1-.74-.137c-.243-.056-.491-.1-.734-.18a12.239,12.239,0,0,1-1.405-.516,14.713,14.713,0,0,1-2.587-1.424,17.074,17.074,0,0,1-2.233-1.878,12.212,12.212,0,0,1-.976-1.07c-.323-.361-.6-.752-.889-1.138a19.376,19.376,0,0,1-1.53-2.425c-.23-.417-.429-.858-.641-1.281-.187-.435-.361-.877-.541-1.318v-.012l-.006-.012Z" transform="translate(-202.923 -351.179)" fill="#470649"/>
            </g>
            <path id="Path_31648" data-name="Path 31648" d="M133.466,202.83a178.368,178.368,0,0,1,2.73,31.754c-.05,12.935-1.648,61.48-29.216,86.423-6.984,6.318-17.021,12.357-22.823,10.106-.815-.317-3.526-1.368-4.372-3.881-.69-2.046-.037-4.764,1.337-5.292,1.325-.51,2.743,1.231,3.2.815.566-.516-.647-4.055-3.184-4.894-2.376-.79-5.224,1.026-6.511,2.979-2.655,4.036-.2,10.976,3.315,14.633,6.213,6.468,17.537,4.446,25.087,3.01,6.076-1.157,26.673-5.087,41.946-22.935,23.514-27.481,14.048-64.172,13.084-67.674" transform="translate(-72.657 -111.089)" fill="url(#linear-gradient-5)"/>
            <path id="Path_31649" data-name="Path 31649" d="M255.271,177.17c-2.345,10.79-5.4,25.958-8.259,44.253-7.158,45.733-5.019,59.1-2.363,68.451,6.126,21.536,19.334,36.928,23.532,35.479,2.568-.889,1.53-8.016,6.418-10.18,2.1-.927,5.348-.97,6.934.958,1.853,2.257.553,6.157,0,6.194-.311.025-.33-1.206-1.325-1.772a2.971,2.971,0,0,0-2.581.075c-2.419,1.262-.348,6.685-1.847,10.771-2.233,6.082-11.859,7.755-13.943,8.116-17.543,3.047-33.943-15.025-35.329-16.6-10.983-12.419-13.228-26.219-16.965-51.337a283.782,283.782,0,0,1-3.1-43.52" transform="translate(-122.92 -101.387)" fill="url(#linear-gradient-6)"/>
            <g id="Group_13264" data-name="Group 13264" transform="translate(35.245)">
              <path id="Path_31650" data-name="Path 31650" d="M222.184,154.921a35.421,35.421,0,0,0,11.9-9.832c16.138-21.125.877-54.676-5.871-64.135a71.018,71.018,0,0,0-9.073-10.18,60.835,60.835,0,0,0-8.849-6.636C198.31,57,184.808,57.683,179.79,58.2a46.6,46.6,0,0,0-35.224,20.1c-11.094,15.528-22,47.276-6.455,66.847A37.1,37.1,0,0,0,153.4,156.264" transform="translate(-129.407 -56.29)" fill="url(#linear-gradient-7)"/>
              <path id="Path_31651" data-name="Path 31651" d="M221.591,153.941a37.725,37.725,0,0,0,9.471-7.488c.672-.746,1.312-1.524,1.909-2.326.56-.8,1.15-1.667,1.679-2.512l.734-1.294a14,14,0,0,0,.684-1.325l.647-1.349.547-1.393c.4-.914.641-1.891.958-2.83.143-.479.243-.964.367-1.449s.255-.964.33-1.455c.18-.983.373-1.959.473-2.954.143-.989.205-1.984.28-2.979s.068-2,.087-2.991c-.031-1-.019-2-.106-2.991l-.1-1.493-.162-1.493c-.087-1-.267-1.984-.4-2.973-.336-1.971-.715-3.937-1.213-5.877-.46-1.947-1.032-3.868-1.642-5.777a89.324,89.324,0,0,0-4.471-11.138c-.871-1.8-1.81-3.563-2.8-5.286-.491-.864-1.014-1.7-1.555-2.525s-1.1-1.592-1.723-2.407c-1.188-1.542-2.494-3.072-3.843-4.527q-1.017-1.1-2.071-2.152l-1.07-1.045-.541-.51-.274-.249-.137-.124-.068-.062a1.759,1.759,0,0,1-.18-.187,2.551,2.551,0,0,1-.218-.311l.336.442a60.42,60.42,0,0,0-8.539-6.349L206.64,63.27c-.784-.354-1.548-.74-2.345-1.082a44.9,44.9,0,0,0-4.975-1.748,49.234,49.234,0,0,0-10.435-1.772,59.114,59.114,0,0,0-10.64.28,50.439,50.439,0,0,0-10.354,2.22,44.593,44.593,0,0,0-9.552,4.471,42.988,42.988,0,0,0-8.209,6.617,52.356,52.356,0,0,0-3.514,3.993c-.553.69-1.095,1.418-1.6,2.114-.529.746-1.051,1.493-1.524,2.226a77.784,77.784,0,0,0-5.205,9.384A85.827,85.827,0,0,0,134.3,99.986a72.915,72.915,0,0,0-2.612,10.448,58.326,58.326,0,0,0-.933,10.7,45.662,45.662,0,0,0,1.349,10.628,34.952,34.952,0,0,0,4.235,9.826,32.632,32.632,0,0,0,7.164,8.029,42.509,42.509,0,0,0,9.291,5.665,41.438,41.438,0,0,1-9.658-5.18,32.647,32.647,0,0,1-7.718-7.892,36.225,36.225,0,0,1-4.795-10.025,45.75,45.75,0,0,1-1.766-10.995,59.744,59.744,0,0,1,.628-11.107,75.639,75.639,0,0,1,2.45-10.833,89.1,89.1,0,0,1,3.881-10.41,79,79,0,0,1,5.274-9.82c.5-.808,1.02-1.567,1.536-2.313.553-.79,1.095-1.53,1.673-2.276a55.535,55.535,0,0,1,3.663-4.272,44.024,44.024,0,0,1,8.725-7.17A47.507,47.507,0,0,1,166.9,58.158a53.673,53.673,0,0,1,11-2.413,57.765,57.765,0,0,1,11.219-.286,52.441,52.441,0,0,1,11.1,1.94,46.536,46.536,0,0,1,5.336,1.9c.877.379,1.747.821,2.618,1.231l2.438,1.362a59.913,59.913,0,0,1,8.943,6.791l.336.442a1.018,1.018,0,0,0-.149-.249c-.056-.075-.162-.168-.112-.124l.075.068.143.137.286.274.56.541,1.095,1.1q1.082,1.11,2.127,2.264c1.393,1.542,2.705,3.116,3.974,4.807.6.808,1.225,1.685,1.785,2.575s1.1,1.779,1.6,2.687c1.014,1.81,1.928,3.663,2.786,5.535A92.64,92.64,0,0,1,238.4,100.3c.585,1.971,1.119,3.961,1.555,5.976.454,2.009.784,4.048,1.063,6.088.106,1.026.255,2.046.317,3.078l.118,1.542.056,1.548c.056,1.032.006,2.065.012,3.1-.05,1.032-.087,2.065-.187,3.091s-.205,2.058-.4,3.072c-.143,1.026-.379,2.034-.609,3.041-.1.51-.261,1-.4,1.5s-.274,1-.442,1.486c-.367.97-.659,1.959-1.107,2.892l-.622,1.418-.721,1.368c-.448.927-1.057,1.785-1.6,2.668-.591.846-1.182,1.636-1.828,2.469-.653.8-1.337,1.561-2.065,2.289a33.769,33.769,0,0,1-4.7,3.943,41.016,41.016,0,0,1-5.261,3.091Z" transform="translate(-128.814 -55.31)" fill="#470649"/>
            </g>
            <g id="Group_13265" data-name="Group 13265" transform="translate(56.17 23.825)" opacity="0.16">
              <path id="Path_31652" data-name="Path 31652" d="M184.17,97.382a12.372,12.372,0,0,0-1.07-.641,15.6,15.6,0,0,0-3.01-1.256,13.435,13.435,0,0,0-2.1-.454c-.373-.05-.765-.075-1.157-.106a9.677,9.677,0,0,0-1.2.012c-.205.012-.4.031-.616.044s-.41.062-.616.093a9.686,9.686,0,0,0-1.231.267c-.087.025-.236.056-.28.075l-.323.112-.641.224c-.373.187-.746.311-1.119.535a11.361,11.361,0,0,0-2.071,1.455,18.462,18.462,0,0,0-1.673,1.766c-.529.585-.97,1.213-1.405,1.8-.41.6-.771,1.2-1.088,1.772-.292.578-.578,1.113-.784,1.611a5.926,5.926,0,0,0-.3.7c-.087.224-.174.423-.249.609-.267.746-.442,1.194-.442,1.194l-.218-.019s-.012-.118-.044-.336a9.11,9.11,0,0,1-.075-.97,10.53,10.53,0,0,1,.081-1.511,11.975,11.975,0,0,1,.392-1.947c.118-.342.23-.709.367-1.082.168-.361.323-.74.522-1.113a10.989,10.989,0,0,1,1.5-2.208,12.313,12.313,0,0,1,2.139-1.9,15.191,15.191,0,0,1,2.575-1.412c.435-.211.939-.354,1.405-.529l.665-.174.33-.087c.174-.044.255-.05.386-.075a10.957,10.957,0,0,1,1.412-.18c.236-.012.466-.031.7-.037l.684.019a12.285,12.285,0,0,1,2.562.373,15.008,15.008,0,0,1,2.17.74,14.741,14.741,0,0,1,2.948,1.667,11.023,11.023,0,0,1,1,.8l-.137.174Z" transform="translate(-162.46 -93.62)"/>
            </g>
            <g id="Group_13266" data-name="Group 13266" transform="translate(105.112 23.818)" opacity="0.16">
              <path id="Path_31653" data-name="Path 31653" d="M241.179,97.2a11.02,11.02,0,0,1,1-.8,15.189,15.189,0,0,1,2.948-1.667,14.754,14.754,0,0,1,2.17-.74,12.778,12.778,0,0,1,2.562-.373l.684-.019c.23,0,.46.025.7.037a9.134,9.134,0,0,1,1.412.18,3.162,3.162,0,0,1,.386.075l.33.087.665.174a12.6,12.6,0,0,1,1.405.529,15.19,15.19,0,0,1,2.575,1.412,11.641,11.641,0,0,1,2.139,1.9,10.989,10.989,0,0,1,1.5,2.208c.2.373.354.759.522,1.113.137.373.255.74.367,1.082a11.843,11.843,0,0,1,.392,1.947,11.571,11.571,0,0,1,.081,1.511c-.012.417-.056.746-.075.97s-.044.336-.044.336l-.218.019s-.174-.448-.442-1.194c-.075-.187-.155-.386-.249-.609a6.4,6.4,0,0,0-.3-.7c-.205-.5-.491-1.032-.784-1.611-.317-.566-.678-1.163-1.088-1.772-.435-.585-.877-1.213-1.405-1.8a18.462,18.462,0,0,0-1.673-1.766,11.674,11.674,0,0,0-2.071-1.455c-.373-.224-.746-.354-1.119-.535l-.641-.224-.323-.112c-.044-.019-.187-.05-.28-.075a10.607,10.607,0,0,0-1.231-.267c-.205-.031-.41-.068-.616-.093s-.41-.031-.616-.044c-.4-.044-.808,0-1.2-.012-.392.031-.784.056-1.157.106a13.434,13.434,0,0,0-2.1.454,15.952,15.952,0,0,0-3.01,1.256,12.376,12.376,0,0,0-1.07.641l-.137-.174Z" transform="translate(-241.16 -93.61)"/>
            </g>
            <path id="Path_31654" data-name="Path 31654" d="M146.545,136.256c-2.873,3.887-7.5,5.087-10.18,3.613-3.221-1.779-4.7-8.029-.74-12.979a41.232,41.232,0,0,0-4.465,27.954c.647,3.1,3.041,14.627,13.445,22.239a32.715,32.715,0,0,0,10.566,5.087,35.853,35.853,0,0,0-6.642-21.02,18.245,18.245,0,0,0-4.757,1.828.053.053,0,0,0-.031.019,2.635,2.635,0,0,1-3.812-1.455l-1.642-5.037a2.6,2.6,0,0,1,.6-2.581,27.419,27.419,0,0,0,2.73-3.4,29.44,29.44,0,0,0,4.925-14.272Z" transform="translate(-94.151 -82.375)" fill="url(#linear-gradient-8)"/>
            <path id="Path_31655" data-name="Path 31655" d="M284.809,139.587q4.226,9.524,6.424,9.073,2.752-.56,2.326-16.76a41.9,41.9,0,0,1,2.655,27c-.864,3.47-3.346,12.861-11.841,19.751a32.074,32.074,0,0,1-6.194,3.93c.373-2.245.877-4.652,1.548-7.189a78.53,78.53,0,0,1,3.65-10.622,15.923,15.923,0,0,1,4.2,1.549.053.053,0,0,1,.031.019,2.666,2.666,0,0,0,3.825-1.493c.535-1.642,1.07-3.29,1.6-4.932a2.663,2.663,0,0,0-.572-2.649,27.419,27.419,0,0,1-2.73-3.4,29.44,29.44,0,0,1-4.925-14.272Z" transform="translate(-150.046 -84.269)" fill="url(#linear-gradient-9)"/>
            <path id="Path_31656" data-name="Path 31656" d="M265.674,259.99s-.23,1.623-.628,4.465c-.205,1.418-.448,3.141-.7,5.118-.137.989-.255,2.04-.379,3.153s-.267,2.276-.392,3.5c-.267,2.438-.473,5.081-.659,7.873-.155,2.792-.243,5.74-.224,8.787.037,3.047.2,6.182.5,9.359s.765,6.387,1.381,9.577c.137.765.323,1.592.479,2.388s.323,1.6.522,2.382.373,1.561.56,2.338c.211.777.423,1.548.634,2.32.883,3.066,1.828,6.07,2.9,8.912a90.821,90.821,0,0,0,7.22,14.963,89.31,89.31,0,0,0,6.81,9.658c.908,1.107,1.623,1.978,2.127,2.556s.771.889.771.889-.3-.28-.858-.808-1.374-1.312-2.357-2.363-2.158-2.345-3.445-3.887-2.687-3.327-4.08-5.379a69.9,69.9,0,0,1-4.148-6.847,84.364,84.364,0,0,1-3.794-8.1c-1.15-2.879-2.233-5.9-3.141-9.03-.218-.784-.442-1.573-.659-2.363l-.6-2.407c-.211-.808-.379-1.6-.547-2.407s-.348-1.58-.5-2.425c-.6-3.252-1.039-6.536-1.337-9.782s-.348-6.455-.323-9.552.255-6.088.516-8.905c.286-2.817.634-5.473,1.032-7.9.373-2.438.8-4.658,1.2-6.617s.765-3.663,1.07-5.068.585-2.494.759-3.246.274-1.144.274-1.144Z" transform="translate(-143.478 -132.702)" fill="#470649"/>
            <path id="Path_31657" data-name="Path 31657" d="M283.125,168.37s-.162.8-.448,2.2-.721,3.389-1.262,5.771c-.274,1.188-.566,2.475-.877,3.843s-.647,2.792-1,4.279c-.7,2.966-1.437,6.126-2.177,9.291s-1.5,6.318-2.208,9.285c-.336,1.474-.69,2.917-1.026,4.272s-.659,2.643-.97,3.825c-1.225,4.733-2.233,7.854-2.233,7.854s.3-3.259,1.032-8.1c.18-1.213.373-2.519.609-3.9s.454-2.83.746-4.347.566-3.06.914-4.627.7-3.159,1.057-4.757c.4-1.586.79-3.165,1.182-4.726s.84-3.078,1.256-4.546.858-2.886,1.275-4.223.84-2.6,1.238-3.756c.79-2.32,1.511-4.229,2.034-5.56.255-.665.479-1.182.622-1.536s.224-.541.224-.541Z" transform="translate(-147.304 -98.059)" fill="#470649"/>
            <ellipse id="Ellipse_1026" data-name="Ellipse 1026" cx="1.766" cy="4.484" rx="1.766" ry="4.484" transform="matrix(0.967, -0.254, 0.254, 0.967, 44.876, 71.607)" fill="#5a1f68"/>
            <g id="Group_13269" data-name="Group 13269" transform="translate(59.727 35.804)">
              <g id="Group_13267" data-name="Group 13267" transform="translate(38.47)">
                <ellipse id="Ellipse_1027" data-name="Ellipse 1027" cx="11.822" cy="13.986" rx="11.822" ry="13.986" transform="translate(2.805 0.601)" fill="#141313"/>
                <path id="Path_31658" data-name="Path 31658" d="M230.046,147.99a93.65,93.65,0,0,1,14.347,1.4,90.756,90.756,0,0,1,13.333,3.4,19.186,19.186,0,0,1-11.635,4.073,18.468,18.468,0,0,1-16.051-8.874Z" transform="translate(-230.04 -126.158)" fill="url(#linear-gradient-10)"/>
                <path id="Path_31659" data-name="Path 31659" d="M255.883,152.365s-1.5-.336-3.75-.846c-.56-.118-1.163-.255-1.8-.392l-2.015-.41-2.158-.4c-.734-.137-1.486-.261-2.226-.373-.765-.124-1.5-.243-2.239-.342s-1.468-.193-2.177-.286c-1.412-.174-2.736-.317-3.881-.435s-2.1-.211-2.767-.28l-1.057-.118s.379-.081,1.051-.18,1.636-.224,2.792-.286c.578-.037,1.213-.062,1.878-.062s1.368,0,2.1.044,1.48.075,2.239.168,1.542.187,2.295.3c.771.137,1.53.274,2.282.435s1.474.354,2.177.541a36.926,36.926,0,0,1,3.769,1.269c1.082.429,1.953.846,2.562,1.157s.939.51.939.51Z" transform="translate(-230.709 -126.143)" fill="#601e52"/>
                <path id="Path_31660" data-name="Path 31660" d="M234.373,128.105s0-.205-.012-.591a12.333,12.333,0,0,1,.031-1.679c.012-.18.025-.373.044-.572s.056-.4.087-.622.062-.442.1-.678.106-.473.155-.721a14.873,14.873,0,0,1,1.1-3.252,13.079,13.079,0,0,1,2.276-3.414,11.5,11.5,0,0,1,3.731-2.755,10.21,10.21,0,0,1,4.925-.914,13.43,13.43,0,0,1,4.963,1.343l.143.068.168.093.267.155.535.311a12.3,12.3,0,0,1,1.082.759,11.417,11.417,0,0,1,1.841,1.835,12.754,12.754,0,0,1,2.245,4.428,16.337,16.337,0,0,1,.634,4.54,17.655,17.655,0,0,1-.442,4.055,14.312,14.312,0,0,1-1.151,3.234,17.738,17.738,0,0,1-1.337,2.264,14.912,14.912,0,0,1-1.039,1.318c-.255.286-.4.442-.4.442a20.248,20.248,0,0,0,1.206-1.909,16.893,16.893,0,0,0,1.095-2.326,14.514,14.514,0,0,0,.479-1.493c.068-.261.137-.541.205-.827.05-.28.106-.572.162-.864a17.854,17.854,0,0,0-.578-8.085,12.285,12.285,0,0,0-2.121-3.949,10.109,10.109,0,0,0-1.629-1.592l-.448-.33a2.987,2.987,0,0,0-.485-.323l-.535-.3-.267-.149-.068-.037-.031-.019-.019-.012s-.05-.025.019.012l-.137-.068a12.078,12.078,0,0,0-4.446-1.256c-.379-.025-.759-.031-1.126-.019-.187.012-.354.012-.547.031l-.566.068c-.361.087-.728.137-1.076.243a8.472,8.472,0,0,0-1.032.367,11.205,11.205,0,0,0-3.476,2.351,13.753,13.753,0,0,0-2.313,3.066,17.06,17.06,0,0,0-1.312,3.022c-.075.236-.149.466-.218.684s-.106.442-.155.653-.1.41-.143.6-.062.379-.093.553c-.05.354-.118.665-.149.945s-.056.516-.075.709c-.037.386-.062.591-.062.591Z" transform="translate(-231.668 -112.883)" fill="#470649"/>
              </g>
              <g id="Group_13268" data-name="Group 13268" transform="translate(0 0.006)">
                <ellipse id="Ellipse_1028" data-name="Ellipse 1028" cx="11.928" cy="13.986" rx="11.928" ry="13.986" transform="translate(1.25 0.595)" fill="#141313"/>
                <path id="Path_31661" data-name="Path 31661" d="M196.109,147.99a95.478,95.478,0,0,0-14.477,1.4,92.07,92.07,0,0,0-13.451,3.4,19.466,19.466,0,0,0,11.735,4.073A18.66,18.66,0,0,0,196.1,147.99Z" transform="translate(-168.18 -126.164)" fill="url(#linear-gradient-11)"/>
                <ellipse id="Ellipse_1029" data-name="Ellipse 1029" cx="5.342" cy="4.353" rx="5.342" ry="4.353" transform="matrix(0.41, -0.912, 0.912, 0.41, 1.101, 13.977)" fill="#fff"/>
                <path id="Path_31662" data-name="Path 31662" d="M172.266,152.362s.336-.2.945-.51,1.493-.728,2.587-1.157a37.135,37.135,0,0,1,3.8-1.269c.709-.18,1.443-.392,2.2-.541s1.517-.3,2.3-.435c.759-.112,1.549-.218,2.313-.3s1.524-.124,2.257-.168,1.443-.044,2.114-.044,1.306.025,1.891.062c1.169.062,2.139.187,2.817.286s1.057.18,1.057.18l-1.07.118c-.672.068-1.636.162-2.792.28s-2.488.261-3.912.435c-.709.093-1.449.193-2.2.286s-1.486.211-2.257.342c-.746.112-1.511.236-2.245.373s-1.468.274-2.177.4-1.387.28-2.034.41-1.256.267-1.822.392c-2.27.5-3.781.846-3.781.846Z" transform="translate(-169.723 -126.145)" fill="#601e52"/>
                <path id="Path_31663" data-name="Path 31663" d="M193.789,128.109s-.019-.205-.062-.591q-.028-.289-.075-.709c-.031-.28-.1-.591-.155-.945a11.066,11.066,0,0,0-.243-1.157c-.05-.211-.106-.429-.155-.653-.068-.224-.143-.448-.218-.684a16.339,16.339,0,0,0-1.325-3.029,13.534,13.534,0,0,0-2.338-3.06,11.182,11.182,0,0,0-3.5-2.338,9.747,9.747,0,0,0-1.039-.361c-.354-.106-.721-.155-1.082-.243l-.572-.068c-.2-.025-.367-.019-.553-.031a9.867,9.867,0,0,0-1.132.019,12.262,12.262,0,0,0-4.465,1.238,10.776,10.776,0,0,0-3.638,2.8,12.176,12.176,0,0,0-2.158,3.943,17.784,17.784,0,0,0-.6,8.1c.056.292.112.585.162.864.068.292.137.572.205.827a14.484,14.484,0,0,0,.491,1.493,17.991,17.991,0,0,0,1.1,2.326,18.4,18.4,0,0,0,1.213,1.909s-.137-.155-.4-.442-.628-.728-1.051-1.318a15.945,15.945,0,0,1-1.356-2.264,14.534,14.534,0,0,1-1.157-3.246,17.133,17.133,0,0,1-.442-4.067,16.278,16.278,0,0,1,.653-4.558,12.554,12.554,0,0,1,2.289-4.428,11.3,11.3,0,0,1,1.866-1.828l.541-.4.274-.2.267-.155.535-.3.267-.155.068-.037.106-.056.143-.068a13.53,13.53,0,0,1,4.981-1.325,10.355,10.355,0,0,1,4.944.908,11.585,11.585,0,0,1,3.762,2.743,13.094,13.094,0,0,1,2.3,3.414,15.038,15.038,0,0,1,1.126,3.252c.056.249.112.491.162.721.031.236.068.466.1.684a10.068,10.068,0,0,1,.124,1.206,12.419,12.419,0,0,1,.031,1.685c-.006.386-.012.6-.012.6Z" transform="translate(-168.584 -112.893)" fill="#470649"/>
              </g>
            </g>
            <g id="Group_13270" data-name="Group 13270" transform="translate(65.174 64.046)">
              <path id="Path_31664" data-name="Path 31664" d="M250.82,162.274a4.5,4.5,0,0,0-3.607-.989c-2.444.7-2.948,4.72-3.881,7.27-1.306,3.57-4.795,7.892-14.272,11.293a36.108,36.108,0,0,0,9.036-8.582,30.533,30.533,0,0,0,5.193-11.2,6.558,6.558,0,0,1,3.874-.491,5.531,5.531,0,0,1,3.1,1.772c.155.2.292.423.292.423.112.187.205.354.274.5Z" transform="translate(-196.647 -158.74)" opacity="0.22"/>
              <path id="Path_31665" data-name="Path 31665" d="M176.96,161.679a4.483,4.483,0,0,1,3.595-1.02c2.45.684,2.985,4.7,3.943,7.233,1.337,3.563,4.863,7.854,14.372,11.175a36.2,36.2,0,0,1-9.111-8.507,30.59,30.59,0,0,1-5.286-11.157,6.564,6.564,0,0,0-3.881-.454,5.47,5.47,0,0,0-3.078,1.8c-.155.205-.286.423-.286.423-.112.187-.2.354-.267.5Z" transform="translate(-176.948 -158.498)" opacity="0.22"/>
              <path id="Path_31666" data-name="Path 31666" d="M188.97,159.77c.087,1.356,1,12.954,10.535,18.053a19.782,19.782,0,0,0,8.632,2.425,22.229,22.229,0,0,0,10.721-2.631c9.316-5.249,9.285-16.486,9.272-17.276a40.918,40.918,0,0,1-39.16-.566Z" transform="translate(-181.489 -158.853)" fill="#582277" stroke="#601d53" stroke-width="0.92"/>
              <path id="Path_31667" data-name="Path 31667" d="M190.87,160.89c.342,1.828.678,3.663,1.02,5.491a83.583,83.583,0,0,0,35.4-.4c.174-1.6.348-3.215.522-4.82a43.149,43.149,0,0,1-36.94-.274Z" transform="translate(-182.207 -159.277)" fill="#fff"/>
              <path id="Path_31668" data-name="Path 31668" d="M199.99,181.253a15.3,15.3,0,0,1,10.665-4.515,13.635,13.635,0,0,1,4.851,1.02,10.456,10.456,0,0,1,4.291-.609,9.272,9.272,0,0,1,6.9,3.868,20.428,20.428,0,0,1-19.894,4.316,19.278,19.278,0,0,1-6.81-4.08Z" transform="translate(-185.656 -165.268)" fill="#d6225e"/>
              <path id="Path_31669" data-name="Path 31669" d="M203.916,186.709a101.61,101.61,0,0,1,10.3-.622,100.415,100.415,0,0,1,11.244.529,17.777,17.777,0,0,1-9.956,3.427,18.4,18.4,0,0,1-11.592-3.333Z" transform="translate(-187.138 -168.803)" fill="#fff"/>
              <path id="Path_31670" data-name="Path 31670" d="M176.952,162.1s0-.056-.012-.168a2.512,2.512,0,0,1,.3-1.262,3.31,3.31,0,0,1,.709-.871,6.2,6.2,0,0,1,2.711-1.287,7.328,7.328,0,0,1,3.943.118,8.508,8.508,0,0,1,2.071.983,15.932,15.932,0,0,0,1.947,1.082,24.3,24.3,0,0,0,4.54,1.524,46.932,46.932,0,0,0,5.131.864c1.766.205,3.576.336,5.386.367.448.012.908.025,1.343.019.46-.006.927-.006,1.362-.031.877-.031,1.785-.1,2.662-.187,1.766-.187,3.507-.41,5.168-.752a34.9,34.9,0,0,0,4.683-1.262,15.27,15.27,0,0,0,2.009-.883c.149-.087.3-.174.448-.255s.323-.205.485-.3a8.05,8.05,0,0,1,1.02-.491,8.2,8.2,0,0,1,3.905-.5,5.691,5.691,0,0,1,2.823,1.032,4.176,4.176,0,0,1,1.256,1.43,3.873,3.873,0,0,1,.274.609,3.647,3.647,0,0,0-.354-.553,4.277,4.277,0,0,0-1.368-1.182,5.486,5.486,0,0,0-2.668-.641,7.924,7.924,0,0,0-3.445.759,7.271,7.271,0,0,0-.846.491c-.143.093-.255.187-.417.3l-.485.336A14.712,14.712,0,0,1,219.4,162.5a29.77,29.77,0,0,1-4.838,1.561,43.577,43.577,0,0,1-5.323.933c-.92.1-1.835.187-2.786.23-.479.031-.933.037-1.393.05-.485.012-.945.006-1.418,0-1.872-.056-3.731-.205-5.553-.442a40.422,40.422,0,0,1-5.317-1.057,22.58,22.58,0,0,1-4.782-1.878,9.647,9.647,0,0,1-1.045-.616c-.323-.224-.616-.4-.951-.659a7.51,7.51,0,0,0-1.729-1,6.943,6.943,0,0,0-3.476-.417,6.18,6.18,0,0,0-2.612.9,3.7,3.7,0,0,0-.746.69,2.531,2.531,0,0,0-.361.684,2.227,2.227,0,0,0-.118.641Z" transform="translate(-176.94 -158.296)" fill="#601e52"/>
            </g>
            <g id="Group_13271" data-name="Group 13271" transform="translate(43.539 3.066)" opacity="0.3">
              <path id="Path_31671" data-name="Path 31671" d="M142.156,96.079l.41-1.337.5-1.6c.1-.317.2-.659.323-1.014q.224-.532.466-1.119c.336-.8.7-1.679,1.107-2.637.466-.927,1-1.909,1.567-2.979a17.988,17.988,0,0,1,.951-1.6c.342-.541.7-1.1,1.063-1.673.187-.28.354-.585.566-.864s.423-.553.641-.84c.435-.566.877-1.144,1.337-1.735.435-.609.983-1.144,1.493-1.729s1.051-1.169,1.592-1.766c.578-.56,1.182-1.119,1.791-1.685a23.756,23.756,0,0,1,1.909-1.679c.672-.535,1.356-1.082,2.046-1.629s1.461-1.014,2.2-1.536a50.469,50.469,0,0,1,4.764-2.848c.833-.435,1.71-.815,2.581-1.219.435-.2.877-.4,1.318-.6.448-.174.908-.336,1.362-.5.914-.323,1.828-.684,2.767-.989.951-.261,1.909-.522,2.867-.784.951-.292,1.947-.423,2.929-.622a26.74,26.74,0,0,1,2.979-.473l3.016-.3c1.007-.044,2.021-.044,3.035-.068l.759-.012h.647l.18.012,1.455.1,1.449.1.728.05.765.106,3.041.448c1,.193,1.953.442,2.929.659.485.118.97.205,1.443.354s.945.292,1.412.442l1.405.448.7.224.678.274q1.353.55,2.687,1.088c.877.386,1.716.846,2.562,1.262.423.218.846.417,1.256.641.4.243.8.479,1.2.715.79.485,1.592.927,2.338,1.449,1.468,1.063,2.942,2.052,4.229,3.2a48.959,48.959,0,0,1,6.8,6.853c.908,1.188,1.772,2.326,2.543,3.433.709,1.157,1.4,2.239,2.009,3.277.553,1.07,1.082,2.065,1.542,2.991s.771,1.835,1.113,2.624c.162.4.317.771.46,1.126s.23.7.336,1.02c.2.634.367,1.175.5,1.611l.41,1.337-.628-1.256c-.423-.808-.939-2.04-1.828-3.483-.435-.728-.864-1.555-1.418-2.4-.578-.833-1.175-1.754-1.828-2.718-.7-.933-1.48-1.9-2.276-2.929-.858-.983-1.766-2.009-2.724-3.06-.51-.5-1.032-1-1.567-1.517a20.559,20.559,0,0,0-1.667-1.517c-.591-.485-1.175-1-1.772-1.511s-1.269-.951-1.909-1.443c-1.269-1.007-2.718-1.835-4.142-2.749-.728-.435-1.5-.808-2.251-1.231-.379-.205-.759-.41-1.144-.622-.392-.193-.8-.361-1.194-.541a49.487,49.487,0,0,0-10.193-3.489c-.9-.18-1.8-.4-2.7-.553-.9-.124-1.791-.243-2.693-.367l-.678-.093-.728-.044-1.449-.087-1.455-.087-.18-.012h-.442l-.7.019c-.933.019-1.859.012-2.792.044l-2.774.261c-.927.056-1.835.255-2.749.4a26.409,26.409,0,0,0-2.711.522,53.3,53.3,0,0,0-10.205,3.476c-1.561.8-3.134,1.524-4.571,2.432-.721.442-1.474.833-2.152,1.312s-1.349.945-2.015,1.412a21.073,21.073,0,0,0-1.9,1.468q-.914.746-1.81,1.474c-.56.522-1.107,1.039-1.648,1.542a21.23,21.23,0,0,0-1.555,1.524,60.788,60.788,0,0,0-5,5.983c-.659.964-1.262,1.872-1.853,2.705-.51.871-.983,1.673-1.405,2.4-.211.367-.417.709-.609,1.039-.168.342-.33.659-.479.951-.292.591-.547,1.1-.746,1.5-.41.815-.634,1.25-.634,1.25Z" transform="translate(-142.15 -60.24)" fill="#fff"/>
            </g>
            <path id="Path_31672" data-name="Path 31672" d="M183.954,93.266a11.9,11.9,0,0,0-1.095-.6,16.145,16.145,0,0,0-3.022-1.132,13,13,0,0,0-2.077-.367c-.367-.031-.746-.05-1.132-.062-.386.019-.777-.006-1.169.05-.193.019-.392.044-.591.062s-.392.075-.591.112a11.183,11.183,0,0,0-1.175.292l-.149.037-.075.019h-.019s.093-.019.044-.006h-.012l-.037.019-.317.118-.634.243c-.348.187-.684.311-1.039.541a9.661,9.661,0,0,0-1.915,1.468c-.547.585-1.07,1.144-1.53,1.729-.491.56-.933,1.132-1.368,1.679-.205.286-.41.56-.6.827s-.361.553-.547.808c-.33.535-.647,1.039-.908,1.511a6.608,6.608,0,0,0-.367.665c-.118.211-.224.4-.317.585-.187.361-.323.653-.435.852l-.174.311h0a.189.189,0,0,1-.261.081.181.181,0,0,1-.087-.106s-.037-.118-.093-.342a7.23,7.23,0,0,1-.193-1,9.35,9.35,0,0,1-.062-1.573,9.931,9.931,0,0,1,.274-2.046c.093-.367.205-.752.336-1.144.155-.379.3-.79.5-1.182a10.175,10.175,0,0,1,1.53-2.332,11.284,11.284,0,0,1,2.282-1.934,17.389,17.389,0,0,1,2.73-1.4,15.046,15.046,0,0,1,1.493-.529l.672-.155.33-.075.044-.012.075-.019h.025l.093-.019.187-.025a10.788,10.788,0,0,1,1.468-.155c.243-.006.485-.019.721-.019l.709.037a12.694,12.694,0,0,1,2.624.454,14.633,14.633,0,0,1,2.189.827,15.232,15.232,0,0,1,1.71.933,14.05,14.05,0,0,1,1.219.858,11.3,11.3,0,0,1,.976.846h.006a.192.192,0,0,1,0,.261.18.18,0,0,1-.224.025Z" transform="translate(-106.112 -68.067)" fill="#470649"/>
            <path id="Path_31673" data-name="Path 31673" d="M241.105,92.975a12.854,12.854,0,0,1,.976-.846,12.354,12.354,0,0,1,1.219-.858,17.539,17.539,0,0,1,1.71-.933,14.631,14.631,0,0,1,2.189-.827,12.694,12.694,0,0,1,2.624-.454l.709-.037c.236,0,.479.012.721.019a9.8,9.8,0,0,1,1.468.155l.187.025.093.012h.025l.075.025.044.012.33.075.672.155a15.627,15.627,0,0,1,1.493.529,17.934,17.934,0,0,1,2.73,1.4,11.117,11.117,0,0,1,2.282,1.934,9.847,9.847,0,0,1,1.53,2.332c.2.392.336.8.5,1.182.124.392.236.777.336,1.144a10.866,10.866,0,0,1,.274,2.046,9.355,9.355,0,0,1-.062,1.573,9.806,9.806,0,0,1-.193,1c-.056.224-.093.342-.093.342a.2.2,0,0,1-.243.124.167.167,0,0,1-.106-.087h0s-.062-.112-.174-.317-.249-.491-.435-.852c-.093-.174-.205-.373-.317-.585a6.6,6.6,0,0,0-.367-.665c-.261-.473-.578-.976-.908-1.511-.187-.261-.354-.535-.547-.808s-.4-.547-.6-.827c-.442-.547-.877-1.119-1.368-1.679-.46-.591-.989-1.144-1.53-1.729a9.661,9.661,0,0,0-1.915-1.468c-.354-.23-.69-.354-1.039-.541l-.634-.243-.317-.118-.037-.012h-.012c-.05-.019.056.012.044.006h-.019l-.075-.025-.149-.037a11.181,11.181,0,0,0-1.175-.292c-.2-.037-.392-.081-.591-.112s-.4-.044-.591-.062a10.567,10.567,0,0,0-1.169-.05c-.386.019-.765.031-1.132.062a13.592,13.592,0,0,0-2.077.367,15.976,15.976,0,0,0-3.022,1.132,11.9,11.9,0,0,0-1.095.6.172.172,0,0,1-.243-.05.18.18,0,0,1,.025-.224h.006Z" transform="translate(-136.012 -68.056)" fill="#470649"/>
            <ellipse id="Ellipse_1030" data-name="Ellipse 1030" cx="5.342" cy="4.353" rx="5.342" ry="4.353" transform="matrix(0.41, -0.912, 0.912, 0.41, 100.643, 49.789)" fill="#fff"/>
            <path id="Path_31674" data-name="Path 31674" d="M160.792,199.536a344.65,344.65,0,0,1,6.194,47.058c1.71,27.767,3.041,53.345-7.226,82.319a146.863,146.863,0,0,1-13.706,28.458,4.491,4.491,0,0,0,4.31,6.835,39.387,39.387,0,0,0,9.4-2.245c17.991-6.772,28.084-26.188,42.487-78.184,6.486-23.426,13.949-53.824,20.361-89.987q-30.9,2.873-61.809,5.752Z" transform="translate(-99.828 -107.671)" fill="url(#linear-gradient-12)"/>
            <path id="Path_31675" data-name="Path 31675" d="M134.973,241.862c-1.971,20.329-8.277,50.97-28.333,69.11-6.984,6.318-17.021,12.357-22.823,10.106-.815-.317-3.526-1.368-4.372-3.881-.69-2.046-.037-4.764,1.337-5.292,1.325-.51,2.743,1.231,3.2.815.566-.516-.647-4.055-3.184-4.894-2.376-.79-5.224,1.026-6.511,2.979-2.655,4.036-.2,10.976,3.315,14.633,6.213,6.474,17.537,4.446,25.087,3.01,4.813-.92,18.769-3.588,31.953-13.551-.721,2.444-1.511,4.913-2.394,7.407a146.393,146.393,0,0,1-7.114,16.685c-1.81-1.225-3.57-1.219-3.961-2.525-.616-2.077,3.209-4.272,2.655-5.311-.535-1-4.757-.8-7.226,1.325-5.6,4.826-4.614,21.635,4.428,25.081,5.243,2,10.964-1.362,13.47-3.147,12.948-5.883,21.785-19.291,31.586-48.513a50.076,50.076,0,0,0,9.82,16.7c1.393,1.573,17.786,19.639,35.329,16.6,2.083-.361,11.71-2.034,13.943-8.116,1.5-4.086-.572-9.509,1.847-10.771a2.97,2.97,0,0,1,2.581-.075c1,.56,1.014,1.791,1.325,1.772.553-.037,1.853-3.937,0-6.194-1.58-1.928-4.832-1.884-6.934-.958-4.888,2.164-3.849,9.291-6.418,10.18-4.2,1.449-17.407-13.943-23.532-35.479-1.8-6.331-3.358-14.5-1.959-33.314a25.234,25.234,0,0,0,14.055,2.929c12.077-1.238,20.827-12.189,24.341-16.816,6.772-8.924,7.289-16.94,14.384-19.03,5.535-1.629,13.053.684,15.709,5.311,2.929,5.1,2.357,11.729,1.99,14.16-.6,3.986-1.872,6.07-1.157,6.548,1.163.777,6.573-3.414,9.092-9.092,3.389-7.637.4-15.379-.193-16.928a27.693,27.693,0,0,0-21.461-17.04c-13.265-1.853-23.918,7.388-24.564,7.966-8.091,7.226-9.969,17.083-17.481,17.481a7.6,7.6,0,0,1-3.762-.665c-4.347-2.146-5.97-9.664-4.988-20.081,2.351-13.806,4.708-25.4,6.611-34.135l-9.938,10.361-60.354,5.616a52.205,52.205,0,0,0-2.463-7.239l1.772,7.3-.4.037c.019.087.031.168.05.249l-.205-.373c.715,4.036,1.461,9.08,2,14.931" transform="translate(-72.529 -101.266)" fill="url(#linear-gradient-13)"/>
            <path id="Path_31676" data-name="Path 31676" d="M202.848,254.964s-.044.827-.124,2.369-.218,3.812-.41,6.7c-.211,2.886-.473,6.381-.864,10.392-.373,4.011-.877,8.526-1.5,13.445s-1.412,10.23-2.351,15.839c-.479,2.8-.989,5.672-1.561,8.6-.28,1.468-.578,2.935-.889,4.44q-.485,2.229-.976,4.5c-.336,1.511-.641,3.041-1.007,4.571s-.752,3.072-1.126,4.627c-.187.777-.379,1.555-.572,2.338s-.423,1.555-.634,2.332c-.429,1.561-.858,3.122-1.287,4.7a165.007,165.007,0,0,1-6.586,18.669c-.684,1.517-1.318,3.06-2.1,4.534l-1.126,2.233-1.238,2.177c-.41.728-.827,1.449-1.3,2.139s-.908,1.4-1.381,2.09c-.5.665-1.007,1.337-1.5,2s-1.082,1.275-1.617,1.915a34.108,34.108,0,0,1-7.587,6.374,50.863,50.863,0,0,1-8.576,4.372A22.229,22.229,0,0,1,147.146,388a9.916,9.916,0,0,1-4.658-1.542l-.261-.174-.062-.044c-.149-.112-.068-.056-.118-.093l-.106-.087-.41-.354c-.137-.124-.267-.224-.41-.373l-.423-.479-.417-.485c-.124-.162-.224-.33-.336-.491a8.708,8.708,0,0,1-.609-.995,16.475,16.475,0,0,1-1.567-4.16,28.262,28.262,0,0,1-.678-4.16,35.393,35.393,0,0,1-.118-4.042c.019-.361.031-.647.056-.989s.056-.678.106-1.007a14.831,14.831,0,0,1,.379-1.953,10.118,10.118,0,0,1,.7-1.872,6.947,6.947,0,0,1,1.119-1.642,9.993,9.993,0,0,1,3.016-2.245,10.729,10.729,0,0,1,3.364-1.026,5.01,5.01,0,0,1,1.816.062,1.894,1.894,0,0,1,.535.224,1.039,1.039,0,0,1,.286.249l.068.087c-.012-.031.093.155.087.143l.044.1a1.527,1.527,0,0,1,.062.292c0,.068,0,.137-.006.2a1.459,1.459,0,0,1-.075.323,2.437,2.437,0,0,1-.23.46,11.513,11.513,0,0,1-.976,1.231,12.844,12.844,0,0,0-.864,1.076c-.5.721-.8,1.43-.491,2.021a1.586,1.586,0,0,0,.69.616c.33.174.709.317,1.076.473a9.868,9.868,0,0,1,2.108,1.113,7.8,7.8,0,0,1,2.45,3.122,12.49,12.49,0,0,1,.871,2.761c.149.771.224,1.362.261,1.76s.062.609.062.609l-.211.025s-.031-.205-.1-.6-.18-.97-.373-1.71a13.3,13.3,0,0,0-1-2.612,7.065,7.065,0,0,0-2.407-2.755,9.169,9.169,0,0,0-1.971-.9,12.535,12.535,0,0,1-1.188-.448,2.424,2.424,0,0,1-1.188-1.051l-.068-.149-.019-.037s-.031-.075-.031-.081l-.031-.106a2.431,2.431,0,0,1-.087-.423,2.367,2.367,0,0,1,.068-.84,4.627,4.627,0,0,1,.653-1.418c.274-.423.585-.815.889-1.2a10.714,10.714,0,0,0,.827-1.119.827.827,0,0,0,.1-.224c.012-.031.006-.044.012-.05v.012a.163.163,0,0,0,.031.106.538.538,0,0,1-.031-.075c-.019-.037.062.124.031.068v.012h0a.64.64,0,0,0-.18-.062,3.99,3.99,0,0,0-1.325.025,9.209,9.209,0,0,0-2.873,1,8.649,8.649,0,0,0-2.456,1.959,5.747,5.747,0,0,0-.864,1.343,8.749,8.749,0,0,0-.547,1.58,22.664,22.664,0,0,0-.205,7.376,25.937,25.937,0,0,0,.715,3.856,14.5,14.5,0,0,0,1.455,3.644,7.271,7.271,0,0,0,.522.815c.093.131.18.274.274.392l.292.323.286.33c.1.112.267.23.4.348l.417.348.106.087s.1.081-.012-.006l.05.031.2.124a7.75,7.75,0,0,0,3.657,1.169,20.135,20.135,0,0,0,8.408-1.617,48.438,48.438,0,0,0,8.234-4.111,32.572,32.572,0,0,0,7.233-5.914c.516-.6,1.076-1.163,1.561-1.8s.983-1.262,1.474-1.891l1.362-2c.466-.653.883-1.356,1.294-2.052l1.238-2.1,1.132-2.164c.79-1.43,1.437-2.935,2.133-4.415a163.552,163.552,0,0,0,6.741-18.4c.448-1.555.9-3.109,1.337-4.652.218-.771.448-1.542.659-2.313l.6-2.313q.6-2.3,1.175-4.583c.386-1.517.709-3.047,1.063-4.558,1.443-6.026,2.587-11.872,3.644-17.45,1.032-5.572,1.891-10.864,2.606-15.765s1.281-9.4,1.723-13.4.777-7.488,1.032-10.367c.236-2.879.417-5.137.516-6.685s.168-2.369.168-2.369l.211.012Z" transform="translate(-96.648 -130.785)" fill="#470649"/>
            <path id="Path_31677" data-name="Path 31677" d="M170.327,236.226s.131.485.379,1.393.616,2.239,1.026,3.955.9,3.794,1.331,6.213c.2,1.213.41,2.494.634,3.856.106.678.218,1.374.33,2.083.087.715.18,1.455.274,2.2.174,1.5.417,3.066.56,4.683s.317,3.3.454,5.025q.168,2.593.342,5.317c.075,1.816.155,3.675.2,5.56.056,3.775.106,7.687-.05,11.654-.124,3.968-.354,8-.7,12.015-.367,4.017-.821,8.022-1.443,11.965-.6,3.9-1.381,7.767-2.2,11.449s-1.754,7.233-2.736,10.553-2.04,6.43-3.1,9.266c-2.1,5.672-4.241,10.236-5.771,13.4-.765,1.586-1.418,2.8-1.853,3.638s-.678,1.275-.678,1.275.2-.46.578-1.325.9-2.139,1.58-3.756,1.461-3.6,2.307-5.889,1.741-4.894,2.68-7.742c.92-2.854,1.847-5.97,2.718-9.291s1.673-6.853,2.432-10.522,1.4-7.469,2-11.38c.585-3.868,1.014-7.848,1.356-11.828.367-3.98.622-7.973.765-11.9.162-3.93.236-7.8.23-11.555,0-1.872-.062-3.719-.075-5.522-.062-1.8-.118-3.57-.18-5.286-.187-3.433-.367-6.679-.641-9.664-.062-.746-.124-1.48-.18-2.2-.081-.715-.155-1.418-.23-2.1-.143-1.362-.274-2.655-.4-3.874-.292-2.419-.647-4.521-.951-6.25-.634-3.458-1-5.429-1-5.429Z" transform="translate(-104.351 -123.714)" fill="#470649"/>
            <path id="Path_31678" data-name="Path 31678" d="M155.65,177.076s.379.274,1,.821a24.6,24.6,0,0,1,2.382,2.419c.466.529.945,1.126,1.418,1.779s.97,1.356,1.424,2.114.908,1.555,1.318,2.388l.323.665.267.634c.174.423.348.852.522,1.275l.255.641.124.323.062.162.075.205c.155.448.286.9.423,1.343.261.889.473,1.779.653,2.637s.311,1.7.417,2.5.18,1.555.224,2.251a33.046,33.046,0,0,1,.062,3.383c-.031.815-.081,1.281-.081,1.281s-.131-.454-.342-1.238-.5-1.9-.846-3.234c-.18-.659-.373-1.374-.578-2.133s-.448-1.536-.69-2.351-.516-1.642-.8-2.488c-.143-.417-.292-.833-.442-1.256l-.031-.081-.012-.037v-.019l-.012-.012c-.012-.037.019.044.012.031l-.068-.162-.131-.317-.261-.641c-.168-.429-.336-.858-.51-1.281l-.249-.641-.249-.572c-.354-.808-.728-1.6-1.1-2.357s-.746-1.486-1.107-2.177c-.379-.678-.728-1.331-1.07-1.922-.684-1.182-1.287-2.164-1.71-2.854s-.672-1.088-.672-1.088Z" transform="translate(-103.715 -101.349)" fill="#470649"/>
            <path id="Path_31679" data-name="Path 31679" d="M136.051,249.77c.112,2.637.205,5.28.18,7.923,0,1.318-.05,2.643-.075,3.961-.062,1.318-.1,2.643-.187,3.961s-.162,2.637-.286,3.955l-.174,1.978-.218,1.971q-.429,3.946-1.107,7.861c-.218,1.306-.485,2.606-.728,3.905-.261,1.3-.56,2.587-.833,3.887l-.939,3.862-1.051,3.837-1.157,3.806-1.262,3.775c-.454,1.262-.9,2.488-1.362,3.731-.5,1.231-.951,2.488-1.486,3.7l-.777,1.835-.833,1.81c-.547,1.213-1.163,2.388-1.754,3.582-1.231,2.357-2.544,4.677-3.974,6.928A71.479,71.479,0,0,1,108.016,338.5l-1.449,1.374-.721.678-.765.659c-.51.435-1.014.889-1.536,1.312l-1.586,1.238a40.716,40.716,0,0,1-6.884,4.229,26.9,26.9,0,0,1-3.812,1.486,19.006,19.006,0,0,1-4.086.734,8.624,8.624,0,0,1-1.063.019,9.143,9.143,0,0,1-1.082-.081c-.18-.012-.373-.068-.56-.1-.1-.025-.174-.031-.3-.068l-.236-.068a8.931,8.931,0,0,1-1.026-.367,9.728,9.728,0,0,1-1.891-1.057,8.907,8.907,0,0,1-.846-.69c-.137-.124-.267-.255-.392-.386l-.193-.211-.093-.112-.05-.062L79.422,347a.855.855,0,0,0,.653.3l-.684-.348a6.209,6.209,0,0,1-1.3-3.383,5.415,5.415,0,0,1,.037-.951,4.14,4.14,0,0,1,.081-.448c.037-.168.081-.311.118-.46a5.711,5.711,0,0,1,.815-1.673,3.127,3.127,0,0,1,1.723-1.25l.075-.019h.037l.093-.025.1-.012a1.87,1.87,0,0,1,.255-.019,2.983,2.983,0,0,1,.628.068,3.476,3.476,0,0,1,.958.417c.267.162.51.342.672.448.068.062.174.05-.062.025a.6.6,0,0,0-.243.056c-.025.012-.044.025-.068.037-.075.062.081-.081-.18.155l.031-.037.031-.037h0a.253.253,0,0,0-.081.118c-.006.019-.012.05-.019.062v-.05a.582.582,0,0,0,0-.106,2.447,2.447,0,0,0-.025-.28,4.134,4.134,0,0,0-.174-.628,4.194,4.194,0,0,0-1.567-2.083,3.409,3.409,0,0,0-.585-.286,3.355,3.355,0,0,0-.585-.143,4.119,4.119,0,0,0-1.318.05,6.324,6.324,0,0,0-1.362.442,5.421,5.421,0,0,0-1.163.721,7.409,7.409,0,0,0-1.841,2.2c-.056.106-.118.211-.168.317l-.081.162-.037.081v.019c-.031.05.006-.044,0-.025l-.019.05-.267.746-.143.641-.081.715A9.6,9.6,0,0,0,74,345.484a16.126,16.126,0,0,0,2.649,5.435,13.469,13.469,0,0,0,.958,1.182l.23.255.286.274.578.547a13.981,13.981,0,0,0,2.475,1.685A18.343,18.343,0,0,0,87,356.772a40.246,40.246,0,0,0,12.512-.2,87.017,87.017,0,0,0,12.326-2.929c2.015-.628,4.042-1.3,6.007-2.065s3.912-1.623,5.808-2.568a76.29,76.29,0,0,0,10.871-6.6,71.49,71.49,0,0,1-10.678,6.984q-2.826,1.5-5.777,2.749c-1.971.833-3.968,1.555-5.989,2.251a79.993,79.993,0,0,1-12.4,3.215,41.192,41.192,0,0,1-12.879.41,19.761,19.761,0,0,1-6.262-1.947,15.343,15.343,0,0,1-2.8-1.859l-.585-.541-.292-.267-.311-.33a13.819,13.819,0,0,1-1.07-1.275,17.146,17.146,0,0,1-2.942-5.939,11.008,11.008,0,0,1-.386-3.389l.093-.871.205-.914.267-.759.019-.05.044-.1.044-.1.093-.2c.062-.131.131-.261.205-.386a9.121,9.121,0,0,1,2.22-2.668,7.033,7.033,0,0,1,1.536-.951,7.87,7.87,0,0,1,1.66-.541,5.582,5.582,0,0,1,1.853-.075,4.56,4.56,0,0,1,.964.243,5.307,5.307,0,0,1,.846.417,5.8,5.8,0,0,1,2.239,2.892,5.892,5.892,0,0,1,.249.908,3.3,3.3,0,0,1,.05.516,1.561,1.561,0,0,1-.006.292l-.019.168-.012.081c-.012.044-.031.106-.05.155a1.384,1.384,0,0,1-.149.3.394.394,0,0,1-.056.081l-.031.037-.031.037c-.267.255-.131.112-.218.18l-.112.056a.983.983,0,0,1-.435.093,1.205,1.205,0,0,1-.317-.044l-.124-.037L83.1,341.2c-.118-.056-.193-.1-.274-.143-.286-.18-.466-.317-.659-.429a1.731,1.731,0,0,0-.5-.218c-.075-.012-.149-.025-.162-.025.006-.012-.075,0-.137.006l-.1.012c-.062.012.056-.012.044-.006H81.3l-.025.012a1.5,1.5,0,0,0-.777.622,4.047,4.047,0,0,0-.721,2.469,4.582,4.582,0,0,0,.989,2.469l-.684-.348a.944.944,0,0,1,.69.354l.012.019.031.037.062.075.143.155c.1.106.205.205.311.3a6.559,6.559,0,0,0,.69.553,8.122,8.122,0,0,0,1.561.864,6.607,6.607,0,0,0,.84.292l.236.068c.031.012.124.025.187.037a4.135,4.135,0,0,0,.417.075,8.313,8.313,0,0,0,.889.062,7.519,7.519,0,0,0,.914-.025,20.848,20.848,0,0,0,7.251-2.058,38.425,38.425,0,0,0,6.6-4.011l1.542-1.188c.5-.4.989-.833,1.48-1.25l.74-.628.721-.678,1.43-1.337a70.022,70.022,0,0,0,9.851-12.127c1.412-2.2,2.711-4.471,3.943-6.785q1.8-3.489,3.383-7.1c.547-1.194,1.014-2.413,1.524-3.619.479-1.219.958-2.469,1.418-3.682l1.312-3.719,1.206-3.75,1.107-3.787,1-3.818c.3-1.281.609-2.556.9-3.843.261-1.287.553-2.575.79-3.868.479-2.587.939-5.18,1.294-7.786l.274-1.959.23-1.965c.162-1.306.274-2.618.4-3.93s.193-2.631.3-3.943c.056-1.318.149-2.631.18-3.949.112-2.637.124-5.274.106-7.917Z" transform="translate(-72.139 -128.838)" fill="#470649"/>
            <ellipse id="Ellipse_1031" data-name="Ellipse 1031" cx="4.478" cy="1.555" rx="4.478" ry="1.555" transform="translate(137.413 81.361) rotate(-70.8)" fill="#5a1f68"/>
            <path id="Path_31680" data-name="Path 31680" d="M266.927,256.262a25.9,25.9,0,0,0,3.265,11.175c1.741,3.078,4.123,7.289,8.19,8.52,8.489,2.575,19.017-9.415,21.244-11.946,5.883-6.691,5.572-10.106,10.18-12.724,6.057-3.439,13.657-1.561,19.2.609-3.364-1.2-8.47-2.4-13.333-.386-8.308,3.439-7.1,12.612-17.425,23.4-3.2,3.333-10.05,10.5-20.193,11.231a26.182,26.182,0,0,1-13.719-2.985c-.131-2.96-.131-6.163.056-9.571a96.539,96.539,0,0,1,2.543-17.313Z" transform="translate(-144.776 -128.694)" fill="url(#linear-gradient-14)"/>
          </g>
          <path id="Path_31681" data-name="Path 31681" d="M74.56,204.67s.205.323.591.864c.193.267.435.591.721.945s.628.74,1.007,1.151.821.821,1.3,1.231a17.672,17.672,0,0,0,1.573,1.194,15.781,15.781,0,0,0,1.828,1.032c.155.068.342.174.466.218l.529.205.529.211c.174.062.342.1.51.155a12.874,12.874,0,0,0,2.083.5,16.313,16.313,0,0,0,2.1.193c.684.006,1.349-.006,1.984-.062s1.231-.137,1.779-.236a22.112,22.112,0,0,0,2.643-.641c.317-.106.566-.18.734-.236l.255-.093a8.525,8.525,0,0,1-.9.56c-.292.162-.659.354-1.088.541a14.962,14.962,0,0,1-1.48.56,14.759,14.759,0,0,1-3.924.7,13.448,13.448,0,0,1-2.276-.1,14.231,14.231,0,0,1-2.32-.51c-.193-.062-.392-.118-.572-.187l-.522-.218-.522-.218c-.224-.093-.361-.18-.547-.267a13.323,13.323,0,0,1-1.928-1.213,13.617,13.617,0,0,1-2.786-2.861,13.4,13.4,0,0,1-1.393-2.425,9.045,9.045,0,0,1-.373-.983Z" transform="translate(-71.698 -111.785)" fill="#470649"/>
          <path id="Path_31682" data-name="Path 31682" d="M99.315,216.11A49.525,49.525,0,0,0,93.966,237.5c-.249,23.924,18.694,41.884,18.24,41.461a77.166,77.166,0,0,1-22.363-37.78,74.421,74.421,0,0,1-1.791-23.868,15.564,15.564,0,0,0,11.256-1.206Z" transform="translate(-76.696 -116.11)" fill="url(#linear-gradient-15)"/>
        </g>
      </g>
    </g>
  </g>
</svg>
