<svg xmlns="http://www.w3.org/2000/svg" width="163.372" height="122.11" viewBox="0 0 163.372 122.11">
  <g id="undraw_empty_re_opql" transform="translate(0 0.028)">
    <path id="Path_7300" data-name="Path 7300" d="M609.406,558.973h-3.251l-1.547-12.538h4.8Z" transform="translate(-490.112 -442.978)" fill="#9e616a"/>
    <path id="Path_7301" data-name="Path 7301" d="M758.914,735.026h-2.331l-.416-2.2-1.066,2.2h-6.183a1.39,1.39,0,0,1-.79-2.533l4.937-3.41v-2.225l5.193.31Z" transform="translate(-637.904 -613.399)" fill="#2f2e41"/>
    <path id="Path_7302" data-name="Path 7302" d="M683.417,547.912l-2.609,1.94-8.723-9.138,3.85-2.863Z" transform="translate(-544.81 -436.02)" fill="#9e616a"/>
    <path id="Path_7303" data-name="Path 7303" d="M881.753,711.726l-1.871,1.391-1.647-1.518.458,2.4-4.961,3.689a1.39,1.39,0,0,1-2.146-1.562l1.927-5.683-1.328-1.785,4.352-2.85Z" transform="translate(-738.409 -596.338)" fill="#2f2e41"/>
    <path id="Path_7304" data-name="Path 7304" d="M758.651,398.647s6.168,5.329,3.322,20.519L758.5,434.05l11.33,18.8-3.613,4.395L751.487,436.9l-5.338-12.52-1.5-22.283Z" transform="translate(-635.572 -347.342)" fill="#2f2e41"/>
    <path id="Path_7305" data-name="Path 7305" d="M597.859,425.746l-.371,5.745,1.135,24.482,5.342-.93,1.021-17.431Z" transform="translate(-484.34 -345.144)" fill="#2f2e41"/>
    <path id="Path_7306" data-name="Path 7306" d="M237.443,580.214h2.907L241.733,569h-4.29Z" transform="translate(-192.477 -461.271)" fill="#ffb6b6"/>
    <path id="Path_7307" data-name="Path 7307" d="M402.178,745.245H403l3.195-1.3,1.712,1.3h0a3.648,3.648,0,0,1,3.648,3.648v.119h-9.373Z" transform="translate(-357.954 -627.251)" fill="#2f2e41"/>
    <path id="Path_7308" data-name="Path 7308" d="M296.932,571.719l2.835.64,3.819-10.633-4.185-.945Z" transform="translate(-240.701 -454.608)" fill="#ffb6b6"/>
    <path id="Path_7309" data-name="Path 7309" d="M459.314,738.752l.8.18,3.4-.564,1.384,1.644h0a3.648,3.648,0,0,1,2.755,4.362l-.026.116-9.143-2.064Z" transform="translate(-403.597 -622.73)" fill="#2f2e41"/>
    <path id="Path_7310" data-name="Path 7310" d="M382.652,393.843a21.1,21.1,0,0,0,.328,13.361l.661,26.962s-.985,17.682,2.193,23.9h4.609l2.282-25.518.287-17.128,9.882,14.45L396.6,457.653l5.673.507,10.214-30.146-12.6-29.247Z" transform="translate(-341.368 -343.448)" fill="#2f2e41"/>
    <path id="Path_7311" data-name="Path 7311" d="M637.507,316.029c3.526-3.177,8.77-4.774,13.168-2.993a21.866,21.866,0,0,0-9.826,11.35c-.7,1.863-1.285,4.008-3.008,5.006a4.888,4.888,0,0,1-3.607.351,14.518,14.518,0,0,1-3.39-1.495l-.309-.007C631.924,323.7,633.981,319.206,637.507,316.029Z" transform="translate(-543.067 -277.343)" fill="#e6e6e6"/>
    <path id="Path_7312" data-name="Path 7312" d="M650.862,315.82a18.69,18.69,0,0,0-10.4,4.911,8.048,8.048,0,0,0-1.58,1.965,4.616,4.616,0,0,0-.534,2.37,9.555,9.555,0,0,1-.041,2.312,2.826,2.826,0,0,1-1.406,1.835,7.343,7.343,0,0,1-2.819.77,7.21,7.21,0,0,0-3.133.857c-.113.073-.22-.106-.107-.18,1.623-1.052,3.678-.669,5.423-1.371a2.863,2.863,0,0,0,1.79-1.772,7.414,7.414,0,0,0,.086-2.347,4.925,4.925,0,0,1,.435-2.337,7.44,7.44,0,0,1,1.5-2.019,18.133,18.133,0,0,1,4.608-3.3,19.021,19.021,0,0,1,6.173-1.9c.133-.017.134.192,0,.209Z" transform="translate(-543.279 -280.03)" fill="#fff"/>
    <path id="Path_7313" data-name="Path 7313" d="M684.22,322.173a2.8,2.8,0,0,1,.309-3.618c.1-.094.247.05.151.145a2.6,2.6,0,0,0-.281,3.366C684.478,322.175,684.3,322.282,684.22,322.173Z" transform="translate(-586.163 -282.393)" fill="#fff"/>
    <path id="Path_7314" data-name="Path 7314" d="M669.812,360.108a5.4,5.4,0,0,0,3.862-.773c.113-.073.22.107.107.18a5.622,5.622,0,0,1-4.02.8c-.133-.024-.081-.227.051-.2Z" transform="translate(-574.801 -315.461)" fill="#fff"/>
    <path id="Path_7315" data-name="Path 7315" d="M713.62,321.731a1.587,1.587,0,0,0,1.187.927c.133.022.081.225-.051.2a1.778,1.778,0,0,1-1.315-1.022.108.108,0,0,1,.036-.143A.105.105,0,0,1,713.62,321.731Z" transform="translate(-610.26 -284.95)" fill="#fff"/>
    <path id="Path_7316" data-name="Path 7316" d="M654.444,373.168l-.251-.033a20.9,20.9,0,0,0-3.386-.172c-.088,0-.176,0-.264.008a22.036,22.036,0,0,0-7.906,1.82,21.4,21.4,0,0,0-2.871,1.525,13.933,13.933,0,0,1-3.992,2.1,3.673,3.673,0,0,1-.447.08l-5.849-5.065c-.008-.018-.016-.035-.024-.053l-.243-.192.138-.1.08-.057c.018-.013.036-.025.051-.037l.017-.011c.015-.012.031-.022.045-.033q.4-.282.8-.56l0,0a31.466,31.466,0,0,1,6.552-3.522c.069-.026.14-.054.212-.078a20.422,20.422,0,0,1,3.208-.9,18.056,18.056,0,0,1,1.809-.253,15.012,15.012,0,0,1,4.682.332,11.92,11.92,0,0,1,7.51,5.006C654.362,373.034,654.4,373.1,654.444,373.168Z" transform="translate(-541.992 -322.153)" fill="#e6e6e6"/>
    <path id="Path_7317" data-name="Path 7317" d="M654.91,386.049a18.69,18.69,0,0,0-11.258-2.339,8.049,8.049,0,0,0-2.445.618,4.616,4.616,0,0,0-1.853,1.571,9.554,9.554,0,0,1-1.424,1.822,2.826,2.826,0,0,1-2.227.618,7.343,7.343,0,0,1-2.714-1.083,7.211,7.211,0,0,0-3.017-1.2c-.134-.01-.112-.217.023-.208,1.929.138,3.339,1.68,5.156,2.17a2.863,2.863,0,0,0,2.5-.337,7.414,7.414,0,0,0,1.482-1.822,4.925,4.925,0,0,1,1.755-1.6,7.441,7.441,0,0,1,2.412-.709,18.133,18.133,0,0,1,5.665.14,19.022,19.022,0,0,1,6.076,2.2c.117.066-.009.234-.124.168Z" transform="translate(-542.535 -334.971)" fill="#fff"/>
    <path id="Path_7318" data-name="Path 7318" d="M709.2,372.41a2.8,2.8,0,0,1,2.425-2.7c.133-.018.167.189.034.207a2.6,2.6,0,0,0-2.251,2.518C709.4,372.567,709.2,372.544,709.2,372.41Z" transform="translate(-606.833 -323.882)" fill="#fff"/>
    <path id="Path_7319" data-name="Path 7319" d="M680.07,394.669a5.4,5.4,0,0,0,3.549,1.708c.134.01.112.218-.023.208a5.621,5.621,0,0,1-3.69-1.785c-.092-.1.072-.23.163-.131Z" transform="translate(-583.066 -344.089)" fill="#fff"/>
    <path id="Path_7320" data-name="Path 7320" d="M740.014,387.7a1.587,1.587,0,0,0,.39,1.455c.093.1-.071.228-.163.131a1.779,1.779,0,0,1-.435-1.608.108.108,0,0,1,.115-.093A.105.105,0,0,1,740.014,387.7Z" transform="translate(-631.609 -338.372)" fill="#fff"/>
    <path id="Path_7321" data-name="Path 7321" d="M178.359,666.393a4.669,4.669,0,0,1-1.867,2.513c-.142.1-.288.2-.436.286-.045.026-.091.055-.138.08s-.1.059-.153.085h-4.1c-.074-.15-.146-.3-.218-.451a24.605,24.605,0,0,1-2.778-11.724,15.009,15.009,0,0,1,.979-4.592,11.911,11.911,0,0,1,6-6.742c.07-.032.144-.064.216-.095L175.8,646a20.981,20.981,0,0,0-.64,3.331c-.011.087-.021.174-.028.263a21.977,21.977,0,0,0,.7,8.084l.006.019q.241.872.561,1.718c.167.445.347.884.544,1.316C177.768,662.539,178.87,664.471,178.359,666.393Z" transform="translate(-168.648 -547.653)" fill="#e6e6e6"/>
    <path id="Path_7322" data-name="Path 7322" d="M189.508,645.422l-.119.157a18.583,18.583,0,0,0-2.106,3.553c-.03.063-.059.125-.083.189a18.524,18.524,0,0,0-1.481,5.537.283.283,0,0,0,0,.04c-.047.447-.076.9-.087,1.348a8.045,8.045,0,0,0,.271,2.507,4.5,4.5,0,0,0,1.034,1.784c.047.051.095.1.146.151s.08.08.119.117c.383.365.8.7,1.161,1.1a4.058,4.058,0,0,1,.445.568,2.822,2.822,0,0,1,.3,2.291,7.329,7.329,0,0,1-1.449,2.538c-.3.386-.612.776-.881,1.189-.1.148-.189.3-.273.451h-.239c.08-.153.167-.3.261-.451a23.856,23.856,0,0,0,2.183-3.223,2.857,2.857,0,0,0,.013-2.519,3.346,3.346,0,0,0-.46-.64c-.347-.392-.761-.727-1.138-1.081-.095-.089-.187-.18-.276-.275a4.728,4.728,0,0,1-1.068-1.685,7.429,7.429,0,0,1-.367-2.486c0-.538.028-1.079.081-1.617.006-.068.013-.138.021-.208a19.082,19.082,0,0,1,3.725-9.323c.038-.053.078-.1.117-.155C189.44,645.17,189.589,645.318,189.508,645.422Z" transform="translate(-182.237 -547.237)" fill="#fff"/>
    <path id="Path_7323" data-name="Path 7323" d="M176.35,684.35a2.8,2.8,0,0,1-2.34-2.777.1.1,0,0,1,.209,0,2.6,2.6,0,0,0,2.182,2.578c.133.022.081.224-.051.2Z" transform="translate(-172.995 -576.606)" fill="#fff"/>
    <path id="Path_7324" data-name="Path 7324" d="M192.966,711.865a5.4,5.4,0,0,0,2.184-3.278c.029-.132.231-.08.2.051a5.622,5.622,0,0,1-2.28,3.406c-.111.077-.217-.1-.107-.18Z" transform="translate(-188.323 -598.526)" fill="#fff"/>
    <path id="Path_7325" data-name="Path 7325" d="M194.407,664.806a1.587,1.587,0,0,0,1.495-.184c.11-.078.216.1.107.18a1.779,1.779,0,0,1-1.653.207.108.108,0,0,1-.076-.127.105.105,0,0,1,.127-.076Z" transform="translate(-189.423 -562.933)" fill="#fff"/>
    <path id="Path_7326" data-name="Path 7326" d="M207,683.6c-.066.051-.134.1-.2.155a20.9,20.9,0,0,0-2.517,2.272c-.061.063-.121.127-.18.191l0,0a22.034,22.034,0,0,0-4.291,6.844l-.006.017-.006.015a21.671,21.671,0,0,0-.953,3.109,25.667,25.667,0,0,1-.782,3.138c-.055.153-.116.3-.18.451h-8.419c.028-.15.059-.3.089-.451a30.358,30.358,0,0,1,2-6.382c.03-.068.061-.136.095-.2a20.508,20.508,0,0,1,1.631-2.907h0a17.977,17.977,0,0,1,1.1-1.456,14.982,14.982,0,0,1,3.545-3.075c.008-.006.017-.01.025-.015a11.9,11.9,0,0,1,8.823-1.755h0C206.844,683.563,206.92,683.58,207,683.6Z" transform="translate(-185.52 -578.091)" fill="#e6e6e6"/>
    <path id="Path_7327" data-name="Path 7327" d="M219.95,684.5c-.064.017-.129.036-.191.055a18.673,18.673,0,0,0-3.82,1.566c-.061.032-.121.066-.182.1a18.608,18.608,0,0,0-4.505,3.52.007.007,0,0,0,0,0c-.015.015-.032.032-.045.047-.3.326-.595.665-.871,1.013a8.1,8.1,0,0,0-1.292,2.165,4.483,4.483,0,0,0-.248,2.047c.006.07.015.138.025.208.008.055.015.11.025.167a9.614,9.614,0,0,1,.28,2.3,2.823,2.823,0,0,1-1.138,2.013,4.5,4.5,0,0,1-.7.443,6.981,6.981,0,0,1-1.093.451h-.744l.3-.085a9.124,9.124,0,0,0,1.047-.365,5.087,5.087,0,0,0,.568-.28,2.867,2.867,0,0,0,1.528-2,7.436,7.436,0,0,0-.241-2.335c-.023-.133-.044-.263-.055-.394a4.628,4.628,0,0,1,.161-1.981,7.4,7.4,0,0,1,1.2-2.208A15.775,15.775,0,0,1,211,689.7q.068-.077.142-.153A19.109,19.109,0,0,1,215.729,686h0a18.8,18.8,0,0,1,4-1.655h0c.062-.019.127-.038.189-.055C220.049,684.253,220.079,684.459,219.95,684.5Z" transform="translate(-198.482 -578.887)" fill="#fff"/>
    <path id="Path_7328" data-name="Path 7328" d="M231.827,697.555a2.8,2.8,0,0,1-.2-3.626c.082-.107.252.015.17.122a2.6,2.6,0,0,0,.19,3.372c.093.1-.07.228-.163.131Z" transform="translate(-219.24 -586.673)" fill="#fff"/>
    <path id="Path_7329" data-name="Path 7329" d="M222.272,735.255a5.4,5.4,0,0,0,3.717-1.3c.1-.088.233.075.131.163a5.622,5.622,0,0,1-3.871,1.347C222.115,735.458,222.138,735.25,222.272,735.255Z" transform="translate(-212.026 -619.13)" fill="#fff"/>
    <path id="Path_7330" data-name="Path 7330" d="M259.853,693.508a1.587,1.587,0,0,0,1.3.753c.135,0,.111.211-.023.208a1.779,1.779,0,0,1-1.445-.83.108.108,0,0,1,.016-.147A.105.105,0,0,1,259.853,693.508Z" transform="translate(-242.432 -586.333)" fill="#fff"/>
    <path id="Path_7331" data-name="Path 7331" d="M579.987,285.513a2.2,2.2,0,0,1-3.365.159l-7.158,3.113.7-4,6.691-2.344a2.209,2.209,0,0,1,3.135,3.068Z" transform="translate(-493.56 -252.75)" fill="#ffb8b8"/>
    <path id="Path_7332" data-name="Path 7332" d="M433.017,259.716l-16.626,7.406-.036-.013-18.95-6.753a6.242,6.242,0,0,1-2.8-8.1h0a6.235,6.235,0,0,1,8.9-2.772l14.1,8.5,13.675-1.772Z" transform="translate(-351.368 -225.705)" fill="#e6e6e6"/>
    <path id="Path_7333" data-name="Path 7333" d="M332.046,770.238a.225.225,0,0,1-.225.225H168.905a.225.225,0,0,1,0-.451H331.821a.225.225,0,0,1,.225.225Z" transform="translate(-168.674 -648.382)" fill="#ccc"/>
    <path id="Path_7334" data-name="Path 7334" d="M400.73,261.412l-16.761-2.681a3.2,3.2,0,0,1-1.885-4.478l.76-1.52-.3-15.973a11.832,11.832,0,0,1,5.745-10.35l1.634-.977.826-2.1,7.617.186.022,2.751,2.728,4.35v.018l-.171,23.674-.752,2.443,1.137,2.842Z" transform="translate(-341.391 -205.229)" fill="#e6e6e6"/>
    <circle id="Ellipse_1059" data-name="Ellipse 1059" cx="6.92" cy="6.92" r="6.92" transform="translate(46.949 1.656)" fill="#ffb8b8"/>
    <path id="Path_7335" data-name="Path 7335" d="M414.534,137.692a9.154,9.154,0,0,1,.005-2.969,8.31,8.31,0,0,1,3.517-5.77,2.534,2.534,0,0,1,1.262-.5,1.089,1.089,0,0,1,1.1.663,2.271,2.271,0,0,1,1.281-1.271,4,4,0,0,1,1.824-.246,6.665,6.665,0,0,1,5.561,3.975c.185.439.7-1.183.935-.768a1.845,1.845,0,0,0,1.046.919c.459.128.645,2.019.826,1.578a2.1,2.1,0,0,1-2.009,2.931,11.576,11.576,0,0,1-1.375-.263,3.429,3.429,0,0,0-3.754,2.566,4.542,4.542,0,0,0-.6-1.33,1.537,1.537,0,0,0-1.233-.678,1.727,1.727,0,0,0-1.187.682c-.3.358-.533.775-.84,1.131-.9,1.044-2.119,3.479-3.4,3.3C416.475,141.5,414.816,138.88,414.534,137.692Z" transform="translate(-367.871 -127.607)" fill="#2f2e41"/>
    <path id="Path_7336" data-name="Path 7336" d="M519.326,308.913a1.351,1.351,0,0,0-.91-1.487l-18.637-6.207a1.351,1.351,0,0,0-.555-.064l-4.671.442-2.68.254-4.946.467a1.355,1.355,0,0,0-1.209,1.134l-2.511,15.687a1.361,1.361,0,0,0,.849,1.476l18.831,7.269a1.317,1.317,0,0,0,.274.074,1.352,1.352,0,0,0,.412,0l12.168-1.8a1.348,1.348,0,0,0,1.141-1.136Z" transform="translate(-423.623 -268.308)" fill="#fff"/>
    <path id="Path_7337" data-name="Path 7337" d="M489.55,324.583l18.831,7.269a.17.17,0,0,0,.087.01l12.167-1.8a.167.167,0,0,0,.143-.142l2.447-16.109a.171.171,0,0,0-.114-.186l-.125-.042-18.513-6.163-.026-.006a.167.167,0,0,0-.044,0l-11.393,1.078-.9.085a.171.171,0,0,0-.15.142L489.444,324.4A.17.17,0,0,0,489.55,324.583Z" transform="translate(-428.692 -273.38)" fill="#16a1ff"/>
    <path id="Path_7338" data-name="Path 7338" d="M508.282,308.485l11.393-1.078a.166.166,0,0,1,.044,0l.026.006,18.513,6.163-4.883.517-1.828.193-5.2.549H526.3l-.03-.009Z" transform="translate(-443.964 -273.38)" fill="#2f2e41"/>
    <path id="Path_7339" data-name="Path 7339" d="M484.05,320.616l18.831,7.269a1.272,1.272,0,0,0,.275.072,1.367,1.367,0,0,0,.412.005l12.167-1.8a1.351,1.351,0,0,0,1.142-1.137l2.445-16.109a1.362,1.362,0,0,0-.079-.7c-.012-.03-.025-.059-.039-.087a1.324,1.324,0,0,0-.429-.511,1.352,1.352,0,0,0-.363-.185l-.022-.008-18.614-6.2a1.7,1.7,0,0,0-.232-.056,1.342,1.342,0,0,0-.325-.006l-4.671.44-2.68.256-4.947.467a1.343,1.343,0,0,0-.572.189.254.254,0,0,0-.038.023l-.025.019a1.354,1.354,0,0,0-.573.9L483.2,319.139A1.362,1.362,0,0,0,484.05,320.616Zm2-17.111a1,1,0,0,1,.24-.506.883.883,0,0,1,.128-.125,1.007,1.007,0,0,1,.44-.205.772.772,0,0,1,.1-.014l8.33-.787,3.97-.378c.027,0,.052,0,.076,0a.95.95,0,0,1,.179.013.787.787,0,0,1,.16.038l18.636,6.207.042.015a1.015,1.015,0,0,1,.643,1.1l-2.447,16.111a1.013,1.013,0,0,1-.854.852l-12.169,1.8a1.025,1.025,0,0,1-.516-.059L484.172,320.3a1.023,1.023,0,0,1-.636-1.107Z" transform="translate(-423.619 -268.307)" fill="#3f3d56"/>
    <path id="Path_7340" data-name="Path 7340" d="M499.313,308.511a.166.166,0,0,1,.051-.073l.024-.017.024-.011a.166.166,0,0,1,.118,0l.392.138,19.149,6.755,4.482-.474,2.508-.264,5.308-.562.475-.05.092-.01a.171.171,0,0,1,.18.124.141.141,0,0,1,.005.027.169.169,0,0,1-.1.175.188.188,0,0,1-.047.013l-.646.068-5.227.553-1.828.193-5.2.549h-.046l-.03-.009-19.511-6.881-.066-.023a.127.127,0,0,1-.042-.023A.172.172,0,0,1,499.313,308.511Z" transform="translate(-436.686 -274.184)" fill="#3f3d56"/>
    <path id="Path_7341" data-name="Path 7341" d="M588.309,363.444a.169.169,0,0,1-.141-.192l2.749-18.243a.169.169,0,0,1,.193-.142h0a.169.169,0,0,1,.141.192L588.5,363.3a.169.169,0,0,1-.193.142Z" transform="translate(-508.721 -303.745)" fill="#3f3d56"/>
    <path id="Path_7342" data-name="Path 7342" d="M617.89,358.933l-1.828.193,2.139-18.092a11.6,11.6,0,0,1,2.507-.265C620.747,340.875,617.907,358.817,617.89,358.933Z" transform="translate(-531.333 -300.391)" fill="#3f3d56"/>
    <path id="Path_7343" data-name="Path 7343" d="M331.039,182.533l-.049,8.25,14.606,5.565,5.245-7.045Z" transform="translate(-268.309 -147.989)" fill="#3f3d56"/>
    <path id="Path_7344" data-name="Path 7344" d="M587.878,294.42a1,1,0,0,0-.473-.329l-18.635-6.207a.973.973,0,0,0-.161-.039.951.951,0,0,0-.18-.013l.03-.189.187-.135,4.425-3.2,14.779,4.529.026,5.123Z" transform="translate(-492.722 -254.652)" fill="#3f3d56"/>
    <path id="Path_7345" data-name="Path 7345" d="M502.5,380.075a.285.285,0,0,1,.062.013l5.718,1.878a.284.284,0,1,1-.177.54l-5.718-1.878a.284.284,0,0,1,.115-.553Z" transform="translate(-439.024 -332.286)" fill="#fff"/>
    <circle id="Ellipse_1060" data-name="Ellipse 1060" cx="2.272" cy="2.272" r="2.272" transform="translate(84.272 77.854)" fill="#f2f2f2"/>
    <circle id="Ellipse_1061" data-name="Ellipse 1061" cx="2.272" cy="2.272" r="2.272" transform="translate(26.324 86.186)" fill="#f2f2f2"/>
    <circle id="Ellipse_1062" data-name="Ellipse 1062" cx="2.272" cy="2.272" r="2.272" transform="translate(73.667 11.006)" fill="#f2f2f2"/>
    <path id="Path_7346" data-name="Path 7346" d="M543.2,374.458a2.2,2.2,0,0,1-3.012-1.507l-7.767-.785,2.562-3.145,6.982,1.227a2.209,2.209,0,0,1,1.234,4.209Z" transform="translate(-463.532 -323.327)" fill="#ffb8b8"/>
    <path id="Path_7347" data-name="Path 7347" d="M425.456,277.693l-18.125-1.67-.025-.029-13.228-15.157a6.242,6.242,0,0,1,1.517-8.432h0a6.235,6.235,0,0,1,9.117,1.933l8.147,14.306,12.8,5.141Z" transform="translate(-350.565 -227.81)" fill="#e6e6e6"/>
    <path id="Path_7348" data-name="Path 7348" d="M730.82,187.622c-.45-3.3-1.015-6.846-3.343-9.229a7.831,7.831,0,0,0-11.314.117,10.36,10.36,0,0,0-2.512,6.825,26.877,26.877,0,0,0,1.1,7.329,22.591,22.591,0,0,0,9.428-1.856,15.187,15.187,0,0,1,2.26-.887c.785-.2,1.345.3,2.076.654l.4-.768c.328.611,1.345.43,1.714-.158A3.031,3.031,0,0,0,730.82,187.622Z" transform="translate(-610.438 -166.887)" fill="#2f2e41"/>
    <path id="Path_7349" data-name="Path 7349" d="M663.169,306.26l-13.233.283a2.093,2.093,0,1,0-.935,2.949c1.755.1,15.485,2.048,16.3.793.831-1.275,5.269-5.773,5.269-5.773l-3.411-4.856Z" transform="translate(-555.627 -267.097)" fill="#9e616a"/>
    <circle id="Ellipse_1063" data-name="Ellipse 1063" cx="6.217" cy="6.217" r="6.217" transform="translate(104.549 11.568)" fill="#9e616a"/>
    <path id="Path_7350" data-name="Path 7350" d="M599.361,299.184" transform="translate(-517.796 -266.715)" fill="#16a1ff"/>
    <path id="Path_7351" data-name="Path 7351" d="M741.952,268.4c-.733-1.458-1.089-3.259-2.651-3.732a15.591,15.591,0,0,0-6.282.7c-1.6.9-.15,2.576-1.093,4.148-1.026,1.709-3.812,5.138-4.838,6.846-.705,1.175,1.67,4.622,1.289,5.938a5.362,5.362,0,0,0,.25,4c.581,1.08-.26,2.035.325,3.113.608,1.121,1.354,5.312.788,6.455L729.361,297c3.758.221,6.919-4.269,10.654-4.742a5.788,5.788,0,0,0,2.655-.809,5.558,5.558,0,0,0,1.849-3.582A30.172,30.172,0,0,0,741.952,268.4Z" transform="translate(-621.228 -238.648)" fill="#3f3d56"/>
    <path id="Path_7352" data-name="Path 7352" d="M772.544,332.507c-.523-1.429-1.471-7.677-1.471-7.677l-5.932-.174,2.9,7.153-7.914,11.079.041.068a2.093,2.093,0,1,0,1.755,2.224.144.144,0,0,0,.181-.031C762.986,344.044,773.068,333.936,772.544,332.507Z" transform="translate(-646.185 -287.364)" fill="#9e616a"/>
    <path id="Path_7353" data-name="Path 7353" d="M793.09,287.2a42.569,42.569,0,0,0-2.011-6.784,14.254,14.254,0,0,0-4.08-5.7,4.772,4.772,0,0,0-1.992-1.031,2.3,2.3,0,0,0-2.1.565c-.833.876-.582,2.281-.277,3.45l2.7,10.34,7.8-.827Z" transform="translate(-666.128 -246.003)" fill="#3f3d56"/>
    <path id="Path_7354" data-name="Path 7354" d="M723.024,188.188a21.57,21.57,0,0,0-1.006-4.437,7.171,7.171,0,0,0-2.649-3.545c-1.969-1.27-4.519-1.025-6.727-.295a10.2,10.2,0,0,0-4.578,2.8,5.917,5.917,0,0,0-1.432,5.156L713.7,186.2l-.258.182a5.688,5.688,0,0,1,3.036,3.957,5.894,5.894,0,0,1-1.243,4.895l4.819-1.709a4.889,4.889,0,0,0,2.64-1.659A5.3,5.3,0,0,0,723.024,188.188Z" transform="translate(-604.64 -169.54)" fill="#2f2e41"/>
  </g>
</svg>
