<svg width="70" height="34" viewBox="0 0 70 34" fill="none" xmlns="http://www.w3.org/2000/svg">
<g id="Group 1000007045">
<path id="Vector" d="M56.515 33.3429H58.5498V26.3678C58.5498 24.1458 59.7454 22.4965 62.2171 22.4965C63.7805 22.4965 64.7347 23.4815 64.7347 24.9819V33.3429H66.7695V25.2224C66.7695 22.5767 65.7579 20.7098 62.5045 20.7098C60.7341 20.7098 59.343 21.4314 58.4808 22.9547H58.4348V20.9961H56.515V33.3429ZM44.467 27.1695C44.467 24.1573 46.1915 22.4851 48.3297 22.4851C50.468 22.4851 52.1924 24.1573 52.1924 27.1695C52.1924 30.1588 50.468 31.831 48.3297 31.831C46.1915 31.831 44.4555 30.1588 44.467 27.1695ZM42.3058 27.1695C42.3058 30.7773 44.3866 33.6178 48.3297 33.6178C52.2729 33.6178 54.3537 30.7773 54.3537 27.1695C54.3537 23.5388 52.2729 20.6983 48.3297 20.6983C44.3866 20.6983 42.3058 23.5388 42.3058 27.1695ZM41.7195 20.9847H39.5812L36.2013 31.2813H36.1553L32.6835 20.9847H30.4073L35.0057 33.3314H37.19L41.7195 20.9847ZM30.1429 31.7165C29.9452 31.7941 29.7345 31.833 29.5221 31.831C28.8783 31.831 28.8783 31.3958 28.8783 30.4452V24.0886C28.8783 21.2023 26.4526 20.6983 24.2223 20.6983C21.4633 20.6983 19.0951 21.775 18.9686 24.833H21.0034C21.0954 23.0119 22.3715 22.4965 24.0959 22.4965C25.395 22.4965 26.855 22.7829 26.855 24.5467C26.855 26.07 24.9351 25.9325 22.6819 26.3678C20.5666 26.7686 18.4858 27.3757 18.4858 30.1703C18.4858 32.6328 20.3367 33.6292 22.5899 33.6292C24.3143 33.6292 25.8318 33.0336 26.9584 31.7165C26.9584 33.0565 27.6252 33.6292 28.6828 33.6292C29.3266 33.6292 29.7865 33.5147 30.1429 33.2971V31.7165ZM26.832 29.0364C26.832 30.1588 25.7283 31.831 23.0382 31.831C21.7967 31.831 20.6356 31.35 20.6356 30.01C20.6356 28.5096 21.7852 28.0285 23.1302 27.788C24.4983 27.5475 26.0272 27.5246 26.8205 26.9519L26.832 29.0364ZM14.2322 33.3429H16.267V16.2773H14.2322V33.3429ZM0 33.3429H11.887V31.4302H2.27623V25.5317H11.1742V23.619H2.27623V18.1901H11.818V16.2773H0V33.3429Z" fill="black"/>
<path id="Vector_2" d="M50.8243 7.94886C50.8492 7.26898 50.8338 6.58823 50.7783 5.91016C44.6853 6.42556 36.1322 10.3197 28.2114 16.6763C27.3147 17.3979 26.4525 18.1195 25.6362 18.8525H26.1421C26.2915 18.7379 26.4295 18.612 26.5789 18.486C34.9136 11.8086 44.0185 7.92595 50.2035 7.92595C50.4104 7.92595 50.6173 7.9374 50.8243 7.94886Z" fill="#0C2074"/>
<path id="Vector_3" d="M57.5612 7.67636C56.6875 6.783 55.4459 6.25615 53.9629 6.01562C54.0627 6.88648 54.1164 7.76197 54.1238 8.63845C54.818 8.9226 55.4475 9.34331 55.9747 9.87541C57.1013 11.0208 57.6072 12.5899 57.4922 14.5484C57.4117 15.877 57.0439 17.3316 56.4231 18.8663H56.7565C58.1015 16.4267 58.8947 14.1361 59.0212 12.1432C59.1247 10.2648 58.6303 8.76444 57.5612 7.67636Z" fill="#0C2074"/>
<path id="Vector_4" d="M52.5601 2.55755C52.0198 0.965534 51.2266 0.152344 50.2034 0.152344H50.1919C48.318 0.152344 45.9843 2.90116 43.6621 7.64286C44.0645 7.49396 44.4668 7.35652 44.8577 7.21908C46.4787 4.50463 48.0191 2.90116 49.1343 2.90116H49.2377C49.8585 2.95842 50.3184 3.554 50.5828 4.67643C51.2725 7.56268 50.5138 13.2207 48.8239 19.1879C50.1229 19.268 51.2611 19.5887 52.2152 20.127C53.5143 12.6938 53.7442 6.02793 52.5601 2.55755Z" fill="#0075C9"/>
<path id="Vector_5" d="M42.3745 10.4853C41.8456 11.7337 41.3283 13.0738 40.811 14.5169C40.3052 15.9371 39.8338 17.3917 39.397 18.8577H39.8913C40.5908 16.6024 41.4081 14.385 42.34 12.2147C42.6504 11.5046 42.9608 10.8403 43.2712 10.1875C42.9723 10.2791 42.6734 10.3708 42.3745 10.4853Z" fill="#0075C9"/>
<path id="Vector_6" d="M69.5515 31.4898C69.7436 31.669 69.8564 31.9169 69.865 32.1789C69.8736 32.441 69.7774 32.6957 69.5975 32.8871C69.5085 32.9818 69.4015 33.0582 69.2828 33.1118C69.1641 33.1653 69.036 33.1951 68.9058 33.1994C68.6428 33.208 68.3871 33.1121 68.195 32.9329L68.149 32.8871C68.0121 32.7494 67.9188 32.5747 67.8807 32.3846C67.8427 32.1945 67.8616 31.9975 67.9352 31.818C68.0087 31.6386 68.1335 31.4846 68.2942 31.3754C68.4549 31.2661 68.6443 31.2063 68.8388 31.2034C69.1044 31.2046 69.3594 31.3071 69.5515 31.4898ZM69.6665 31.3752C69.4787 31.1862 69.2307 31.0681 68.9652 31.0411C68.6996 31.0141 68.4328 31.0798 68.2105 31.227C67.9882 31.3743 67.8241 31.5939 67.7463 31.8483C67.6685 32.1027 67.6818 32.3762 67.784 32.6219C67.8862 32.8676 68.0709 33.0703 68.3065 33.1954C68.5421 33.3205 68.814 33.3601 69.0757 33.3076C69.3374 33.255 69.5726 33.1136 69.7412 32.9073C69.9098 32.7011 70.0012 32.4429 69.9999 32.177C69.9954 31.8772 69.8761 31.5904 69.6665 31.3752ZM69.0227 32.1311C68.9567 32.1556 68.8856 32.1635 68.8158 32.1541H68.6204V31.6959H68.8158C68.9064 31.6877 68.9977 31.7035 69.0802 31.7417C69.1087 31.7624 69.1312 31.7903 69.1453 31.8225C69.1595 31.8547 69.1648 31.8901 69.1607 31.925C69.1635 31.9697 69.1516 32.014 69.1267 32.0513C69.1017 32.0885 69.0652 32.1166 69.0227 32.1311ZM68.3904 32.8069H68.6089V32.3144H68.7813C68.8682 32.3072 68.9554 32.323 69.0342 32.3602C69.0766 32.394 69.1095 32.4381 69.1296 32.4883C69.1498 32.5385 69.1565 32.593 69.1492 32.6465V32.8183H69.3561L69.3446 32.8069C69.3352 32.7853 69.3313 32.7617 69.3331 32.7382V32.5549C69.333 32.4841 69.3087 32.4154 69.2641 32.3602C69.2378 32.3259 69.205 32.2972 69.1675 32.2755C69.13 32.2539 69.0886 32.2399 69.0457 32.2342C69.1102 32.2274 69.1727 32.2079 69.2297 32.177C69.2696 32.1482 69.3019 32.1103 69.3239 32.0664C69.3459 32.0226 69.357 31.974 69.3561 31.925C69.3608 31.858 69.3446 31.7911 69.3096 31.7337C69.2746 31.6762 69.2225 31.631 69.1607 31.6043C69.0486 31.5722 68.9324 31.5568 68.8158 31.5585H68.3789L68.3904 32.8069Z" fill="black"/>
</g>
</svg>
