<svg width="107" height="29" viewBox="0 0 107 29" fill="none" xmlns="http://www.w3.org/2000/svg">
<path d="M5.35245 6H0.0420925L0 6.15299C4.1314 6.76163 6.86499 8.23248 8 10L6.8453 6.621C6.64601 6.15539 6.06783 6.01641 5.35257 6.00019" fill="#F2AE14"/>
<path d="M16.25 23.135L19.1578 6.07149H23.8088L20.8988 23.135H16.25ZM37.7024 6.43933C36.7811 6.09363 35.3371 5.72266 33.534 5.72266C28.9381 5.72266 25.701 8.03699 25.6733 11.3539C25.6474 13.8058 27.9845 15.1737 29.7487 15.9898C31.5592 16.8264 32.1677 17.3597 32.159 18.1065C32.1474 19.2503 30.7132 19.7726 29.3763 19.7726C27.5149 19.7726 26.5259 19.514 24.9984 18.8772L24.3989 18.606L23.7463 22.4258C24.8326 22.9023 26.8413 23.3148 28.9272 23.3362C33.8163 23.3362 36.9902 21.0483 37.0263 17.5062C37.0436 15.565 35.8046 14.0879 33.1212 12.87C31.4956 12.0806 30.4999 11.5539 30.5105 10.7546C30.5105 10.0453 31.3532 9.28686 33.1743 9.28686C34.695 9.26324 35.7969 9.5949 36.6553 9.9406L37.0721 10.1375L37.7024 6.43933ZM49.6711 6.07123H46.0772C44.964 6.07123 44.1307 6.37509 43.6418 7.48628L36.7344 23.1238H41.6184C41.6184 23.1238 42.4167 21.0213 42.5973 20.5596C43.131 20.5596 47.8756 20.5669 48.5539 20.5669C48.693 21.1643 49.1198 23.1238 49.1198 23.1238H53.4355L49.6711 6.07071V6.07123ZM43.969 17.0898C44.3537 16.1067 45.8221 12.3198 45.8221 12.3198C45.7947 12.3652 46.204 11.3319 46.4387 10.6912L46.753 12.1624C46.753 12.1624 47.6436 16.2355 47.8298 17.0896H43.969V17.0898ZM12.3017 6.07123L7.74822 17.7079L7.26315 15.3431C6.41537 12.6171 3.77434 9.66368 0.821777 8.18509L4.98542 23.1079L9.90636 23.1024L17.2286 6.07106L12.3017 6.07097" fill="#0E4595"/>
<g clip-path="url(#clip0_4872_4395)">
<path d="M74.2535 28.9363V27.0094C74.2535 26.2705 73.7847 25.7889 73.0152 25.7889C72.6111 25.7889 72.1787 25.9177 71.8772 26.3317C71.6428 25.9781 71.3114 25.7889 70.8062 25.7889C70.6184 25.7811 70.4315 25.8182 70.2622 25.8966C70.093 25.9751 69.9466 26.0926 69.8363 26.2387V25.851H69.2002V28.934H69.8363V27.1699C69.8363 26.6271 70.1709 26.3674 70.6397 26.3674C71.1085 26.3674 71.3761 26.6566 71.3761 27.1699V28.9363H72.0122V27.1699C72.0122 26.6271 72.3468 26.3674 72.8156 26.3674C73.2844 26.3674 73.5519 26.6566 73.5519 27.1699V28.9363H74.2535ZM84.698 25.8851H83.526V24.9546H82.8915V25.8851H82.2223V26.4279H82.8915V27.8763C82.8915 28.5827 83.1591 29.0006 83.9625 29.0006C84.2669 28.9946 84.5651 28.9174 84.8314 28.7758L84.6301 28.233C84.4495 28.3413 84.2401 28.397 84.0272 28.3935C83.6925 28.3935 83.5252 28.2004 83.5252 27.8794V26.4031H84.6972V25.889L84.698 25.8851ZM90.6566 25.7889C90.4834 25.7852 90.3121 25.8247 90.1595 25.9036C90.0069 25.9824 89.8782 26.0979 89.7861 26.2387V25.851H89.15V28.934H89.7861V27.2025C89.7861 26.6884 90.0536 26.3674 90.4893 26.3674C90.6363 26.3731 90.7822 26.3947 90.9242 26.4317L91.1254 25.8533C90.9719 25.8162 90.8148 25.7946 90.6566 25.7889ZM81.6516 26.11C81.317 25.8851 80.8482 25.7889 80.3463 25.7889C79.5429 25.7889 79.0409 26.1425 79.0409 26.7528C79.0409 27.2669 79.4095 27.5553 80.1119 27.6522L80.4465 27.684C80.8151 27.7484 81.0495 27.8771 81.0495 28.0376C81.0495 28.2625 80.7819 28.4253 80.2792 28.4253C79.8953 28.4329 79.5193 28.3202 79.2082 28.1043L78.8736 28.5858C79.3424 28.9068 79.9114 28.9735 80.2477 28.9735C81.1853 28.9735 81.6872 28.5563 81.6872 27.9779C81.6872 27.4351 81.2831 27.1754 80.5823 27.0784L80.2477 27.0466C79.9462 27.0148 79.6819 26.9179 79.6819 26.7256C79.6819 26.5008 79.9494 26.3379 80.318 26.3379C80.7221 26.3379 81.1214 26.4984 81.3227 26.5946L81.6516 26.11ZM91.3598 27.3948C91.3598 28.3253 91.9959 29.0006 93.0337 29.0006C93.5025 29.0006 93.8372 28.9045 94.1718 28.6471L93.8372 28.1655C93.6002 28.3496 93.3055 28.4515 93.0006 28.4548C92.4348 28.4548 91.9959 28.0376 91.9959 27.4274C91.9959 26.8171 92.4292 26.4031 93.0006 26.4031C93.3055 26.4063 93.6002 26.5082 93.8372 26.6923L94.1718 26.2108C93.8372 25.9541 93.5025 25.8572 93.0337 25.8572C92.0291 25.7928 91.3598 26.4674 91.3598 27.3987V27.3948ZM86.8739 25.7889C85.9363 25.7889 85.3002 26.431 85.3002 27.3948C85.3002 28.3586 85.9694 29.0006 86.9402 29.0006C87.4124 29.0102 87.8736 28.8628 88.2455 28.5835L87.9109 28.1337C87.6419 28.3337 87.3135 28.4462 86.9733 28.4548C86.5385 28.4548 86.0697 28.1981 86.0034 27.6522H88.3805V27.3956C88.3805 26.4317 87.7775 25.7897 86.8739 25.7897V25.7889ZM86.8408 26.3674C87.3096 26.3674 87.6442 26.6566 87.6773 27.1381H85.9371C86.0373 26.6884 86.3412 26.3674 86.8408 26.3674ZM78.1704 27.3948V25.8533H77.5343V26.241C77.2999 25.9518 76.9685 25.7913 76.4965 25.7913C75.5928 25.7913 74.9228 26.4659 74.9228 27.3971C74.9228 28.3284 75.592 29.003 76.4965 29.003C76.9653 29.003 77.2999 28.8425 77.5343 28.5532V28.9409H78.1704V27.3948ZM75.5928 27.3948C75.5928 26.8163 75.9614 26.3674 76.5975 26.3674C77.2005 26.3674 77.5674 26.8171 77.5674 27.3948C77.5674 28.005 77.1633 28.4222 76.5975 28.4222C75.9614 28.454 75.5928 27.9725 75.5928 27.3948ZM100.332 25.7889C100.159 25.7852 99.9879 25.8247 99.8353 25.9036C99.6827 25.9824 99.5541 26.0979 99.4619 26.2387V25.851H98.8258V28.934H99.4611V27.2025C99.4611 26.6884 99.7287 26.3674 100.164 26.3674C100.311 26.3731 100.457 26.3947 100.599 26.4317L100.8 25.8533C100.647 25.8162 100.49 25.7946 100.332 25.7889H100.332ZM97.8551 27.3948V25.8533H97.219V26.241C96.9846 25.9518 96.6532 25.7913 96.1812 25.7913C95.2775 25.7913 94.6075 26.4659 94.6075 27.3971C94.6075 28.3284 95.2767 29.003 96.1812 29.003C96.65 29.003 96.9846 28.8425 97.219 28.5532V28.9409H97.8551V27.3948ZM95.2775 27.3948C95.2775 26.8163 95.6461 26.3674 96.2822 26.3674C96.8852 26.3674 97.2521 26.8171 97.2521 27.3948C97.2521 28.005 96.848 28.4222 96.2822 28.4222C95.6461 28.454 95.2775 27.9725 95.2775 27.3948ZM104.316 27.3948V24.6328H103.68V26.2387C103.446 25.9494 103.115 25.7889 102.643 25.7889C101.739 25.7889 101.069 26.4635 101.069 27.3948C101.069 28.326 101.738 29.0006 102.643 29.0006C103.111 29.0006 103.446 28.8401 103.68 28.5509V28.9386H104.316V27.3948ZM101.739 27.3948C101.739 26.8163 102.107 26.3674 102.744 26.3674C103.347 26.3674 103.713 26.8171 103.713 27.3948C103.713 28.005 103.309 28.4222 102.744 28.4222C102.107 28.4548 101.738 27.9732 101.738 27.3948H101.739Z" fill="black"/>
<path d="M80.915 2.47266H92.5315V20.6496H80.915V2.47266Z" fill="#FF5F00"/>
<path d="M82.0867 11.5612C82.0871 9.8126 82.4999 8.08671 83.2941 6.5128C84.0883 4.93888 85.2434 3.55773 86.6729 2.47276C84.8951 1.13187 82.76 0.29789 80.5115 0.0661533C78.263 -0.165584 75.9919 0.214274 73.9579 1.1623C71.9238 2.11033 70.2088 3.58828 69.009 5.42719C67.8091 7.26611 67.1729 9.39179 67.1729 11.5612C67.1729 13.7307 67.8091 15.8564 69.009 17.6953C70.2088 19.5342 71.9238 21.0121 73.9579 21.9602C75.9919 22.9082 78.263 23.2881 80.5115 23.0563C82.76 22.8246 84.8951 21.9906 86.6729 20.6497C85.2434 19.5647 84.0883 18.1836 83.2941 16.6097C82.4999 15.0358 82.0871 13.3099 82.0867 11.5612Z" fill="#EB001B"/>
<path d="M106.191 11.5619C106.193 13.7298 105.559 15.8543 104.361 17.6925C103.163 19.5308 101.45 21.0085 99.4176 21.9566C97.3854 22.9048 95.1161 23.2851 92.8692 23.0541C90.6223 22.8231 88.4885 21.9901 86.7119 20.6504C88.1417 19.5657 89.2971 18.1846 90.0913 16.6106C90.8856 15.0366 91.2982 13.3106 91.2982 11.5619C91.2982 9.81317 90.8856 8.08714 90.0913 6.51316C89.2971 4.93919 88.1417 3.5581 86.7119 2.47341C88.4885 1.13368 90.6223 0.300673 92.8692 0.0696696C95.1161 -0.161333 97.3854 0.218991 99.4176 1.16714C101.45 2.1153 103.163 3.59299 104.361 5.43123C105.559 7.26946 106.193 9.39401 106.191 11.5619Z" fill="#F79E1B"/>
</g>
<defs>
<clipPath id="clip0_4872_4395">
<rect width="39" height="29" fill="white" transform="translate(67.1885)"/>
</clipPath>
</defs>
</svg>
