<?xml version="1.0" standalone="no"?>
<!DOCTYPE svg PUBLIC "-//W3C//DTD SVG 20010904//EN"
 "http://www.w3.org/TR/2001/REC-SVG-20010904/DTD/svg10.dtd">
<svg version="1.0" xmlns="http://www.w3.org/2000/svg"
 width="618.000000pt" height="437.000000pt" viewBox="0 0 618.000000 437.000000"
 preserveAspectRatio="xMidYMid meet">

<g transform="translate(0.000000,437.000000) scale(0.100000,-0.100000)"
fill="oklch(.89 .24 83)" stroke="none">
<path d="M4070 3730 l0 -480 85 0 85 0 0 179 0 179 148 4 c126 4 155 8 200 28
105 46 158 144 150 279 -7 121 -69 217 -167 259 -33 14 -252 30 -438 31 l-63
1 0 -480z m368 320 c26 -6 60 -22 75 -35 52 -49 60 -144 15 -200 -33 -43 -76
-55 -188 -55 l-100 0 0 150 0 150 75 0 c40 0 96 -5 123 -10z"/>
<path d="M5158 3905 c-57 -21 -89 -46 -120 -94 l-28 -45 0 68 0 68 -77 -7
c-43 -4 -78 -8 -79 -9 0 0 2 -144 4 -318 l4 -318 79 0 79 0 0 183 c0 156 3
188 19 223 28 61 69 85 184 109 27 5 27 7 27 80 l0 75 -27 -1 c-16 0 -44 -6
-65 -14z"/>
<path d="M5587 3910 c-157 -27 -263 -148 -275 -311 -10 -143 57 -273 171 -329
194 -95 425 -7 482 183 19 65 19 179 0 244 -45 152 -207 243 -378 213z m129
-149 c80 -36 119 -138 95 -245 -28 -124 -140 -181 -242 -124 -100 56 -120 239
-37 333 47 55 114 68 184 36z"/>
<path d="M1065 3883 c-198 -27 -365 -157 -440 -342 -37 -89 -45 -199 -45 -606
0 -402 -7 -469 -54 -550 -41 -69 -90 -91 -223 -102 l-83 -6 0 -148 0 -149 53
0 c69 0 163 -23 196 -47 36 -27 68 -77 88 -137 14 -44 18 -121 23 -531 6 -441
8 -486 27 -557 28 -102 77 -191 143 -259 114 -116 225 -159 428 -167 l132 -5
0 136 0 135 -86 7 c-158 14 -237 82 -263 228 -6 36 -12 250 -15 517 -3 430 -5
459 -25 527 -37 123 -124 227 -234 278 l-47 22 65 32 c75 37 153 109 184 169
46 89 52 151 52 510 0 503 12 613 79 694 44 53 103 78 204 85 l87 6 -3 131 -3
131 -105 1 c-58 1 -118 -1 -135 -3z"/>
<path d="M2475 3549 c-93 -15 -229 -60 -310 -101 -112 -58 -246 -192 -298
-299 -61 -125 -80 -221 -74 -369 10 -248 89 -396 278 -520 114 -75 223 -117
475 -185 239 -63 316 -97 372 -160 96 -109 81 -273 -34 -374 -136 -119 -342
-134 -594 -42 -81 30 -222 101 -289 147 -19 13 -38 21 -43 18 -10 -6 -248
-340 -248 -348 0 -12 150 -110 230 -151 104 -52 278 -109 397 -130 127 -23
331 -30 437 -16 48 7 90 10 93 8 8 -9 -308 -295 -451 -408 -79 -63 -145 -119
-145 -124 -1 -6 43 -58 97 -115 l99 -104 98 89 c288 263 346 319 432 414 182
200 310 382 408 577 89 176 109 254 110 429 0 121 -3 150 -23 210 -65 193
-199 329 -421 425 -95 41 -167 64 -404 129 -81 23 -173 54 -205 70 -111 56
-162 131 -162 236 0 76 24 128 82 182 66 60 149 84 293 84 164 0 209 -14 581
-177 6 -3 27 31 48 76 49 107 126 296 126 309 0 15 -124 86 -214 121 -219 88
-549 132 -741 99z"/>
<path d="M4228 2623 c3 -273 15 -369 57 -457 29 -60 100 -131 177 -175 l48
-27 -54 -23 c-95 -39 -180 -151 -206 -272 -8 -33 -15 -214 -20 -464 -8 -478
-11 -497 -90 -576 -52 -52 -104 -69 -207 -69 -46 0 -54 -3 -49 -16 3 -9 6 -72
6 -140 l0 -124 93 0 c115 0 213 21 297 61 89 44 203 160 248 253 55 113 62
176 62 559 0 369 7 443 47 525 42 88 102 117 253 124 l55 3 0 160 0 160 -90 7
c-208 18 -264 109 -265 430 0 174 -12 242 -45 264 -31 20 -162 43 -250 44
l-70 0 3 -247z"/>
</g>
</svg>
