<?xml version="1.0" standalone="no"?>
<!DOCTYPE svg PUBLIC "-//W3C//DTD SVG 20010904//EN"
 "http://www.w3.org/TR/2001/REC-SVG-20010904/DTD/svg10.dtd">
<svg version="1.0" xmlns="http://www.w3.org/2000/svg"
 width="511.000000pt" height="418.000000pt" viewBox="0 0 511.000000 418.000000"
 preserveAspectRatio="xMidYMid meet">

<g transform="translate(0.000000,418.000000) scale(0.100000,-0.100000)"
fill="oklch(.89 .24 83)" stroke="none">
<path d="M1045 3883 c-198 -27 -365 -157 -440 -342 -37 -89 -45 -199 -45 -606
0 -402 -7 -469 -54 -550 -41 -69 -90 -91 -223 -102 l-83 -6 0 -148 0 -149 53
0 c69 0 163 -23 196 -47 36 -27 68 -77 88 -137 14 -44 18 -121 23 -531 6 -441
8 -486 27 -557 28 -102 77 -191 143 -259 114 -116 225 -159 428 -167 l132 -5
0 136 0 135 -86 7 c-158 14 -237 82 -263 228 -6 36 -12 250 -15 517 -3 430 -5
459 -25 527 -37 123 -124 227 -234 278 l-47 22 65 32 c75 37 153 109 184 169
46 89 52 151 52 510 0 503 12 613 79 694 44 53 103 78 204 85 l87 6 -3 131 -3
131 -105 1 c-58 1 -118 -1 -135 -3z"/>
<path d="M3860 3747 l0 -135 86 -7 c158 -14 237 -82 263 -228 6 -36 12 -250
15 -517 3 -430 5 -459 25 -527 37 -123 124 -227 234 -278 l47 -22 -65 -32
c-75 -37 -153 -109 -184 -169 -46 -89 -52 -151 -52 -510 0 -503 -12 -613 -79
-694 -44 -53 -103 -78 -204 -85 l-87 -6 3 -131 3 -131 130 1 c136 1 206 14
290 56 111 56 211 166 260 287 37 89 45 199 45 606 0 402 7 469 54 550 41 69
90 91 223 102 l83 6 0 148 0 149 -52 0 c-70 0 -164 23 -197 47 -36 27 -68 77
-88 137 -14 44 -18 121 -23 531 -6 441 -8 486 -27 557 -28 102 -77 191 -143
259 -114 116 -225 159 -427 167 l-133 5 0 -136z"/>
<path d="M2455 3549 c-93 -15 -229 -60 -310 -101 -112 -58 -246 -192 -298
-299 -61 -125 -80 -221 -74 -369 10 -248 89 -396 278 -520 114 -75 223 -117
475 -185 239 -63 316 -97 372 -160 96 -109 81 -273 -34 -374 -136 -119 -342
-134 -594 -42 -81 30 -222 101 -289 147 -19 13 -38 21 -43 18 -10 -6 -248
-340 -248 -348 0 -12 150 -110 230 -151 104 -52 278 -109 397 -130 127 -23
331 -30 437 -16 48 7 90 10 93 8 8 -9 -308 -295 -451 -408 -79 -63 -145 -119
-145 -124 -1 -6 43 -58 97 -115 l99 -104 98 89 c288 263 346 319 432 414 182
200 310 382 408 577 89 176 109 254 110 429 0 121 -3 150 -23 210 -65 193
-199 329 -421 425 -95 41 -167 64 -404 129 -81 23 -173 54 -205 70 -111 56
-162 131 -162 236 0 76 24 128 82 182 66 60 149 84 293 84 164 0 209 -14 581
-177 6 -3 27 31 48 76 49 107 126 296 126 309 0 15 -124 86 -214 121 -219 88
-549 132 -741 99z"/>
</g>
</svg>
