<svg width="344" height="320" viewBox="0 0 344 320" fill="none" xmlns="http://www.w3.org/2000/svg">
<path opacity="0.11" d="M183.287 320C271.653 320 343.287 248.366 343.287 160C343.287 71.6344 271.653 0 183.287 0C94.9216 0 23.2871 71.6344 23.2871 160C23.2871 248.366 94.9216 320 183.287 320Z" fill="#FFB70A"/>
<path opacity="0.25" d="M183.287 292.666C256.557 292.666 315.954 233.269 315.954 159.999C315.954 86.7291 256.557 27.332 183.287 27.332C110.017 27.332 50.6201 86.7291 50.6201 159.999C50.6201 233.269 110.017 292.666 183.287 292.666Z" fill="#FFB70A"/>
<path fill-rule="evenodd" clip-rule="evenodd" d="M153.681 61.4538C153.681 43.8483 169.016 29.5762 187.933 29.5762C206.851 29.5762 222.186 43.8483 222.186 61.4538C222.186 78.9214 211.254 99.3044 194.197 106.594C190.221 108.293 185.646 108.293 181.67 106.594C164.613 99.3044 153.681 78.9214 153.681 61.4538ZM187.933 73.6153C193.338 73.6153 197.72 69.2337 197.72 63.8288C197.72 58.4239 193.338 54.0424 187.933 54.0424C182.528 54.0424 178.147 58.4239 178.147 63.8288C178.147 69.2337 182.528 73.6153 187.933 73.6153Z" fill="#CE9407"/>
<circle cx="188.205" cy="63.559" r="10.602" fill="white"/>
<path fill-rule="evenodd" clip-rule="evenodd" d="M161.77 61.4538C161.77 43.8483 176.044 29.5762 193.653 29.5762C211.262 29.5762 225.537 43.8483 225.537 61.4538C225.537 78.9214 215.361 99.3044 199.484 106.594C195.782 108.293 191.524 108.293 187.823 106.594C171.946 99.3044 161.77 78.9214 161.77 61.4538ZM193.653 73.6153C198.684 73.6153 202.763 69.2337 202.763 63.8288C202.763 58.4239 198.684 54.0424 193.653 54.0424C188.622 54.0424 184.544 58.4239 184.544 63.8288C184.544 69.2337 188.622 73.6153 193.653 73.6153Z" fill="#FFB70A"/>
<circle cx="192.568" cy="63.9304" r="10.6608" fill="white"/>
<g clip-path="url(#clip0_4788_12197)">
<path d="M318.717 196.696V247.181L192.744 246.008L189.537 245.975L70.5547 244.869V115.479L194.175 117.325L197.937 117.37L225.191 117.779C232.338 117.779 239.029 120.676 243.113 125.542L278.668 167.965L304.491 178.084C313.191 181.49 318.728 188.734 318.728 196.696H318.717Z" fill="#72B62F"/>
<path d="M318.717 230.725V247.192L70.5547 244.88V230.725H318.717Z" fill="#43790D"/>
<path d="M111.758 265.792C123.139 265.792 132.365 256.597 132.365 245.255C132.365 233.913 123.139 224.719 111.758 224.719C100.377 224.719 91.1509 233.913 91.1509 245.255C91.1509 256.597 100.377 265.792 111.758 265.792Z" fill="#43790D"/>
<path d="M111.758 255.352C117.354 255.352 121.89 250.831 121.89 245.255C121.89 239.679 117.354 235.158 111.758 235.158C106.163 235.158 101.626 239.679 101.626 245.255C101.626 250.831 106.163 255.352 111.758 255.352Z" fill="#ECECEC"/>
<path d="M116.363 245.256C116.363 242.723 114.299 240.666 111.758 240.666C109.217 240.666 107.153 242.723 107.153 245.256C107.153 247.788 109.217 249.845 111.758 249.845C114.299 249.845 116.363 247.788 116.363 245.256Z" fill="white"/>
<path d="M267.238 265.792C278.619 265.792 287.845 256.597 287.845 245.255C287.845 233.913 278.619 224.719 267.238 224.719C255.857 224.719 246.631 233.913 246.631 245.255C246.631 256.597 255.857 265.792 267.238 265.792Z" fill="#43790D"/>
<path d="M267.238 255.352C272.834 255.352 277.37 250.831 277.37 245.255C277.37 239.679 272.834 235.158 267.238 235.158C261.643 235.158 257.106 239.679 257.106 245.255C257.106 250.831 261.643 255.352 267.238 255.352Z" fill="#ECECEC"/>
<path d="M271.843 245.256C271.843 242.723 269.779 240.666 267.238 240.666C264.697 240.666 262.633 242.723 262.633 245.256C262.633 247.788 264.697 249.845 267.238 249.845C269.779 249.845 271.843 247.788 271.843 245.256Z" fill="white"/>
<path d="M73.5619 214.877H70.255C68.8945 214.877 67.7915 215.976 67.7915 217.332V220.628C67.7915 221.984 68.8945 223.083 70.255 223.083H73.5619C74.9225 223.083 76.0255 221.984 76.0255 220.628V217.332C76.0255 215.976 74.9225 214.877 73.5619 214.877Z" fill="white"/>
<path d="M318.928 218.271H312.613C311.253 218.271 310.15 219.371 310.15 220.727V224.022C310.15 225.378 311.253 226.477 312.613 226.477H318.928C320.288 226.477 321.391 225.378 321.391 224.022V220.727C321.391 219.371 320.288 218.271 318.928 218.271Z" fill="white"/>
<path d="M73.5619 124.592H70.255C68.8945 124.592 67.7915 125.691 67.7915 127.047V130.342C67.7915 131.698 68.8945 132.798 70.255 132.798H73.5619C74.9225 132.798 76.0255 131.698 76.0255 130.342V127.047C76.0255 125.691 74.9225 124.592 73.5619 124.592Z" fill="#43790D"/>
<path d="M73.5619 202.502H70.255C68.8945 202.502 67.7915 203.601 67.7915 204.957V208.253C67.7915 209.609 68.8945 210.708 70.255 210.708H73.5619C74.9225 210.708 76.0255 209.609 76.0255 208.253V204.957C76.0255 203.601 74.9225 202.502 73.5619 202.502Z" fill="#43790D"/>
<path opacity="0.65" d="M269.158 171.105H203.441V126.791H229.02C230.119 126.791 231.594 127.51 233.337 128.782C235.279 130.186 237.542 132.265 239.951 134.765C243.035 137.927 246.387 141.754 249.683 145.746C250.959 147.272 252.224 148.81 253.444 150.358C254.01 151.066 254.565 151.762 255.109 152.459C262.855 162.257 269.158 171.116 269.158 171.116V171.105Z" fill="white"/>
<path d="M214.205 185.625H209.2C207.975 185.625 206.981 186.615 206.981 187.837V188.124C206.981 189.346 207.975 190.336 209.2 190.336H214.205C215.431 190.336 216.424 189.346 216.424 188.124V187.837C216.424 186.615 215.431 185.625 214.205 185.625Z" fill="#43790D"/>
<path d="M309.007 206.605C309.007 208.872 307.165 210.708 304.89 210.708C302.615 210.708 300.773 208.872 300.773 206.605C300.773 204.338 302.615 202.502 304.89 202.502C307.165 202.502 309.007 204.338 309.007 206.605Z" fill="white"/>
<path d="M197.937 117.381L192.744 246.02L189.537 245.987L194.175 117.326L197.937 117.381Z" fill="#43790D"/>
<path d="M233.337 128.782L208.579 171.105H203.441V167.864L227.511 126.791H229.009C230.107 126.791 231.583 127.51 233.326 128.782H233.337Z" fill="white"/>
<path d="M249.683 145.736L234.002 171.105H218.822L239.962 134.754C243.047 137.917 246.398 141.743 249.694 145.736H249.683Z" fill="white"/>
<path d="M255.109 152.449L242.359 171.105H241.438L253.433 150.348C253.999 151.055 254.554 151.752 255.098 152.449H255.109Z" fill="white"/>
<path d="M56.8168 196.275H33.735C32.5093 196.275 31.5156 197.266 31.5156 198.487V198.786C31.5156 200.007 32.5093 200.998 33.735 200.998H56.8168C58.0425 200.998 59.0362 200.007 59.0362 198.786V198.487C59.0362 197.266 58.0425 196.275 56.8168 196.275Z" fill="#72B62F"/>
<path d="M56.8168 155.734H33.735C32.5093 155.734 31.5156 156.725 31.5156 157.946V158.245C31.5156 159.466 32.5093 160.457 33.735 160.457H56.8168C58.0425 160.457 59.0362 159.466 59.0362 158.245V157.946C59.0362 156.725 58.0425 155.734 56.8168 155.734Z" fill="#72B62F"/>
<path d="M53.6649 169.502H6.91325C5.68751 169.502 4.69385 170.492 4.69385 171.714V172.012C4.69385 173.234 5.68751 174.224 6.91325 174.224H53.6649C54.8906 174.224 55.8843 173.234 55.8843 172.012V171.714C55.8843 170.492 54.8906 169.502 53.6649 169.502Z" fill="#72B62F"/>
<path d="M37.1306 183.26H2.2194C0.993659 183.26 0 184.25 0 185.472V185.77C0 186.992 0.993659 187.982 2.2194 187.982H37.1306C38.3563 187.982 39.35 186.992 39.35 185.77V185.472C39.35 184.25 38.3563 183.26 37.1306 183.26Z" fill="#72B62F"/>
</g>
<defs>
<clipPath id="clip0_4788_12197">
<rect width="321.391" height="158.609" fill="white" transform="translate(0 115.479)"/>
</clipPath>
</defs>
</svg>
