<svg xmlns="http://www.w3.org/2000/svg" xmlns:xlink="http://www.w3.org/1999/xlink" width="1608" height="875" viewBox="0 0 1608 875">
  <defs>
    <clipPath id="clip-path">
      <rect id="Rectangle_5848" data-name="Rectangle 5848" width="1608" height="875" rx="7" transform="translate(296 85)" fill="#fff"/>
    </clipPath>
  </defs>
  <g id="Mask_Group_11" data-name="Mask Group 11" transform="translate(-296 -85)" clip-path="url(#clip-path)">
    <g id="Fleco" transform="translate(-242.83 -1776)">
      <path id="Path_5644" data-name="Path 5644" d="M-9740.976,820c-233.266,268.16-657.855,632.718-657.855,632.718s-447.908,475.778-231.405,813.022c354.342,551.955,592.84,248.72,507.662,909.7s541.733,453.148,579.212,643.947-821.117,429.3-834.746,947.181-374.783,613.283-136.285,1267.451,899.482,814.3,776.825,1069.838-848.375,160.135-776.825,477" transform="translate(11148 160)" fill="none" stroke="#eff7ff" stroke-width="6" opacity="0"/>
      <path id="Path_5645" data-name="Path 5645" d="M-10030.582,820c91.993,682.543-640.54,1019.848-395.227,1265.162s-388.412,776.825-187.392,1253.823,589.434,538.326,609.876,902.889-170.356,712.089,265.756,998.288-735.94,626.912-763.2,1073.245,596.248,432.7,718.9,712.089-136.285,582.619-136.285,582.619" transform="translate(11148 160)" fill="none" stroke="#eff7ff" stroke-width="6"/>
    </g>
  </g>
</svg>
