<svg xmlns="http://www.w3.org/2000/svg" width="233.459" height="256.555" viewBox="0 0 233.459 256.555">
  <g id="Listas_vacías" data-name="Listas vacías" transform="translate(-995.658 -274.236)">
    <g id="Group_11282" data-name="Group 11282" transform="translate(1023.015 319.254)" opacity="0.2">
      <circle id="Ellipse_1044" data-name="Ellipse 1044" cx="99.627" cy="99.627" r="99.627" transform="translate(0.993 0.992)" fill="#4abaec"/>
      <path id="Path_7345" data-name="Path 7345" d="M467.437,411.911A100.619,100.619,0,1,1,568.056,311.292,100.734,100.734,0,0,1,467.437,411.911Zm0-199.254a98.635,98.635,0,1,0,98.635,98.635A98.748,98.748,0,0,0,467.437,212.657Z" transform="translate(-366.818 -210.673)" fill="#4abaec"/>
    </g>
    <g id="Group_11283" data-name="Group 11283" transform="translate(1055.234 409.14)">
      <rect id="Rectangle_5846" data-name="Rectangle 5846" width="125.884" height="57.496" rx="5" transform="translate(0.991 0.992)" fill="#18244e"/>
      <path id="Path_7346" data-name="Path 7346" d="M502.46,315.458H391.521a8.473,8.473,0,0,1-8.464-8.464V264.441a8.473,8.473,0,0,1,8.464-8.464H502.46a8.473,8.473,0,0,1,8.464,8.464v42.553A8.473,8.473,0,0,1,502.46,315.458Zm-110.938-57.5a6.487,6.487,0,0,0-6.48,6.48v42.553a6.487,6.487,0,0,0,6.48,6.48H502.46a6.487,6.487,0,0,0,6.48-6.48V264.441a6.487,6.487,0,0,0-6.48-6.48Z" transform="translate(-383.057 -255.977)" fill="#18244e"/>
    </g>
    <g id="Group_11288" data-name="Group 11288" transform="translate(1009.37 333.1)">
      <g id="Group_11284" data-name="Group 11284" transform="translate(0 0.022)">
        <path id="Path_7347" data-name="Path 7347" d="M411.774,227.562l14.071,44.567a3.192,3.192,0,0,1-2.083,4.006l-41.721,13.174a3.193,3.193,0,0,1-4.006-2.083l-17.446-55.251a3.2,3.2,0,0,1,2.083-4.006l31.019-9.793a.262.262,0,0,1,.2.018l17.746,9.212A.266.266,0,0,1,411.774,227.562Z" transform="translate(-359.449 -217.171)" fill="#fff"/>
        <path id="Path_7348" data-name="Path 7348" d="M381.566,290.941a4.191,4.191,0,0,1-3.986-2.927l-17.444-55.251a4.189,4.189,0,0,1,2.73-5.25l31.019-9.793a1.267,1.267,0,0,1,.962.085l17.744,9.21a1.265,1.265,0,0,1,.621.742l14.071,44.563a4.191,4.191,0,0,1-2.732,5.252L382.83,290.745A4.2,4.2,0,0,1,381.566,290.941ZM394.2,219.7l-30.736,9.7a2.2,2.2,0,0,0-1.435,2.762l17.444,55.249a2.2,2.2,0,0,0,2.762,1.437l41.723-13.174a2.2,2.2,0,0,0,1.435-2.762l-13.982-44.279Zm17.121,8.649,0,0Zm-17.387-8.786,0,0Z" transform="translate(-359.941 -217.663)" fill="#18244e"/>
      </g>
      <g id="Group_11285" data-name="Group 11285" transform="translate(33.357)">
        <path id="Path_7349" data-name="Path 7349" d="M380.593,228.729l-3.341-10.577,17.944,9.315-10.6,3.345A3.19,3.19,0,0,1,380.593,228.729Z" transform="translate(-376.261 -217.16)" fill="#18244e"/>
        <path id="Path_7350" data-name="Path 7350" d="M384.124,232.447a4.191,4.191,0,0,1-3.986-2.927h0L376.8,218.942a.992.992,0,0,1,1.4-1.179l17.942,9.315a.991.991,0,0,1-.159,1.825l-10.6,3.347A4.2,4.2,0,0,1,384.124,232.447Zm-2.093-3.524a2.2,2.2,0,0,0,2.76,1.436l8.311-2.625-13.692-7.109Z" transform="translate(-376.753 -217.652)" fill="#18244e"/>
      </g>
      <g id="Group_11287" data-name="Group 11287" transform="translate(25.527 24.022)">
        <g id="Group_11286" data-name="Group 11286">
          <path id="Path_7351" data-name="Path 7351" d="M377.694,230.176c3.857-1.218,7.24.27,8.421,4.008,1.357,4.3-1.058,7-5.18,8.305l.8,2.823-2.325.734-1.587-4.613.853-.27c3.357-1.059,6.008-2.609,4.883-6.171a3.785,3.785,0,0,0-5.123-2.591c-2.413.764-3.478,2.621-2.754,4.917l-2.53.8C371.992,234.564,373.839,231.392,377.694,230.176Zm4.764,21.543a1.915,1.915,0,1,1,1.19-2.383A1.883,1.883,0,0,1,382.458,251.719Z" transform="translate(-372.806 -229.759)" fill="#18244e"/>
        </g>
      </g>
    </g>
    <g id="Group_11293" data-name="Group 11293" transform="translate(1123.281 333.099)">
      <g id="Group_11289" data-name="Group 11289">
        <path id="Path_7352" data-name="Path 7352" d="M487.593,250.868l-17.484,48.513a3.525,3.525,0,0,1-4.51,2.121l-45.416-16.369a3.523,3.523,0,0,1-2.121-4.508l21.676-60.144a3.522,3.522,0,0,1,4.508-2.121l33.767,12.17a.293.293,0,0,1,.167.153l9.4,19.958A.3.3,0,0,1,487.593,250.868Z" transform="translate(-416.86 -217.158)" fill="#fff"/>
        <path id="Path_7353" data-name="Path 7353" d="M467.29,303.2a4.51,4.51,0,0,1-1.534-.27l-45.418-16.369a4.512,4.512,0,0,1-2.716-5.778L439.3,220.637a4.513,4.513,0,0,1,5.776-2.716l33.767,12.168a1.288,1.288,0,0,1,.728.663l9.4,19.96a1.3,1.3,0,0,1,.048.986l-17.484,48.513a4.526,4.526,0,0,1-4.244,2.986Zm-23.744-83.56a2.538,2.538,0,0,0-2.383,1.673l-21.676,60.144a2.531,2.531,0,0,0,1.524,3.238l45.418,16.369a2.527,2.527,0,0,0,3.238-1.522L487.054,251.3,477.9,231.859l-33.5-12.071A2.483,2.483,0,0,0,443.547,219.637Zm43.628,31.92,0,0Z" transform="translate(-417.353 -217.651)" fill="#18244e"/>
      </g>
      <g id="Group_11290" data-name="Group 11290" transform="translate(55.916 12.422)">
        <path id="Path_7354" data-name="Path 7354" d="M446.245,235.926l4.151-11.514,9.506,20.18-11.536-4.157A3.525,3.525,0,0,1,446.245,235.926Z" transform="translate(-445.043 -223.419)" fill="#18244e"/>
        <path id="Path_7355" data-name="Path 7355" d="M460.392,246.076a.987.987,0,0,1-.335-.06l-11.535-4.157a4.512,4.512,0,0,1-2.716-5.778l4.151-11.516a.991.991,0,0,1,1.829-.085l9.506,20.18a.994.994,0,0,1-.9,1.415Zm-9.383-18.585-3.339,9.264h0a2.536,2.536,0,0,0,1.524,3.24l9.28,3.343Zm-4.272,8.926h0Z" transform="translate(-445.535 -223.912)" fill="#18244e"/>
      </g>
      <g id="Group_11292" data-name="Group 11292" transform="translate(30.482 30.776)">
        <g id="Group_11291" data-name="Group 11291">
          <path id="Path_7356" data-name="Path 7356" d="M444.36,233.735c4.2,1.512,6.169,5.083,4.7,9.153-1.686,4.678-5.615,5.434-10.1,3.817l-1.195,3.01-2.53-.913,1.7-5.109.928.335c3.653,1.315,7.016,1.732,8.413-2.145a4.177,4.177,0,0,0-2.76-5.7c-2.629-.946-4.805-.03-5.706,2.47l-2.756-.994C436.418,233.768,440.162,232.223,444.36,233.735Zm-10.242,22.087a2.112,2.112,0,1,1,2.639-1.294A2.079,2.079,0,0,1,434.118,255.822Z" transform="translate(-432.716 -233.163)" fill="#18244e"/>
        </g>
      </g>
    </g>
    <g id="Group_11297" data-name="Group 11297" transform="translate(995.658 402.301)">
      <g id="Group_11294" data-name="Group 11294" transform="translate(0 8.73)">
        <path id="Path_7357" data-name="Path 7357" d="M364.915,264.985h-7.857a4.028,4.028,0,1,1,0-8.055h7.857a4.028,4.028,0,0,1,0,8.055Z" transform="translate(-353.03 -256.93)" fill="#18244e"/>
      </g>
      <g id="Group_11295" data-name="Group 11295" transform="translate(3.413)">
        <path id="Path_7358" data-name="Path 7358" d="M362.9,263.244H354.75v-2.579a8.154,8.154,0,0,1,8.155-8.135,5.357,5.357,0,0,1,0,10.714Zm-6.171-1.984H362.9a3.373,3.373,0,0,0,0-6.746,6.167,6.167,0,0,0-6.171,6.151Z" transform="translate(-354.75 -252.53)" fill="#18244e"/>
      </g>
      <g id="Group_11296" data-name="Group 11296" transform="translate(3.413 14.801)">
        <path id="Path_7359" data-name="Path 7359" d="M362.9,270.724a8.164,8.164,0,0,1-8.155-8.155V259.99H362.9a5.317,5.317,0,0,1,3.786,1.589,5.4,5.4,0,0,1,1.571,3.788,5.4,5.4,0,0,1-5.357,5.357Zm-6.171-8.75v.6a6.177,6.177,0,0,0,6.171,6.171,3.411,3.411,0,0,0,3.373-3.373,3.413,3.413,0,0,0-1-2.393,3.328,3.328,0,0,0-2.375-1Z" transform="translate(-354.75 -259.99)" fill="#18244e"/>
      </g>
    </g>
    <path id="Path_7360" data-name="Path 7360" d="M360.549,258.964s63.322-1.268,62.562,67.374" transform="translate(650.027 156.101)" fill="none" stroke="#18244e" stroke-linecap="round" stroke-width="2" stroke-dasharray="5"/>
    <g id="Group_11301" data-name="Group 11301" transform="translate(1210.369 274.236)">
      <g id="Group_11298" data-name="Group 11298" transform="translate(3.165 8.33)">
        <path id="Path_7361" data-name="Path 7361" d="M474.39,211.923a4.01,4.01,0,0,1-1.163-.173l-7.518-2.268a4.031,4.031,0,0,1,2.329-7.718l7.518,2.268a4.04,4.04,0,0,1,2.694,5.024A4.039,4.039,0,0,1,474.39,211.923Z" transform="translate(-462.842 -201.592)" fill="#18244e"/>
      </g>
      <g id="Group_11299" data-name="Group 11299" transform="translate(0 14.184)">
        <path id="Path_7362" data-name="Path 7362" d="M467.408,215.387a8.082,8.082,0,0,1-2.349-.349,5.361,5.361,0,0,1,3.1-10.266l7.8,2.355-.744,2.464a8.186,8.186,0,0,1-7.8,5.8Zm-.8-8.859a3.382,3.382,0,0,0-3.236,2.4,3.389,3.389,0,0,0,2.258,4.208,6.187,6.187,0,0,0,7.68-4.121l.171-.565-5.9-1.782A3.373,3.373,0,0,0,466.611,206.528Z" transform="translate(-461.246 -204.542)" fill="#18244e"/>
      </g>
      <g id="Group_11300" data-name="Group 11300" transform="translate(4.279)">
        <path id="Path_7363" data-name="Path 7363" d="M475.016,210.239l-7.8-2.353a5.36,5.36,0,0,1,3.1-10.264,8.167,8.167,0,0,1,5.446,10.153Zm-6.248-10.861a3.377,3.377,0,0,0-.978,6.609l5.9,1.78.173-.565a6.187,6.187,0,0,0-4.121-7.68A3.333,3.333,0,0,0,468.768,199.378Z" transform="translate(-463.403 -197.394)" fill="#18244e"/>
      </g>
    </g>
    <path id="Path_7364" data-name="Path 7364" d="M417.011,320.3c-10.672-17.224-16.131-40.638-8.663-60.011a51.961,51.961,0,0,1,24.208-27.075c9.843-5.137,24.355-7.107,31.113,4a7.887,7.887,0,0,1,.994,6.542,7.537,7.537,0,0,1-6.151,4.629,13.666,13.666,0,0,1-7.813-1.607c-12.036-5.952-17.714-23.14-8.073-33.674,7.867-8.593,21.291-10.657,32.3-11.6a173.31,173.31,0,0,1,43.144,2.03" transform="translate(693.671 80.341)" fill="none" stroke="#18244e" stroke-linecap="round" stroke-width="2" stroke-dasharray="5"/>
    <g id="Group_11306" data-name="Group 11306" transform="translate(1066.476 357.419)">
      <g id="Group_11302" data-name="Group 11302">
        <path id="Path_7365" data-name="Path 7365" d="M456.474,253.527l-5.3,57.735a3.959,3.959,0,0,1-4.305,3.583l-54.051-4.956a3.962,3.962,0,0,1-3.583-4.305l6.563-71.578a3.961,3.961,0,0,1,4.306-3.581l40.186,3.684a.331.331,0,0,1,.226.119L456.4,253.283A.335.335,0,0,1,456.474,253.527Z" transform="translate(-388.23 -229.418)" fill="#fff"/>
        <path id="Path_7366" data-name="Path 7366" d="M447.73,316.344c-.151,0-.3-.006-.454-.02l-54.051-4.956a4.952,4.952,0,0,1-4.482-5.385l6.563-71.576a4.981,4.981,0,0,1,5.385-4.48l40.186,3.684a1.317,1.317,0,0,1,.893.466l15.883,19.063a1.32,1.32,0,0,1,.3.964v0l-5.294,57.737A4.961,4.961,0,0,1,447.73,316.344Zm-47.493-84.453a2.972,2.972,0,0,0-2.954,2.7l-6.563,71.578a2.969,2.969,0,0,0,2.686,3.226l54.051,4.956a2.979,2.979,0,0,0,3.228-2.686l5.268-57.461-15.527-18.639L400.511,231.9Q400.374,231.891,400.237,231.891Zm40.458,3.7h0Z" transform="translate(-388.723 -229.909)" fill="#18244e"/>
      </g>
      <g id="Group_11303" data-name="Group 11303" transform="translate(49.935 3.711)">
        <path id="Path_7367" data-name="Path 7367" d="M414.407,245.983l1.258-13.7,16.053,19.269-13.728-1.26A3.961,3.961,0,0,1,414.407,245.983Z" transform="translate(-413.398 -231.287)" fill="#18244e"/>
        <path id="Path_7368" data-name="Path 7368" d="M432.211,253.032c-.03,0-.06,0-.089,0l-13.73-1.26a4.952,4.952,0,0,1-4.48-5.383l1.258-13.7a.992.992,0,0,1,1.75-.546l16.053,19.269a.993.993,0,0,1-.762,1.627Zm-15.285-17.787-1.038,11.321h0a2.966,2.966,0,0,0,2.684,3.226l11.341,1.04ZM414.9,246.477h0Z" transform="translate(-413.89 -231.779)" fill="#18244e"/>
      </g>
      <g id="Group_11305" data-name="Group 11305" transform="translate(27.433 29.587)">
        <g id="Group_11304" data-name="Group 11304">
          <path id="Path_7369" data-name="Path 7369" d="M411.563,244.871c5,.456,8.153,3.784,7.71,8.627-.512,5.569-4.573,7.5-9.912,7.014l-.447,3.611-3.012-.276.4-6.04,1.105.1c4.347.4,8.123-.1,8.546-4.714.28-3.05-1.528-5.139-4.617-5.423-3.127-.286-5.236,1.327-5.51,4.3l-3.278-.3C402.932,247.154,406.569,244.412,411.563,244.871Zm-4.891,26.93a2.375,2.375,0,1,1,2.506-2.153A2.336,2.336,0,0,1,406.672,271.8Z" transform="translate(-402.549 -244.821)" fill="#18244e"/>
        </g>
      </g>
    </g>
    <g id="Group_11307" data-name="Group 11307" transform="translate(1044.334 423.577)">
      <path id="Path_7370" data-name="Path 7370" d="M396.982,353.417H512.355a7.944,7.944,0,0,0,7.8-6.424l14.381-73.776a7.943,7.943,0,0,0-7.8-9.462H473.883a7.939,7.939,0,0,0-4.7,1.538l-22.4,16.426a7.939,7.939,0,0,1-4.7,1.538H386.01a7.946,7.946,0,0,0-7.788,9.52l10.972,54.273A7.945,7.945,0,0,0,396.982,353.417Z" transform="translate(-377.072 -262.76)" fill="#fff"/>
      <path id="Path_7371" data-name="Path 7371" d="M512.846,354.9H397.473a8.964,8.964,0,0,1-8.76-7.165l-10.972-54.273a8.94,8.94,0,0,1,8.76-10.708h56.076a6.9,6.9,0,0,0,4.111-1.345l22.4-16.428a8.884,8.884,0,0,1,5.284-1.73h52.854A8.939,8.939,0,0,1,536,273.9l-14.381,73.776A8.953,8.953,0,0,1,512.846,354.9ZM386.5,284.741a6.953,6.953,0,0,0-6.813,8.331l10.972,54.273a6.971,6.971,0,0,0,6.813,5.573H512.846a6.968,6.968,0,0,0,6.825-5.623l14.379-73.774a6.953,6.953,0,0,0-6.823-8.284H474.372a6.9,6.9,0,0,0-4.109,1.347l-22.4,16.426a8.881,8.881,0,0,1-5.286,1.73Z" transform="translate(-377.563 -263.253)" fill="#18244e"/>
    </g>
    <g id="Group_11308" data-name="Group 11308" transform="translate(1141.767 468.41)">
      <path id="Path_7372" data-name="Path 7372" d="M486.415,337.658l-12.5-12.5a25.032,25.032,0,0,0,3.909-13.492A25.326,25.326,0,1,0,466.475,332.8l12.4,12.4a5.331,5.331,0,0,0,7.539-7.54Zm-51.229-25.992a17.311,17.311,0,1,1,17.321,17.321A17.321,17.321,0,0,1,435.186,311.666Z" transform="translate(-426.178 -285.357)" fill="#18244e"/>
      <path id="Path_7373" data-name="Path 7373" d="M483.127,348.231a6.29,6.29,0,0,1-4.462-1.839l-11.833-11.835A26.085,26.085,0,0,1,453,338.487a26.319,26.319,0,1,1,26.309-26.329,26.052,26.052,0,0,1-3.645,13.345l11.946,11.946a6.273,6.273,0,0,1,1.837,4.47,6.28,6.28,0,0,1-6.319,6.311Zm-16.035-16.218,12.976,12.976a4.326,4.326,0,0,0,7.395-3.069,4.31,4.31,0,0,0-1.256-3.068l-13.065-13.063.431-.673a24.052,24.052,0,0,0,3.752-12.958A24.335,24.335,0,1,0,453,336.5a24.105,24.105,0,0,0,13.418-4.04ZM453,330.471a18.3,18.3,0,1,1,18.293-18.313A18.334,18.334,0,0,1,453,330.471Zm0-34.622a16.319,16.319,0,1,0,16.309,16.309A16.338,16.338,0,0,0,453,295.849Z" transform="translate(-426.67 -285.849)" fill="#18244e"/>
    </g>
  </g>
</svg>
