<svg width="228" height="230" viewBox="0 0 228 230" fill="none" xmlns="http://www.w3.org/2000/svg">
<mask id="mask0_5530_3723" style="mask-type:luminance" maskUnits="userSpaceOnUse" x="0" y="0" width="228" height="230">
<path d="M228 0H0V230H228V0Z" fill="white"/>
</mask>
<g mask="url(#mask0_5530_3723)">
<path opacity="0.11" d="M114 230C176.96 230 227.99 178.51 227.99 115C227.99 51.49 176.96 0 114 0C51.04 0 0 51.49 0 115C0 178.51 51.04 229.99 114 229.99V230Z" fill="#FFB70A"/>
<path opacity="0.25" d="M208.52 115C208.52 147.92 191.98 176.95 166.83 194.08C151.75 204.36 133.57 210.36 114 210.36C77.9605 210.36 46.6305 190.01 30.6905 160.08C23.5305 146.66 19.4805 131.31 19.4805 115.01C19.4805 62.3502 61.8005 19.6602 114 19.6602C166.2 19.6602 208.52 62.3502 208.52 115.01V115Z" fill="#FFB70A"/>
<mask id="mask1_5530_3723" style="mask-type:luminance" maskUnits="userSpaceOnUse" x="19" y="19" width="190" height="192">
<path d="M208.52 115C208.52 147.92 191.98 176.95 166.83 194.08C151.75 204.36 133.57 210.36 114 210.36C77.9605 210.36 46.6305 190.01 30.6905 160.08C23.5305 146.66 19.4805 131.31 19.4805 115.01C19.4805 62.3502 61.8005 19.6602 114 19.6602C166.2 19.6602 208.52 62.3502 208.52 115.01V115Z" fill="white"/>
</mask>
<g mask="url(#mask1_5530_3723)">
<path d="M58.8008 76.7899C59.9708 74.2699 61.6808 73.1999 61.6808 73.1999C63.5008 72.1099 65.3808 72.4299 66.0008 72.5199C69.6208 73.0699 81.3508 73.8499 97.5208 74.8299C98.1608 74.8299 99.0808 74.9699 99.9608 75.5899C101.281 76.5199 101.661 77.9699 102.441 80.0899C103.771 83.7399 104.441 85.5599 105.621 86.9399C107.281 88.8799 109.351 89.5799 111.041 90.1599C113.631 91.0399 115.741 91.0299 116.161 91.0299C120.421 91.0499 147.261 93.7599 185.551 97.8399C188.821 97.9899 191.131 98.9399 192.441 99.6199C194.071 100.46 194.881 101.25 195.351 102.27C195.721 103.07 195.811 103.83 195.851 104.69C195.961 107.11 196.011 108.32 195.281 110.9C194.331 114.22 186.891 161.03 176.311 228.87C175.751 232.61 175.121 236.24 174.441 239.78C174.161 241.24 173.761 243.15 172.301 244.48C171.441 245.25 170.521 245.56 169.891 245.69C129.691 237.35 89.5008 229 49.3008 220.66C50.0008 206.52 56.1408 82.5199 58.8008 76.8099V76.7899Z" fill="#56921A"/>
<path d="M36.8701 112.509C37.0601 107.919 37.2701 103.369 37.5001 98.839C37.7501 93.929 42.5501 90.249 47.9701 90.789L177.31 103.809C182.55 104.339 186.29 108.629 185.62 113.339C181.79 140.279 177.96 167.209 174.12 194.149C173.4 199.249 167.86 202.609 162.34 201.289L42.7701 172.589C40.8001 152.559 38.8401 132.539 36.8701 112.509Z" fill="#CE9407"/>
<path d="M36.75 115.93C36.93 111.39 37.14 106.89 37.36 102.41C37.61 97.5599 42.27 93.9099 47.54 94.4399L173.25 107.32C178.34 107.84 181.98 112.09 181.33 116.75C177.6 143.4 173.88 170.05 170.16 196.7C169.45 201.75 164.07 205.07 158.71 203.76L42.49 175.36L41.22 174.95C39.73 155.27 38.24 135.59 36.75 115.92V115.93Z" fill="#FFB70A"/>
<path d="M173.39 215.71C171.82 208 170.28 200.27 168.74 192.51C164.21 169.63 159.84 146.89 155.65 124.31C155.54 123.65 154.89 120.46 151.94 118.33C149.5 116.57 146.95 116.62 146.17 116.66C122.08 113.76 98.0005 110.86 73.9205 107.96C73.0205 107.85 70.1705 107.6 68.8105 109.28C68.3605 109.84 68.0705 110.63 67.6505 111.74C67.2605 112.79 67.0205 113.68 66.8805 114.31C66.8405 114.62 66.7205 115.15 66.3205 115.56C65.6205 116.27 64.5005 116.18 63.9905 116.13C62.0905 115.95 49.4105 114.52 32.0605 112.47C31.6605 112.39 29.8605 112.09 28.6705 113.23C28.3905 113.49 28.1305 113.86 27.8905 114.48C26.8905 117.13 28.1405 120.42 28.1505 120.44C28.1505 120.43 28.1705 120.49 28.1505 120.44C30.0205 125.28 41.6604 178.63 46.0105 189.85C57.1005 218.43 116.77 220.29 173.38 215.72L173.39 215.71Z" fill="#72B62F"/>
</g>
</g>
<path d="M192.548 34C197.601 34 202.54 35.4984 206.742 38.3056C210.943 41.1128 214.217 45.1029 216.151 49.7711C218.085 54.4394 218.591 59.5762 217.605 64.532C216.619 69.4878 214.186 74.04 210.613 77.6129C207.04 81.1859 202.488 83.6191 197.532 84.6048C192.576 85.5906 187.439 85.0847 182.771 83.151C178.103 81.2173 174.113 77.9428 171.306 73.7415C168.498 69.5402 167 64.6008 167 59.5479C166.996 56.1916 167.653 52.8674 168.936 49.7658C170.218 46.6642 172.1 43.846 174.473 41.4728C176.846 39.0996 179.664 37.2179 182.766 35.9356C185.867 34.6533 189.192 33.9955 192.548 34Z" fill="#F84842"/>
<path d="M188.081 67.5262L188.082 67.5267C189.66 68.4374 191.677 67.897 192.588 66.3194L203.668 47.1281C204.578 45.5506 204.038 43.5334 202.46 42.6227L202.46 42.6222C200.882 41.7115 198.865 42.252 197.954 43.8295L186.874 63.0208C185.963 64.5983 186.504 66.6155 188.081 67.5262Z" fill="white"/>
<path d="M184.942 76.9186C187.127 76.9186 188.899 75.1469 188.899 72.9613C188.899 70.7757 187.127 69.0039 184.942 69.0039C182.756 69.0039 180.984 70.7757 180.984 72.9613C180.984 75.1469 182.756 76.9186 184.942 76.9186Z" fill="white"/>
</svg>
