<svg width="252" height="228" viewBox="0 0 252 228" fill="none" xmlns="http://www.w3.org/2000/svg">
<path opacity="0.11" d="M122.5 228C181.871 228 230 179.871 230 120.5C230 61.1294 181.871 13 122.5 13C63.1294 13 15 61.1294 15 120.5C15 179.871 63.1294 228 122.5 228Z" fill="#FFB70A"/>
<path opacity="0.25" d="M122.5 209C171.929 209 212 169.377 212 120.5C212 71.6228 171.929 32 122.5 32C73.0705 32 33 71.6228 33 120.5C33 169.377 73.0705 209 122.5 209Z" fill="#FFB70A"/>
<path d="M222.601 45.889L208.108 71.0518L204.997 68.8345L219.812 43.9087L222.601 45.889Z" fill="#F29A49"/>
<path d="M27.5752 144.541L0.000121041 135.441L1.54188 131.946L28.9502 141.41L27.5752 144.541Z" fill="#F29A49"/>
<path d="M8 91.269L20.9138 99L22 85L8 91.269Z" fill="#FFB70A"/>
<path d="M233 123.43L241.64 140.06L251.2 122L233 123.43Z" fill="#FFB70A"/>
<path d="M38.2554 174.605C39.6954 172.245 38.9554 169.175 36.6054 167.735C34.2454 166.295 31.1754 167.035 29.7354 169.385C28.2954 171.745 29.0354 174.815 31.3854 176.255C33.7354 177.695 36.8154 176.955 38.2554 174.605Z" fill="#F29A49"/>
<path d="M191.255 39.6054C192.695 37.2454 191.955 34.1754 189.605 32.7354C187.245 31.2954 184.175 32.0354 182.735 34.3854C181.295 36.7454 182.035 39.8154 184.385 41.2554C186.735 42.6954 189.815 41.9554 191.255 39.6054Z" fill="#F29A49"/>
<path d="M97.3108 26.1077L48.5047 106.78C46.8885 109.452 46.2878 112.615 46.8122 115.693L58.0256 181.503C60.1279 193.84 71.7822 202.177 84.1377 200.182L188.597 183.312C201.028 181.304 209.478 169.599 207.471 157.168L196.871 91.5334C196.366 88.4074 194.738 85.5731 192.291 83.5626L118.061 22.5585C111.508 17.1726 101.702 18.8499 97.3108 26.1077Z" fill="#429525"/>
<g filter="url(#filter0_d_140_638)">
<rect x="66.6575" y="75.4116" width="122.785" height="91.8471" rx="7" fill="#2C7013" fill-opacity="0.9" shape-rendering="crispEdges"/>
</g>
<g filter="url(#filter1_d_140_638)">
<rect x="63.7568" y="72.5107" width="122.785" height="91.8471" rx="7" fill="white"/>
</g>
<path d="M92.1198 133.812C92.1198 133.812 92.0771 133.77 91.9918 133.684C91.9278 133.599 91.8211 133.471 91.6718 133.3C91.5224 133.13 91.4264 132.948 91.3838 132.756C91.3624 132.586 91.3518 132.372 91.3518 132.116C91.3944 131.69 91.5438 131.22 91.7998 130.708C92.0771 130.196 92.3864 129.642 92.7278 129.044C92.9411 128.639 93.1438 128.255 93.3358 127.892C93.5491 127.53 93.6558 127.306 93.6558 127.22C93.6558 127.135 93.6984 127.007 93.7838 126.836C93.8691 126.666 93.9651 126.452 94.0718 126.196C94.1998 125.983 94.3384 125.727 94.4878 125.428C94.6584 125.13 94.7971 124.852 94.9038 124.596C95.0104 124.34 95.0638 124.191 95.0638 124.148C95.1064 124.063 95.1384 123.978 95.1598 123.892C95.1811 123.807 95.2344 123.722 95.3198 123.636C95.4051 123.636 95.4478 123.583 95.4478 123.476C95.4691 123.348 95.4798 123.284 95.4798 123.284C95.4798 123.199 95.5224 123.007 95.6078 122.708C95.7144 122.388 95.8744 122.015 96.0878 121.588C96.4931 120.458 96.7811 119.562 96.9518 118.9C97.1438 118.218 97.2504 117.642 97.2718 117.172C97.3144 116.66 97.3571 116.362 97.3998 116.276C97.4424 116.191 97.5384 116.106 97.6878 116.02C98.3064 115.914 98.7011 116.202 98.8718 116.884C99.0638 117.567 99.0104 118.506 98.7118 119.7C98.5838 119.956 98.4771 120.202 98.3918 120.436C98.3064 120.671 98.2638 120.874 98.2638 121.044C98.1998 121.322 98.0931 121.652 97.9438 122.036C97.7944 122.399 97.6451 122.74 97.4958 123.06C97.3464 123.38 97.2398 123.604 97.1758 123.732C97.0904 123.732 96.9944 123.807 96.8878 123.956C96.8024 124.084 96.7598 124.234 96.7598 124.404C96.7598 124.575 96.7278 124.767 96.6638 124.98C96.5998 125.194 96.5144 125.343 96.4078 125.428C96.4078 125.514 96.3651 125.62 96.2798 125.748C96.1944 125.876 96.1518 125.994 96.1518 126.1C96.1518 126.186 96.1198 126.26 96.0558 126.324C96.0131 126.367 95.9918 126.442 95.9918 126.548C95.7998 126.89 95.5438 127.391 95.2238 128.052C94.9251 128.735 94.6158 129.45 94.2958 130.196C93.9971 130.943 93.7411 131.604 93.5278 132.18C93.3144 132.756 93.2078 133.108 93.2078 133.236C93.1864 133.407 93.1224 133.524 93.0158 133.588C92.9304 133.674 92.8024 133.706 92.6318 133.684C92.5464 133.748 92.4611 133.78 92.3758 133.78C92.2904 133.802 92.2051 133.812 92.1198 133.812ZM98.9678 113.556C98.3278 113.151 98.0398 112.703 98.1038 112.212C98.1891 111.722 98.6264 111.284 99.4158 110.9C99.8211 110.73 100.152 110.655 100.408 110.676C100.685 110.698 100.984 110.826 101.304 111.06C101.709 111.444 101.837 111.839 101.688 112.244C101.56 112.628 101.218 113.012 100.664 113.396C100.28 113.631 99.9918 113.759 99.7998 113.78C99.6291 113.78 99.3518 113.706 98.9678 113.556ZM102.199 129.204C102.199 129.204 102.167 129.183 102.103 129.14C102.039 129.119 101.953 129.098 101.847 129.076C101.761 129.055 101.655 129.044 101.527 129.044C101.185 128.959 100.94 128.767 100.791 128.468C100.641 128.191 100.609 127.882 100.695 127.54C100.78 127.455 100.844 127.274 100.887 126.996C100.929 126.719 100.951 126.495 100.951 126.324C101.036 126.154 101.089 126.036 101.111 125.972C101.132 125.887 101.185 125.674 101.271 125.332C101.335 124.97 101.441 124.468 101.591 123.828C101.761 123.167 101.943 122.463 102.135 121.716C102.348 120.97 102.551 120.255 102.743 119.572C102.935 118.89 103.105 118.314 103.255 117.844C103.425 117.375 103.543 117.108 103.607 117.044C103.607 117.044 103.607 117.012 103.607 116.948C103.607 116.863 103.607 116.778 103.607 116.692C103.607 116.692 103.617 116.596 103.639 116.404C103.681 116.191 103.788 115.956 103.959 115.7C104.044 115.466 104.119 115.21 104.183 114.932C104.247 114.655 104.279 114.474 104.279 114.388C104.364 114.282 104.481 114.026 104.631 113.62C104.801 113.194 104.961 112.778 105.111 112.372C105.239 112.031 105.377 111.668 105.527 111.284C105.697 110.9 105.836 110.57 105.943 110.292C106.071 110.015 106.135 109.876 106.135 109.876C106.135 109.791 106.135 109.748 106.135 109.748C106.135 109.727 106.135 109.716 106.135 109.716C106.22 109.631 106.423 109.204 106.743 108.436C107.084 107.647 107.543 106.634 108.119 105.396C108.204 105.226 108.311 105.034 108.439 104.82C108.567 104.607 108.631 104.458 108.631 104.372C108.737 104.202 108.887 104.127 109.079 104.148C109.271 104.148 109.463 104.212 109.655 104.34C109.868 104.468 110.028 104.65 110.135 104.884L110.455 105.396L109.303 107.7C108.961 108.298 108.673 108.842 108.439 109.332C108.225 109.823 108.119 110.111 108.119 110.196C108.119 110.196 108.055 110.367 107.927 110.708C107.799 111.05 107.649 111.455 107.479 111.924C107.308 112.394 107.159 112.82 107.031 113.204C106.796 113.866 106.572 114.41 106.359 114.836C106.167 115.263 106.071 115.519 106.071 115.604C106.071 115.562 106.305 115.53 106.775 115.508C107.244 115.487 107.841 115.476 108.567 115.476C109.292 115.476 110.028 115.476 110.775 115.476C111.543 115.455 112.215 115.444 112.791 115.444C113.388 115.423 113.793 115.391 114.007 115.348L115.671 115.188L116.759 111.892C116.929 111.295 117.153 110.57 117.431 109.716C117.708 108.863 117.953 108.138 118.167 107.54C118.508 106.559 118.775 105.951 118.967 105.716C119.159 105.482 119.383 105.364 119.639 105.364C119.703 105.364 119.788 105.386 119.895 105.428C120.023 105.45 120.14 105.503 120.247 105.588C120.375 105.652 120.46 105.748 120.503 105.876C120.759 106.111 120.876 106.378 120.855 106.676C120.855 106.975 120.684 107.37 120.343 107.86C120.001 108.436 119.713 109.066 119.479 109.748C119.265 110.41 119.073 110.954 118.903 111.38C118.903 111.636 118.871 111.85 118.807 112.02C118.743 112.17 118.668 112.287 118.583 112.372C118.54 112.415 118.455 112.575 118.327 112.852C118.199 113.13 118.081 113.407 117.975 113.684C117.868 113.962 117.815 114.132 117.815 114.196C117.815 114.346 117.783 114.527 117.719 114.74C117.655 114.954 117.58 115.103 117.495 115.188C117.452 115.316 117.356 115.636 117.207 116.148C117.057 116.66 116.887 117.268 116.695 117.972C116.503 118.655 116.3 119.327 116.087 119.988C115.873 120.628 115.681 121.162 115.511 121.588C115.511 121.738 115.457 121.93 115.351 122.164C115.244 122.378 115.191 122.57 115.191 122.74C115.105 122.996 114.999 123.316 114.871 123.7C114.743 124.084 114.679 124.33 114.679 124.436C114.572 124.927 114.455 125.428 114.327 125.94C114.22 126.452 114.124 126.89 114.039 127.252C113.975 127.636 113.943 127.86 113.943 127.924C113.857 128.01 113.729 128.02 113.559 127.956C113.388 127.892 113.185 127.818 112.951 127.732C112.545 127.498 112.3 127.242 112.215 126.964C112.151 126.708 112.236 126.335 112.471 125.844C112.577 125.674 112.705 125.258 112.855 124.596C113.025 123.914 113.196 123.242 113.367 122.58C113.495 122.26 113.633 121.834 113.783 121.3C113.932 120.746 114.081 120.191 114.231 119.636C114.38 119.06 114.508 118.58 114.615 118.196C114.721 117.791 114.796 117.567 114.839 117.524C114.839 117.439 114.839 117.364 114.839 117.3C114.839 117.236 114.839 117.204 114.839 117.204C114.796 117.162 114.529 117.13 114.039 117.108C113.548 117.066 112.94 117.055 112.215 117.076C111.489 117.076 110.732 117.098 109.943 117.14C109.175 117.162 108.481 117.215 107.863 117.3C107.628 117.3 107.361 117.3 107.063 117.3C106.764 117.3 106.529 117.3 106.359 117.3C106.124 117.3 105.921 117.3 105.751 117.3C105.601 117.3 105.527 117.3 105.527 117.3C105.505 117.364 105.431 117.588 105.303 117.972C105.175 118.356 105.025 118.826 104.855 119.38C104.684 119.914 104.503 120.468 104.311 121.044C104.14 121.599 103.991 122.111 103.863 122.58C103.756 123.028 103.681 123.348 103.639 123.54C103.553 123.924 103.436 124.404 103.287 124.98C103.159 125.556 103.009 126.143 102.839 126.74C102.689 127.359 102.551 127.892 102.423 128.34C102.316 128.788 102.241 129.076 102.199 129.204ZM121.478 126.068C121.2 126.068 120.976 126.015 120.806 125.908C120.656 125.802 120.464 125.652 120.23 125.46C119.824 125.034 119.536 124.628 119.366 124.244C119.195 123.839 119.142 123.455 119.206 123.092C119.27 122.922 119.291 122.762 119.27 122.612C119.27 122.442 119.27 122.356 119.27 122.356C119.163 122.25 119.131 122.186 119.174 122.164C119.216 122.122 119.259 122.058 119.302 121.972C119.43 121.972 119.472 121.855 119.43 121.62C119.387 121.45 119.472 121.076 119.686 120.5C119.899 119.924 120.166 119.38 120.486 118.868C120.614 118.655 120.806 118.378 121.062 118.036C121.318 117.674 121.595 117.322 121.894 116.98C122.214 116.618 122.502 116.33 122.758 116.116C123.291 115.668 123.76 115.338 124.166 115.124C124.571 114.911 125.008 114.751 125.478 114.644C125.947 114.538 126.267 114.484 126.438 114.484C126.63 114.484 126.886 114.655 127.206 114.996C127.696 115.21 128.048 115.466 128.262 115.764C128.496 116.063 128.646 116.5 128.71 117.076C128.774 117.716 128.72 118.452 128.55 119.284C128.4 120.095 127.899 121.108 127.046 122.324C126.512 123.092 126.022 123.668 125.574 124.052C125.126 124.415 124.592 124.778 123.974 125.14C123.526 125.439 123.12 125.663 122.758 125.812C122.395 125.94 121.968 126.026 121.478 126.068ZM124.55 122.676C125.062 122.1 125.467 121.556 125.766 121.044C126.086 120.532 126.384 119.882 126.662 119.092C126.747 118.858 126.8 118.57 126.822 118.228C126.843 117.866 126.832 117.535 126.79 117.236C126.768 116.916 126.694 116.735 126.566 116.692C126.31 116.543 126 116.5 125.638 116.564C125.275 116.607 124.88 116.81 124.454 117.172C123.792 117.727 123.216 118.42 122.726 119.252C122.235 120.063 121.755 120.991 121.286 122.036C120.966 122.804 120.891 123.423 121.062 123.892C121.254 124.34 121.648 124.5 122.246 124.372C122.864 124.223 123.632 123.658 124.55 122.676ZM131.511 126.548C131.106 126.655 130.775 126.57 130.519 126.292C130.284 126.015 130.146 125.588 130.103 125.012C130.06 124.436 130.124 123.754 130.295 122.964C130.402 122.708 130.487 122.463 130.551 122.228C130.615 121.972 130.647 121.77 130.647 121.62C130.69 121.407 130.775 121.098 130.903 120.692C131.031 120.266 131.17 119.828 131.319 119.38C131.468 118.932 131.607 118.538 131.735 118.196C131.884 117.834 131.98 117.61 132.023 117.524C132.108 117.524 132.183 117.45 132.247 117.3C132.311 117.151 132.343 117.002 132.343 116.852C132.343 116.682 132.375 116.49 132.439 116.276C132.524 116.063 132.61 115.914 132.695 115.828C132.695 115.722 132.716 115.604 132.759 115.476C132.823 115.327 132.855 115.21 132.855 115.124C132.855 115.039 132.876 114.954 132.919 114.868C132.983 114.783 133.015 114.698 133.015 114.612C133.164 114.335 133.356 113.898 133.591 113.3C133.847 112.682 134.114 111.999 134.391 111.252C134.69 110.506 134.967 109.77 135.223 109.044C135.479 108.319 135.682 107.711 135.831 107.22C136.002 106.708 136.087 106.399 136.087 106.292C136.087 106.122 136.13 105.994 136.215 105.908C136.3 105.823 136.428 105.78 136.599 105.78C136.663 105.716 136.738 105.674 136.823 105.652C136.93 105.631 137.026 105.62 137.111 105.62C137.111 105.62 137.154 105.663 137.239 105.748C137.324 105.834 137.452 105.962 137.623 106.132C137.794 106.282 137.89 106.452 137.911 106.644C137.954 106.836 137.975 107.06 137.975 107.316C137.975 107.594 137.943 107.839 137.879 108.052C137.815 108.266 137.687 108.575 137.495 108.98C137.303 109.386 137.004 110.015 136.599 110.868C136.428 111.295 136.247 111.7 136.055 112.084C135.863 112.447 135.767 112.671 135.767 112.756C135.767 112.842 135.724 112.97 135.639 113.14C135.575 113.311 135.5 113.524 135.415 113.78C135.33 113.951 135.212 114.207 135.063 114.548C134.914 114.868 134.754 115.22 134.583 115.604C134.434 115.967 134.306 116.287 134.199 116.564C134.092 116.82 134.039 116.97 134.039 117.012C134.039 117.098 134.028 117.183 134.007 117.268C134.007 117.354 133.964 117.439 133.879 117.524C133.794 117.524 133.74 117.588 133.719 117.716C133.719 117.823 133.719 117.876 133.719 117.876C133.719 118.09 133.548 118.655 133.207 119.572C132.866 120.746 132.546 121.823 132.247 122.804C131.97 123.786 131.831 124.575 131.831 125.172C131.831 125.684 131.82 126.026 131.799 126.196C131.778 126.346 131.682 126.463 131.511 126.548ZM138.677 125.62C138.507 125.663 138.283 125.684 138.005 125.684C137.728 125.663 137.483 125.631 137.269 125.588C137.077 125.524 136.981 125.46 136.981 125.396C136.981 125.29 136.928 125.236 136.821 125.236C136.821 125.236 136.768 125.194 136.661 125.108C136.576 125.023 136.437 124.938 136.245 124.852C136.053 124.554 135.957 124.234 135.957 123.892C135.957 123.53 136.053 122.964 136.245 122.196C136.309 121.663 136.512 121.044 136.853 120.34C137.216 119.615 137.653 118.879 138.165 118.132C138.677 117.386 139.211 116.714 139.765 116.116C140.341 115.519 140.864 115.082 141.333 114.804C141.632 114.506 141.995 114.346 142.421 114.324C142.848 114.303 143.253 114.399 143.637 114.612C143.851 114.719 144.064 114.89 144.277 115.124C144.491 115.359 144.693 115.615 144.885 115.892C145.077 116.17 145.237 116.447 145.365 116.724C145.429 116.959 145.461 117.172 145.461 117.364C145.483 117.535 145.483 117.748 145.461 118.004C145.461 118.26 145.429 118.644 145.365 119.156C145.259 119.54 145.163 120.01 145.077 120.564C145.013 121.119 144.981 121.599 144.981 122.004C144.939 122.41 144.981 122.698 145.109 122.868C145.259 123.039 145.472 123.05 145.749 122.9C146.005 122.772 146.251 122.719 146.485 122.74C146.72 122.74 146.901 122.804 147.029 122.932C147.179 123.06 147.253 123.252 147.253 123.508C147.253 123.764 147.125 124.031 146.869 124.308C146.635 124.564 146.336 124.788 145.973 124.98C145.632 125.151 145.301 125.236 144.981 125.236C144.747 125.236 144.523 125.098 144.309 124.82C144.096 124.522 143.904 124.17 143.733 123.764C143.584 123.338 143.445 122.932 143.317 122.548L143.125 121.812L141.749 123.124C141.472 123.423 141.195 123.7 140.917 123.956C140.661 124.191 140.501 124.362 140.437 124.468C140.331 124.66 140.128 124.852 139.829 125.044C139.552 125.236 139.168 125.428 138.677 125.62ZM138.773 123.732C139.136 123.519 139.552 123.21 140.021 122.804C140.491 122.378 140.949 121.919 141.397 121.428C141.845 120.916 142.219 120.447 142.517 120.02C142.88 119.53 143.157 119.071 143.349 118.644C143.541 118.218 143.68 117.812 143.765 117.428C143.68 117.194 143.541 116.948 143.349 116.692C143.157 116.415 142.987 116.266 142.837 116.244C142.368 116.244 141.867 116.543 141.333 117.14C140.821 117.716 140.32 118.346 139.829 119.028C139.744 119.135 139.627 119.306 139.477 119.54C139.328 119.775 139.179 119.999 139.029 120.212C138.901 120.404 138.816 120.532 138.773 120.596C138.709 120.682 138.581 120.927 138.389 121.332C138.219 121.716 138.048 122.111 137.877 122.516C137.707 122.9 137.621 123.156 137.621 123.284C137.621 123.412 137.632 123.551 137.653 123.7C137.696 123.85 137.803 123.946 137.973 123.988C138.144 124.031 138.411 123.946 138.773 123.732ZM151.905 121.108C151.308 121.215 150.913 120.927 150.721 120.244C150.529 119.562 150.582 118.623 150.881 117.428C151.009 117.172 151.116 116.927 151.201 116.692C151.286 116.436 151.329 116.234 151.329 116.084C151.414 115.807 151.521 115.487 151.649 115.124C151.798 114.74 151.948 114.388 152.097 114.068C152.246 113.727 152.353 113.503 152.417 113.396C152.502 113.396 152.588 113.322 152.673 113.172C152.78 113.023 152.833 112.874 152.833 112.724C152.833 112.554 152.865 112.362 152.929 112.148C153.014 111.935 153.1 111.786 153.185 111.7C153.185 111.594 153.228 111.476 153.313 111.348C153.398 111.22 153.441 111.114 153.441 111.028C153.441 110.943 153.462 110.868 153.505 110.804C153.569 110.74 153.601 110.666 153.601 110.58C153.793 110.239 154.038 109.738 154.337 109.076C154.657 108.394 154.966 107.679 155.265 106.932C155.585 106.186 155.852 105.524 156.065 104.948C156.278 104.372 156.385 104.02 156.385 103.892C156.428 103.722 156.492 103.594 156.577 103.508C156.662 103.423 156.79 103.402 156.961 103.444C157.046 103.38 157.132 103.348 157.217 103.348C157.302 103.327 157.388 103.316 157.473 103.316C157.473 103.316 157.505 103.359 157.569 103.444C157.654 103.53 157.772 103.658 157.921 103.828C158.092 103.978 158.188 104.148 158.209 104.34C158.23 104.532 158.241 104.756 158.241 105.012C158.22 105.418 158.07 105.876 157.793 106.388C157.516 106.9 157.206 107.466 156.865 108.084C156.652 108.49 156.438 108.874 156.225 109.236C156.033 109.599 155.937 109.823 155.937 109.908C155.937 109.994 155.894 110.122 155.809 110.292C155.724 110.463 155.628 110.676 155.521 110.932C155.393 111.146 155.254 111.402 155.105 111.7C154.956 111.999 154.817 112.276 154.689 112.532C154.582 112.767 154.529 112.916 154.529 112.98C154.508 113.066 154.476 113.151 154.433 113.236C154.412 113.322 154.358 113.407 154.273 113.492C154.188 113.492 154.134 113.556 154.113 113.684C154.113 113.791 154.113 113.844 154.113 113.844C154.113 113.93 154.06 114.132 153.953 114.452C153.868 114.751 153.718 115.114 153.505 115.54C153.1 116.671 152.812 117.578 152.641 118.26C152.47 118.922 152.364 119.487 152.321 119.956C152.278 120.468 152.236 120.767 152.193 120.852C152.172 120.938 152.076 121.023 151.905 121.108ZM150.177 126.228C149.772 126.378 149.43 126.452 149.153 126.452C148.897 126.431 148.609 126.303 148.289 126.068C147.884 125.684 147.745 125.3 147.873 124.916C148.022 124.511 148.374 124.116 148.929 123.732C149.313 123.498 149.59 123.37 149.761 123.348C149.953 123.327 150.241 123.402 150.625 123.572C151.265 123.978 151.542 124.426 151.457 124.916C151.393 125.407 150.966 125.844 150.177 126.228Z" fill="#1C1C1C"/>
<path fill-rule="evenodd" clip-rule="evenodd" d="M110.127 155.408L47.9316 121.424L61.7331 203.828L138.597 191.414C138.615 191.411 138.633 191.408 138.651 191.405L211.101 179.705L197.825 97.5018L149.925 148.98L132.418 167.008L110.127 155.408Z" fill="#FFB70A"/>
<path fill-rule="evenodd" clip-rule="evenodd" d="M136.464 144.696C131.295 143.848 125.991 144.79 121.43 147.365L57.9559 183.211L142.372 167.952L58.4394 183.211L61.3862 201.055L210.673 176.946L207.313 156.146L206.81 156.237L136.464 144.696Z" fill="#DCA217" fill-opacity="0.8"/>
<path fill-rule="evenodd" clip-rule="evenodd" d="M136.492 147.456C131.573 146.651 126.525 147.466 122.11 149.778L58.5173 183.077L58.3417 183.105L58.3512 183.164L58.3128 183.184L58.3534 183.177L61.7009 203.905L211.228 179.756L207.869 158.957L207.333 159.043L136.492 147.456Z" fill="#FFB70A"/>
<g filter="url(#filter2_b_140_638)">
<circle cx="100.012" cy="71.061" r="29.4877" fill="#FFB70A"/>
</g>
<path d="M116.971 72.0893C118.848 76.4022 116.868 81.4326 112.555 83.3096L111.705 81.3551C114.962 79.9375 116.434 76.1974 115.016 72.9399L116.971 72.0893ZM82.6345 71.5348C80.7575 67.2219 82.7371 62.1915 87.05 60.3145L87.9006 62.269C84.6432 63.6867 83.1713 67.4268 84.589 70.6842L82.6345 71.5348ZM90.2357 64.0734L86.8634 72.6699C84.4938 78.6915 87.4595 85.5061 93.4811 87.8758C99.5026 90.2455 106.317 87.2797 108.687 81.2582L113.879 68.0109C114.251 67.1206 113.803 66.0912 112.886 65.7306C112.669 65.6448 112.437 65.6027 112.203 65.6067C111.97 65.6107 111.739 65.6607 111.525 65.754C111.311 65.8472 111.117 65.9818 110.955 66.15C110.793 66.3183 110.665 66.5168 110.58 66.7343L107.327 75L105.999 74.4774L110.812 62.2473C111.173 61.331 110.725 60.3016 109.809 59.941C108.892 59.5804 107.85 60.0341 107.476 60.9561L103.223 71.8732L101.91 71.3133L106.955 58.44C107.315 57.5236 106.867 56.4943 105.951 56.1337C105.035 55.7731 104.005 56.2211 103.645 57.1374L98.5742 70.022L97.2521 69.5126L101.311 59.2533C101.685 58.3313 101.237 57.302 100.307 56.9471C99.378 56.5921 98.3617 57.0344 98.0011 57.9508L92.3933 72.2005C93.6078 72.8643 94.5384 73.9485 95.0105 75.2496C95.4826 76.5506 95.4637 77.9793 94.9574 79.2674L93.6297 78.7449C94.0427 77.6934 94.0215 76.521 93.5707 75.4851C93.1199 74.4492 92.2763 73.6346 91.2253 73.2203L90.5708 72.9627L93.566 65.3516C93.9266 64.4353 93.4787 63.4059 92.5623 63.0453C91.6387 62.7034 90.6093 63.1514 90.2357 64.0734Z" fill="white"/>
<defs>
<filter id="filter0_d_140_638" x="59.9575" y="72.7116" width="136.185" height="105.247" filterUnits="userSpaceOnUse" color-interpolation-filters="sRGB">
<feFlood flood-opacity="0" result="BackgroundImageFix"/>
<feColorMatrix in="SourceAlpha" type="matrix" values="0 0 0 0 0 0 0 0 0 0 0 0 0 0 0 0 0 0 127 0" result="hardAlpha"/>
<feOffset dy="4"/>
<feGaussianBlur stdDeviation="3.35"/>
<feComposite in2="hardAlpha" operator="out"/>
<feColorMatrix type="matrix" values="0 0 0 0 0.0307454 0 0 0 0 0.0839759 0 0 0 0 0.321094 0 0 0 0.25 0"/>
<feBlend mode="normal" in2="BackgroundImageFix" result="effect1_dropShadow_140_638"/>
<feBlend mode="normal" in="SourceGraphic" in2="effect1_dropShadow_140_638" result="shape"/>
</filter>
<filter id="filter1_d_140_638" x="57.0568" y="69.8107" width="136.185" height="105.247" filterUnits="userSpaceOnUse" color-interpolation-filters="sRGB">
<feFlood flood-opacity="0" result="BackgroundImageFix"/>
<feColorMatrix in="SourceAlpha" type="matrix" values="0 0 0 0 0 0 0 0 0 0 0 0 0 0 0 0 0 0 127 0" result="hardAlpha"/>
<feOffset dy="4"/>
<feGaussianBlur stdDeviation="3.35"/>
<feComposite in2="hardAlpha" operator="out"/>
<feColorMatrix type="matrix" values="0 0 0 0 0.0307454 0 0 0 0 0.0839759 0 0 0 0 0.321094 0 0 0 0.25 0"/>
<feBlend mode="normal" in2="BackgroundImageFix" result="effect1_dropShadow_140_638"/>
<feBlend mode="normal" in="SourceGraphic" in2="effect1_dropShadow_140_638" result="shape"/>
</filter>
<filter id="filter2_b_140_638" x="62.6244" y="33.6732" width="74.7756" height="74.7756" filterUnits="userSpaceOnUse" color-interpolation-filters="sRGB">
<feFlood flood-opacity="0" result="BackgroundImageFix"/>
<feGaussianBlur in="BackgroundImageFix" stdDeviation="3.95"/>
<feComposite in2="SourceAlpha" operator="in" result="effect1_backgroundBlur_140_638"/>
<feBlend mode="normal" in="SourceGraphic" in2="effect1_backgroundBlur_140_638" result="shape"/>
</filter>
</defs>
</svg>
