<svg width="21" height="21" viewBox="0 0 21 21" fill="none" xmlns="http://www.w3.org/2000/svg">
<path d="M11.9818 3.85418L10.1485 5.64286" stroke="#2B3445" stroke-width="1.4" stroke-linecap="round" stroke-linejoin="round"/>
<path d="M3.76474 7.58577L1.0625 6.87891" stroke="#2B3445" stroke-width="1.4" stroke-linecap="round" stroke-linejoin="round"/>
<path d="M4.65067 11.289L2.91144 13.1693" stroke="#2B3445" stroke-width="1.4" stroke-linecap="round" stroke-linejoin="round"/>
<path d="M5.64453 2.17188L6.4231 4.85433" stroke="#2B3445" stroke-width="1.4" stroke-linecap="round" stroke-linejoin="round"/>
<path d="M7.44376 9.09954C7.40663 9.01521 7.39554 8.92172 7.41191 8.83105C7.42829 8.74037 7.47138 8.65666 7.53566 8.59064C7.59994 8.52463 7.68247 8.47933 7.77268 8.46054C7.86288 8.44176 7.95664 8.45036 8.04193 8.48523L18.3099 12.527C18.4013 12.5631 18.4789 12.6272 18.5315 12.7102C18.5841 12.7932 18.609 12.8907 18.6027 12.9888C18.5964 13.0868 18.5591 13.1803 18.4963 13.2558C18.4334 13.3313 18.3482 13.385 18.2529 13.409L14.2282 14.4292C14.0621 14.4712 13.9108 14.5584 13.7911 14.6811C13.6715 14.8039 13.5882 14.9573 13.5503 15.1244L12.6386 19.1758C12.6174 19.272 12.5661 19.359 12.4922 19.4241C12.4183 19.4892 12.3256 19.5292 12.2275 19.5381C12.1294 19.5471 12.0309 19.5246 11.9465 19.4739C11.862 19.4233 11.7958 19.347 11.7575 19.2563L7.44376 9.09954Z" stroke="#2B3445" stroke-width="1.4" stroke-linecap="round" stroke-linejoin="round"/>
</svg>
