<svg width="21" height="21" viewBox="0 0 21 21" fill="none" xmlns="http://www.w3.org/2000/svg">
<path d="M6.90859 17.4991C8.5786 18.3557 10.4997 18.5878 12.3256 18.1534C14.1516 17.719 15.7623 16.6467 16.8676 15.1297C17.9729 13.6128 18.5001 11.7509 18.3541 9.87971C18.2081 8.00848 17.3986 6.25091 16.0714 4.92373C14.7442 3.59655 12.9867 2.78703 11.1155 2.64105C9.24422 2.49507 7.38238 3.02223 5.86544 4.12753C4.34849 5.23283 3.2762 6.84359 2.84179 8.66954C2.40738 10.4955 2.63942 12.4166 3.49609 14.0866L1.74609 19.2491L6.90859 17.4991Z" stroke="#2B3445" stroke-width="1.4" stroke-linecap="round" stroke-linejoin="round"/>
<path d="M10.5 6.99609V10.4961" stroke="#2B3445" stroke-width="1.4" stroke-linecap="round" stroke-linejoin="round"/>
<path d="M10.5 14.0039H10.51" stroke="#2B3445" stroke-width="1.4" stroke-linecap="round" stroke-linejoin="round"/>
</svg>
